G04 #@! TF.FileFunction,Soldermask,Bot*
%FSLAX46Y46*%
G04 Gerber Fmt 4.6, Leading zero omitted, Abs format (unit mm)*
G04 Created by KiCad (PCBNEW 4.0.2+dfsg1-stable) date ma. 28. mai 2018 kl. 15.54 +0200*
%MOMM*%
G01*
G04 APERTURE LIST*
%ADD10C,0.100000*%
%ADD11O,2.127200X2.127200*%
%ADD12C,3.600000*%
%ADD13R,1.700000X1.700000*%
%ADD14C,1.700000*%
%ADD15R,2.400000X2.400000*%
%ADD16C,2.400000*%
%ADD17O,2.000000X2.700000*%
%ADD18C,4.400500*%
%ADD19R,2.127200X2.432000*%
%ADD20O,2.127200X2.432000*%
%ADD21R,2.127200X2.127200*%
%ADD22R,2.432000X2.127200*%
%ADD23O,2.432000X2.127200*%
%ADD24C,2.398980*%
%ADD25O,1.901140X2.899360*%
%ADD26O,2.700000X2.000000*%
%ADD27C,1.901140*%
%ADD28R,2.398980X2.398980*%
G04 APERTURE END LIST*
D10*
D11*
X212087000Y-79720000D03*
X214627000Y-79720000D03*
X214627000Y-77180000D03*
X212087000Y-77180000D03*
X214627000Y-74640000D03*
X199260000Y-102580000D03*
X194180000Y-102580000D03*
X191640000Y-102580000D03*
X189100000Y-102580000D03*
X186560000Y-102580000D03*
X184020000Y-102580000D03*
X181480000Y-102580000D03*
X178940000Y-102580000D03*
X234820000Y-54320000D03*
X232280000Y-54320000D03*
X229740000Y-54320000D03*
X227200000Y-54320000D03*
X224660000Y-54320000D03*
X222120000Y-54320000D03*
X219580000Y-54320000D03*
X217040000Y-54320000D03*
X211960000Y-54320000D03*
X209420000Y-54320000D03*
X206880000Y-54320000D03*
X204340000Y-54320000D03*
X201800000Y-54320000D03*
X199260000Y-54320000D03*
X196720000Y-54320000D03*
X194180000Y-54320000D03*
X174876000Y-54320000D03*
X190116000Y-54320000D03*
X187576000Y-54320000D03*
X185036000Y-54320000D03*
D12*
X214500000Y-97500000D03*
X214500000Y-69560000D03*
X238630000Y-54320000D03*
X163700000Y-54320000D03*
X244980000Y-102580000D03*
X162430000Y-102580000D03*
D11*
X167256000Y-54320000D03*
X169796000Y-54320000D03*
X172336000Y-54320000D03*
X177416000Y-54320000D03*
X179956000Y-54320000D03*
X182496000Y-54320000D03*
X176400000Y-102580000D03*
X201800000Y-102580000D03*
X204340000Y-102580000D03*
X206880000Y-102580000D03*
X209420000Y-102580000D03*
X211960000Y-102580000D03*
X214500000Y-102580000D03*
X217040000Y-102580000D03*
X222120000Y-102580000D03*
X224660000Y-102580000D03*
X227200000Y-102580000D03*
X229740000Y-102580000D03*
X232280000Y-102580000D03*
X234820000Y-102580000D03*
X237360000Y-102580000D03*
X239900000Y-102580000D03*
X242440000Y-54320000D03*
X244980000Y-54320000D03*
X242440000Y-56860000D03*
X244980000Y-56860000D03*
X242440000Y-59400000D03*
X244980000Y-59400000D03*
X242440000Y-61940000D03*
X244980000Y-61940000D03*
X242440000Y-64480000D03*
X244980000Y-64480000D03*
X242440000Y-67020000D03*
X244980000Y-67020000D03*
X242440000Y-69560000D03*
X244980000Y-69560000D03*
X242440000Y-72100000D03*
X244980000Y-72100000D03*
X242440000Y-74640000D03*
X244980000Y-74640000D03*
X242440000Y-77180000D03*
X244980000Y-77180000D03*
X242440000Y-79720000D03*
X244980000Y-79720000D03*
X242440000Y-82260000D03*
X244980000Y-82260000D03*
X242440000Y-84800000D03*
X244980000Y-84800000D03*
X242440000Y-87340000D03*
X244980000Y-87340000D03*
X242440000Y-89880000D03*
X244980000Y-89880000D03*
X242440000Y-92420000D03*
X244980000Y-92420000D03*
X242440000Y-94960000D03*
X244980000Y-94960000D03*
X242440000Y-97500000D03*
X244980000Y-97500000D03*
X212087000Y-74640000D03*
D13*
X247500000Y-132000000D03*
D14*
X247500000Y-129500000D03*
D13*
X227500000Y-132000000D03*
D14*
X227500000Y-129500000D03*
X173500000Y-85000000D03*
D13*
X170000000Y-85000000D03*
X182500000Y-67500000D03*
D14*
X182500000Y-70000000D03*
D13*
X182500000Y-62500000D03*
D14*
X185000000Y-62500000D03*
D13*
X182500000Y-77500000D03*
D14*
X182500000Y-75000000D03*
D13*
X182500000Y-82500000D03*
D14*
X182500000Y-85000000D03*
D13*
X170000000Y-95000000D03*
D14*
X173800000Y-95000000D03*
D15*
X220000000Y-132000000D03*
D16*
X217460000Y-132000000D03*
D17*
X217500000Y-124500000D03*
X220040000Y-124500000D03*
X222580000Y-124500000D03*
X225120000Y-124500000D03*
X227660000Y-124500000D03*
X230200000Y-124500000D03*
X232740000Y-124500000D03*
X235280000Y-124500000D03*
X237820000Y-124500000D03*
X240360000Y-124500000D03*
X242900000Y-124500000D03*
X245440000Y-124500000D03*
X247980000Y-124500000D03*
X250520000Y-124500000D03*
X250520000Y-116880000D03*
X247980000Y-116880000D03*
X245440000Y-116880000D03*
X242900000Y-116880000D03*
X240360000Y-116880000D03*
X237820000Y-116880000D03*
X235280000Y-116880000D03*
X232740000Y-116880000D03*
X230200000Y-116880000D03*
X227660000Y-116880000D03*
X225120000Y-116880000D03*
X222580000Y-116880000D03*
X220040000Y-116880000D03*
X217500000Y-116880000D03*
D18*
X180000000Y-139500000D03*
X169840000Y-139500000D03*
X217500000Y-139500000D03*
X227660000Y-139500000D03*
X192500000Y-139500000D03*
X202660000Y-139500000D03*
X252500000Y-139500000D03*
X242340000Y-139500000D03*
D19*
X238660000Y-83000000D03*
D20*
X236120000Y-83000000D03*
X233580000Y-83000000D03*
X231040000Y-83000000D03*
X228500000Y-83000000D03*
X225960000Y-83000000D03*
X223420000Y-83000000D03*
X220880000Y-83000000D03*
X218340000Y-83000000D03*
D19*
X237500000Y-75000000D03*
D20*
X234960000Y-75000000D03*
X232420000Y-75000000D03*
X229880000Y-75000000D03*
X227340000Y-75000000D03*
X224800000Y-75000000D03*
X222260000Y-75000000D03*
X219720000Y-75000000D03*
D19*
X232500000Y-62500000D03*
D20*
X229960000Y-62500000D03*
X227420000Y-62500000D03*
X224880000Y-62500000D03*
X222340000Y-62500000D03*
D19*
X195000000Y-97500000D03*
D20*
X192460000Y-97500000D03*
X189920000Y-97500000D03*
X187380000Y-97500000D03*
D21*
X177500000Y-57500000D03*
D11*
X174960000Y-57500000D03*
D19*
X220000000Y-92500000D03*
D20*
X217460000Y-92500000D03*
X214920000Y-92500000D03*
X212380000Y-92500000D03*
X209840000Y-92500000D03*
X207300000Y-92500000D03*
X204760000Y-92500000D03*
X202220000Y-92500000D03*
D19*
X187500000Y-57500000D03*
D20*
X190040000Y-57500000D03*
X192580000Y-57500000D03*
X195120000Y-57500000D03*
X197660000Y-57500000D03*
X200200000Y-57500000D03*
X202740000Y-57500000D03*
X205280000Y-57500000D03*
D22*
X252500000Y-95000000D03*
D23*
X252500000Y-92460000D03*
X252500000Y-89920000D03*
D21*
X167500000Y-57500000D03*
D11*
X170040000Y-57500000D03*
D21*
X210000000Y-57500000D03*
D11*
X212540000Y-57500000D03*
D21*
X180000000Y-97500000D03*
D11*
X182540000Y-97500000D03*
D24*
X177500000Y-114500000D03*
X177500000Y-124660000D03*
X172500000Y-114500000D03*
X172500000Y-124660000D03*
X207500000Y-122000000D03*
X197340000Y-122000000D03*
X202500000Y-132000000D03*
X212660000Y-132000000D03*
X185000000Y-132000000D03*
X195160000Y-132000000D03*
X197500000Y-117000000D03*
X207660000Y-117000000D03*
X207500000Y-127000000D03*
X197340000Y-127000000D03*
X177500000Y-77500000D03*
X167340000Y-77500000D03*
X167500000Y-70000000D03*
X177660000Y-70000000D03*
D25*
X187500000Y-124500000D03*
X184960000Y-124500000D03*
X190040000Y-124500000D03*
X187500000Y-117000000D03*
X184960000Y-117000000D03*
X190040000Y-117000000D03*
D26*
X190000000Y-67500000D03*
X190000000Y-70040000D03*
X190000000Y-72580000D03*
X190000000Y-75120000D03*
X190000000Y-77660000D03*
X190000000Y-80200000D03*
X190000000Y-82740000D03*
X190000000Y-85280000D03*
X197620000Y-85280000D03*
X197620000Y-82740000D03*
X197620000Y-80200000D03*
X197620000Y-77660000D03*
X197620000Y-75120000D03*
X197620000Y-72580000D03*
X197620000Y-70040000D03*
X197620000Y-67500000D03*
D25*
X172500000Y-65000000D03*
X169960000Y-65000000D03*
X175040000Y-65000000D03*
D27*
X235059060Y-132000000D03*
X239940940Y-132000000D03*
D28*
X252500000Y-134540000D03*
X252500000Y-129460000D03*
D22*
X265000000Y-106000000D03*
D23*
X265000000Y-103460000D03*
X265000000Y-100920000D03*
X265000000Y-98380000D03*
X265000000Y-95840000D03*
X265000000Y-93300000D03*
D22*
X265000000Y-127780000D03*
D23*
X265000000Y-125240000D03*
X265000000Y-122700000D03*
X265000000Y-120160000D03*
X265000000Y-117620000D03*
X265000000Y-115080000D03*
X265000000Y-112540000D03*
X265000000Y-110000000D03*
D21*
X237080000Y-35000000D03*
D11*
X237080000Y-37540000D03*
X234540000Y-35000000D03*
X234540000Y-37540000D03*
X232000000Y-35000000D03*
X232000000Y-37540000D03*
X229460000Y-35000000D03*
X229460000Y-37540000D03*
X226920000Y-35000000D03*
X226920000Y-37540000D03*
X224380000Y-35000000D03*
X224380000Y-37540000D03*
X221840000Y-35000000D03*
X221840000Y-37540000D03*
X219300000Y-35000000D03*
X219300000Y-37540000D03*
X216760000Y-35000000D03*
X216760000Y-37540000D03*
X214220000Y-35000000D03*
X214220000Y-37540000D03*
X211680000Y-35000000D03*
X211680000Y-37540000D03*
X209140000Y-35000000D03*
X209140000Y-37540000D03*
X206600000Y-35000000D03*
X206600000Y-37540000D03*
X204060000Y-35000000D03*
X204060000Y-37540000D03*
X201520000Y-35000000D03*
X201520000Y-37540000D03*
X198980000Y-35000000D03*
X198980000Y-37540000D03*
X196440000Y-35000000D03*
X196440000Y-37540000D03*
X193900000Y-35000000D03*
X193900000Y-37540000D03*
X191360000Y-35000000D03*
X191360000Y-37540000D03*
X188820000Y-35000000D03*
X188820000Y-37540000D03*
M02*
