G04 #@! TF.FileFunction,Legend,Bot*
%FSLAX46Y46*%
G04 Gerber Fmt 4.6, Leading zero omitted, Abs format (unit mm)*
G04 Created by KiCad (PCBNEW 4.0.2+dfsg1-stable) date ma. 28. mai 2018 kl. 14.59 +0200*
%MOMM*%
G01*
G04 APERTURE LIST*
%ADD10C,0.100000*%
%ADD11C,0.300000*%
%ADD12C,0.150000*%
G04 APERTURE END LIST*
D10*
D11*
X255482142Y-110153571D02*
X255482142Y-108653571D01*
X254910714Y-108653571D01*
X254767856Y-108725000D01*
X254696428Y-108796429D01*
X254624999Y-108939286D01*
X254624999Y-109153571D01*
X254696428Y-109296429D01*
X254767856Y-109367857D01*
X254910714Y-109439286D01*
X255482142Y-109439286D01*
X253767856Y-110153571D02*
X253910714Y-110082143D01*
X253982142Y-110010714D01*
X254053571Y-109867857D01*
X254053571Y-109439286D01*
X253982142Y-109296429D01*
X253910714Y-109225000D01*
X253767856Y-109153571D01*
X253553571Y-109153571D01*
X253410714Y-109225000D01*
X253339285Y-109296429D01*
X253267856Y-109439286D01*
X253267856Y-109867857D01*
X253339285Y-110010714D01*
X253410714Y-110082143D01*
X253553571Y-110153571D01*
X253767856Y-110153571D01*
X252767856Y-109153571D02*
X252482142Y-110153571D01*
X252196428Y-109439286D01*
X251910713Y-110153571D01*
X251624999Y-109153571D01*
X250482142Y-110082143D02*
X250624999Y-110153571D01*
X250910713Y-110153571D01*
X251053570Y-110082143D01*
X251124999Y-109939286D01*
X251124999Y-109367857D01*
X251053570Y-109225000D01*
X250910713Y-109153571D01*
X250624999Y-109153571D01*
X250482142Y-109225000D01*
X250410713Y-109367857D01*
X250410713Y-109510714D01*
X251124999Y-109653571D01*
X249767856Y-110153571D02*
X249767856Y-109153571D01*
X249767856Y-109439286D02*
X249696428Y-109296429D01*
X249624999Y-109225000D01*
X249482142Y-109153571D01*
X249339285Y-109153571D01*
X247053571Y-110153571D02*
X247053571Y-109367857D01*
X247125000Y-109225000D01*
X247267857Y-109153571D01*
X247553571Y-109153571D01*
X247696428Y-109225000D01*
X247053571Y-110082143D02*
X247196428Y-110153571D01*
X247553571Y-110153571D01*
X247696428Y-110082143D01*
X247767857Y-109939286D01*
X247767857Y-109796429D01*
X247696428Y-109653571D01*
X247553571Y-109582143D01*
X247196428Y-109582143D01*
X247053571Y-109510714D01*
X246339285Y-109153571D02*
X246339285Y-110153571D01*
X246339285Y-109296429D02*
X246267857Y-109225000D01*
X246124999Y-109153571D01*
X245910714Y-109153571D01*
X245767857Y-109225000D01*
X245696428Y-109367857D01*
X245696428Y-110153571D01*
X244339285Y-110153571D02*
X244339285Y-108653571D01*
X244339285Y-110082143D02*
X244482142Y-110153571D01*
X244767856Y-110153571D01*
X244910714Y-110082143D01*
X244982142Y-110010714D01*
X245053571Y-109867857D01*
X245053571Y-109439286D01*
X244982142Y-109296429D01*
X244910714Y-109225000D01*
X244767856Y-109153571D01*
X244482142Y-109153571D01*
X244339285Y-109225000D01*
X241767856Y-110153571D02*
X242482142Y-110153571D01*
X242482142Y-108653571D01*
X241053570Y-110153571D02*
X241196428Y-110082143D01*
X241267856Y-110010714D01*
X241339285Y-109867857D01*
X241339285Y-109439286D01*
X241267856Y-109296429D01*
X241196428Y-109225000D01*
X241053570Y-109153571D01*
X240839285Y-109153571D01*
X240696428Y-109225000D01*
X240624999Y-109296429D01*
X240553570Y-109439286D01*
X240553570Y-109867857D01*
X240624999Y-110010714D01*
X240696428Y-110082143D01*
X240839285Y-110153571D01*
X241053570Y-110153571D01*
X239267856Y-109153571D02*
X239267856Y-110367857D01*
X239339285Y-110510714D01*
X239410713Y-110582143D01*
X239553570Y-110653571D01*
X239767856Y-110653571D01*
X239910713Y-110582143D01*
X239267856Y-110082143D02*
X239410713Y-110153571D01*
X239696427Y-110153571D01*
X239839285Y-110082143D01*
X239910713Y-110010714D01*
X239982142Y-109867857D01*
X239982142Y-109439286D01*
X239910713Y-109296429D01*
X239839285Y-109225000D01*
X239696427Y-109153571D01*
X239410713Y-109153571D01*
X239267856Y-109225000D01*
X237910713Y-109153571D02*
X237910713Y-110367857D01*
X237982142Y-110510714D01*
X238053570Y-110582143D01*
X238196427Y-110653571D01*
X238410713Y-110653571D01*
X238553570Y-110582143D01*
X237910713Y-110082143D02*
X238053570Y-110153571D01*
X238339284Y-110153571D01*
X238482142Y-110082143D01*
X238553570Y-110010714D01*
X238624999Y-109867857D01*
X238624999Y-109439286D01*
X238553570Y-109296429D01*
X238482142Y-109225000D01*
X238339284Y-109153571D01*
X238053570Y-109153571D01*
X237910713Y-109225000D01*
X236624999Y-110082143D02*
X236767856Y-110153571D01*
X237053570Y-110153571D01*
X237196427Y-110082143D01*
X237267856Y-109939286D01*
X237267856Y-109367857D01*
X237196427Y-109225000D01*
X237053570Y-109153571D01*
X236767856Y-109153571D01*
X236624999Y-109225000D01*
X236553570Y-109367857D01*
X236553570Y-109510714D01*
X237267856Y-109653571D01*
X235910713Y-110153571D02*
X235910713Y-109153571D01*
X235910713Y-109439286D02*
X235839285Y-109296429D01*
X235767856Y-109225000D01*
X235624999Y-109153571D01*
X235482142Y-109153571D01*
X233982142Y-109153571D02*
X233696428Y-110153571D01*
X233410714Y-109439286D01*
X233124999Y-110153571D01*
X232839285Y-109153571D01*
X232267856Y-110153571D02*
X232267856Y-109153571D01*
X232267856Y-108653571D02*
X232339285Y-108725000D01*
X232267856Y-108796429D01*
X232196428Y-108725000D01*
X232267856Y-108653571D01*
X232267856Y-108796429D01*
X231767856Y-109153571D02*
X231196427Y-109153571D01*
X231553570Y-108653571D02*
X231553570Y-109939286D01*
X231482142Y-110082143D01*
X231339284Y-110153571D01*
X231196427Y-110153571D01*
X230696427Y-110153571D02*
X230696427Y-108653571D01*
X230053570Y-110153571D02*
X230053570Y-109367857D01*
X230124999Y-109225000D01*
X230267856Y-109153571D01*
X230482141Y-109153571D01*
X230624999Y-109225000D01*
X230696427Y-109296429D01*
X228196427Y-110153571D02*
X228196427Y-108653571D01*
X227553570Y-110153571D02*
X227553570Y-109367857D01*
X227624999Y-109225000D01*
X227767856Y-109153571D01*
X227982141Y-109153571D01*
X228124999Y-109225000D01*
X228196427Y-109296429D01*
X226267856Y-110082143D02*
X226410713Y-110153571D01*
X226696427Y-110153571D01*
X226839284Y-110082143D01*
X226910713Y-109939286D01*
X226910713Y-109367857D01*
X226839284Y-109225000D01*
X226696427Y-109153571D01*
X226410713Y-109153571D01*
X226267856Y-109225000D01*
X226196427Y-109367857D01*
X226196427Y-109510714D01*
X226910713Y-109653571D01*
X224910713Y-110153571D02*
X224910713Y-109367857D01*
X224982142Y-109225000D01*
X225124999Y-109153571D01*
X225410713Y-109153571D01*
X225553570Y-109225000D01*
X224910713Y-110082143D02*
X225053570Y-110153571D01*
X225410713Y-110153571D01*
X225553570Y-110082143D01*
X225624999Y-109939286D01*
X225624999Y-109796429D01*
X225553570Y-109653571D01*
X225410713Y-109582143D01*
X225053570Y-109582143D01*
X224910713Y-109510714D01*
X223553570Y-110153571D02*
X223553570Y-108653571D01*
X223553570Y-110082143D02*
X223696427Y-110153571D01*
X223982141Y-110153571D01*
X224124999Y-110082143D01*
X224196427Y-110010714D01*
X224267856Y-109867857D01*
X224267856Y-109439286D01*
X224196427Y-109296429D01*
X224124999Y-109225000D01*
X223982141Y-109153571D01*
X223696427Y-109153571D01*
X223553570Y-109225000D01*
X222267856Y-110082143D02*
X222410713Y-110153571D01*
X222696427Y-110153571D01*
X222839284Y-110082143D01*
X222910713Y-109939286D01*
X222910713Y-109367857D01*
X222839284Y-109225000D01*
X222696427Y-109153571D01*
X222410713Y-109153571D01*
X222267856Y-109225000D01*
X222196427Y-109367857D01*
X222196427Y-109510714D01*
X222910713Y-109653571D01*
X221553570Y-110153571D02*
X221553570Y-109153571D01*
X221553570Y-109439286D02*
X221482142Y-109296429D01*
X221410713Y-109225000D01*
X221267856Y-109153571D01*
X221124999Y-109153571D01*
X220696428Y-110082143D02*
X220553571Y-110153571D01*
X220267856Y-110153571D01*
X220124999Y-110082143D01*
X220053571Y-109939286D01*
X220053571Y-109867857D01*
X220124999Y-109725000D01*
X220267856Y-109653571D01*
X220482142Y-109653571D01*
X220624999Y-109582143D01*
X220696428Y-109439286D01*
X220696428Y-109367857D01*
X220624999Y-109225000D01*
X220482142Y-109153571D01*
X220267856Y-109153571D01*
X220124999Y-109225000D01*
X218410713Y-109153571D02*
X218053570Y-110153571D01*
X217696428Y-109153571D01*
X216339285Y-110153571D02*
X217196428Y-110153571D01*
X216767856Y-110153571D02*
X216767856Y-108653571D01*
X216910713Y-108867857D01*
X217053571Y-109010714D01*
X217196428Y-109082143D01*
X215696428Y-110010714D02*
X215625000Y-110082143D01*
X215696428Y-110153571D01*
X215767857Y-110082143D01*
X215696428Y-110010714D01*
X215696428Y-110153571D01*
X214696428Y-108653571D02*
X214553571Y-108653571D01*
X214410714Y-108725000D01*
X214339285Y-108796429D01*
X214267856Y-108939286D01*
X214196428Y-109225000D01*
X214196428Y-109582143D01*
X214267856Y-109867857D01*
X214339285Y-110010714D01*
X214410714Y-110082143D01*
X214553571Y-110153571D01*
X214696428Y-110153571D01*
X214839285Y-110082143D01*
X214910714Y-110010714D01*
X214982142Y-109867857D01*
X215053571Y-109582143D01*
X215053571Y-109225000D01*
X214982142Y-108939286D01*
X214910714Y-108796429D01*
X214839285Y-108725000D01*
X214696428Y-108653571D01*
X244375001Y-111053571D02*
X244375001Y-112125000D01*
X244446429Y-112339286D01*
X244589286Y-112482143D01*
X244803572Y-112553571D01*
X244946429Y-112553571D01*
X243089287Y-112482143D02*
X243232144Y-112553571D01*
X243517858Y-112553571D01*
X243660715Y-112482143D01*
X243732144Y-112339286D01*
X243732144Y-111767857D01*
X243660715Y-111625000D01*
X243517858Y-111553571D01*
X243232144Y-111553571D01*
X243089287Y-111625000D01*
X243017858Y-111767857D01*
X243017858Y-111910714D01*
X243732144Y-112053571D01*
X241732144Y-112553571D02*
X241732144Y-111767857D01*
X241803573Y-111625000D01*
X241946430Y-111553571D01*
X242232144Y-111553571D01*
X242375001Y-111625000D01*
X241732144Y-112482143D02*
X241875001Y-112553571D01*
X242232144Y-112553571D01*
X242375001Y-112482143D01*
X242446430Y-112339286D01*
X242446430Y-112196429D01*
X242375001Y-112053571D01*
X242232144Y-111982143D01*
X241875001Y-111982143D01*
X241732144Y-111910714D01*
X241017858Y-111553571D02*
X241017858Y-112553571D01*
X241017858Y-111696429D02*
X240946430Y-111625000D01*
X240803572Y-111553571D01*
X240589287Y-111553571D01*
X240446430Y-111625000D01*
X240375001Y-111767857D01*
X240375001Y-112553571D01*
X237660715Y-112553571D02*
X238160715Y-111839286D01*
X238517858Y-112553571D02*
X238517858Y-111053571D01*
X237946430Y-111053571D01*
X237803572Y-111125000D01*
X237732144Y-111196429D01*
X237660715Y-111339286D01*
X237660715Y-111553571D01*
X237732144Y-111696429D01*
X237803572Y-111767857D01*
X237946430Y-111839286D01*
X238517858Y-111839286D01*
X236375001Y-112553571D02*
X236375001Y-111767857D01*
X236446430Y-111625000D01*
X236589287Y-111553571D01*
X236875001Y-111553571D01*
X237017858Y-111625000D01*
X236375001Y-112482143D02*
X236517858Y-112553571D01*
X236875001Y-112553571D01*
X237017858Y-112482143D01*
X237089287Y-112339286D01*
X237089287Y-112196429D01*
X237017858Y-112053571D01*
X236875001Y-111982143D01*
X236517858Y-111982143D01*
X236375001Y-111910714D01*
X235660715Y-112553571D02*
X235660715Y-111053571D01*
X235660715Y-111625000D02*
X235517858Y-111553571D01*
X235232144Y-111553571D01*
X235089287Y-111625000D01*
X235017858Y-111696429D01*
X234946429Y-111839286D01*
X234946429Y-112267857D01*
X235017858Y-112410714D01*
X235089287Y-112482143D01*
X235232144Y-112553571D01*
X235517858Y-112553571D01*
X235660715Y-112482143D01*
X233660715Y-112553571D02*
X233660715Y-111767857D01*
X233732144Y-111625000D01*
X233875001Y-111553571D01*
X234160715Y-111553571D01*
X234303572Y-111625000D01*
X233660715Y-112482143D02*
X233803572Y-112553571D01*
X234160715Y-112553571D01*
X234303572Y-112482143D01*
X234375001Y-112339286D01*
X234375001Y-112196429D01*
X234303572Y-112053571D01*
X234160715Y-111982143D01*
X233803572Y-111982143D01*
X233660715Y-111910714D01*
X232303572Y-111553571D02*
X232303572Y-112553571D01*
X232946429Y-111553571D02*
X232946429Y-112339286D01*
X232875001Y-112482143D01*
X232732143Y-112553571D01*
X232517858Y-112553571D01*
X232375001Y-112482143D01*
X232303572Y-112410714D01*
X231375000Y-112553571D02*
X231517858Y-112482143D01*
X231589286Y-112339286D01*
X231589286Y-111053571D01*
X231017858Y-111553571D02*
X230446429Y-111553571D01*
X230803572Y-111053571D02*
X230803572Y-112339286D01*
X230732144Y-112482143D01*
X230589286Y-112553571D01*
X230446429Y-112553571D01*
X229875001Y-112482143D02*
X229875001Y-112553571D01*
X229946429Y-112696429D01*
X230017858Y-112767857D01*
X228089286Y-111053571D02*
X228089286Y-112267857D01*
X228017858Y-112410714D01*
X227946429Y-112482143D01*
X227803572Y-112553571D01*
X227517858Y-112553571D01*
X227375000Y-112482143D01*
X227303572Y-112410714D01*
X227232143Y-112267857D01*
X227232143Y-111053571D01*
X226517857Y-112553571D02*
X226517857Y-111553571D01*
X226517857Y-111053571D02*
X226589286Y-111125000D01*
X226517857Y-111196429D01*
X226446429Y-111125000D01*
X226517857Y-111053571D01*
X226517857Y-111196429D01*
X225517857Y-111053571D02*
X225232143Y-111053571D01*
X225089285Y-111125000D01*
X224946428Y-111267857D01*
X224875000Y-111553571D01*
X224875000Y-112053571D01*
X224946428Y-112339286D01*
X225089285Y-112482143D01*
X225232143Y-112553571D01*
X225517857Y-112553571D01*
X225660714Y-112482143D01*
X225803571Y-112339286D01*
X225875000Y-112053571D01*
X225875000Y-111553571D01*
X225803571Y-111267857D01*
X225660714Y-111125000D01*
X225517857Y-111053571D01*
X239446427Y-113453571D02*
X239303570Y-113453571D01*
X239160713Y-113525000D01*
X239089284Y-113596429D01*
X239017855Y-113739286D01*
X238946427Y-114025000D01*
X238946427Y-114382143D01*
X239017855Y-114667857D01*
X239089284Y-114810714D01*
X239160713Y-114882143D01*
X239303570Y-114953571D01*
X239446427Y-114953571D01*
X239589284Y-114882143D01*
X239660713Y-114810714D01*
X239732141Y-114667857D01*
X239803570Y-114382143D01*
X239803570Y-114025000D01*
X239732141Y-113739286D01*
X239660713Y-113596429D01*
X239589284Y-113525000D01*
X239446427Y-113453571D01*
X237589284Y-113453571D02*
X238303570Y-113453571D01*
X238374999Y-114167857D01*
X238303570Y-114096429D01*
X238160713Y-114025000D01*
X237803570Y-114025000D01*
X237660713Y-114096429D01*
X237589284Y-114167857D01*
X237517856Y-114310714D01*
X237517856Y-114667857D01*
X237589284Y-114810714D01*
X237660713Y-114882143D01*
X237803570Y-114953571D01*
X238160713Y-114953571D01*
X238303570Y-114882143D01*
X238374999Y-114810714D01*
X236874999Y-114382143D02*
X235732142Y-114382143D01*
X235089285Y-113596429D02*
X235017856Y-113525000D01*
X234874999Y-113453571D01*
X234517856Y-113453571D01*
X234374999Y-113525000D01*
X234303570Y-113596429D01*
X234232142Y-113739286D01*
X234232142Y-113882143D01*
X234303570Y-114096429D01*
X235160713Y-114953571D01*
X234232142Y-114953571D01*
X233303571Y-113453571D02*
X233160714Y-113453571D01*
X233017857Y-113525000D01*
X232946428Y-113596429D01*
X232874999Y-113739286D01*
X232803571Y-114025000D01*
X232803571Y-114382143D01*
X232874999Y-114667857D01*
X232946428Y-114810714D01*
X233017857Y-114882143D01*
X233160714Y-114953571D01*
X233303571Y-114953571D01*
X233446428Y-114882143D01*
X233517857Y-114810714D01*
X233589285Y-114667857D01*
X233660714Y-114382143D01*
X233660714Y-114025000D01*
X233589285Y-113739286D01*
X233517857Y-113596429D01*
X233446428Y-113525000D01*
X233303571Y-113453571D01*
X231375000Y-114953571D02*
X232232143Y-114953571D01*
X231803571Y-114953571D02*
X231803571Y-113453571D01*
X231946428Y-113667857D01*
X232089286Y-113810714D01*
X232232143Y-113882143D01*
X230517857Y-114096429D02*
X230660715Y-114025000D01*
X230732143Y-113953571D01*
X230803572Y-113810714D01*
X230803572Y-113739286D01*
X230732143Y-113596429D01*
X230660715Y-113525000D01*
X230517857Y-113453571D01*
X230232143Y-113453571D01*
X230089286Y-113525000D01*
X230017857Y-113596429D01*
X229946429Y-113739286D01*
X229946429Y-113810714D01*
X230017857Y-113953571D01*
X230089286Y-114025000D01*
X230232143Y-114096429D01*
X230517857Y-114096429D01*
X230660715Y-114167857D01*
X230732143Y-114239286D01*
X230803572Y-114382143D01*
X230803572Y-114667857D01*
X230732143Y-114810714D01*
X230660715Y-114882143D01*
X230517857Y-114953571D01*
X230232143Y-114953571D01*
X230089286Y-114882143D01*
X230017857Y-114810714D01*
X229946429Y-114667857D01*
X229946429Y-114382143D01*
X230017857Y-114239286D01*
X230089286Y-114167857D01*
X230232143Y-114096429D01*
D12*
X175886695Y-140155581D02*
X175886695Y-139155581D01*
X175505742Y-139155581D01*
X175410504Y-139203200D01*
X175362885Y-139250819D01*
X175315266Y-139346057D01*
X175315266Y-139488914D01*
X175362885Y-139584152D01*
X175410504Y-139631771D01*
X175505742Y-139679390D01*
X175886695Y-139679390D01*
X174362885Y-140155581D02*
X174934314Y-140155581D01*
X174648600Y-140155581D02*
X174648600Y-139155581D01*
X174743838Y-139298438D01*
X174839076Y-139393676D01*
X174934314Y-139441295D01*
M02*
