G04 #@! TF.FileFunction,Legend,Top*
%FSLAX46Y46*%
G04 Gerber Fmt 4.6, Leading zero omitted, Abs format (unit mm)*
G04 Created by KiCad (PCBNEW 4.0.2+dfsg1-stable) date ma. 28. mai 2018 kl. 14.59 +0200*
%MOMM*%
G01*
G04 APERTURE LIST*
%ADD10C,0.100000*%
%ADD11C,0.150000*%
G04 APERTURE END LIST*
D10*
D11*
X148460000Y-51780000D02*
X148460000Y-105120000D01*
X247520000Y-64480000D02*
X247520000Y-53304000D01*
X250060000Y-67020000D02*
X247520000Y-64480000D01*
X250060000Y-101310000D02*
X250060000Y-67020000D01*
X247520000Y-103850000D02*
X250060000Y-101310000D01*
X247520000Y-105120000D02*
X247520000Y-103850000D01*
X245996000Y-51780000D02*
X247520000Y-53304000D01*
X148460000Y-105120000D02*
X247520000Y-105120000D01*
X148460000Y-51780000D02*
X245996000Y-51780000D01*
X246250000Y-132250000D02*
X246250000Y-129250000D01*
X248750000Y-129250000D02*
X248750000Y-132250000D01*
X226250000Y-132250000D02*
X226250000Y-129250000D01*
X228750000Y-129250000D02*
X228750000Y-132250000D01*
X171825000Y-81001000D02*
X171825000Y-88999000D01*
X171965000Y-81006000D02*
X171965000Y-88994000D01*
X172105000Y-81016000D02*
X172105000Y-88984000D01*
X172245000Y-81031000D02*
X172245000Y-88969000D01*
X172385000Y-81051000D02*
X172385000Y-88949000D01*
X172525000Y-81076000D02*
X172525000Y-84778000D01*
X172525000Y-85222000D02*
X172525000Y-88924000D01*
X172665000Y-81106000D02*
X172665000Y-84450000D01*
X172665000Y-85550000D02*
X172665000Y-88894000D01*
X172805000Y-81142000D02*
X172805000Y-84281000D01*
X172805000Y-85719000D02*
X172805000Y-88858000D01*
X172945000Y-81183000D02*
X172945000Y-84168000D01*
X172945000Y-85832000D02*
X172945000Y-88817000D01*
X173085000Y-81229000D02*
X173085000Y-84090000D01*
X173085000Y-85910000D02*
X173085000Y-88771000D01*
X173225000Y-81282000D02*
X173225000Y-84039000D01*
X173225000Y-85961000D02*
X173225000Y-88718000D01*
X173365000Y-81341000D02*
X173365000Y-84009000D01*
X173365000Y-85991000D02*
X173365000Y-88659000D01*
X173505000Y-81406000D02*
X173505000Y-84000000D01*
X173505000Y-86000000D02*
X173505000Y-88594000D01*
X173645000Y-81477000D02*
X173645000Y-84011000D01*
X173645000Y-85989000D02*
X173645000Y-88523000D01*
X173785000Y-81556000D02*
X173785000Y-84041000D01*
X173785000Y-85959000D02*
X173785000Y-88444000D01*
X173925000Y-81643000D02*
X173925000Y-84095000D01*
X173925000Y-85905000D02*
X173925000Y-88357000D01*
X174065000Y-81738000D02*
X174065000Y-84175000D01*
X174065000Y-85825000D02*
X174065000Y-88262000D01*
X174205000Y-81842000D02*
X174205000Y-84291000D01*
X174205000Y-85709000D02*
X174205000Y-88158000D01*
X174345000Y-81956000D02*
X174345000Y-84465000D01*
X174345000Y-85535000D02*
X174345000Y-88044000D01*
X174485000Y-82081000D02*
X174485000Y-84827000D01*
X174485000Y-85173000D02*
X174485000Y-87919000D01*
X174625000Y-82219000D02*
X174625000Y-87781000D01*
X174765000Y-82371000D02*
X174765000Y-87629000D01*
X174905000Y-82541000D02*
X174905000Y-87459000D01*
X175045000Y-82732000D02*
X175045000Y-87268000D01*
X175185000Y-82950000D02*
X175185000Y-87050000D01*
X175325000Y-83206000D02*
X175325000Y-86794000D01*
X175465000Y-83517000D02*
X175465000Y-86483000D01*
X175605000Y-83933000D02*
X175605000Y-86067000D01*
X175745000Y-84800000D02*
X175745000Y-85200000D01*
X174500000Y-85000000D02*
G75*
G03X174500000Y-85000000I-1000000J0D01*
G01*
X175787500Y-85000000D02*
G75*
G03X175787500Y-85000000I-4037500J0D01*
G01*
X183750000Y-67250000D02*
X183750000Y-70250000D01*
X181250000Y-70250000D02*
X181250000Y-67250000D01*
X182250000Y-61250000D02*
X185250000Y-61250000D01*
X185250000Y-63750000D02*
X182250000Y-63750000D01*
X181250000Y-77750000D02*
X181250000Y-74750000D01*
X183750000Y-74750000D02*
X183750000Y-77750000D01*
X183750000Y-82250000D02*
X183750000Y-85250000D01*
X181250000Y-85250000D02*
X181250000Y-82250000D01*
X171975000Y-91001000D02*
X171975000Y-98999000D01*
X172115000Y-91006000D02*
X172115000Y-98994000D01*
X172255000Y-91016000D02*
X172255000Y-98984000D01*
X172395000Y-91031000D02*
X172395000Y-98969000D01*
X172535000Y-91051000D02*
X172535000Y-98949000D01*
X172675000Y-91076000D02*
X172675000Y-98924000D01*
X172815000Y-91106000D02*
X172815000Y-94827000D01*
X172815000Y-95173000D02*
X172815000Y-98894000D01*
X172955000Y-91142000D02*
X172955000Y-94465000D01*
X172955000Y-95535000D02*
X172955000Y-98858000D01*
X173095000Y-91183000D02*
X173095000Y-94291000D01*
X173095000Y-95709000D02*
X173095000Y-98817000D01*
X173235000Y-91229000D02*
X173235000Y-94175000D01*
X173235000Y-95825000D02*
X173235000Y-98771000D01*
X173375000Y-91282000D02*
X173375000Y-94095000D01*
X173375000Y-95905000D02*
X173375000Y-98718000D01*
X173515000Y-91341000D02*
X173515000Y-94041000D01*
X173515000Y-95959000D02*
X173515000Y-98659000D01*
X173655000Y-91406000D02*
X173655000Y-94011000D01*
X173655000Y-95989000D02*
X173655000Y-98594000D01*
X173795000Y-91477000D02*
X173795000Y-94000000D01*
X173795000Y-96000000D02*
X173795000Y-98523000D01*
X173935000Y-91556000D02*
X173935000Y-94009000D01*
X173935000Y-95991000D02*
X173935000Y-98444000D01*
X174075000Y-91643000D02*
X174075000Y-94039000D01*
X174075000Y-95961000D02*
X174075000Y-98357000D01*
X174215000Y-91738000D02*
X174215000Y-94090000D01*
X174215000Y-95910000D02*
X174215000Y-98262000D01*
X174355000Y-91842000D02*
X174355000Y-94168000D01*
X174355000Y-95832000D02*
X174355000Y-98158000D01*
X174495000Y-91956000D02*
X174495000Y-94281000D01*
X174495000Y-95719000D02*
X174495000Y-98044000D01*
X174635000Y-92081000D02*
X174635000Y-94450000D01*
X174635000Y-95550000D02*
X174635000Y-97919000D01*
X174775000Y-92219000D02*
X174775000Y-94778000D01*
X174775000Y-95222000D02*
X174775000Y-97781000D01*
X174915000Y-92371000D02*
X174915000Y-97629000D01*
X175055000Y-92541000D02*
X175055000Y-97459000D01*
X175195000Y-92732000D02*
X175195000Y-97268000D01*
X175335000Y-92950000D02*
X175335000Y-97050000D01*
X175475000Y-93206000D02*
X175475000Y-96794000D01*
X175615000Y-93517000D02*
X175615000Y-96483000D01*
X175755000Y-93933000D02*
X175755000Y-96067000D01*
X175895000Y-94800000D02*
X175895000Y-95200000D01*
X174800000Y-95000000D02*
G75*
G03X174800000Y-95000000I-1000000J0D01*
G01*
X175937500Y-95000000D02*
G75*
G03X175937500Y-95000000I-4037500J0D01*
G01*
X220199000Y-130686000D02*
X220199000Y-130886000D01*
X220199000Y-133280000D02*
X220199000Y-133100000D01*
X216971256Y-132969643D02*
G75*
G03X220199000Y-133286000I1727744J1003643D01*
G01*
X217646994Y-133099068D02*
G75*
G03X219750000Y-133100000I1052006J1133068D01*
G01*
X220186220Y-130659274D02*
G75*
G03X216949000Y-131006000I-1497220J-1306726D01*
G01*
X219712889Y-130886747D02*
G75*
G03X217665000Y-130906000I-1013889J-1079253D01*
G01*
X215205000Y-124365000D02*
X216475000Y-124365000D01*
X215205000Y-117015000D02*
X216475000Y-117015000D01*
X252815000Y-117015000D02*
X251545000Y-117015000D01*
X252815000Y-124365000D02*
X251545000Y-124365000D01*
X215205000Y-124365000D02*
X215205000Y-117015000D01*
X252815000Y-124365000D02*
X252815000Y-117015000D01*
X216475000Y-124365000D02*
X216475000Y-125650000D01*
X237390000Y-84270000D02*
X217070000Y-84270000D01*
X217070000Y-84270000D02*
X217070000Y-81730000D01*
X217070000Y-81730000D02*
X237390000Y-81730000D01*
X240210000Y-84550000D02*
X238660000Y-84550000D01*
X237390000Y-84270000D02*
X237390000Y-81730000D01*
X238660000Y-81450000D02*
X240210000Y-81450000D01*
X240210000Y-81450000D02*
X240210000Y-84550000D01*
X236230000Y-76270000D02*
X218450000Y-76270000D01*
X218450000Y-76270000D02*
X218450000Y-73730000D01*
X218450000Y-73730000D02*
X236230000Y-73730000D01*
X239050000Y-76550000D02*
X237500000Y-76550000D01*
X236230000Y-76270000D02*
X236230000Y-73730000D01*
X237500000Y-73450000D02*
X239050000Y-73450000D01*
X239050000Y-73450000D02*
X239050000Y-76550000D01*
X232500000Y-60950000D02*
X234050000Y-60950000D01*
X234050000Y-60950000D02*
X234050000Y-64050000D01*
X234050000Y-64050000D02*
X232500000Y-64050000D01*
X231230000Y-63770000D02*
X221070000Y-63770000D01*
X221070000Y-63770000D02*
X221070000Y-61230000D01*
X221070000Y-61230000D02*
X231230000Y-61230000D01*
X231230000Y-63770000D02*
X231230000Y-61230000D01*
X193730000Y-96230000D02*
X186110000Y-96230000D01*
X193730000Y-98770000D02*
X186110000Y-98770000D01*
X196550000Y-99050000D02*
X195000000Y-99050000D01*
X186110000Y-96230000D02*
X186110000Y-98770000D01*
X193730000Y-98770000D02*
X193730000Y-96230000D01*
X195000000Y-95950000D02*
X196550000Y-95950000D01*
X196550000Y-95950000D02*
X196550000Y-99050000D01*
X179050000Y-57500000D02*
X179050000Y-59050000D01*
X177500000Y-59050000D02*
X179050000Y-59050000D01*
X178770000Y-56230000D02*
X176230000Y-56230000D01*
X173690000Y-58770000D02*
X176230000Y-58770000D01*
X176230000Y-58770000D02*
X176230000Y-56230000D01*
X176230000Y-56230000D02*
X173690000Y-56230000D01*
X173690000Y-56230000D02*
X173690000Y-58770000D01*
X218730000Y-93770000D02*
X200950000Y-93770000D01*
X200950000Y-93770000D02*
X200950000Y-91230000D01*
X200950000Y-91230000D02*
X218730000Y-91230000D01*
X221550000Y-94050000D02*
X220000000Y-94050000D01*
X218730000Y-93770000D02*
X218730000Y-91230000D01*
X220000000Y-90950000D02*
X221550000Y-90950000D01*
X221550000Y-90950000D02*
X221550000Y-94050000D01*
X188770000Y-56230000D02*
X206550000Y-56230000D01*
X206550000Y-56230000D02*
X206550000Y-58770000D01*
X206550000Y-58770000D02*
X188770000Y-58770000D01*
X185950000Y-55950000D02*
X187500000Y-55950000D01*
X188770000Y-56230000D02*
X188770000Y-58770000D01*
X187500000Y-59050000D02*
X185950000Y-59050000D01*
X185950000Y-59050000D02*
X185950000Y-55950000D01*
X253770000Y-93730000D02*
X253770000Y-88650000D01*
X253770000Y-88650000D02*
X251230000Y-88650000D01*
X251230000Y-88650000D02*
X251230000Y-93730000D01*
X250950000Y-96550000D02*
X250950000Y-95000000D01*
X251230000Y-93730000D02*
X253770000Y-93730000D01*
X254050000Y-95000000D02*
X254050000Y-96550000D01*
X254050000Y-96550000D02*
X250950000Y-96550000D01*
X165950000Y-57500000D02*
X165950000Y-55950000D01*
X167500000Y-55950000D02*
X165950000Y-55950000D01*
X166230000Y-58770000D02*
X168770000Y-58770000D01*
X171310000Y-56230000D02*
X168770000Y-56230000D01*
X168770000Y-56230000D02*
X168770000Y-58770000D01*
X168770000Y-58770000D02*
X171310000Y-58770000D01*
X171310000Y-58770000D02*
X171310000Y-56230000D01*
X208450000Y-57500000D02*
X208450000Y-55950000D01*
X210000000Y-55950000D02*
X208450000Y-55950000D01*
X208730000Y-58770000D02*
X211270000Y-58770000D01*
X213810000Y-56230000D02*
X211270000Y-56230000D01*
X211270000Y-56230000D02*
X211270000Y-58770000D01*
X211270000Y-58770000D02*
X213810000Y-58770000D01*
X213810000Y-58770000D02*
X213810000Y-56230000D01*
X178450000Y-97500000D02*
X178450000Y-95950000D01*
X180000000Y-95950000D02*
X178450000Y-95950000D01*
X178730000Y-98770000D02*
X181270000Y-98770000D01*
X183810000Y-96230000D02*
X181270000Y-96230000D01*
X181270000Y-96230000D02*
X181270000Y-98770000D01*
X181270000Y-98770000D02*
X183810000Y-98770000D01*
X183810000Y-98770000D02*
X183810000Y-96230000D01*
X178770000Y-117040000D02*
X178770000Y-122120000D01*
X178770000Y-122120000D02*
X176230000Y-122120000D01*
X176230000Y-122120000D02*
X176230000Y-117040000D01*
X176230000Y-117040000D02*
X178770000Y-117040000D01*
X177500000Y-117040000D02*
X177500000Y-115770000D01*
X177500000Y-122120000D02*
X177500000Y-123390000D01*
X173770000Y-117040000D02*
X173770000Y-122120000D01*
X173770000Y-122120000D02*
X171230000Y-122120000D01*
X171230000Y-122120000D02*
X171230000Y-117040000D01*
X171230000Y-117040000D02*
X173770000Y-117040000D01*
X172500000Y-117040000D02*
X172500000Y-115770000D01*
X172500000Y-122120000D02*
X172500000Y-123390000D01*
X204960000Y-123270000D02*
X199880000Y-123270000D01*
X199880000Y-123270000D02*
X199880000Y-120730000D01*
X199880000Y-120730000D02*
X204960000Y-120730000D01*
X204960000Y-120730000D02*
X204960000Y-123270000D01*
X204960000Y-122000000D02*
X206230000Y-122000000D01*
X199880000Y-122000000D02*
X198610000Y-122000000D01*
X205040000Y-130730000D02*
X210120000Y-130730000D01*
X210120000Y-130730000D02*
X210120000Y-133270000D01*
X210120000Y-133270000D02*
X205040000Y-133270000D01*
X205040000Y-133270000D02*
X205040000Y-130730000D01*
X205040000Y-132000000D02*
X203770000Y-132000000D01*
X210120000Y-132000000D02*
X211390000Y-132000000D01*
X187540000Y-130730000D02*
X192620000Y-130730000D01*
X192620000Y-130730000D02*
X192620000Y-133270000D01*
X192620000Y-133270000D02*
X187540000Y-133270000D01*
X187540000Y-133270000D02*
X187540000Y-130730000D01*
X187540000Y-132000000D02*
X186270000Y-132000000D01*
X192620000Y-132000000D02*
X193890000Y-132000000D01*
X200040000Y-115730000D02*
X205120000Y-115730000D01*
X205120000Y-115730000D02*
X205120000Y-118270000D01*
X205120000Y-118270000D02*
X200040000Y-118270000D01*
X200040000Y-118270000D02*
X200040000Y-115730000D01*
X200040000Y-117000000D02*
X198770000Y-117000000D01*
X205120000Y-117000000D02*
X206390000Y-117000000D01*
X204960000Y-128270000D02*
X199880000Y-128270000D01*
X199880000Y-128270000D02*
X199880000Y-125730000D01*
X199880000Y-125730000D02*
X204960000Y-125730000D01*
X204960000Y-125730000D02*
X204960000Y-128270000D01*
X204960000Y-127000000D02*
X206230000Y-127000000D01*
X199880000Y-127000000D02*
X198610000Y-127000000D01*
X174960000Y-78770000D02*
X169880000Y-78770000D01*
X169880000Y-78770000D02*
X169880000Y-76230000D01*
X169880000Y-76230000D02*
X174960000Y-76230000D01*
X174960000Y-76230000D02*
X174960000Y-78770000D01*
X174960000Y-77500000D02*
X176230000Y-77500000D01*
X169880000Y-77500000D02*
X168610000Y-77500000D01*
X170040000Y-68730000D02*
X175120000Y-68730000D01*
X175120000Y-68730000D02*
X175120000Y-71270000D01*
X175120000Y-71270000D02*
X170040000Y-71270000D01*
X170040000Y-71270000D02*
X170040000Y-68730000D01*
X170040000Y-70000000D02*
X168770000Y-70000000D01*
X175120000Y-70000000D02*
X176390000Y-70000000D01*
X185976000Y-121452000D02*
X185976000Y-122595000D01*
X189024000Y-121452000D02*
X189024000Y-122595000D01*
X192834000Y-122595000D02*
X192834000Y-126278000D01*
X192834000Y-126278000D02*
X182166000Y-126278000D01*
X182166000Y-126278000D02*
X182166000Y-122595000D01*
X192834000Y-121452000D02*
X192834000Y-122595000D01*
X192834000Y-122595000D02*
X182166000Y-122595000D01*
X182166000Y-122595000D02*
X182166000Y-121452000D01*
X187500000Y-121452000D02*
X182166000Y-121452000D01*
X187500000Y-121452000D02*
X192834000Y-121452000D01*
X185976000Y-113952000D02*
X185976000Y-115095000D01*
X189024000Y-113952000D02*
X189024000Y-115095000D01*
X192834000Y-115095000D02*
X192834000Y-118778000D01*
X192834000Y-118778000D02*
X182166000Y-118778000D01*
X182166000Y-118778000D02*
X182166000Y-115095000D01*
X192834000Y-113952000D02*
X192834000Y-115095000D01*
X192834000Y-115095000D02*
X182166000Y-115095000D01*
X182166000Y-115095000D02*
X182166000Y-113952000D01*
X187500000Y-113952000D02*
X182166000Y-113952000D01*
X187500000Y-113952000D02*
X192834000Y-113952000D01*
X190135000Y-65205000D02*
X190135000Y-66475000D01*
X197485000Y-65205000D02*
X197485000Y-66475000D01*
X197485000Y-87575000D02*
X197485000Y-86305000D01*
X190135000Y-87575000D02*
X190135000Y-86305000D01*
X190135000Y-65205000D02*
X197485000Y-65205000D01*
X190135000Y-87575000D02*
X197485000Y-87575000D01*
X190135000Y-66475000D02*
X188850000Y-66475000D01*
X170976000Y-61952000D02*
X170976000Y-63095000D01*
X174024000Y-61952000D02*
X174024000Y-63095000D01*
X177834000Y-63095000D02*
X177834000Y-66778000D01*
X177834000Y-66778000D02*
X167166000Y-66778000D01*
X167166000Y-66778000D02*
X167166000Y-63095000D01*
X177834000Y-61952000D02*
X177834000Y-63095000D01*
X177834000Y-63095000D02*
X167166000Y-63095000D01*
X167166000Y-63095000D02*
X167166000Y-61952000D01*
X172500000Y-61952000D02*
X167166000Y-61952000D01*
X172500000Y-61952000D02*
X177834000Y-61952000D01*
X242199000Y-130999240D02*
X242399660Y-131400560D01*
X242399660Y-131400560D02*
X242501260Y-132000000D01*
X242501260Y-132000000D02*
X242399660Y-132500380D01*
X242399660Y-132500380D02*
X242000880Y-133198880D01*
X242000880Y-133198880D02*
X241398900Y-133600200D01*
X241398900Y-133600200D02*
X240799460Y-133800860D01*
X240799460Y-133800860D02*
X234200540Y-133800860D01*
X234200540Y-133800860D02*
X233499500Y-133600200D01*
X233499500Y-133600200D02*
X233100720Y-133300480D01*
X233100720Y-133300480D02*
X232699400Y-132800100D01*
X232699400Y-132800100D02*
X232498740Y-132200660D01*
X232498740Y-132200660D02*
X232498740Y-131700280D01*
X232498740Y-131700280D02*
X232699400Y-131199900D01*
X232699400Y-131199900D02*
X233199780Y-130600460D01*
X233199780Y-130600460D02*
X233700160Y-130300740D01*
X233700160Y-130300740D02*
X234200540Y-130199140D01*
X234299600Y-130199140D02*
X240901060Y-130199140D01*
X240901060Y-130199140D02*
X241299840Y-130300740D01*
X241299840Y-130300740D02*
X241800220Y-130600460D01*
X241800220Y-130600460D02*
X242300600Y-131100840D01*
X234309760Y-129670820D02*
X233850020Y-129719080D01*
X233850020Y-129719080D02*
X233451240Y-129830840D01*
X233451240Y-129830840D02*
X233019440Y-130049280D01*
X233019440Y-130049280D02*
X232729880Y-130280420D01*
X232729880Y-130280420D02*
X232399680Y-130630940D01*
X232399680Y-130630940D02*
X232110120Y-131169420D01*
X232110120Y-131169420D02*
X231980580Y-131768860D01*
X231980580Y-131768860D02*
X231980580Y-132279400D01*
X231980580Y-132279400D02*
X232150760Y-132980440D01*
X232150760Y-132980440D02*
X232549540Y-133569720D01*
X232549540Y-133569720D02*
X233009280Y-133940560D01*
X233009280Y-133940560D02*
X233430920Y-134148840D01*
X233430920Y-134148840D02*
X233880500Y-134308860D01*
X233880500Y-134308860D02*
X234319920Y-134339340D01*
X241660520Y-134120900D02*
X242038980Y-133899920D01*
X242038980Y-133899920D02*
X242359020Y-133620520D01*
X242359020Y-133620520D02*
X242610480Y-133290320D01*
X242610480Y-133290320D02*
X242910200Y-132739140D01*
X242910200Y-132739140D02*
X243019420Y-132269240D01*
X243019420Y-132269240D02*
X243039740Y-131809500D01*
X243039740Y-131809500D02*
X242950840Y-131349760D01*
X242950840Y-131349760D02*
X242760340Y-130900180D01*
X242760340Y-130900180D02*
X242399660Y-130430280D01*
X242399660Y-130430280D02*
X242049140Y-130110240D01*
X242049140Y-130110240D02*
X241660520Y-129879100D01*
X241660520Y-129879100D02*
X241231260Y-129739400D01*
X241231260Y-129739400D02*
X240789300Y-129670820D01*
X234299600Y-134329180D02*
X240751200Y-134329180D01*
X240751200Y-134329180D02*
X241170300Y-134291080D01*
X241170300Y-134291080D02*
X241660520Y-134120900D01*
X234299600Y-129670820D02*
X240751200Y-129670820D01*
X263730000Y-104730000D02*
X263730000Y-92030000D01*
X263730000Y-92030000D02*
X266270000Y-92030000D01*
X266270000Y-92030000D02*
X266270000Y-104730000D01*
X263450000Y-107550000D02*
X263450000Y-106000000D01*
X263730000Y-104730000D02*
X266270000Y-104730000D01*
X266550000Y-106000000D02*
X266550000Y-107550000D01*
X266550000Y-107550000D02*
X263450000Y-107550000D01*
X263730000Y-126510000D02*
X263730000Y-108730000D01*
X263730000Y-108730000D02*
X266270000Y-108730000D01*
X266270000Y-108730000D02*
X266270000Y-126510000D01*
X263450000Y-129330000D02*
X263450000Y-127780000D01*
X263730000Y-126510000D02*
X266270000Y-126510000D01*
X266550000Y-127780000D02*
X266550000Y-129330000D01*
X266550000Y-129330000D02*
X263450000Y-129330000D01*
X187550000Y-38810000D02*
X238350000Y-38810000D01*
X235810000Y-33730000D02*
X187550000Y-33730000D01*
X187550000Y-38810000D02*
X187550000Y-33730000D01*
X238350000Y-38810000D02*
X238350000Y-36270000D01*
X238630000Y-35000000D02*
X238630000Y-33450000D01*
X238350000Y-36270000D02*
X235810000Y-36270000D01*
X235810000Y-36270000D02*
X235810000Y-33730000D01*
X238630000Y-33450000D02*
X237080000Y-33450000D01*
X149761905Y-50216381D02*
X150428572Y-51216381D01*
X150428572Y-50216381D02*
X149761905Y-51216381D01*
X150761905Y-50930667D02*
X151238096Y-50930667D01*
X150666667Y-51216381D02*
X151000000Y-50216381D01*
X151333334Y-51216381D01*
X152190477Y-51216381D02*
X151619048Y-51216381D01*
X151904762Y-51216381D02*
X151904762Y-50216381D01*
X151809524Y-50359238D01*
X151714286Y-50454476D01*
X151619048Y-50502095D01*
X210944000Y-73473143D02*
X210991619Y-73520762D01*
X210944000Y-73568381D01*
X210896381Y-73520762D01*
X210944000Y-73473143D01*
X210944000Y-73568381D01*
X245357143Y-130916666D02*
X245404762Y-130964285D01*
X245452381Y-131107142D01*
X245452381Y-131202380D01*
X245404762Y-131345238D01*
X245309524Y-131440476D01*
X245214286Y-131488095D01*
X245023810Y-131535714D01*
X244880952Y-131535714D01*
X244690476Y-131488095D01*
X244595238Y-131440476D01*
X244500000Y-131345238D01*
X244452381Y-131202380D01*
X244452381Y-131107142D01*
X244500000Y-130964285D01*
X244547619Y-130916666D01*
X245452381Y-129964285D02*
X245452381Y-130535714D01*
X245452381Y-130250000D02*
X244452381Y-130250000D01*
X244595238Y-130345238D01*
X244690476Y-130440476D01*
X244738095Y-130535714D01*
X249547619Y-132392857D02*
X249500000Y-132345238D01*
X249452381Y-132250000D01*
X249452381Y-132011904D01*
X249500000Y-131916666D01*
X249547619Y-131869047D01*
X249642857Y-131821428D01*
X249738095Y-131821428D01*
X249880952Y-131869047D01*
X250452381Y-132440476D01*
X250452381Y-131821428D01*
X249452381Y-131202381D02*
X249452381Y-131107142D01*
X249500000Y-131011904D01*
X249547619Y-130964285D01*
X249642857Y-130916666D01*
X249833333Y-130869047D01*
X250071429Y-130869047D01*
X250261905Y-130916666D01*
X250357143Y-130964285D01*
X250404762Y-131011904D01*
X250452381Y-131107142D01*
X250452381Y-131202381D01*
X250404762Y-131297619D01*
X250357143Y-131345238D01*
X250261905Y-131392857D01*
X250071429Y-131440476D01*
X249833333Y-131440476D01*
X249642857Y-131392857D01*
X249547619Y-131345238D01*
X249500000Y-131297619D01*
X249452381Y-131202381D01*
X249785714Y-130440476D02*
X250785714Y-130440476D01*
X249833333Y-130440476D02*
X249785714Y-130345238D01*
X249785714Y-130154761D01*
X249833333Y-130059523D01*
X249880952Y-130011904D01*
X249976190Y-129964285D01*
X250261905Y-129964285D01*
X250357143Y-130011904D01*
X250404762Y-130059523D01*
X250452381Y-130154761D01*
X250452381Y-130345238D01*
X250404762Y-130440476D01*
X249928571Y-129202380D02*
X249928571Y-129535714D01*
X250452381Y-129535714D02*
X249452381Y-129535714D01*
X249452381Y-129059523D01*
X225357143Y-130916666D02*
X225404762Y-130964285D01*
X225452381Y-131107142D01*
X225452381Y-131202380D01*
X225404762Y-131345238D01*
X225309524Y-131440476D01*
X225214286Y-131488095D01*
X225023810Y-131535714D01*
X224880952Y-131535714D01*
X224690476Y-131488095D01*
X224595238Y-131440476D01*
X224500000Y-131345238D01*
X224452381Y-131202380D01*
X224452381Y-131107142D01*
X224500000Y-130964285D01*
X224547619Y-130916666D01*
X224547619Y-130535714D02*
X224500000Y-130488095D01*
X224452381Y-130392857D01*
X224452381Y-130154761D01*
X224500000Y-130059523D01*
X224547619Y-130011904D01*
X224642857Y-129964285D01*
X224738095Y-129964285D01*
X224880952Y-130011904D01*
X225452381Y-130583333D01*
X225452381Y-129964285D01*
X229547619Y-132392857D02*
X229500000Y-132345238D01*
X229452381Y-132250000D01*
X229452381Y-132011904D01*
X229500000Y-131916666D01*
X229547619Y-131869047D01*
X229642857Y-131821428D01*
X229738095Y-131821428D01*
X229880952Y-131869047D01*
X230452381Y-132440476D01*
X230452381Y-131821428D01*
X229452381Y-131202381D02*
X229452381Y-131107142D01*
X229500000Y-131011904D01*
X229547619Y-130964285D01*
X229642857Y-130916666D01*
X229833333Y-130869047D01*
X230071429Y-130869047D01*
X230261905Y-130916666D01*
X230357143Y-130964285D01*
X230404762Y-131011904D01*
X230452381Y-131107142D01*
X230452381Y-131202381D01*
X230404762Y-131297619D01*
X230357143Y-131345238D01*
X230261905Y-131392857D01*
X230071429Y-131440476D01*
X229833333Y-131440476D01*
X229642857Y-131392857D01*
X229547619Y-131345238D01*
X229500000Y-131297619D01*
X229452381Y-131202381D01*
X229785714Y-130440476D02*
X230785714Y-130440476D01*
X229833333Y-130440476D02*
X229785714Y-130345238D01*
X229785714Y-130154761D01*
X229833333Y-130059523D01*
X229880952Y-130011904D01*
X229976190Y-129964285D01*
X230261905Y-129964285D01*
X230357143Y-130011904D01*
X230404762Y-130059523D01*
X230452381Y-130154761D01*
X230452381Y-130345238D01*
X230404762Y-130440476D01*
X229928571Y-129202380D02*
X229928571Y-129535714D01*
X230452381Y-129535714D02*
X229452381Y-129535714D01*
X229452381Y-129059523D01*
X171583334Y-80057143D02*
X171535715Y-80104762D01*
X171392858Y-80152381D01*
X171297620Y-80152381D01*
X171154762Y-80104762D01*
X171059524Y-80009524D01*
X171011905Y-79914286D01*
X170964286Y-79723810D01*
X170964286Y-79580952D01*
X171011905Y-79390476D01*
X171059524Y-79295238D01*
X171154762Y-79200000D01*
X171297620Y-79152381D01*
X171392858Y-79152381D01*
X171535715Y-79200000D01*
X171583334Y-79247619D01*
X171916667Y-79152381D02*
X172535715Y-79152381D01*
X172202381Y-79533333D01*
X172345239Y-79533333D01*
X172440477Y-79580952D01*
X172488096Y-79628571D01*
X172535715Y-79723810D01*
X172535715Y-79961905D01*
X172488096Y-80057143D01*
X172440477Y-80104762D01*
X172345239Y-80152381D01*
X172059524Y-80152381D01*
X171964286Y-80104762D01*
X171916667Y-80057143D01*
X165729762Y-84927381D02*
X165158333Y-84927381D01*
X165444047Y-84927381D02*
X165444047Y-83927381D01*
X165348809Y-84070238D01*
X165253571Y-84165476D01*
X165158333Y-84213095D01*
X166586905Y-84260714D02*
X166586905Y-84927381D01*
X166158333Y-84260714D02*
X166158333Y-84784524D01*
X166205952Y-84879762D01*
X166301190Y-84927381D01*
X166444048Y-84927381D01*
X166539286Y-84879762D01*
X166586905Y-84832143D01*
X167396429Y-84403571D02*
X167063095Y-84403571D01*
X167063095Y-84927381D02*
X167063095Y-83927381D01*
X167539286Y-83927381D01*
X185357143Y-68916666D02*
X185404762Y-68964285D01*
X185452381Y-69107142D01*
X185452381Y-69202380D01*
X185404762Y-69345238D01*
X185309524Y-69440476D01*
X185214286Y-69488095D01*
X185023810Y-69535714D01*
X184880952Y-69535714D01*
X184690476Y-69488095D01*
X184595238Y-69440476D01*
X184500000Y-69345238D01*
X184452381Y-69202380D01*
X184452381Y-69107142D01*
X184500000Y-68964285D01*
X184547619Y-68916666D01*
X184785714Y-68059523D02*
X185452381Y-68059523D01*
X184404762Y-68297619D02*
X185119048Y-68535714D01*
X185119048Y-67916666D01*
X180452381Y-70059523D02*
X180452381Y-70630952D01*
X180452381Y-70345238D02*
X179452381Y-70345238D01*
X179595238Y-70440476D01*
X179690476Y-70535714D01*
X179738095Y-70630952D01*
X180357143Y-69630952D02*
X180404762Y-69583333D01*
X180452381Y-69630952D01*
X180404762Y-69678571D01*
X180357143Y-69630952D01*
X180452381Y-69630952D01*
X179452381Y-68964286D02*
X179452381Y-68869047D01*
X179500000Y-68773809D01*
X179547619Y-68726190D01*
X179642857Y-68678571D01*
X179833333Y-68630952D01*
X180071429Y-68630952D01*
X180261905Y-68678571D01*
X180357143Y-68726190D01*
X180404762Y-68773809D01*
X180452381Y-68869047D01*
X180452381Y-68964286D01*
X180404762Y-69059524D01*
X180357143Y-69107143D01*
X180261905Y-69154762D01*
X180071429Y-69202381D01*
X179833333Y-69202381D01*
X179642857Y-69154762D01*
X179547619Y-69107143D01*
X179500000Y-69059524D01*
X179452381Y-68964286D01*
X179785714Y-67773809D02*
X180452381Y-67773809D01*
X179785714Y-68202381D02*
X180309524Y-68202381D01*
X180404762Y-68154762D01*
X180452381Y-68059524D01*
X180452381Y-67916666D01*
X180404762Y-67821428D01*
X180357143Y-67773809D01*
X179928571Y-66964285D02*
X179928571Y-67297619D01*
X180452381Y-67297619D02*
X179452381Y-67297619D01*
X179452381Y-66821428D01*
X183583334Y-60357143D02*
X183535715Y-60404762D01*
X183392858Y-60452381D01*
X183297620Y-60452381D01*
X183154762Y-60404762D01*
X183059524Y-60309524D01*
X183011905Y-60214286D01*
X182964286Y-60023810D01*
X182964286Y-59880952D01*
X183011905Y-59690476D01*
X183059524Y-59595238D01*
X183154762Y-59500000D01*
X183297620Y-59452381D01*
X183392858Y-59452381D01*
X183535715Y-59500000D01*
X183583334Y-59547619D01*
X184488096Y-59452381D02*
X184011905Y-59452381D01*
X183964286Y-59928571D01*
X184011905Y-59880952D01*
X184107143Y-59833333D01*
X184345239Y-59833333D01*
X184440477Y-59880952D01*
X184488096Y-59928571D01*
X184535715Y-60023810D01*
X184535715Y-60261905D01*
X184488096Y-60357143D01*
X184440477Y-60404762D01*
X184345239Y-60452381D01*
X184107143Y-60452381D01*
X184011905Y-60404762D01*
X183964286Y-60357143D01*
X182440477Y-65452381D02*
X181869048Y-65452381D01*
X182154762Y-65452381D02*
X182154762Y-64452381D01*
X182059524Y-64595238D01*
X181964286Y-64690476D01*
X181869048Y-64738095D01*
X182869048Y-65357143D02*
X182916667Y-65404762D01*
X182869048Y-65452381D01*
X182821429Y-65404762D01*
X182869048Y-65357143D01*
X182869048Y-65452381D01*
X183535714Y-64452381D02*
X183630953Y-64452381D01*
X183726191Y-64500000D01*
X183773810Y-64547619D01*
X183821429Y-64642857D01*
X183869048Y-64833333D01*
X183869048Y-65071429D01*
X183821429Y-65261905D01*
X183773810Y-65357143D01*
X183726191Y-65404762D01*
X183630953Y-65452381D01*
X183535714Y-65452381D01*
X183440476Y-65404762D01*
X183392857Y-65357143D01*
X183345238Y-65261905D01*
X183297619Y-65071429D01*
X183297619Y-64833333D01*
X183345238Y-64642857D01*
X183392857Y-64547619D01*
X183440476Y-64500000D01*
X183535714Y-64452381D01*
X184726191Y-64785714D02*
X184726191Y-65452381D01*
X184297619Y-64785714D02*
X184297619Y-65309524D01*
X184345238Y-65404762D01*
X184440476Y-65452381D01*
X184583334Y-65452381D01*
X184678572Y-65404762D01*
X184726191Y-65357143D01*
X185535715Y-64928571D02*
X185202381Y-64928571D01*
X185202381Y-65452381D02*
X185202381Y-64452381D01*
X185678572Y-64452381D01*
X180357143Y-76416666D02*
X180404762Y-76464285D01*
X180452381Y-76607142D01*
X180452381Y-76702380D01*
X180404762Y-76845238D01*
X180309524Y-76940476D01*
X180214286Y-76988095D01*
X180023810Y-77035714D01*
X179880952Y-77035714D01*
X179690476Y-76988095D01*
X179595238Y-76940476D01*
X179500000Y-76845238D01*
X179452381Y-76702380D01*
X179452381Y-76607142D01*
X179500000Y-76464285D01*
X179547619Y-76416666D01*
X179452381Y-75559523D02*
X179452381Y-75750000D01*
X179500000Y-75845238D01*
X179547619Y-75892857D01*
X179690476Y-75988095D01*
X179880952Y-76035714D01*
X180261905Y-76035714D01*
X180357143Y-75988095D01*
X180404762Y-75940476D01*
X180452381Y-75845238D01*
X180452381Y-75654761D01*
X180404762Y-75559523D01*
X180357143Y-75511904D01*
X180261905Y-75464285D01*
X180023810Y-75464285D01*
X179928571Y-75511904D01*
X179880952Y-75559523D01*
X179833333Y-75654761D01*
X179833333Y-75845238D01*
X179880952Y-75940476D01*
X179928571Y-75988095D01*
X180023810Y-76035714D01*
X185452381Y-77559523D02*
X185452381Y-78130952D01*
X185452381Y-77845238D02*
X184452381Y-77845238D01*
X184595238Y-77940476D01*
X184690476Y-78035714D01*
X184738095Y-78130952D01*
X185357143Y-77130952D02*
X185404762Y-77083333D01*
X185452381Y-77130952D01*
X185404762Y-77178571D01*
X185357143Y-77130952D01*
X185452381Y-77130952D01*
X184452381Y-76464286D02*
X184452381Y-76369047D01*
X184500000Y-76273809D01*
X184547619Y-76226190D01*
X184642857Y-76178571D01*
X184833333Y-76130952D01*
X185071429Y-76130952D01*
X185261905Y-76178571D01*
X185357143Y-76226190D01*
X185404762Y-76273809D01*
X185452381Y-76369047D01*
X185452381Y-76464286D01*
X185404762Y-76559524D01*
X185357143Y-76607143D01*
X185261905Y-76654762D01*
X185071429Y-76702381D01*
X184833333Y-76702381D01*
X184642857Y-76654762D01*
X184547619Y-76607143D01*
X184500000Y-76559524D01*
X184452381Y-76464286D01*
X184785714Y-75273809D02*
X185452381Y-75273809D01*
X184785714Y-75702381D02*
X185309524Y-75702381D01*
X185404762Y-75654762D01*
X185452381Y-75559524D01*
X185452381Y-75416666D01*
X185404762Y-75321428D01*
X185357143Y-75273809D01*
X184928571Y-74464285D02*
X184928571Y-74797619D01*
X185452381Y-74797619D02*
X184452381Y-74797619D01*
X184452381Y-74321428D01*
X185357143Y-83916666D02*
X185404762Y-83964285D01*
X185452381Y-84107142D01*
X185452381Y-84202380D01*
X185404762Y-84345238D01*
X185309524Y-84440476D01*
X185214286Y-84488095D01*
X185023810Y-84535714D01*
X184880952Y-84535714D01*
X184690476Y-84488095D01*
X184595238Y-84440476D01*
X184500000Y-84345238D01*
X184452381Y-84202380D01*
X184452381Y-84107142D01*
X184500000Y-83964285D01*
X184547619Y-83916666D01*
X184452381Y-83583333D02*
X184452381Y-82916666D01*
X185452381Y-83345238D01*
X171733334Y-90057143D02*
X171685715Y-90104762D01*
X171542858Y-90152381D01*
X171447620Y-90152381D01*
X171304762Y-90104762D01*
X171209524Y-90009524D01*
X171161905Y-89914286D01*
X171114286Y-89723810D01*
X171114286Y-89580952D01*
X171161905Y-89390476D01*
X171209524Y-89295238D01*
X171304762Y-89200000D01*
X171447620Y-89152381D01*
X171542858Y-89152381D01*
X171685715Y-89200000D01*
X171733334Y-89247619D01*
X172304762Y-89580952D02*
X172209524Y-89533333D01*
X172161905Y-89485714D01*
X172114286Y-89390476D01*
X172114286Y-89342857D01*
X172161905Y-89247619D01*
X172209524Y-89200000D01*
X172304762Y-89152381D01*
X172495239Y-89152381D01*
X172590477Y-89200000D01*
X172638096Y-89247619D01*
X172685715Y-89342857D01*
X172685715Y-89390476D01*
X172638096Y-89485714D01*
X172590477Y-89533333D01*
X172495239Y-89580952D01*
X172304762Y-89580952D01*
X172209524Y-89628571D01*
X172161905Y-89676190D01*
X172114286Y-89771429D01*
X172114286Y-89961905D01*
X172161905Y-90057143D01*
X172209524Y-90104762D01*
X172304762Y-90152381D01*
X172495239Y-90152381D01*
X172590477Y-90104762D01*
X172638096Y-90057143D01*
X172685715Y-89961905D01*
X172685715Y-89771429D01*
X172638096Y-89676190D01*
X172590477Y-89628571D01*
X172495239Y-89580952D01*
X169876191Y-100752381D02*
X169304762Y-100752381D01*
X169590476Y-100752381D02*
X169590476Y-99752381D01*
X169495238Y-99895238D01*
X169400000Y-99990476D01*
X169304762Y-100038095D01*
X170495238Y-99752381D02*
X170590477Y-99752381D01*
X170685715Y-99800000D01*
X170733334Y-99847619D01*
X170780953Y-99942857D01*
X170828572Y-100133333D01*
X170828572Y-100371429D01*
X170780953Y-100561905D01*
X170733334Y-100657143D01*
X170685715Y-100704762D01*
X170590477Y-100752381D01*
X170495238Y-100752381D01*
X170400000Y-100704762D01*
X170352381Y-100657143D01*
X170304762Y-100561905D01*
X170257143Y-100371429D01*
X170257143Y-100133333D01*
X170304762Y-99942857D01*
X170352381Y-99847619D01*
X170400000Y-99800000D01*
X170495238Y-99752381D01*
X171447619Y-99752381D02*
X171542858Y-99752381D01*
X171638096Y-99800000D01*
X171685715Y-99847619D01*
X171733334Y-99942857D01*
X171780953Y-100133333D01*
X171780953Y-100371429D01*
X171733334Y-100561905D01*
X171685715Y-100657143D01*
X171638096Y-100704762D01*
X171542858Y-100752381D01*
X171447619Y-100752381D01*
X171352381Y-100704762D01*
X171304762Y-100657143D01*
X171257143Y-100561905D01*
X171209524Y-100371429D01*
X171209524Y-100133333D01*
X171257143Y-99942857D01*
X171304762Y-99847619D01*
X171352381Y-99800000D01*
X171447619Y-99752381D01*
X172400000Y-99752381D02*
X172495239Y-99752381D01*
X172590477Y-99800000D01*
X172638096Y-99847619D01*
X172685715Y-99942857D01*
X172733334Y-100133333D01*
X172733334Y-100371429D01*
X172685715Y-100561905D01*
X172638096Y-100657143D01*
X172590477Y-100704762D01*
X172495239Y-100752381D01*
X172400000Y-100752381D01*
X172304762Y-100704762D01*
X172257143Y-100657143D01*
X172209524Y-100561905D01*
X172161905Y-100371429D01*
X172161905Y-100133333D01*
X172209524Y-99942857D01*
X172257143Y-99847619D01*
X172304762Y-99800000D01*
X172400000Y-99752381D01*
X173590477Y-100085714D02*
X173590477Y-100752381D01*
X173161905Y-100085714D02*
X173161905Y-100609524D01*
X173209524Y-100704762D01*
X173304762Y-100752381D01*
X173447620Y-100752381D01*
X173542858Y-100704762D01*
X173590477Y-100657143D01*
X174400001Y-100228571D02*
X174066667Y-100228571D01*
X174066667Y-100752381D02*
X174066667Y-99752381D01*
X174542858Y-99752381D01*
X217351905Y-129392381D02*
X217351905Y-128392381D01*
X217590000Y-128392381D01*
X217732858Y-128440000D01*
X217828096Y-128535238D01*
X217875715Y-128630476D01*
X217923334Y-128820952D01*
X217923334Y-128963810D01*
X217875715Y-129154286D01*
X217828096Y-129249524D01*
X217732858Y-129344762D01*
X217590000Y-129392381D01*
X217351905Y-129392381D01*
X218875715Y-129392381D02*
X218304286Y-129392381D01*
X218590000Y-129392381D02*
X218590000Y-128392381D01*
X218494762Y-128535238D01*
X218399524Y-128630476D01*
X218304286Y-128678095D01*
X221428095Y-130712381D02*
X221428095Y-129712381D01*
X221999524Y-130712381D02*
X221570952Y-130140952D01*
X221999524Y-129712381D02*
X221428095Y-130283810D01*
X212732381Y-125476190D02*
X211732381Y-125476190D01*
X212637143Y-124428571D02*
X212684762Y-124476190D01*
X212732381Y-124619047D01*
X212732381Y-124714285D01*
X212684762Y-124857143D01*
X212589524Y-124952381D01*
X212494286Y-125000000D01*
X212303810Y-125047619D01*
X212160952Y-125047619D01*
X211970476Y-125000000D01*
X211875238Y-124952381D01*
X211780000Y-124857143D01*
X211732381Y-124714285D01*
X211732381Y-124619047D01*
X211780000Y-124476190D01*
X211827619Y-124428571D01*
X212732381Y-123476190D02*
X212732381Y-124047619D01*
X212732381Y-123761905D02*
X211732381Y-123761905D01*
X211875238Y-123857143D01*
X211970476Y-123952381D01*
X212018095Y-124047619D01*
X226380952Y-121166667D02*
X226857143Y-121166667D01*
X226285714Y-121452381D02*
X226619047Y-120452381D01*
X226952381Y-121452381D01*
X227142857Y-120452381D02*
X227714286Y-120452381D01*
X227428571Y-121452381D02*
X227428571Y-120452381D01*
X228047619Y-121452381D02*
X228047619Y-120452381D01*
X228380953Y-121166667D01*
X228714286Y-120452381D01*
X228714286Y-121452381D01*
X229190476Y-120928571D02*
X229523810Y-120928571D01*
X229666667Y-121452381D02*
X229190476Y-121452381D01*
X229190476Y-120452381D01*
X229666667Y-120452381D01*
X230619048Y-120500000D02*
X230523810Y-120452381D01*
X230380953Y-120452381D01*
X230238095Y-120500000D01*
X230142857Y-120595238D01*
X230095238Y-120690476D01*
X230047619Y-120880952D01*
X230047619Y-121023810D01*
X230095238Y-121214286D01*
X230142857Y-121309524D01*
X230238095Y-121404762D01*
X230380953Y-121452381D01*
X230476191Y-121452381D01*
X230619048Y-121404762D01*
X230666667Y-121357143D01*
X230666667Y-121023810D01*
X230476191Y-121023810D01*
X231047619Y-121166667D02*
X231523810Y-121166667D01*
X230952381Y-121452381D02*
X231285714Y-120452381D01*
X231619048Y-121452381D01*
X231857143Y-120452381D02*
X232476191Y-120452381D01*
X232142857Y-120833333D01*
X232285715Y-120833333D01*
X232380953Y-120880952D01*
X232428572Y-120928571D01*
X232476191Y-121023810D01*
X232476191Y-121261905D01*
X232428572Y-121357143D01*
X232380953Y-121404762D01*
X232285715Y-121452381D01*
X232000000Y-121452381D01*
X231904762Y-121404762D01*
X231857143Y-121357143D01*
X232857143Y-120547619D02*
X232904762Y-120500000D01*
X233000000Y-120452381D01*
X233238096Y-120452381D01*
X233333334Y-120500000D01*
X233380953Y-120547619D01*
X233428572Y-120642857D01*
X233428572Y-120738095D01*
X233380953Y-120880952D01*
X232809524Y-121452381D01*
X233428572Y-121452381D01*
X234000000Y-120880952D02*
X233904762Y-120833333D01*
X233857143Y-120785714D01*
X233809524Y-120690476D01*
X233809524Y-120642857D01*
X233857143Y-120547619D01*
X233904762Y-120500000D01*
X234000000Y-120452381D01*
X234190477Y-120452381D01*
X234285715Y-120500000D01*
X234333334Y-120547619D01*
X234380953Y-120642857D01*
X234380953Y-120690476D01*
X234333334Y-120785714D01*
X234285715Y-120833333D01*
X234190477Y-120880952D01*
X234000000Y-120880952D01*
X233904762Y-120928571D01*
X233857143Y-120976190D01*
X233809524Y-121071429D01*
X233809524Y-121261905D01*
X233857143Y-121357143D01*
X233904762Y-121404762D01*
X234000000Y-121452381D01*
X234190477Y-121452381D01*
X234285715Y-121404762D01*
X234333334Y-121357143D01*
X234380953Y-121261905D01*
X234380953Y-121071429D01*
X234333334Y-120976190D01*
X234285715Y-120928571D01*
X234190477Y-120880952D01*
X234809524Y-121071429D02*
X235571429Y-121071429D01*
X236047619Y-121452381D02*
X236047619Y-120452381D01*
X236428572Y-120452381D01*
X236523810Y-120500000D01*
X236571429Y-120547619D01*
X236619048Y-120642857D01*
X236619048Y-120785714D01*
X236571429Y-120880952D01*
X236523810Y-120928571D01*
X236428572Y-120976190D01*
X236047619Y-120976190D01*
X170086666Y-143714762D02*
X170229523Y-143762381D01*
X170467619Y-143762381D01*
X170562857Y-143714762D01*
X170610476Y-143667143D01*
X170658095Y-143571905D01*
X170658095Y-143476667D01*
X170610476Y-143381429D01*
X170562857Y-143333810D01*
X170467619Y-143286190D01*
X170277142Y-143238571D01*
X170181904Y-143190952D01*
X170134285Y-143143333D01*
X170086666Y-143048095D01*
X170086666Y-142952857D01*
X170134285Y-142857619D01*
X170181904Y-142810000D01*
X170277142Y-142762381D01*
X170515238Y-142762381D01*
X170658095Y-142810000D01*
X171277142Y-142762381D02*
X171467619Y-142762381D01*
X171562857Y-142810000D01*
X171658095Y-142905238D01*
X171705714Y-143095714D01*
X171705714Y-143429048D01*
X171658095Y-143619524D01*
X171562857Y-143714762D01*
X171467619Y-143762381D01*
X171277142Y-143762381D01*
X171181904Y-143714762D01*
X171086666Y-143619524D01*
X171039047Y-143429048D01*
X171039047Y-143095714D01*
X171086666Y-142905238D01*
X171181904Y-142810000D01*
X171277142Y-142762381D01*
X172610476Y-143762381D02*
X172134285Y-143762381D01*
X172134285Y-142762381D01*
X172896190Y-143476667D02*
X173372381Y-143476667D01*
X172800952Y-143762381D02*
X173134285Y-142762381D01*
X173467619Y-143762381D01*
X174372381Y-143762381D02*
X174039047Y-143286190D01*
X173800952Y-143762381D02*
X173800952Y-142762381D01*
X174181905Y-142762381D01*
X174277143Y-142810000D01*
X174324762Y-142857619D01*
X174372381Y-142952857D01*
X174372381Y-143095714D01*
X174324762Y-143190952D01*
X174277143Y-143238571D01*
X174181905Y-143286190D01*
X173800952Y-143286190D01*
X174562857Y-143857619D02*
X175324762Y-143857619D01*
X175562857Y-143762381D02*
X175562857Y-142762381D01*
X175943810Y-142762381D01*
X176039048Y-142810000D01*
X176086667Y-142857619D01*
X176134286Y-142952857D01*
X176134286Y-143095714D01*
X176086667Y-143190952D01*
X176039048Y-143238571D01*
X175943810Y-143286190D01*
X175562857Y-143286190D01*
X176515238Y-143476667D02*
X176991429Y-143476667D01*
X176420000Y-143762381D02*
X176753333Y-142762381D01*
X177086667Y-143762381D01*
X177420000Y-143762381D02*
X177420000Y-142762381D01*
X177991429Y-143762381D01*
X177991429Y-142762381D01*
X178467619Y-143238571D02*
X178800953Y-143238571D01*
X178943810Y-143762381D02*
X178467619Y-143762381D01*
X178467619Y-142762381D01*
X178943810Y-142762381D01*
X179848572Y-143762381D02*
X179372381Y-143762381D01*
X179372381Y-142762381D01*
X221613305Y-140155581D02*
X221613305Y-139155581D01*
X221994258Y-139155581D01*
X222089496Y-139203200D01*
X222137115Y-139250819D01*
X222184734Y-139346057D01*
X222184734Y-139488914D01*
X222137115Y-139584152D01*
X222089496Y-139631771D01*
X221994258Y-139679390D01*
X221613305Y-139679390D01*
X222565686Y-139250819D02*
X222613305Y-139203200D01*
X222708543Y-139155581D01*
X222946639Y-139155581D01*
X223041877Y-139203200D01*
X223089496Y-139250819D01*
X223137115Y-139346057D01*
X223137115Y-139441295D01*
X223089496Y-139584152D01*
X222518067Y-140155581D01*
X223137115Y-140155581D01*
X219675238Y-142762381D02*
X219199047Y-142762381D01*
X219151428Y-143238571D01*
X219199047Y-143190952D01*
X219294285Y-143143333D01*
X219532381Y-143143333D01*
X219627619Y-143190952D01*
X219675238Y-143238571D01*
X219722857Y-143333810D01*
X219722857Y-143571905D01*
X219675238Y-143667143D01*
X219627619Y-143714762D01*
X219532381Y-143762381D01*
X219294285Y-143762381D01*
X219199047Y-143714762D01*
X219151428Y-143667143D01*
X220008571Y-142762381D02*
X220341904Y-143762381D01*
X220675238Y-142762381D01*
X220770476Y-143857619D02*
X221532381Y-143857619D01*
X221770476Y-143095714D02*
X221770476Y-144095714D01*
X221770476Y-143143333D02*
X221865714Y-143095714D01*
X222056191Y-143095714D01*
X222151429Y-143143333D01*
X222199048Y-143190952D01*
X222246667Y-143286190D01*
X222246667Y-143571905D01*
X222199048Y-143667143D01*
X222151429Y-143714762D01*
X222056191Y-143762381D01*
X221865714Y-143762381D01*
X221770476Y-143714762D01*
X222818095Y-143762381D02*
X222722857Y-143714762D01*
X222675238Y-143667143D01*
X222627619Y-143571905D01*
X222627619Y-143286190D01*
X222675238Y-143190952D01*
X222722857Y-143143333D01*
X222818095Y-143095714D01*
X222960953Y-143095714D01*
X223056191Y-143143333D01*
X223103810Y-143190952D01*
X223151429Y-143286190D01*
X223151429Y-143571905D01*
X223103810Y-143667143D01*
X223056191Y-143714762D01*
X222960953Y-143762381D01*
X222818095Y-143762381D01*
X223722857Y-143762381D02*
X223627619Y-143714762D01*
X223580000Y-143619524D01*
X223580000Y-142762381D01*
X224246667Y-143762381D02*
X224151429Y-143714762D01*
X224103810Y-143667143D01*
X224056191Y-143571905D01*
X224056191Y-143286190D01*
X224103810Y-143190952D01*
X224151429Y-143143333D01*
X224246667Y-143095714D01*
X224389525Y-143095714D01*
X224484763Y-143143333D01*
X224532382Y-143190952D01*
X224580001Y-143286190D01*
X224580001Y-143571905D01*
X224532382Y-143667143D01*
X224484763Y-143714762D01*
X224389525Y-143762381D01*
X224246667Y-143762381D01*
X225151429Y-143762381D02*
X225056191Y-143714762D01*
X225008572Y-143619524D01*
X225008572Y-142762381D01*
X225960954Y-143095714D02*
X225960954Y-143762381D01*
X225532382Y-143095714D02*
X225532382Y-143619524D01*
X225580001Y-143714762D01*
X225675239Y-143762381D01*
X225818097Y-143762381D01*
X225913335Y-143714762D01*
X225960954Y-143667143D01*
X196613305Y-140155581D02*
X196613305Y-139155581D01*
X196994258Y-139155581D01*
X197089496Y-139203200D01*
X197137115Y-139250819D01*
X197184734Y-139346057D01*
X197184734Y-139488914D01*
X197137115Y-139584152D01*
X197089496Y-139631771D01*
X196994258Y-139679390D01*
X196613305Y-139679390D01*
X197518067Y-139155581D02*
X198137115Y-139155581D01*
X197803781Y-139536533D01*
X197946639Y-139536533D01*
X198041877Y-139584152D01*
X198089496Y-139631771D01*
X198137115Y-139727010D01*
X198137115Y-139965105D01*
X198089496Y-140060343D01*
X198041877Y-140107962D01*
X197946639Y-140155581D01*
X197660924Y-140155581D01*
X197565686Y-140107962D01*
X197518067Y-140060343D01*
X196460953Y-143238571D02*
X196603810Y-143286190D01*
X196651429Y-143333810D01*
X196699048Y-143429048D01*
X196699048Y-143571905D01*
X196651429Y-143667143D01*
X196603810Y-143714762D01*
X196508572Y-143762381D01*
X196127619Y-143762381D01*
X196127619Y-142762381D01*
X196460953Y-142762381D01*
X196556191Y-142810000D01*
X196603810Y-142857619D01*
X196651429Y-142952857D01*
X196651429Y-143048095D01*
X196603810Y-143143333D01*
X196556191Y-143190952D01*
X196460953Y-143238571D01*
X196127619Y-143238571D01*
X197080000Y-143476667D02*
X197556191Y-143476667D01*
X196984762Y-143762381D02*
X197318095Y-142762381D01*
X197651429Y-143762381D01*
X197841905Y-142762381D02*
X198413334Y-142762381D01*
X198127619Y-143762381D02*
X198127619Y-142762381D01*
X198603810Y-142762381D02*
X199175239Y-142762381D01*
X198889524Y-143762381D02*
X198889524Y-142762381D01*
X246910505Y-139749181D02*
X246910505Y-138749181D01*
X247291458Y-138749181D01*
X247386696Y-138796800D01*
X247434315Y-138844419D01*
X247481934Y-138939657D01*
X247481934Y-139082514D01*
X247434315Y-139177752D01*
X247386696Y-139225371D01*
X247291458Y-139272990D01*
X246910505Y-139272990D01*
X248339077Y-139082514D02*
X248339077Y-139749181D01*
X248100981Y-138701562D02*
X247862886Y-139415848D01*
X248481934Y-139415848D01*
X242833333Y-143404762D02*
X242976190Y-143452381D01*
X243214286Y-143452381D01*
X243309524Y-143404762D01*
X243357143Y-143357143D01*
X243404762Y-143261905D01*
X243404762Y-143166667D01*
X243357143Y-143071429D01*
X243309524Y-143023810D01*
X243214286Y-142976190D01*
X243023809Y-142928571D01*
X242928571Y-142880952D01*
X242880952Y-142833333D01*
X242833333Y-142738095D01*
X242833333Y-142642857D01*
X242880952Y-142547619D01*
X242928571Y-142500000D01*
X243023809Y-142452381D01*
X243261905Y-142452381D01*
X243404762Y-142500000D01*
X243833333Y-142452381D02*
X243833333Y-143261905D01*
X243880952Y-143357143D01*
X243928571Y-143404762D01*
X244023809Y-143452381D01*
X244214286Y-143452381D01*
X244309524Y-143404762D01*
X244357143Y-143357143D01*
X244404762Y-143261905D01*
X244404762Y-142452381D01*
X244880952Y-143452381D02*
X244880952Y-142452381D01*
X245261905Y-142452381D01*
X245357143Y-142500000D01*
X245404762Y-142547619D01*
X245452381Y-142642857D01*
X245452381Y-142785714D01*
X245404762Y-142880952D01*
X245357143Y-142928571D01*
X245261905Y-142976190D01*
X244880952Y-142976190D01*
X245880952Y-142928571D02*
X246214286Y-142928571D01*
X246357143Y-143452381D02*
X245880952Y-143452381D01*
X245880952Y-142452381D01*
X246357143Y-142452381D01*
X247357143Y-143452381D02*
X247023809Y-142976190D01*
X246785714Y-143452381D02*
X246785714Y-142452381D01*
X247166667Y-142452381D01*
X247261905Y-142500000D01*
X247309524Y-142547619D01*
X247357143Y-142642857D01*
X247357143Y-142785714D01*
X247309524Y-142880952D01*
X247261905Y-142928571D01*
X247166667Y-142976190D01*
X246785714Y-142976190D01*
X248357143Y-143357143D02*
X248309524Y-143404762D01*
X248166667Y-143452381D01*
X248071429Y-143452381D01*
X247928571Y-143404762D01*
X247833333Y-143309524D01*
X247785714Y-143214286D01*
X247738095Y-143023810D01*
X247738095Y-142880952D01*
X247785714Y-142690476D01*
X247833333Y-142595238D01*
X247928571Y-142500000D01*
X248071429Y-142452381D01*
X248166667Y-142452381D01*
X248309524Y-142500000D01*
X248357143Y-142547619D01*
X248738095Y-143166667D02*
X249214286Y-143166667D01*
X248642857Y-143452381D02*
X248976190Y-142452381D01*
X249309524Y-143452381D01*
X249642857Y-143452381D02*
X249642857Y-142452381D01*
X250023810Y-142452381D01*
X250119048Y-142500000D01*
X250166667Y-142547619D01*
X250214286Y-142642857D01*
X250214286Y-142785714D01*
X250166667Y-142880952D01*
X250119048Y-142928571D01*
X250023810Y-142976190D01*
X249642857Y-142976190D01*
X250595238Y-143404762D02*
X250738095Y-143452381D01*
X250976191Y-143452381D01*
X251071429Y-143404762D01*
X251119048Y-143357143D01*
X251166667Y-143261905D01*
X251166667Y-143166667D01*
X251119048Y-143071429D01*
X251071429Y-143023810D01*
X250976191Y-142976190D01*
X250785714Y-142928571D01*
X250690476Y-142880952D01*
X250642857Y-142833333D01*
X250595238Y-142738095D01*
X250595238Y-142642857D01*
X250642857Y-142547619D01*
X250690476Y-142500000D01*
X250785714Y-142452381D01*
X251023810Y-142452381D01*
X251166667Y-142500000D01*
X244212381Y-83738095D02*
X243212381Y-83738095D01*
X243212381Y-83357142D01*
X243260000Y-83261904D01*
X243307619Y-83214285D01*
X243402857Y-83166666D01*
X243545714Y-83166666D01*
X243640952Y-83214285D01*
X243688571Y-83261904D01*
X243736190Y-83357142D01*
X243736190Y-83738095D01*
X243212381Y-82261904D02*
X243212381Y-82738095D01*
X243688571Y-82785714D01*
X243640952Y-82738095D01*
X243593333Y-82642857D01*
X243593333Y-82404761D01*
X243640952Y-82309523D01*
X243688571Y-82261904D01*
X243783810Y-82214285D01*
X244021905Y-82214285D01*
X244117143Y-82261904D01*
X244164762Y-82309523D01*
X244212381Y-82404761D01*
X244212381Y-82642857D01*
X244164762Y-82738095D01*
X244117143Y-82785714D01*
X220595237Y-85000000D02*
X220499999Y-84952381D01*
X220357142Y-84952381D01*
X220214284Y-85000000D01*
X220119046Y-85095238D01*
X220071427Y-85190476D01*
X220023808Y-85380952D01*
X220023808Y-85523810D01*
X220071427Y-85714286D01*
X220119046Y-85809524D01*
X220214284Y-85904762D01*
X220357142Y-85952381D01*
X220452380Y-85952381D01*
X220595237Y-85904762D01*
X220642856Y-85857143D01*
X220642856Y-85523810D01*
X220452380Y-85523810D01*
X221071427Y-85952381D02*
X221071427Y-84952381D01*
X221452380Y-84952381D01*
X221547618Y-85000000D01*
X221595237Y-85047619D01*
X221642856Y-85142857D01*
X221642856Y-85285714D01*
X221595237Y-85380952D01*
X221547618Y-85428571D01*
X221452380Y-85476190D01*
X221071427Y-85476190D01*
X222023808Y-85904762D02*
X222166665Y-85952381D01*
X222404761Y-85952381D01*
X222499999Y-85904762D01*
X222547618Y-85857143D01*
X222595237Y-85761905D01*
X222595237Y-85666667D01*
X222547618Y-85571429D01*
X222499999Y-85523810D01*
X222404761Y-85476190D01*
X222214284Y-85428571D01*
X222119046Y-85380952D01*
X222071427Y-85333333D01*
X222023808Y-85238095D01*
X222023808Y-85142857D01*
X222071427Y-85047619D01*
X222119046Y-85000000D01*
X222214284Y-84952381D01*
X222452380Y-84952381D01*
X222595237Y-85000000D01*
X222785713Y-86047619D02*
X223547618Y-86047619D01*
X223785713Y-85952381D02*
X223785713Y-84952381D01*
X223785713Y-85333333D02*
X223880951Y-85285714D01*
X224071428Y-85285714D01*
X224166666Y-85333333D01*
X224214285Y-85380952D01*
X224261904Y-85476190D01*
X224261904Y-85761905D01*
X224214285Y-85857143D01*
X224166666Y-85904762D01*
X224071428Y-85952381D01*
X223880951Y-85952381D01*
X223785713Y-85904762D01*
X224690475Y-85952381D02*
X224690475Y-85285714D01*
X224690475Y-85476190D02*
X224738094Y-85380952D01*
X224785713Y-85333333D01*
X224880951Y-85285714D01*
X224976190Y-85285714D01*
X225690476Y-85904762D02*
X225595238Y-85952381D01*
X225404761Y-85952381D01*
X225309523Y-85904762D01*
X225261904Y-85809524D01*
X225261904Y-85428571D01*
X225309523Y-85333333D01*
X225404761Y-85285714D01*
X225595238Y-85285714D01*
X225690476Y-85333333D01*
X225738095Y-85428571D01*
X225738095Y-85523810D01*
X225261904Y-85619048D01*
X226595238Y-85952381D02*
X226595238Y-85428571D01*
X226547619Y-85333333D01*
X226452381Y-85285714D01*
X226261904Y-85285714D01*
X226166666Y-85333333D01*
X226595238Y-85904762D02*
X226500000Y-85952381D01*
X226261904Y-85952381D01*
X226166666Y-85904762D01*
X226119047Y-85809524D01*
X226119047Y-85714286D01*
X226166666Y-85619048D01*
X226261904Y-85571429D01*
X226500000Y-85571429D01*
X226595238Y-85523810D01*
X227071428Y-85952381D02*
X227071428Y-84952381D01*
X227166666Y-85571429D02*
X227452381Y-85952381D01*
X227452381Y-85285714D02*
X227071428Y-85666667D01*
X228023809Y-85952381D02*
X227928571Y-85904762D01*
X227880952Y-85857143D01*
X227833333Y-85761905D01*
X227833333Y-85476190D01*
X227880952Y-85380952D01*
X227928571Y-85333333D01*
X228023809Y-85285714D01*
X228166667Y-85285714D01*
X228261905Y-85333333D01*
X228309524Y-85380952D01*
X228357143Y-85476190D01*
X228357143Y-85761905D01*
X228309524Y-85857143D01*
X228261905Y-85904762D01*
X228166667Y-85952381D01*
X228023809Y-85952381D01*
X229214286Y-85285714D02*
X229214286Y-85952381D01*
X228785714Y-85285714D02*
X228785714Y-85809524D01*
X228833333Y-85904762D01*
X228928571Y-85952381D01*
X229071429Y-85952381D01*
X229166667Y-85904762D01*
X229214286Y-85857143D01*
X229547619Y-85285714D02*
X229928571Y-85285714D01*
X229690476Y-84952381D02*
X229690476Y-85809524D01*
X229738095Y-85904762D01*
X229833333Y-85952381D01*
X229928571Y-85952381D01*
X230023810Y-86047619D02*
X230785715Y-86047619D01*
X231452382Y-85904762D02*
X231357144Y-85952381D01*
X231166667Y-85952381D01*
X231071429Y-85904762D01*
X231023810Y-85857143D01*
X230976191Y-85761905D01*
X230976191Y-85476190D01*
X231023810Y-85380952D01*
X231071429Y-85333333D01*
X231166667Y-85285714D01*
X231357144Y-85285714D01*
X231452382Y-85333333D01*
X232023810Y-85952381D02*
X231928572Y-85904762D01*
X231880953Y-85857143D01*
X231833334Y-85761905D01*
X231833334Y-85476190D01*
X231880953Y-85380952D01*
X231928572Y-85333333D01*
X232023810Y-85285714D01*
X232166668Y-85285714D01*
X232261906Y-85333333D01*
X232309525Y-85380952D01*
X232357144Y-85476190D01*
X232357144Y-85761905D01*
X232309525Y-85857143D01*
X232261906Y-85904762D01*
X232166668Y-85952381D01*
X232023810Y-85952381D01*
X232785715Y-85285714D02*
X232785715Y-85952381D01*
X232785715Y-85380952D02*
X232833334Y-85333333D01*
X232928572Y-85285714D01*
X233071430Y-85285714D01*
X233166668Y-85333333D01*
X233214287Y-85428571D01*
X233214287Y-85952381D01*
X233690477Y-85285714D02*
X233690477Y-85952381D01*
X233690477Y-85380952D02*
X233738096Y-85333333D01*
X233833334Y-85285714D01*
X233976192Y-85285714D01*
X234071430Y-85333333D01*
X234119049Y-85428571D01*
X234119049Y-85952381D01*
X234976192Y-85904762D02*
X234880954Y-85952381D01*
X234690477Y-85952381D01*
X234595239Y-85904762D01*
X234547620Y-85809524D01*
X234547620Y-85428571D01*
X234595239Y-85333333D01*
X234690477Y-85285714D01*
X234880954Y-85285714D01*
X234976192Y-85333333D01*
X235023811Y-85428571D01*
X235023811Y-85523810D01*
X234547620Y-85619048D01*
X235880954Y-85904762D02*
X235785716Y-85952381D01*
X235595239Y-85952381D01*
X235500001Y-85904762D01*
X235452382Y-85857143D01*
X235404763Y-85761905D01*
X235404763Y-85476190D01*
X235452382Y-85380952D01*
X235500001Y-85333333D01*
X235595239Y-85285714D01*
X235785716Y-85285714D01*
X235880954Y-85333333D01*
X236166668Y-85285714D02*
X236547620Y-85285714D01*
X236309525Y-84952381D02*
X236309525Y-85809524D01*
X236357144Y-85904762D01*
X236452382Y-85952381D01*
X236547620Y-85952381D01*
X237023811Y-85952381D02*
X236928573Y-85904762D01*
X236880954Y-85857143D01*
X236833335Y-85761905D01*
X236833335Y-85476190D01*
X236880954Y-85380952D01*
X236928573Y-85333333D01*
X237023811Y-85285714D01*
X237166669Y-85285714D01*
X237261907Y-85333333D01*
X237309526Y-85380952D01*
X237357145Y-85476190D01*
X237357145Y-85761905D01*
X237309526Y-85857143D01*
X237261907Y-85904762D01*
X237166669Y-85952381D01*
X237023811Y-85952381D01*
X237785716Y-85952381D02*
X237785716Y-85285714D01*
X237785716Y-85476190D02*
X237833335Y-85380952D01*
X237880954Y-85333333D01*
X237976192Y-85285714D01*
X238071431Y-85285714D01*
X243052381Y-75738095D02*
X242052381Y-75738095D01*
X242052381Y-75357142D01*
X242100000Y-75261904D01*
X242147619Y-75214285D01*
X242242857Y-75166666D01*
X242385714Y-75166666D01*
X242480952Y-75214285D01*
X242528571Y-75261904D01*
X242576190Y-75357142D01*
X242576190Y-75738095D01*
X242052381Y-74309523D02*
X242052381Y-74500000D01*
X242100000Y-74595238D01*
X242147619Y-74642857D01*
X242290476Y-74738095D01*
X242480952Y-74785714D01*
X242861905Y-74785714D01*
X242957143Y-74738095D01*
X243004762Y-74690476D01*
X243052381Y-74595238D01*
X243052381Y-74404761D01*
X243004762Y-74309523D01*
X242957143Y-74261904D01*
X242861905Y-74214285D01*
X242623810Y-74214285D01*
X242528571Y-74261904D01*
X242480952Y-74309523D01*
X242433333Y-74404761D01*
X242433333Y-74595238D01*
X242480952Y-74690476D01*
X242528571Y-74738095D01*
X242623810Y-74785714D01*
X220523808Y-72904762D02*
X220666665Y-72952381D01*
X220904761Y-72952381D01*
X220999999Y-72904762D01*
X221047618Y-72857143D01*
X221095237Y-72761905D01*
X221095237Y-72666667D01*
X221047618Y-72571429D01*
X220999999Y-72523810D01*
X220904761Y-72476190D01*
X220714284Y-72428571D01*
X220619046Y-72380952D01*
X220571427Y-72333333D01*
X220523808Y-72238095D01*
X220523808Y-72142857D01*
X220571427Y-72047619D01*
X220619046Y-72000000D01*
X220714284Y-71952381D01*
X220952380Y-71952381D01*
X221095237Y-72000000D01*
X221523808Y-72952381D02*
X221523808Y-71952381D01*
X221761903Y-71952381D01*
X221904761Y-72000000D01*
X221999999Y-72095238D01*
X222047618Y-72190476D01*
X222095237Y-72380952D01*
X222095237Y-72523810D01*
X222047618Y-72714286D01*
X221999999Y-72809524D01*
X221904761Y-72904762D01*
X221761903Y-72952381D01*
X221523808Y-72952381D01*
X222285713Y-73047619D02*
X223047618Y-73047619D01*
X223285713Y-72952381D02*
X223285713Y-71952381D01*
X223285713Y-72333333D02*
X223380951Y-72285714D01*
X223571428Y-72285714D01*
X223666666Y-72333333D01*
X223714285Y-72380952D01*
X223761904Y-72476190D01*
X223761904Y-72761905D01*
X223714285Y-72857143D01*
X223666666Y-72904762D01*
X223571428Y-72952381D01*
X223380951Y-72952381D01*
X223285713Y-72904762D01*
X224190475Y-72952381D02*
X224190475Y-72285714D01*
X224190475Y-72476190D02*
X224238094Y-72380952D01*
X224285713Y-72333333D01*
X224380951Y-72285714D01*
X224476190Y-72285714D01*
X225190476Y-72904762D02*
X225095238Y-72952381D01*
X224904761Y-72952381D01*
X224809523Y-72904762D01*
X224761904Y-72809524D01*
X224761904Y-72428571D01*
X224809523Y-72333333D01*
X224904761Y-72285714D01*
X225095238Y-72285714D01*
X225190476Y-72333333D01*
X225238095Y-72428571D01*
X225238095Y-72523810D01*
X224761904Y-72619048D01*
X226095238Y-72952381D02*
X226095238Y-72428571D01*
X226047619Y-72333333D01*
X225952381Y-72285714D01*
X225761904Y-72285714D01*
X225666666Y-72333333D01*
X226095238Y-72904762D02*
X226000000Y-72952381D01*
X225761904Y-72952381D01*
X225666666Y-72904762D01*
X225619047Y-72809524D01*
X225619047Y-72714286D01*
X225666666Y-72619048D01*
X225761904Y-72571429D01*
X226000000Y-72571429D01*
X226095238Y-72523810D01*
X226571428Y-72952381D02*
X226571428Y-71952381D01*
X226666666Y-72571429D02*
X226952381Y-72952381D01*
X226952381Y-72285714D02*
X226571428Y-72666667D01*
X227523809Y-72952381D02*
X227428571Y-72904762D01*
X227380952Y-72857143D01*
X227333333Y-72761905D01*
X227333333Y-72476190D01*
X227380952Y-72380952D01*
X227428571Y-72333333D01*
X227523809Y-72285714D01*
X227666667Y-72285714D01*
X227761905Y-72333333D01*
X227809524Y-72380952D01*
X227857143Y-72476190D01*
X227857143Y-72761905D01*
X227809524Y-72857143D01*
X227761905Y-72904762D01*
X227666667Y-72952381D01*
X227523809Y-72952381D01*
X228714286Y-72285714D02*
X228714286Y-72952381D01*
X228285714Y-72285714D02*
X228285714Y-72809524D01*
X228333333Y-72904762D01*
X228428571Y-72952381D01*
X228571429Y-72952381D01*
X228666667Y-72904762D01*
X228714286Y-72857143D01*
X229047619Y-72285714D02*
X229428571Y-72285714D01*
X229190476Y-71952381D02*
X229190476Y-72809524D01*
X229238095Y-72904762D01*
X229333333Y-72952381D01*
X229428571Y-72952381D01*
X229523810Y-73047619D02*
X230285715Y-73047619D01*
X230952382Y-72904762D02*
X230857144Y-72952381D01*
X230666667Y-72952381D01*
X230571429Y-72904762D01*
X230523810Y-72857143D01*
X230476191Y-72761905D01*
X230476191Y-72476190D01*
X230523810Y-72380952D01*
X230571429Y-72333333D01*
X230666667Y-72285714D01*
X230857144Y-72285714D01*
X230952382Y-72333333D01*
X231523810Y-72952381D02*
X231428572Y-72904762D01*
X231380953Y-72857143D01*
X231333334Y-72761905D01*
X231333334Y-72476190D01*
X231380953Y-72380952D01*
X231428572Y-72333333D01*
X231523810Y-72285714D01*
X231666668Y-72285714D01*
X231761906Y-72333333D01*
X231809525Y-72380952D01*
X231857144Y-72476190D01*
X231857144Y-72761905D01*
X231809525Y-72857143D01*
X231761906Y-72904762D01*
X231666668Y-72952381D01*
X231523810Y-72952381D01*
X232285715Y-72285714D02*
X232285715Y-72952381D01*
X232285715Y-72380952D02*
X232333334Y-72333333D01*
X232428572Y-72285714D01*
X232571430Y-72285714D01*
X232666668Y-72333333D01*
X232714287Y-72428571D01*
X232714287Y-72952381D01*
X233190477Y-72285714D02*
X233190477Y-72952381D01*
X233190477Y-72380952D02*
X233238096Y-72333333D01*
X233333334Y-72285714D01*
X233476192Y-72285714D01*
X233571430Y-72333333D01*
X233619049Y-72428571D01*
X233619049Y-72952381D01*
X234476192Y-72904762D02*
X234380954Y-72952381D01*
X234190477Y-72952381D01*
X234095239Y-72904762D01*
X234047620Y-72809524D01*
X234047620Y-72428571D01*
X234095239Y-72333333D01*
X234190477Y-72285714D01*
X234380954Y-72285714D01*
X234476192Y-72333333D01*
X234523811Y-72428571D01*
X234523811Y-72523810D01*
X234047620Y-72619048D01*
X235380954Y-72904762D02*
X235285716Y-72952381D01*
X235095239Y-72952381D01*
X235000001Y-72904762D01*
X234952382Y-72857143D01*
X234904763Y-72761905D01*
X234904763Y-72476190D01*
X234952382Y-72380952D01*
X235000001Y-72333333D01*
X235095239Y-72285714D01*
X235285716Y-72285714D01*
X235380954Y-72333333D01*
X235666668Y-72285714D02*
X236047620Y-72285714D01*
X235809525Y-71952381D02*
X235809525Y-72809524D01*
X235857144Y-72904762D01*
X235952382Y-72952381D01*
X236047620Y-72952381D01*
X236523811Y-72952381D02*
X236428573Y-72904762D01*
X236380954Y-72857143D01*
X236333335Y-72761905D01*
X236333335Y-72476190D01*
X236380954Y-72380952D01*
X236428573Y-72333333D01*
X236523811Y-72285714D01*
X236666669Y-72285714D01*
X236761907Y-72333333D01*
X236809526Y-72380952D01*
X236857145Y-72476190D01*
X236857145Y-72761905D01*
X236809526Y-72857143D01*
X236761907Y-72904762D01*
X236666669Y-72952381D01*
X236523811Y-72952381D01*
X237285716Y-72952381D02*
X237285716Y-72285714D01*
X237285716Y-72476190D02*
X237333335Y-72380952D01*
X237380954Y-72333333D01*
X237476192Y-72285714D01*
X237571431Y-72285714D01*
X238052381Y-63238095D02*
X237052381Y-63238095D01*
X237052381Y-62857142D01*
X237100000Y-62761904D01*
X237147619Y-62714285D01*
X237242857Y-62666666D01*
X237385714Y-62666666D01*
X237480952Y-62714285D01*
X237528571Y-62761904D01*
X237576190Y-62857142D01*
X237576190Y-63238095D01*
X237052381Y-62333333D02*
X237052381Y-61666666D01*
X238052381Y-62095238D01*
X221171428Y-59852381D02*
X221171428Y-58852381D01*
X221647618Y-59852381D02*
X221647618Y-59185714D01*
X221647618Y-59376190D02*
X221695237Y-59280952D01*
X221742856Y-59233333D01*
X221838094Y-59185714D01*
X221933333Y-59185714D01*
X222266666Y-59852381D02*
X222266666Y-59185714D01*
X222266666Y-58852381D02*
X222219047Y-58900000D01*
X222266666Y-58947619D01*
X222314285Y-58900000D01*
X222266666Y-58852381D01*
X222266666Y-58947619D01*
X223171428Y-59852381D02*
X223171428Y-58852381D01*
X223171428Y-59804762D02*
X223076190Y-59852381D01*
X222885713Y-59852381D01*
X222790475Y-59804762D01*
X222742856Y-59757143D01*
X222695237Y-59661905D01*
X222695237Y-59376190D01*
X222742856Y-59280952D01*
X222790475Y-59233333D01*
X222885713Y-59185714D01*
X223076190Y-59185714D01*
X223171428Y-59233333D01*
X223647618Y-59852381D02*
X223647618Y-59185714D01*
X223647618Y-58852381D02*
X223599999Y-58900000D01*
X223647618Y-58947619D01*
X223695237Y-58900000D01*
X223647618Y-58852381D01*
X223647618Y-58947619D01*
X224552380Y-59185714D02*
X224552380Y-59852381D01*
X224123808Y-59185714D02*
X224123808Y-59709524D01*
X224171427Y-59804762D01*
X224266665Y-59852381D01*
X224409523Y-59852381D01*
X224504761Y-59804762D01*
X224552380Y-59757143D01*
X225028570Y-59852381D02*
X225028570Y-59185714D01*
X225028570Y-59280952D02*
X225076189Y-59233333D01*
X225171427Y-59185714D01*
X225314285Y-59185714D01*
X225409523Y-59233333D01*
X225457142Y-59328571D01*
X225457142Y-59852381D01*
X225457142Y-59328571D02*
X225504761Y-59233333D01*
X225599999Y-59185714D01*
X225742856Y-59185714D01*
X225838094Y-59233333D01*
X225885713Y-59328571D01*
X225885713Y-59852381D01*
X226123808Y-59947619D02*
X226885713Y-59947619D01*
X227552380Y-59804762D02*
X227457142Y-59852381D01*
X227266665Y-59852381D01*
X227171427Y-59804762D01*
X227123808Y-59757143D01*
X227076189Y-59661905D01*
X227076189Y-59376190D01*
X227123808Y-59280952D01*
X227171427Y-59233333D01*
X227266665Y-59185714D01*
X227457142Y-59185714D01*
X227552380Y-59233333D01*
X228123808Y-59852381D02*
X228028570Y-59804762D01*
X227980951Y-59757143D01*
X227933332Y-59661905D01*
X227933332Y-59376190D01*
X227980951Y-59280952D01*
X228028570Y-59233333D01*
X228123808Y-59185714D01*
X228266666Y-59185714D01*
X228361904Y-59233333D01*
X228409523Y-59280952D01*
X228457142Y-59376190D01*
X228457142Y-59661905D01*
X228409523Y-59757143D01*
X228361904Y-59804762D01*
X228266666Y-59852381D01*
X228123808Y-59852381D01*
X228885713Y-59185714D02*
X228885713Y-59852381D01*
X228885713Y-59280952D02*
X228933332Y-59233333D01*
X229028570Y-59185714D01*
X229171428Y-59185714D01*
X229266666Y-59233333D01*
X229314285Y-59328571D01*
X229314285Y-59852381D01*
X229790475Y-59185714D02*
X229790475Y-59852381D01*
X229790475Y-59280952D02*
X229838094Y-59233333D01*
X229933332Y-59185714D01*
X230076190Y-59185714D01*
X230171428Y-59233333D01*
X230219047Y-59328571D01*
X230219047Y-59852381D01*
X231076190Y-59804762D02*
X230980952Y-59852381D01*
X230790475Y-59852381D01*
X230695237Y-59804762D01*
X230647618Y-59709524D01*
X230647618Y-59328571D01*
X230695237Y-59233333D01*
X230790475Y-59185714D01*
X230980952Y-59185714D01*
X231076190Y-59233333D01*
X231123809Y-59328571D01*
X231123809Y-59423810D01*
X230647618Y-59519048D01*
X231980952Y-59804762D02*
X231885714Y-59852381D01*
X231695237Y-59852381D01*
X231599999Y-59804762D01*
X231552380Y-59757143D01*
X231504761Y-59661905D01*
X231504761Y-59376190D01*
X231552380Y-59280952D01*
X231599999Y-59233333D01*
X231695237Y-59185714D01*
X231885714Y-59185714D01*
X231980952Y-59233333D01*
X232266666Y-59185714D02*
X232647618Y-59185714D01*
X232409523Y-58852381D02*
X232409523Y-59709524D01*
X232457142Y-59804762D01*
X232552380Y-59852381D01*
X232647618Y-59852381D01*
X233123809Y-59852381D02*
X233028571Y-59804762D01*
X232980952Y-59757143D01*
X232933333Y-59661905D01*
X232933333Y-59376190D01*
X232980952Y-59280952D01*
X233028571Y-59233333D01*
X233123809Y-59185714D01*
X233266667Y-59185714D01*
X233361905Y-59233333D01*
X233409524Y-59280952D01*
X233457143Y-59376190D01*
X233457143Y-59661905D01*
X233409524Y-59757143D01*
X233361905Y-59804762D01*
X233266667Y-59852381D01*
X233123809Y-59852381D01*
X233885714Y-59852381D02*
X233885714Y-59185714D01*
X233885714Y-59376190D02*
X233933333Y-59280952D01*
X233980952Y-59233333D01*
X234076190Y-59185714D01*
X234171429Y-59185714D01*
X200552381Y-98238095D02*
X199552381Y-98238095D01*
X199552381Y-97857142D01*
X199600000Y-97761904D01*
X199647619Y-97714285D01*
X199742857Y-97666666D01*
X199885714Y-97666666D01*
X199980952Y-97714285D01*
X200028571Y-97761904D01*
X200076190Y-97857142D01*
X200076190Y-98238095D01*
X199980952Y-97095238D02*
X199933333Y-97190476D01*
X199885714Y-97238095D01*
X199790476Y-97285714D01*
X199742857Y-97285714D01*
X199647619Y-97238095D01*
X199600000Y-97190476D01*
X199552381Y-97095238D01*
X199552381Y-96904761D01*
X199600000Y-96809523D01*
X199647619Y-96761904D01*
X199742857Y-96714285D01*
X199790476Y-96714285D01*
X199885714Y-96761904D01*
X199933333Y-96809523D01*
X199980952Y-96904761D01*
X199980952Y-97095238D01*
X200028571Y-97190476D01*
X200076190Y-97238095D01*
X200171429Y-97285714D01*
X200361905Y-97285714D01*
X200457143Y-97238095D01*
X200504762Y-97190476D01*
X200552381Y-97095238D01*
X200552381Y-96904761D01*
X200504762Y-96809523D01*
X200457143Y-96761904D01*
X200361905Y-96714285D01*
X200171429Y-96714285D01*
X200076190Y-96761904D01*
X200028571Y-96809523D01*
X199980952Y-96904761D01*
X185642856Y-93952381D02*
X185976189Y-94952381D01*
X186309523Y-93952381D01*
X186642856Y-94952381D02*
X186642856Y-93952381D01*
X187214285Y-94952381D01*
X187214285Y-93952381D01*
X188214285Y-94952381D02*
X187642856Y-94952381D01*
X187928570Y-94952381D02*
X187928570Y-93952381D01*
X187833332Y-94095238D01*
X187738094Y-94190476D01*
X187642856Y-94238095D01*
X188833332Y-93952381D02*
X188928571Y-93952381D01*
X189023809Y-94000000D01*
X189071428Y-94047619D01*
X189119047Y-94142857D01*
X189166666Y-94333333D01*
X189166666Y-94571429D01*
X189119047Y-94761905D01*
X189071428Y-94857143D01*
X189023809Y-94904762D01*
X188928571Y-94952381D01*
X188833332Y-94952381D01*
X188738094Y-94904762D01*
X188690475Y-94857143D01*
X188642856Y-94761905D01*
X188595237Y-94571429D01*
X188595237Y-94333333D01*
X188642856Y-94142857D01*
X188690475Y-94047619D01*
X188738094Y-94000000D01*
X188833332Y-93952381D01*
X189785713Y-93952381D02*
X189880952Y-93952381D01*
X189976190Y-94000000D01*
X190023809Y-94047619D01*
X190071428Y-94142857D01*
X190119047Y-94333333D01*
X190119047Y-94571429D01*
X190071428Y-94761905D01*
X190023809Y-94857143D01*
X189976190Y-94904762D01*
X189880952Y-94952381D01*
X189785713Y-94952381D01*
X189690475Y-94904762D01*
X189642856Y-94857143D01*
X189595237Y-94761905D01*
X189547618Y-94571429D01*
X189547618Y-94333333D01*
X189595237Y-94142857D01*
X189642856Y-94047619D01*
X189690475Y-94000000D01*
X189785713Y-93952381D01*
X190309523Y-95047619D02*
X191071428Y-95047619D01*
X191738095Y-94904762D02*
X191642857Y-94952381D01*
X191452380Y-94952381D01*
X191357142Y-94904762D01*
X191309523Y-94857143D01*
X191261904Y-94761905D01*
X191261904Y-94476190D01*
X191309523Y-94380952D01*
X191357142Y-94333333D01*
X191452380Y-94285714D01*
X191642857Y-94285714D01*
X191738095Y-94333333D01*
X192309523Y-94952381D02*
X192214285Y-94904762D01*
X192166666Y-94857143D01*
X192119047Y-94761905D01*
X192119047Y-94476190D01*
X192166666Y-94380952D01*
X192214285Y-94333333D01*
X192309523Y-94285714D01*
X192452381Y-94285714D01*
X192547619Y-94333333D01*
X192595238Y-94380952D01*
X192642857Y-94476190D01*
X192642857Y-94761905D01*
X192595238Y-94857143D01*
X192547619Y-94904762D01*
X192452381Y-94952381D01*
X192309523Y-94952381D01*
X193071428Y-94285714D02*
X193071428Y-94952381D01*
X193071428Y-94380952D02*
X193119047Y-94333333D01*
X193214285Y-94285714D01*
X193357143Y-94285714D01*
X193452381Y-94333333D01*
X193500000Y-94428571D01*
X193500000Y-94952381D01*
X193976190Y-94285714D02*
X193976190Y-94952381D01*
X193976190Y-94380952D02*
X194023809Y-94333333D01*
X194119047Y-94285714D01*
X194261905Y-94285714D01*
X194357143Y-94333333D01*
X194404762Y-94428571D01*
X194404762Y-94952381D01*
X195261905Y-94904762D02*
X195166667Y-94952381D01*
X194976190Y-94952381D01*
X194880952Y-94904762D01*
X194833333Y-94809524D01*
X194833333Y-94428571D01*
X194880952Y-94333333D01*
X194976190Y-94285714D01*
X195166667Y-94285714D01*
X195261905Y-94333333D01*
X195309524Y-94428571D01*
X195309524Y-94523810D01*
X194833333Y-94619048D01*
X196166667Y-94904762D02*
X196071429Y-94952381D01*
X195880952Y-94952381D01*
X195785714Y-94904762D01*
X195738095Y-94857143D01*
X195690476Y-94761905D01*
X195690476Y-94476190D01*
X195738095Y-94380952D01*
X195785714Y-94333333D01*
X195880952Y-94285714D01*
X196071429Y-94285714D01*
X196166667Y-94333333D01*
X196452381Y-94285714D02*
X196833333Y-94285714D01*
X196595238Y-93952381D02*
X196595238Y-94809524D01*
X196642857Y-94904762D01*
X196738095Y-94952381D01*
X196833333Y-94952381D01*
X197309524Y-94952381D02*
X197214286Y-94904762D01*
X197166667Y-94857143D01*
X197119048Y-94761905D01*
X197119048Y-94476190D01*
X197166667Y-94380952D01*
X197214286Y-94333333D01*
X197309524Y-94285714D01*
X197452382Y-94285714D01*
X197547620Y-94333333D01*
X197595239Y-94380952D01*
X197642858Y-94476190D01*
X197642858Y-94761905D01*
X197595239Y-94857143D01*
X197547620Y-94904762D01*
X197452382Y-94952381D01*
X197309524Y-94952381D01*
X198071429Y-94952381D02*
X198071429Y-94285714D01*
X198071429Y-94476190D02*
X198119048Y-94380952D01*
X198166667Y-94333333D01*
X198261905Y-94285714D01*
X198357144Y-94285714D01*
X176761905Y-63052381D02*
X176761905Y-62052381D01*
X177142858Y-62052381D01*
X177238096Y-62100000D01*
X177285715Y-62147619D01*
X177333334Y-62242857D01*
X177333334Y-62385714D01*
X177285715Y-62480952D01*
X177238096Y-62528571D01*
X177142858Y-62576190D01*
X176761905Y-62576190D01*
X177809524Y-63052381D02*
X178000000Y-63052381D01*
X178095239Y-63004762D01*
X178142858Y-62957143D01*
X178238096Y-62814286D01*
X178285715Y-62623810D01*
X178285715Y-62242857D01*
X178238096Y-62147619D01*
X178190477Y-62100000D01*
X178095239Y-62052381D01*
X177904762Y-62052381D01*
X177809524Y-62100000D01*
X177761905Y-62147619D01*
X177714286Y-62242857D01*
X177714286Y-62480952D01*
X177761905Y-62576190D01*
X177809524Y-62623810D01*
X177904762Y-62671429D01*
X178095239Y-62671429D01*
X178190477Y-62623810D01*
X178238096Y-62576190D01*
X178285715Y-62480952D01*
X173500000Y-60952381D02*
X173166666Y-60476190D01*
X172928571Y-60952381D02*
X172928571Y-59952381D01*
X173309524Y-59952381D01*
X173404762Y-60000000D01*
X173452381Y-60047619D01*
X173500000Y-60142857D01*
X173500000Y-60285714D01*
X173452381Y-60380952D01*
X173404762Y-60428571D01*
X173309524Y-60476190D01*
X172928571Y-60476190D01*
X173928571Y-60952381D02*
X173928571Y-59952381D01*
X174309524Y-59952381D01*
X174404762Y-60000000D01*
X174452381Y-60047619D01*
X174500000Y-60142857D01*
X174500000Y-60285714D01*
X174452381Y-60380952D01*
X174404762Y-60428571D01*
X174309524Y-60476190D01*
X173928571Y-60476190D01*
X174928571Y-60952381D02*
X174928571Y-59952381D01*
X175166666Y-61047619D02*
X175928571Y-61047619D01*
X176595238Y-60904762D02*
X176500000Y-60952381D01*
X176309523Y-60952381D01*
X176214285Y-60904762D01*
X176166666Y-60857143D01*
X176119047Y-60761905D01*
X176119047Y-60476190D01*
X176166666Y-60380952D01*
X176214285Y-60333333D01*
X176309523Y-60285714D01*
X176500000Y-60285714D01*
X176595238Y-60333333D01*
X177166666Y-60952381D02*
X177071428Y-60904762D01*
X177023809Y-60857143D01*
X176976190Y-60761905D01*
X176976190Y-60476190D01*
X177023809Y-60380952D01*
X177071428Y-60333333D01*
X177166666Y-60285714D01*
X177309524Y-60285714D01*
X177404762Y-60333333D01*
X177452381Y-60380952D01*
X177500000Y-60476190D01*
X177500000Y-60761905D01*
X177452381Y-60857143D01*
X177404762Y-60904762D01*
X177309524Y-60952381D01*
X177166666Y-60952381D01*
X177928571Y-60285714D02*
X177928571Y-60952381D01*
X177928571Y-60380952D02*
X177976190Y-60333333D01*
X178071428Y-60285714D01*
X178214286Y-60285714D01*
X178309524Y-60333333D01*
X178357143Y-60428571D01*
X178357143Y-60952381D01*
X178833333Y-60285714D02*
X178833333Y-60952381D01*
X178833333Y-60380952D02*
X178880952Y-60333333D01*
X178976190Y-60285714D01*
X179119048Y-60285714D01*
X179214286Y-60333333D01*
X179261905Y-60428571D01*
X179261905Y-60952381D01*
X180119048Y-60904762D02*
X180023810Y-60952381D01*
X179833333Y-60952381D01*
X179738095Y-60904762D01*
X179690476Y-60809524D01*
X179690476Y-60428571D01*
X179738095Y-60333333D01*
X179833333Y-60285714D01*
X180023810Y-60285714D01*
X180119048Y-60333333D01*
X180166667Y-60428571D01*
X180166667Y-60523810D01*
X179690476Y-60619048D01*
X181023810Y-60904762D02*
X180928572Y-60952381D01*
X180738095Y-60952381D01*
X180642857Y-60904762D01*
X180595238Y-60857143D01*
X180547619Y-60761905D01*
X180547619Y-60476190D01*
X180595238Y-60380952D01*
X180642857Y-60333333D01*
X180738095Y-60285714D01*
X180928572Y-60285714D01*
X181023810Y-60333333D01*
X181309524Y-60285714D02*
X181690476Y-60285714D01*
X181452381Y-59952381D02*
X181452381Y-60809524D01*
X181500000Y-60904762D01*
X181595238Y-60952381D01*
X181690476Y-60952381D01*
X182166667Y-60952381D02*
X182071429Y-60904762D01*
X182023810Y-60857143D01*
X181976191Y-60761905D01*
X181976191Y-60476190D01*
X182023810Y-60380952D01*
X182071429Y-60333333D01*
X182166667Y-60285714D01*
X182309525Y-60285714D01*
X182404763Y-60333333D01*
X182452382Y-60380952D01*
X182500001Y-60476190D01*
X182500001Y-60761905D01*
X182452382Y-60857143D01*
X182404763Y-60904762D01*
X182309525Y-60952381D01*
X182166667Y-60952381D01*
X182928572Y-60952381D02*
X182928572Y-60285714D01*
X182928572Y-60476190D02*
X182976191Y-60380952D01*
X183023810Y-60333333D01*
X183119048Y-60285714D01*
X183214287Y-60285714D01*
X225552381Y-93714286D02*
X224552381Y-93714286D01*
X224552381Y-93333333D01*
X224600000Y-93238095D01*
X224647619Y-93190476D01*
X224742857Y-93142857D01*
X224885714Y-93142857D01*
X224980952Y-93190476D01*
X225028571Y-93238095D01*
X225076190Y-93333333D01*
X225076190Y-93714286D01*
X225552381Y-92190476D02*
X225552381Y-92761905D01*
X225552381Y-92476191D02*
X224552381Y-92476191D01*
X224695238Y-92571429D01*
X224790476Y-92666667D01*
X224838095Y-92761905D01*
X224552381Y-91571429D02*
X224552381Y-91476190D01*
X224600000Y-91380952D01*
X224647619Y-91333333D01*
X224742857Y-91285714D01*
X224933333Y-91238095D01*
X225171429Y-91238095D01*
X225361905Y-91285714D01*
X225457143Y-91333333D01*
X225504762Y-91380952D01*
X225552381Y-91476190D01*
X225552381Y-91571429D01*
X225504762Y-91666667D01*
X225457143Y-91714286D01*
X225361905Y-91761905D01*
X225171429Y-91809524D01*
X224933333Y-91809524D01*
X224742857Y-91761905D01*
X224647619Y-91714286D01*
X224600000Y-91666667D01*
X224552381Y-91571429D01*
X182852381Y-58714286D02*
X181852381Y-58714286D01*
X181852381Y-58333333D01*
X181900000Y-58238095D01*
X181947619Y-58190476D01*
X182042857Y-58142857D01*
X182185714Y-58142857D01*
X182280952Y-58190476D01*
X182328571Y-58238095D01*
X182376190Y-58333333D01*
X182376190Y-58714286D01*
X182852381Y-57190476D02*
X182852381Y-57761905D01*
X182852381Y-57476191D02*
X181852381Y-57476191D01*
X181995238Y-57571429D01*
X182090476Y-57666667D01*
X182138095Y-57761905D01*
X182852381Y-56238095D02*
X182852381Y-56809524D01*
X182852381Y-56523810D02*
X181852381Y-56523810D01*
X181995238Y-56619048D01*
X182090476Y-56714286D01*
X182138095Y-56809524D01*
X251285714Y-100552381D02*
X251285714Y-99552381D01*
X251666667Y-99552381D01*
X251761905Y-99600000D01*
X251809524Y-99647619D01*
X251857143Y-99742857D01*
X251857143Y-99885714D01*
X251809524Y-99980952D01*
X251761905Y-100028571D01*
X251666667Y-100076190D01*
X251285714Y-100076190D01*
X252809524Y-100552381D02*
X252238095Y-100552381D01*
X252523809Y-100552381D02*
X252523809Y-99552381D01*
X252428571Y-99695238D01*
X252333333Y-99790476D01*
X252238095Y-99838095D01*
X253190476Y-99647619D02*
X253238095Y-99600000D01*
X253333333Y-99552381D01*
X253571429Y-99552381D01*
X253666667Y-99600000D01*
X253714286Y-99647619D01*
X253761905Y-99742857D01*
X253761905Y-99838095D01*
X253714286Y-99980952D01*
X253142857Y-100552381D01*
X253761905Y-100552381D01*
X166285714Y-52852381D02*
X166285714Y-51852381D01*
X166666667Y-51852381D01*
X166761905Y-51900000D01*
X166809524Y-51947619D01*
X166857143Y-52042857D01*
X166857143Y-52185714D01*
X166809524Y-52280952D01*
X166761905Y-52328571D01*
X166666667Y-52376190D01*
X166285714Y-52376190D01*
X167809524Y-52852381D02*
X167238095Y-52852381D01*
X167523809Y-52852381D02*
X167523809Y-51852381D01*
X167428571Y-51995238D01*
X167333333Y-52090476D01*
X167238095Y-52138095D01*
X168142857Y-51852381D02*
X168761905Y-51852381D01*
X168428571Y-52233333D01*
X168571429Y-52233333D01*
X168666667Y-52280952D01*
X168714286Y-52328571D01*
X168761905Y-52423810D01*
X168761905Y-52661905D01*
X168714286Y-52757143D01*
X168666667Y-52804762D01*
X168571429Y-52852381D01*
X168285714Y-52852381D01*
X168190476Y-52804762D01*
X168142857Y-52757143D01*
X208785714Y-52852381D02*
X208785714Y-51852381D01*
X209166667Y-51852381D01*
X209261905Y-51900000D01*
X209309524Y-51947619D01*
X209357143Y-52042857D01*
X209357143Y-52185714D01*
X209309524Y-52280952D01*
X209261905Y-52328571D01*
X209166667Y-52376190D01*
X208785714Y-52376190D01*
X210309524Y-52852381D02*
X209738095Y-52852381D01*
X210023809Y-52852381D02*
X210023809Y-51852381D01*
X209928571Y-51995238D01*
X209833333Y-52090476D01*
X209738095Y-52138095D01*
X211166667Y-52185714D02*
X211166667Y-52852381D01*
X210928571Y-51804762D02*
X210690476Y-52519048D01*
X211309524Y-52519048D01*
X178785714Y-92852381D02*
X178785714Y-91852381D01*
X179166667Y-91852381D01*
X179261905Y-91900000D01*
X179309524Y-91947619D01*
X179357143Y-92042857D01*
X179357143Y-92185714D01*
X179309524Y-92280952D01*
X179261905Y-92328571D01*
X179166667Y-92376190D01*
X178785714Y-92376190D01*
X180309524Y-92852381D02*
X179738095Y-92852381D01*
X180023809Y-92852381D02*
X180023809Y-91852381D01*
X179928571Y-91995238D01*
X179833333Y-92090476D01*
X179738095Y-92138095D01*
X181214286Y-91852381D02*
X180738095Y-91852381D01*
X180690476Y-92328571D01*
X180738095Y-92280952D01*
X180833333Y-92233333D01*
X181071429Y-92233333D01*
X181166667Y-92280952D01*
X181214286Y-92328571D01*
X181261905Y-92423810D01*
X181261905Y-92661905D01*
X181214286Y-92757143D01*
X181166667Y-92804762D01*
X181071429Y-92852381D01*
X180833333Y-92852381D01*
X180738095Y-92804762D01*
X180690476Y-92757143D01*
X181452501Y-119995586D02*
X180976310Y-120328920D01*
X181452501Y-120567015D02*
X180452501Y-120567015D01*
X180452501Y-120186062D01*
X180500120Y-120090824D01*
X180547739Y-120043205D01*
X180642977Y-119995586D01*
X180785834Y-119995586D01*
X180881072Y-120043205D01*
X180928691Y-120090824D01*
X180976310Y-120186062D01*
X180976310Y-120567015D01*
X181452501Y-119043205D02*
X181452501Y-119614634D01*
X181452501Y-119328920D02*
X180452501Y-119328920D01*
X180595358Y-119424158D01*
X180690596Y-119519396D01*
X180738215Y-119614634D01*
X177227381Y-120205952D02*
X177227381Y-120682143D01*
X177703571Y-120729762D01*
X177655952Y-120682143D01*
X177608333Y-120586905D01*
X177608333Y-120348809D01*
X177655952Y-120253571D01*
X177703571Y-120205952D01*
X177798810Y-120158333D01*
X178036905Y-120158333D01*
X178132143Y-120205952D01*
X178179762Y-120253571D01*
X178227381Y-120348809D01*
X178227381Y-120586905D01*
X178179762Y-120682143D01*
X178132143Y-120729762D01*
X178132143Y-119729762D02*
X178179762Y-119682143D01*
X178227381Y-119729762D01*
X178179762Y-119777381D01*
X178132143Y-119729762D01*
X178227381Y-119729762D01*
X177227381Y-118825000D02*
X177227381Y-119015477D01*
X177275000Y-119110715D01*
X177322619Y-119158334D01*
X177465476Y-119253572D01*
X177655952Y-119301191D01*
X178036905Y-119301191D01*
X178132143Y-119253572D01*
X178179762Y-119205953D01*
X178227381Y-119110715D01*
X178227381Y-118920238D01*
X178179762Y-118825000D01*
X178132143Y-118777381D01*
X178036905Y-118729762D01*
X177798810Y-118729762D01*
X177703571Y-118777381D01*
X177655952Y-118825000D01*
X177608333Y-118920238D01*
X177608333Y-119110715D01*
X177655952Y-119205953D01*
X177703571Y-119253572D01*
X177798810Y-119301191D01*
X178227381Y-118301191D02*
X177227381Y-118301191D01*
X177846429Y-118205953D02*
X178227381Y-117920238D01*
X177560714Y-117920238D02*
X177941667Y-118301191D01*
X176452501Y-119995586D02*
X175976310Y-120328920D01*
X176452501Y-120567015D02*
X175452501Y-120567015D01*
X175452501Y-120186062D01*
X175500120Y-120090824D01*
X175547739Y-120043205D01*
X175642977Y-119995586D01*
X175785834Y-119995586D01*
X175881072Y-120043205D01*
X175928691Y-120090824D01*
X175976310Y-120186062D01*
X175976310Y-120567015D01*
X175547739Y-119614634D02*
X175500120Y-119567015D01*
X175452501Y-119471777D01*
X175452501Y-119233681D01*
X175500120Y-119138443D01*
X175547739Y-119090824D01*
X175642977Y-119043205D01*
X175738215Y-119043205D01*
X175881072Y-119090824D01*
X176452501Y-119662253D01*
X176452501Y-119043205D01*
X171527381Y-121177381D02*
X171527381Y-120558333D01*
X171908333Y-120891667D01*
X171908333Y-120748809D01*
X171955952Y-120653571D01*
X172003571Y-120605952D01*
X172098810Y-120558333D01*
X172336905Y-120558333D01*
X172432143Y-120605952D01*
X172479762Y-120653571D01*
X172527381Y-120748809D01*
X172527381Y-121034524D01*
X172479762Y-121129762D01*
X172432143Y-121177381D01*
X172432143Y-120129762D02*
X172479762Y-120082143D01*
X172527381Y-120129762D01*
X172479762Y-120177381D01*
X172432143Y-120129762D01*
X172527381Y-120129762D01*
X172527381Y-119605953D02*
X172527381Y-119415477D01*
X172479762Y-119320238D01*
X172432143Y-119272619D01*
X172289286Y-119177381D01*
X172098810Y-119129762D01*
X171717857Y-119129762D01*
X171622619Y-119177381D01*
X171575000Y-119225000D01*
X171527381Y-119320238D01*
X171527381Y-119510715D01*
X171575000Y-119605953D01*
X171622619Y-119653572D01*
X171717857Y-119701191D01*
X171955952Y-119701191D01*
X172051190Y-119653572D01*
X172098810Y-119605953D01*
X172146429Y-119510715D01*
X172146429Y-119320238D01*
X172098810Y-119225000D01*
X172051190Y-119177381D01*
X171955952Y-119129762D01*
X172527381Y-118701191D02*
X171527381Y-118701191D01*
X172146429Y-118605953D02*
X172527381Y-118320238D01*
X171860714Y-118320238D02*
X172241667Y-118701191D01*
X202004414Y-125952501D02*
X201671080Y-125476310D01*
X201432985Y-125952501D02*
X201432985Y-124952501D01*
X201813938Y-124952501D01*
X201909176Y-125000120D01*
X201956795Y-125047739D01*
X202004414Y-125142977D01*
X202004414Y-125285834D01*
X201956795Y-125381072D01*
X201909176Y-125428691D01*
X201813938Y-125476310D01*
X201432985Y-125476310D01*
X202337747Y-124952501D02*
X202956795Y-124952501D01*
X202623461Y-125333453D01*
X202766319Y-125333453D01*
X202861557Y-125381072D01*
X202909176Y-125428691D01*
X202956795Y-125523930D01*
X202956795Y-125762025D01*
X202909176Y-125857263D01*
X202861557Y-125904882D01*
X202766319Y-125952501D01*
X202480604Y-125952501D01*
X202385366Y-125904882D01*
X202337747Y-125857263D01*
X201707143Y-116277381D02*
X201230952Y-116277381D01*
X201183333Y-116753571D01*
X201230952Y-116705952D01*
X201326190Y-116658333D01*
X201564286Y-116658333D01*
X201659524Y-116705952D01*
X201707143Y-116753571D01*
X201754762Y-116848810D01*
X201754762Y-117086905D01*
X201707143Y-117182143D01*
X201659524Y-117229762D01*
X201564286Y-117277381D01*
X201326190Y-117277381D01*
X201230952Y-117229762D01*
X201183333Y-117182143D01*
X202373809Y-116277381D02*
X202469048Y-116277381D01*
X202564286Y-116325000D01*
X202611905Y-116372619D01*
X202659524Y-116467857D01*
X202707143Y-116658333D01*
X202707143Y-116896429D01*
X202659524Y-117086905D01*
X202611905Y-117182143D01*
X202564286Y-117229762D01*
X202469048Y-117277381D01*
X202373809Y-117277381D01*
X202278571Y-117229762D01*
X202230952Y-117182143D01*
X202183333Y-117086905D01*
X202135714Y-116896429D01*
X202135714Y-116658333D01*
X202183333Y-116467857D01*
X202230952Y-116372619D01*
X202278571Y-116325000D01*
X202373809Y-116277381D01*
X203135714Y-117277381D02*
X203135714Y-116277381D01*
X203230952Y-116896429D02*
X203516667Y-117277381D01*
X203516667Y-116610714D02*
X203135714Y-116991667D01*
X207662254Y-128952261D02*
X207328920Y-128476070D01*
X207090825Y-128952261D02*
X207090825Y-127952261D01*
X207471778Y-127952261D01*
X207567016Y-127999880D01*
X207614635Y-128047499D01*
X207662254Y-128142737D01*
X207662254Y-128285594D01*
X207614635Y-128380832D01*
X207567016Y-128428451D01*
X207471778Y-128476070D01*
X207090825Y-128476070D01*
X208519397Y-128285594D02*
X208519397Y-128952261D01*
X208281301Y-127904642D02*
X208043206Y-128618928D01*
X208662254Y-128618928D01*
X206911905Y-131797619D02*
X206959524Y-131750000D01*
X207054762Y-131702381D01*
X207292858Y-131702381D01*
X207388096Y-131750000D01*
X207435715Y-131797619D01*
X207483334Y-131892857D01*
X207483334Y-131988095D01*
X207435715Y-132130952D01*
X206864286Y-132702381D01*
X207483334Y-132702381D01*
X207864286Y-131797619D02*
X207911905Y-131750000D01*
X208007143Y-131702381D01*
X208245239Y-131702381D01*
X208340477Y-131750000D01*
X208388096Y-131797619D01*
X208435715Y-131892857D01*
X208435715Y-131988095D01*
X208388096Y-132130952D01*
X207816667Y-132702381D01*
X208435715Y-132702381D01*
X209054762Y-131702381D02*
X209150001Y-131702381D01*
X209245239Y-131750000D01*
X209292858Y-131797619D01*
X209340477Y-131892857D01*
X209388096Y-132083333D01*
X209388096Y-132321429D01*
X209340477Y-132511905D01*
X209292858Y-132607143D01*
X209245239Y-132654762D01*
X209150001Y-132702381D01*
X209054762Y-132702381D01*
X208959524Y-132654762D01*
X208911905Y-132607143D01*
X208864286Y-132511905D01*
X208816667Y-132321429D01*
X208816667Y-132083333D01*
X208864286Y-131892857D01*
X208911905Y-131797619D01*
X208959524Y-131750000D01*
X209054762Y-131702381D01*
X190162254Y-128952261D02*
X189828920Y-128476070D01*
X189590825Y-128952261D02*
X189590825Y-127952261D01*
X189971778Y-127952261D01*
X190067016Y-127999880D01*
X190114635Y-128047499D01*
X190162254Y-128142737D01*
X190162254Y-128285594D01*
X190114635Y-128380832D01*
X190067016Y-128428451D01*
X189971778Y-128476070D01*
X189590825Y-128476070D01*
X191067016Y-127952261D02*
X190590825Y-127952261D01*
X190543206Y-128428451D01*
X190590825Y-128380832D01*
X190686063Y-128333213D01*
X190924159Y-128333213D01*
X191019397Y-128380832D01*
X191067016Y-128428451D01*
X191114635Y-128523690D01*
X191114635Y-128761785D01*
X191067016Y-128857023D01*
X191019397Y-128904642D01*
X190924159Y-128952261D01*
X190686063Y-128952261D01*
X190590825Y-128904642D01*
X190543206Y-128857023D01*
X189482143Y-131202381D02*
X189005952Y-131202381D01*
X188958333Y-131678571D01*
X189005952Y-131630952D01*
X189101190Y-131583333D01*
X189339286Y-131583333D01*
X189434524Y-131630952D01*
X189482143Y-131678571D01*
X189529762Y-131773810D01*
X189529762Y-132011905D01*
X189482143Y-132107143D01*
X189434524Y-132154762D01*
X189339286Y-132202381D01*
X189101190Y-132202381D01*
X189005952Y-132154762D01*
X188958333Y-132107143D01*
X190148809Y-131202381D02*
X190244048Y-131202381D01*
X190339286Y-131250000D01*
X190386905Y-131297619D01*
X190434524Y-131392857D01*
X190482143Y-131583333D01*
X190482143Y-131821429D01*
X190434524Y-132011905D01*
X190386905Y-132107143D01*
X190339286Y-132154762D01*
X190244048Y-132202381D01*
X190148809Y-132202381D01*
X190053571Y-132154762D01*
X190005952Y-132107143D01*
X189958333Y-132011905D01*
X189910714Y-131821429D01*
X189910714Y-131583333D01*
X189958333Y-131392857D01*
X190005952Y-131297619D01*
X190053571Y-131250000D01*
X190148809Y-131202381D01*
X190910714Y-132202381D02*
X190910714Y-131202381D01*
X191005952Y-131821429D02*
X191291667Y-132202381D01*
X191291667Y-131535714D02*
X190910714Y-131916667D01*
X202662254Y-113952261D02*
X202328920Y-113476070D01*
X202090825Y-113952261D02*
X202090825Y-112952261D01*
X202471778Y-112952261D01*
X202567016Y-112999880D01*
X202614635Y-113047499D01*
X202662254Y-113142737D01*
X202662254Y-113285594D01*
X202614635Y-113380832D01*
X202567016Y-113428451D01*
X202471778Y-113476070D01*
X202090825Y-113476070D01*
X203519397Y-112952261D02*
X203328920Y-112952261D01*
X203233682Y-112999880D01*
X203186063Y-113047499D01*
X203090825Y-113190356D01*
X203043206Y-113380832D01*
X203043206Y-113761785D01*
X203090825Y-113857023D01*
X203138444Y-113904642D01*
X203233682Y-113952261D01*
X203424159Y-113952261D01*
X203519397Y-113904642D01*
X203567016Y-113857023D01*
X203614635Y-113761785D01*
X203614635Y-113523690D01*
X203567016Y-113428451D01*
X203519397Y-113380832D01*
X203424159Y-113333213D01*
X203233682Y-113333213D01*
X203138444Y-113380832D01*
X203090825Y-113428451D01*
X203043206Y-113523690D01*
X201832143Y-121502381D02*
X201355952Y-121502381D01*
X201308333Y-121978571D01*
X201355952Y-121930952D01*
X201451190Y-121883333D01*
X201689286Y-121883333D01*
X201784524Y-121930952D01*
X201832143Y-121978571D01*
X201879762Y-122073810D01*
X201879762Y-122311905D01*
X201832143Y-122407143D01*
X201784524Y-122454762D01*
X201689286Y-122502381D01*
X201451190Y-122502381D01*
X201355952Y-122454762D01*
X201308333Y-122407143D01*
X202498809Y-121502381D02*
X202594048Y-121502381D01*
X202689286Y-121550000D01*
X202736905Y-121597619D01*
X202784524Y-121692857D01*
X202832143Y-121883333D01*
X202832143Y-122121429D01*
X202784524Y-122311905D01*
X202736905Y-122407143D01*
X202689286Y-122454762D01*
X202594048Y-122502381D01*
X202498809Y-122502381D01*
X202403571Y-122454762D01*
X202355952Y-122407143D01*
X202308333Y-122311905D01*
X202260714Y-122121429D01*
X202260714Y-121883333D01*
X202308333Y-121692857D01*
X202355952Y-121597619D01*
X202403571Y-121550000D01*
X202498809Y-121502381D01*
X203260714Y-122502381D02*
X203260714Y-121502381D01*
X203355952Y-122121429D02*
X203641667Y-122502381D01*
X203641667Y-121835714D02*
X203260714Y-122216667D01*
X202004414Y-130952501D02*
X201671080Y-130476310D01*
X201432985Y-130952501D02*
X201432985Y-129952501D01*
X201813938Y-129952501D01*
X201909176Y-130000120D01*
X201956795Y-130047739D01*
X202004414Y-130142977D01*
X202004414Y-130285834D01*
X201956795Y-130381072D01*
X201909176Y-130428691D01*
X201813938Y-130476310D01*
X201432985Y-130476310D01*
X202337747Y-129952501D02*
X203004414Y-129952501D01*
X202575842Y-130952501D01*
X201882143Y-126652381D02*
X201405952Y-126652381D01*
X201358333Y-127128571D01*
X201405952Y-127080952D01*
X201501190Y-127033333D01*
X201739286Y-127033333D01*
X201834524Y-127080952D01*
X201882143Y-127128571D01*
X201929762Y-127223810D01*
X201929762Y-127461905D01*
X201882143Y-127557143D01*
X201834524Y-127604762D01*
X201739286Y-127652381D01*
X201501190Y-127652381D01*
X201405952Y-127604762D01*
X201358333Y-127557143D01*
X202548809Y-126652381D02*
X202644048Y-126652381D01*
X202739286Y-126700000D01*
X202786905Y-126747619D01*
X202834524Y-126842857D01*
X202882143Y-127033333D01*
X202882143Y-127271429D01*
X202834524Y-127461905D01*
X202786905Y-127557143D01*
X202739286Y-127604762D01*
X202644048Y-127652381D01*
X202548809Y-127652381D01*
X202453571Y-127604762D01*
X202405952Y-127557143D01*
X202358333Y-127461905D01*
X202310714Y-127271429D01*
X202310714Y-127033333D01*
X202358333Y-126842857D01*
X202405952Y-126747619D01*
X202453571Y-126700000D01*
X202548809Y-126652381D01*
X203310714Y-127652381D02*
X203310714Y-126652381D01*
X203405952Y-127271429D02*
X203691667Y-127652381D01*
X203691667Y-126985714D02*
X203310714Y-127366667D01*
X172004414Y-81452501D02*
X171671080Y-80976310D01*
X171432985Y-81452501D02*
X171432985Y-80452501D01*
X171813938Y-80452501D01*
X171909176Y-80500120D01*
X171956795Y-80547739D01*
X172004414Y-80642977D01*
X172004414Y-80785834D01*
X171956795Y-80881072D01*
X171909176Y-80928691D01*
X171813938Y-80976310D01*
X171432985Y-80976310D01*
X172575842Y-80881072D02*
X172480604Y-80833453D01*
X172432985Y-80785834D01*
X172385366Y-80690596D01*
X172385366Y-80642977D01*
X172432985Y-80547739D01*
X172480604Y-80500120D01*
X172575842Y-80452501D01*
X172766319Y-80452501D01*
X172861557Y-80500120D01*
X172909176Y-80547739D01*
X172956795Y-80642977D01*
X172956795Y-80690596D01*
X172909176Y-80785834D01*
X172861557Y-80833453D01*
X172766319Y-80881072D01*
X172575842Y-80881072D01*
X172480604Y-80928691D01*
X172432985Y-80976310D01*
X172385366Y-81071549D01*
X172385366Y-81262025D01*
X172432985Y-81357263D01*
X172480604Y-81404882D01*
X172575842Y-81452501D01*
X172766319Y-81452501D01*
X172861557Y-81404882D01*
X172909176Y-81357263D01*
X172956795Y-81262025D01*
X172956795Y-81071549D01*
X172909176Y-80976310D01*
X172861557Y-80928691D01*
X172766319Y-80881072D01*
X171734524Y-77160714D02*
X171734524Y-77827381D01*
X171496428Y-76779762D02*
X171258333Y-77494048D01*
X171877381Y-77494048D01*
X172686905Y-76827381D02*
X172496428Y-76827381D01*
X172401190Y-76875000D01*
X172353571Y-76922619D01*
X172258333Y-77065476D01*
X172210714Y-77255952D01*
X172210714Y-77636905D01*
X172258333Y-77732143D01*
X172305952Y-77779762D01*
X172401190Y-77827381D01*
X172591667Y-77827381D01*
X172686905Y-77779762D01*
X172734524Y-77732143D01*
X172782143Y-77636905D01*
X172782143Y-77398810D01*
X172734524Y-77303571D01*
X172686905Y-77255952D01*
X172591667Y-77208333D01*
X172401190Y-77208333D01*
X172305952Y-77255952D01*
X172258333Y-77303571D01*
X172210714Y-77398810D01*
X173210714Y-77827381D02*
X173210714Y-76827381D01*
X173305952Y-77446429D02*
X173591667Y-77827381D01*
X173591667Y-77160714D02*
X173210714Y-77541667D01*
X172662254Y-66952261D02*
X172328920Y-66476070D01*
X172090825Y-66952261D02*
X172090825Y-65952261D01*
X172471778Y-65952261D01*
X172567016Y-65999880D01*
X172614635Y-66047499D01*
X172662254Y-66142737D01*
X172662254Y-66285594D01*
X172614635Y-66380832D01*
X172567016Y-66428451D01*
X172471778Y-66476070D01*
X172090825Y-66476070D01*
X173138444Y-66952261D02*
X173328920Y-66952261D01*
X173424159Y-66904642D01*
X173471778Y-66857023D01*
X173567016Y-66714166D01*
X173614635Y-66523690D01*
X173614635Y-66142737D01*
X173567016Y-66047499D01*
X173519397Y-65999880D01*
X173424159Y-65952261D01*
X173233682Y-65952261D01*
X173138444Y-65999880D01*
X173090825Y-66047499D01*
X173043206Y-66142737D01*
X173043206Y-66380832D01*
X173090825Y-66476070D01*
X173138444Y-66523690D01*
X173233682Y-66571309D01*
X173424159Y-66571309D01*
X173519397Y-66523690D01*
X173567016Y-66476070D01*
X173614635Y-66380832D01*
X171385714Y-69452381D02*
X172004762Y-69452381D01*
X171671428Y-69833333D01*
X171814286Y-69833333D01*
X171909524Y-69880952D01*
X171957143Y-69928571D01*
X172004762Y-70023810D01*
X172004762Y-70261905D01*
X171957143Y-70357143D01*
X171909524Y-70404762D01*
X171814286Y-70452381D01*
X171528571Y-70452381D01*
X171433333Y-70404762D01*
X171385714Y-70357143D01*
X172385714Y-69547619D02*
X172433333Y-69500000D01*
X172528571Y-69452381D01*
X172766667Y-69452381D01*
X172861905Y-69500000D01*
X172909524Y-69547619D01*
X172957143Y-69642857D01*
X172957143Y-69738095D01*
X172909524Y-69880952D01*
X172338095Y-70452381D01*
X172957143Y-70452381D01*
X173385714Y-70452381D02*
X173385714Y-69452381D01*
X173480952Y-70071429D02*
X173766667Y-70452381D01*
X173766667Y-69785714D02*
X173385714Y-70166667D01*
X186738095Y-118872381D02*
X186738095Y-119681905D01*
X186785714Y-119777143D01*
X186833333Y-119824762D01*
X186928571Y-119872381D01*
X187119048Y-119872381D01*
X187214286Y-119824762D01*
X187261905Y-119777143D01*
X187309524Y-119681905D01*
X187309524Y-118872381D01*
X188309524Y-119872381D02*
X187738095Y-119872381D01*
X188023809Y-119872381D02*
X188023809Y-118872381D01*
X187928571Y-119015238D01*
X187833333Y-119110476D01*
X187738095Y-119158095D01*
X181523809Y-127452381D02*
X181523809Y-126452381D01*
X182571428Y-127452381D02*
X182238094Y-126976190D01*
X181999999Y-127452381D02*
X181999999Y-126452381D01*
X182380952Y-126452381D01*
X182476190Y-126500000D01*
X182523809Y-126547619D01*
X182571428Y-126642857D01*
X182571428Y-126785714D01*
X182523809Y-126880952D01*
X182476190Y-126928571D01*
X182380952Y-126976190D01*
X181999999Y-126976190D01*
X183476190Y-127452381D02*
X182999999Y-127452381D01*
X182999999Y-126452381D01*
X184142857Y-126928571D02*
X184285714Y-126976190D01*
X184333333Y-127023810D01*
X184380952Y-127119048D01*
X184380952Y-127261905D01*
X184333333Y-127357143D01*
X184285714Y-127404762D01*
X184190476Y-127452381D01*
X183809523Y-127452381D01*
X183809523Y-126452381D01*
X184142857Y-126452381D01*
X184238095Y-126500000D01*
X184285714Y-126547619D01*
X184333333Y-126642857D01*
X184333333Y-126738095D01*
X184285714Y-126833333D01*
X184238095Y-126880952D01*
X184142857Y-126928571D01*
X183809523Y-126928571D01*
X184571428Y-127547619D02*
X185333333Y-127547619D01*
X185714285Y-126880952D02*
X185619047Y-126833333D01*
X185571428Y-126785714D01*
X185523809Y-126690476D01*
X185523809Y-126642857D01*
X185571428Y-126547619D01*
X185619047Y-126500000D01*
X185714285Y-126452381D01*
X185904762Y-126452381D01*
X186000000Y-126500000D01*
X186047619Y-126547619D01*
X186095238Y-126642857D01*
X186095238Y-126690476D01*
X186047619Y-126785714D01*
X186000000Y-126833333D01*
X185904762Y-126880952D01*
X185714285Y-126880952D01*
X185619047Y-126928571D01*
X185571428Y-126976190D01*
X185523809Y-127071429D01*
X185523809Y-127261905D01*
X185571428Y-127357143D01*
X185619047Y-127404762D01*
X185714285Y-127452381D01*
X185904762Y-127452381D01*
X186000000Y-127404762D01*
X186047619Y-127357143D01*
X186095238Y-127261905D01*
X186095238Y-127071429D01*
X186047619Y-126976190D01*
X186000000Y-126928571D01*
X185904762Y-126880952D01*
X186428571Y-126452381D02*
X187095238Y-126452381D01*
X186666666Y-127452381D01*
X187428571Y-126547619D02*
X187476190Y-126500000D01*
X187571428Y-126452381D01*
X187809524Y-126452381D01*
X187904762Y-126500000D01*
X187952381Y-126547619D01*
X188000000Y-126642857D01*
X188000000Y-126738095D01*
X187952381Y-126880952D01*
X187380952Y-127452381D01*
X188000000Y-127452381D01*
X188952381Y-127452381D02*
X188380952Y-127452381D01*
X188666666Y-127452381D02*
X188666666Y-126452381D01*
X188571428Y-126595238D01*
X188476190Y-126690476D01*
X188380952Y-126738095D01*
X189142857Y-127547619D02*
X189904762Y-127547619D01*
X190095238Y-127404762D02*
X190238095Y-127452381D01*
X190476191Y-127452381D01*
X190571429Y-127404762D01*
X190619048Y-127357143D01*
X190666667Y-127261905D01*
X190666667Y-127166667D01*
X190619048Y-127071429D01*
X190571429Y-127023810D01*
X190476191Y-126976190D01*
X190285714Y-126928571D01*
X190190476Y-126880952D01*
X190142857Y-126833333D01*
X190095238Y-126738095D01*
X190095238Y-126642857D01*
X190142857Y-126547619D01*
X190190476Y-126500000D01*
X190285714Y-126452381D01*
X190523810Y-126452381D01*
X190666667Y-126500000D01*
X191285714Y-126452381D02*
X191476191Y-126452381D01*
X191571429Y-126500000D01*
X191666667Y-126595238D01*
X191714286Y-126785714D01*
X191714286Y-127119048D01*
X191666667Y-127309524D01*
X191571429Y-127404762D01*
X191476191Y-127452381D01*
X191285714Y-127452381D01*
X191190476Y-127404762D01*
X191095238Y-127309524D01*
X191047619Y-127119048D01*
X191047619Y-126785714D01*
X191095238Y-126595238D01*
X191190476Y-126500000D01*
X191285714Y-126452381D01*
X192619048Y-127452381D02*
X192142857Y-127452381D01*
X192142857Y-126452381D01*
X186738095Y-111372381D02*
X186738095Y-112181905D01*
X186785714Y-112277143D01*
X186833333Y-112324762D01*
X186928571Y-112372381D01*
X187119048Y-112372381D01*
X187214286Y-112324762D01*
X187261905Y-112277143D01*
X187309524Y-112181905D01*
X187309524Y-111372381D01*
X187738095Y-111467619D02*
X187785714Y-111420000D01*
X187880952Y-111372381D01*
X188119048Y-111372381D01*
X188214286Y-111420000D01*
X188261905Y-111467619D01*
X188309524Y-111562857D01*
X188309524Y-111658095D01*
X188261905Y-111800952D01*
X187690476Y-112372381D01*
X188309524Y-112372381D01*
X181761905Y-113452381D02*
X181761905Y-112452381D01*
X182809524Y-113452381D02*
X182476190Y-112976190D01*
X182238095Y-113452381D02*
X182238095Y-112452381D01*
X182619048Y-112452381D01*
X182714286Y-112500000D01*
X182761905Y-112547619D01*
X182809524Y-112642857D01*
X182809524Y-112785714D01*
X182761905Y-112880952D01*
X182714286Y-112928571D01*
X182619048Y-112976190D01*
X182238095Y-112976190D01*
X183714286Y-113452381D02*
X183238095Y-113452381D01*
X183238095Y-112452381D01*
X184000000Y-113404762D02*
X184142857Y-113452381D01*
X184380953Y-113452381D01*
X184476191Y-113404762D01*
X184523810Y-113357143D01*
X184571429Y-113261905D01*
X184571429Y-113166667D01*
X184523810Y-113071429D01*
X184476191Y-113023810D01*
X184380953Y-112976190D01*
X184190476Y-112928571D01*
X184095238Y-112880952D01*
X184047619Y-112833333D01*
X184000000Y-112738095D01*
X184000000Y-112642857D01*
X184047619Y-112547619D01*
X184095238Y-112500000D01*
X184190476Y-112452381D01*
X184428572Y-112452381D01*
X184571429Y-112500000D01*
X185000000Y-113071429D02*
X185761905Y-113071429D01*
X186380952Y-112880952D02*
X186285714Y-112833333D01*
X186238095Y-112785714D01*
X186190476Y-112690476D01*
X186190476Y-112642857D01*
X186238095Y-112547619D01*
X186285714Y-112500000D01*
X186380952Y-112452381D01*
X186571429Y-112452381D01*
X186666667Y-112500000D01*
X186714286Y-112547619D01*
X186761905Y-112642857D01*
X186761905Y-112690476D01*
X186714286Y-112785714D01*
X186666667Y-112833333D01*
X186571429Y-112880952D01*
X186380952Y-112880952D01*
X186285714Y-112928571D01*
X186238095Y-112976190D01*
X186190476Y-113071429D01*
X186190476Y-113261905D01*
X186238095Y-113357143D01*
X186285714Y-113404762D01*
X186380952Y-113452381D01*
X186571429Y-113452381D01*
X186666667Y-113404762D01*
X186714286Y-113357143D01*
X186761905Y-113261905D01*
X186761905Y-113071429D01*
X186714286Y-112976190D01*
X186666667Y-112928571D01*
X186571429Y-112880952D01*
X187095238Y-112452381D02*
X187761905Y-112452381D01*
X187333333Y-113452381D01*
X188095238Y-112547619D02*
X188142857Y-112500000D01*
X188238095Y-112452381D01*
X188476191Y-112452381D01*
X188571429Y-112500000D01*
X188619048Y-112547619D01*
X188666667Y-112642857D01*
X188666667Y-112738095D01*
X188619048Y-112880952D01*
X188047619Y-113452381D01*
X188666667Y-113452381D01*
X189619048Y-113452381D02*
X189047619Y-113452381D01*
X189333333Y-113452381D02*
X189333333Y-112452381D01*
X189238095Y-112595238D01*
X189142857Y-112690476D01*
X189047619Y-112738095D01*
X189809524Y-113547619D02*
X190571429Y-113547619D01*
X190809524Y-113452381D02*
X190809524Y-112452381D01*
X191142858Y-113166667D01*
X191476191Y-112452381D01*
X191476191Y-113452381D01*
X191952381Y-112928571D02*
X192285715Y-112928571D01*
X192428572Y-113452381D02*
X191952381Y-113452381D01*
X191952381Y-112452381D01*
X192428572Y-112452381D01*
X193380953Y-112500000D02*
X193285715Y-112452381D01*
X193142858Y-112452381D01*
X193000000Y-112500000D01*
X192904762Y-112595238D01*
X192857143Y-112690476D01*
X192809524Y-112880952D01*
X192809524Y-113023810D01*
X192857143Y-113214286D01*
X192904762Y-113309524D01*
X193000000Y-113404762D01*
X193142858Y-113452381D01*
X193238096Y-113452381D01*
X193380953Y-113404762D01*
X193428572Y-113357143D01*
X193428572Y-113023810D01*
X193238096Y-113023810D01*
X193809524Y-113166667D02*
X194285715Y-113166667D01*
X193714286Y-113452381D02*
X194047619Y-112452381D01*
X194380953Y-113452381D01*
X189238095Y-61732381D02*
X189238095Y-62541905D01*
X189285714Y-62637143D01*
X189333333Y-62684762D01*
X189428571Y-62732381D01*
X189619048Y-62732381D01*
X189714286Y-62684762D01*
X189761905Y-62637143D01*
X189809524Y-62541905D01*
X189809524Y-61732381D01*
X190190476Y-61732381D02*
X190809524Y-61732381D01*
X190476190Y-62113333D01*
X190619048Y-62113333D01*
X190714286Y-62160952D01*
X190761905Y-62208571D01*
X190809524Y-62303810D01*
X190809524Y-62541905D01*
X190761905Y-62637143D01*
X190714286Y-62684762D01*
X190619048Y-62732381D01*
X190333333Y-62732381D01*
X190238095Y-62684762D01*
X190190476Y-62637143D01*
X193977381Y-78267857D02*
X192977381Y-78267857D01*
X193691667Y-77934523D01*
X192977381Y-77601190D01*
X193977381Y-77601190D01*
X193691667Y-77172619D02*
X193691667Y-76696428D01*
X193977381Y-77267857D02*
X192977381Y-76934524D01*
X193977381Y-76601190D01*
X192977381Y-76363095D02*
X193977381Y-75696428D01*
X192977381Y-75696428D02*
X193977381Y-76363095D01*
X192977381Y-75410714D02*
X192977381Y-74791666D01*
X193358333Y-75125000D01*
X193358333Y-74982142D01*
X193405952Y-74886904D01*
X193453571Y-74839285D01*
X193548810Y-74791666D01*
X193786905Y-74791666D01*
X193882143Y-74839285D01*
X193929762Y-74886904D01*
X193977381Y-74982142D01*
X193977381Y-75267857D01*
X193929762Y-75363095D01*
X193882143Y-75410714D01*
X192977381Y-74458333D02*
X192977381Y-73839285D01*
X193358333Y-74172619D01*
X193358333Y-74029761D01*
X193405952Y-73934523D01*
X193453571Y-73886904D01*
X193548810Y-73839285D01*
X193786905Y-73839285D01*
X193882143Y-73886904D01*
X193929762Y-73934523D01*
X193977381Y-74029761D01*
X193977381Y-74315476D01*
X193929762Y-74410714D01*
X193882143Y-74458333D01*
X193072619Y-73458333D02*
X193025000Y-73410714D01*
X192977381Y-73315476D01*
X192977381Y-73077380D01*
X193025000Y-72982142D01*
X193072619Y-72934523D01*
X193167857Y-72886904D01*
X193263095Y-72886904D01*
X193405952Y-72934523D01*
X193977381Y-73505952D01*
X193977381Y-72886904D01*
X192977381Y-72553571D02*
X192977381Y-71934523D01*
X193358333Y-72267857D01*
X193358333Y-72124999D01*
X193405952Y-72029761D01*
X193453571Y-71982142D01*
X193548810Y-71934523D01*
X193786905Y-71934523D01*
X193882143Y-71982142D01*
X193929762Y-72029761D01*
X193977381Y-72124999D01*
X193977381Y-72410714D01*
X193929762Y-72505952D01*
X193882143Y-72553571D01*
X171738095Y-59372381D02*
X171738095Y-60181905D01*
X171785714Y-60277143D01*
X171833333Y-60324762D01*
X171928571Y-60372381D01*
X172119048Y-60372381D01*
X172214286Y-60324762D01*
X172261905Y-60277143D01*
X172309524Y-60181905D01*
X172309524Y-59372381D01*
X173214286Y-59705714D02*
X173214286Y-60372381D01*
X172976190Y-59324762D02*
X172738095Y-60039048D01*
X173357143Y-60039048D01*
X165928571Y-66785714D02*
X165928571Y-67119048D01*
X166452381Y-67119048D02*
X165452381Y-67119048D01*
X165452381Y-66642857D01*
X166547619Y-65595238D02*
X166500000Y-65690476D01*
X166404762Y-65785714D01*
X166261905Y-65928571D01*
X166214286Y-66023810D01*
X166214286Y-66119048D01*
X166452381Y-66071429D02*
X166404762Y-66166667D01*
X166309524Y-66261905D01*
X166119048Y-66309524D01*
X165785714Y-66309524D01*
X165595238Y-66261905D01*
X165500000Y-66166667D01*
X165452381Y-66071429D01*
X165452381Y-65880952D01*
X165500000Y-65785714D01*
X165595238Y-65690476D01*
X165785714Y-65642857D01*
X166119048Y-65642857D01*
X166309524Y-65690476D01*
X166404762Y-65785714D01*
X166452381Y-65880952D01*
X166452381Y-66071429D01*
X166452381Y-65214286D02*
X165452381Y-65214286D01*
X165452381Y-64833333D01*
X165500000Y-64738095D01*
X165547619Y-64690476D01*
X165642857Y-64642857D01*
X165785714Y-64642857D01*
X165880952Y-64690476D01*
X165928571Y-64738095D01*
X165976190Y-64833333D01*
X165976190Y-65214286D01*
X165547619Y-64261905D02*
X165500000Y-64214286D01*
X165452381Y-64119048D01*
X165452381Y-63880952D01*
X165500000Y-63785714D01*
X165547619Y-63738095D01*
X165642857Y-63690476D01*
X165738095Y-63690476D01*
X165880952Y-63738095D01*
X166452381Y-64309524D01*
X166452381Y-63690476D01*
X165452381Y-63357143D02*
X165452381Y-62690476D01*
X166452381Y-63119048D01*
X166452381Y-62309524D02*
X165452381Y-62309524D01*
X165452381Y-61928571D01*
X165500000Y-61833333D01*
X165547619Y-61785714D01*
X165642857Y-61738095D01*
X165785714Y-61738095D01*
X165880952Y-61785714D01*
X165928571Y-61833333D01*
X165976190Y-61928571D01*
X165976190Y-62309524D01*
X165452381Y-61119048D02*
X165452381Y-61023809D01*
X165500000Y-60928571D01*
X165547619Y-60880952D01*
X165642857Y-60833333D01*
X165833333Y-60785714D01*
X166071429Y-60785714D01*
X166261905Y-60833333D01*
X166357143Y-60880952D01*
X166404762Y-60928571D01*
X166452381Y-61023809D01*
X166452381Y-61119048D01*
X166404762Y-61214286D01*
X166357143Y-61261905D01*
X166261905Y-61309524D01*
X166071429Y-61357143D01*
X165833333Y-61357143D01*
X165642857Y-61309524D01*
X165547619Y-61261905D01*
X165500000Y-61214286D01*
X165452381Y-61119048D01*
X165452381Y-59928571D02*
X165452381Y-60119048D01*
X165500000Y-60214286D01*
X165547619Y-60261905D01*
X165690476Y-60357143D01*
X165880952Y-60404762D01*
X166261905Y-60404762D01*
X166357143Y-60357143D01*
X166404762Y-60309524D01*
X166452381Y-60214286D01*
X166452381Y-60023809D01*
X166404762Y-59928571D01*
X166357143Y-59880952D01*
X166261905Y-59833333D01*
X166023810Y-59833333D01*
X165928571Y-59880952D01*
X165880952Y-59928571D01*
X165833333Y-60023809D01*
X165833333Y-60214286D01*
X165880952Y-60309524D01*
X165928571Y-60357143D01*
X166023810Y-60404762D01*
X237023809Y-128166190D02*
X237023809Y-128642381D01*
X236690476Y-127642381D02*
X237023809Y-128166190D01*
X237357143Y-127642381D01*
X238214286Y-128642381D02*
X237642857Y-128642381D01*
X237928571Y-128642381D02*
X237928571Y-127642381D01*
X237833333Y-127785238D01*
X237738095Y-127880476D01*
X237642857Y-127928095D01*
X235809524Y-136262381D02*
X235238095Y-136262381D01*
X235523809Y-136262381D02*
X235523809Y-135262381D01*
X235428571Y-135405238D01*
X235333333Y-135500476D01*
X235238095Y-135548095D01*
X236666667Y-135262381D02*
X236476190Y-135262381D01*
X236380952Y-135310000D01*
X236333333Y-135357619D01*
X236238095Y-135500476D01*
X236190476Y-135690952D01*
X236190476Y-136071905D01*
X236238095Y-136167143D01*
X236285714Y-136214762D01*
X236380952Y-136262381D01*
X236571429Y-136262381D01*
X236666667Y-136214762D01*
X236714286Y-136167143D01*
X236761905Y-136071905D01*
X236761905Y-135833810D01*
X236714286Y-135738571D01*
X236666667Y-135690952D01*
X236571429Y-135643333D01*
X236380952Y-135643333D01*
X236285714Y-135690952D01*
X236238095Y-135738571D01*
X236190476Y-135833810D01*
X237190476Y-136262381D02*
X237190476Y-135262381D01*
X237523810Y-135976667D01*
X237857143Y-135262381D01*
X237857143Y-136262381D01*
X238333333Y-136262381D02*
X238333333Y-135262381D01*
X238333333Y-135738571D02*
X238904762Y-135738571D01*
X238904762Y-136262381D02*
X238904762Y-135262381D01*
X239285714Y-135595714D02*
X239809524Y-135595714D01*
X239285714Y-136262381D01*
X239809524Y-136262381D01*
X256021461Y-132945402D02*
X257021461Y-132707307D01*
X256307175Y-132516830D01*
X257021461Y-132326354D01*
X256021461Y-132088259D01*
X257021461Y-131183497D02*
X257021461Y-131754926D01*
X257021461Y-131469212D02*
X256021461Y-131469212D01*
X256164318Y-131564450D01*
X256259556Y-131659688D01*
X256307175Y-131754926D01*
X263785714Y-111552381D02*
X263785714Y-110552381D01*
X264166667Y-110552381D01*
X264261905Y-110600000D01*
X264309524Y-110647619D01*
X264357143Y-110742857D01*
X264357143Y-110885714D01*
X264309524Y-110980952D01*
X264261905Y-111028571D01*
X264166667Y-111076190D01*
X263785714Y-111076190D01*
X265309524Y-111552381D02*
X264738095Y-111552381D01*
X265023809Y-111552381D02*
X265023809Y-110552381D01*
X264928571Y-110695238D01*
X264833333Y-110790476D01*
X264738095Y-110838095D01*
X266166667Y-110552381D02*
X265976190Y-110552381D01*
X265880952Y-110600000D01*
X265833333Y-110647619D01*
X265738095Y-110790476D01*
X265690476Y-110980952D01*
X265690476Y-111361905D01*
X265738095Y-111457143D01*
X265785714Y-111504762D01*
X265880952Y-111552381D01*
X266071429Y-111552381D01*
X266166667Y-111504762D01*
X266214286Y-111457143D01*
X266261905Y-111361905D01*
X266261905Y-111123810D01*
X266214286Y-111028571D01*
X266166667Y-110980952D01*
X266071429Y-110933333D01*
X265880952Y-110933333D01*
X265785714Y-110980952D01*
X265738095Y-111028571D01*
X265690476Y-111123810D01*
X267952381Y-106738095D02*
X266952381Y-106738095D01*
X267952381Y-106261905D02*
X267285714Y-106261905D01*
X267476190Y-106261905D02*
X267380952Y-106214286D01*
X267333333Y-106166667D01*
X267285714Y-106071429D01*
X267285714Y-105976190D01*
X267952381Y-105642857D02*
X267285714Y-105642857D01*
X266952381Y-105642857D02*
X267000000Y-105690476D01*
X267047619Y-105642857D01*
X267000000Y-105595238D01*
X266952381Y-105642857D01*
X267047619Y-105642857D01*
X267952381Y-104738095D02*
X266952381Y-104738095D01*
X267904762Y-104738095D02*
X267952381Y-104833333D01*
X267952381Y-105023810D01*
X267904762Y-105119048D01*
X267857143Y-105166667D01*
X267761905Y-105214286D01*
X267476190Y-105214286D01*
X267380952Y-105166667D01*
X267333333Y-105119048D01*
X267285714Y-105023810D01*
X267285714Y-104833333D01*
X267333333Y-104738095D01*
X267952381Y-104261905D02*
X267285714Y-104261905D01*
X266952381Y-104261905D02*
X267000000Y-104309524D01*
X267047619Y-104261905D01*
X267000000Y-104214286D01*
X266952381Y-104261905D01*
X267047619Y-104261905D01*
X267285714Y-103357143D02*
X267952381Y-103357143D01*
X267285714Y-103785715D02*
X267809524Y-103785715D01*
X267904762Y-103738096D01*
X267952381Y-103642858D01*
X267952381Y-103500000D01*
X267904762Y-103404762D01*
X267857143Y-103357143D01*
X267952381Y-102880953D02*
X267285714Y-102880953D01*
X267380952Y-102880953D02*
X267333333Y-102833334D01*
X267285714Y-102738096D01*
X267285714Y-102595238D01*
X267333333Y-102500000D01*
X267428571Y-102452381D01*
X267952381Y-102452381D01*
X267428571Y-102452381D02*
X267333333Y-102404762D01*
X267285714Y-102309524D01*
X267285714Y-102166667D01*
X267333333Y-102071429D01*
X267428571Y-102023810D01*
X267952381Y-102023810D01*
X268047619Y-101785715D02*
X268047619Y-101023810D01*
X267952381Y-100785715D02*
X266952381Y-100785715D01*
X267952381Y-100357143D02*
X267428571Y-100357143D01*
X267333333Y-100404762D01*
X267285714Y-100500000D01*
X267285714Y-100642858D01*
X267333333Y-100738096D01*
X267380952Y-100785715D01*
X267904762Y-99500000D02*
X267952381Y-99595238D01*
X267952381Y-99785715D01*
X267904762Y-99880953D01*
X267809524Y-99928572D01*
X267428571Y-99928572D01*
X267333333Y-99880953D01*
X267285714Y-99785715D01*
X267285714Y-99595238D01*
X267333333Y-99500000D01*
X267428571Y-99452381D01*
X267523810Y-99452381D01*
X267619048Y-99928572D01*
X267952381Y-98595238D02*
X267428571Y-98595238D01*
X267333333Y-98642857D01*
X267285714Y-98738095D01*
X267285714Y-98928572D01*
X267333333Y-99023810D01*
X267904762Y-98595238D02*
X267952381Y-98690476D01*
X267952381Y-98928572D01*
X267904762Y-99023810D01*
X267809524Y-99071429D01*
X267714286Y-99071429D01*
X267619048Y-99023810D01*
X267571429Y-98928572D01*
X267571429Y-98690476D01*
X267523810Y-98595238D01*
X267952381Y-97690476D02*
X266952381Y-97690476D01*
X267904762Y-97690476D02*
X267952381Y-97785714D01*
X267952381Y-97976191D01*
X267904762Y-98071429D01*
X267857143Y-98119048D01*
X267761905Y-98166667D01*
X267476190Y-98166667D01*
X267380952Y-98119048D01*
X267333333Y-98071429D01*
X267285714Y-97976191D01*
X267285714Y-97785714D01*
X267333333Y-97690476D01*
X267904762Y-96833333D02*
X267952381Y-96928571D01*
X267952381Y-97119048D01*
X267904762Y-97214286D01*
X267809524Y-97261905D01*
X267428571Y-97261905D01*
X267333333Y-97214286D01*
X267285714Y-97119048D01*
X267285714Y-96928571D01*
X267333333Y-96833333D01*
X267428571Y-96785714D01*
X267523810Y-96785714D01*
X267619048Y-97261905D01*
X267952381Y-96357143D02*
X267285714Y-96357143D01*
X267476190Y-96357143D02*
X267380952Y-96309524D01*
X267333333Y-96261905D01*
X267285714Y-96166667D01*
X267285714Y-96071428D01*
X268047619Y-95976190D02*
X268047619Y-95214285D01*
X267952381Y-94976190D02*
X266952381Y-94976190D01*
X267952381Y-94547618D02*
X267428571Y-94547618D01*
X267333333Y-94595237D01*
X267285714Y-94690475D01*
X267285714Y-94833333D01*
X267333333Y-94928571D01*
X267380952Y-94976190D01*
X267952381Y-94071428D02*
X267285714Y-94071428D01*
X266952381Y-94071428D02*
X267000000Y-94119047D01*
X267047619Y-94071428D01*
X267000000Y-94023809D01*
X266952381Y-94071428D01*
X267047619Y-94071428D01*
X267285714Y-93166666D02*
X268095238Y-93166666D01*
X268190476Y-93214285D01*
X268238095Y-93261904D01*
X268285714Y-93357143D01*
X268285714Y-93500000D01*
X268238095Y-93595238D01*
X267904762Y-93166666D02*
X267952381Y-93261904D01*
X267952381Y-93452381D01*
X267904762Y-93547619D01*
X267857143Y-93595238D01*
X267761905Y-93642857D01*
X267476190Y-93642857D01*
X267380952Y-93595238D01*
X267333333Y-93547619D01*
X267285714Y-93452381D01*
X267285714Y-93261904D01*
X267333333Y-93166666D01*
X267952381Y-92690476D02*
X266952381Y-92690476D01*
X267952381Y-92261904D02*
X267428571Y-92261904D01*
X267333333Y-92309523D01*
X267285714Y-92404761D01*
X267285714Y-92547619D01*
X267333333Y-92642857D01*
X267380952Y-92690476D01*
X263785714Y-133332381D02*
X263785714Y-132332381D01*
X264166667Y-132332381D01*
X264261905Y-132380000D01*
X264309524Y-132427619D01*
X264357143Y-132522857D01*
X264357143Y-132665714D01*
X264309524Y-132760952D01*
X264261905Y-132808571D01*
X264166667Y-132856190D01*
X263785714Y-132856190D01*
X265309524Y-133332381D02*
X264738095Y-133332381D01*
X265023809Y-133332381D02*
X265023809Y-132332381D01*
X264928571Y-132475238D01*
X264833333Y-132570476D01*
X264738095Y-132618095D01*
X265642857Y-132332381D02*
X266309524Y-132332381D01*
X265880952Y-133332381D01*
X267952381Y-126380953D02*
X266952381Y-126380953D01*
X267952381Y-125904763D02*
X267285714Y-125904763D01*
X267476190Y-125904763D02*
X267380952Y-125857144D01*
X267333333Y-125809525D01*
X267285714Y-125714287D01*
X267285714Y-125619048D01*
X267952381Y-125285715D02*
X267285714Y-125285715D01*
X266952381Y-125285715D02*
X267000000Y-125333334D01*
X267047619Y-125285715D01*
X267000000Y-125238096D01*
X266952381Y-125285715D01*
X267047619Y-125285715D01*
X267952381Y-124380953D02*
X266952381Y-124380953D01*
X267904762Y-124380953D02*
X267952381Y-124476191D01*
X267952381Y-124666668D01*
X267904762Y-124761906D01*
X267857143Y-124809525D01*
X267761905Y-124857144D01*
X267476190Y-124857144D01*
X267380952Y-124809525D01*
X267333333Y-124761906D01*
X267285714Y-124666668D01*
X267285714Y-124476191D01*
X267333333Y-124380953D01*
X267952381Y-123904763D02*
X267285714Y-123904763D01*
X266952381Y-123904763D02*
X267000000Y-123952382D01*
X267047619Y-123904763D01*
X267000000Y-123857144D01*
X266952381Y-123904763D01*
X267047619Y-123904763D01*
X267285714Y-123000001D02*
X267952381Y-123000001D01*
X267285714Y-123428573D02*
X267809524Y-123428573D01*
X267904762Y-123380954D01*
X267952381Y-123285716D01*
X267952381Y-123142858D01*
X267904762Y-123047620D01*
X267857143Y-123000001D01*
X267952381Y-122523811D02*
X267285714Y-122523811D01*
X267380952Y-122523811D02*
X267333333Y-122476192D01*
X267285714Y-122380954D01*
X267285714Y-122238096D01*
X267333333Y-122142858D01*
X267428571Y-122095239D01*
X267952381Y-122095239D01*
X267428571Y-122095239D02*
X267333333Y-122047620D01*
X267285714Y-121952382D01*
X267285714Y-121809525D01*
X267333333Y-121714287D01*
X267428571Y-121666668D01*
X267952381Y-121666668D01*
X268047619Y-121428573D02*
X268047619Y-120666668D01*
X267952381Y-120428573D02*
X266952381Y-120428573D01*
X267952381Y-120000001D02*
X267428571Y-120000001D01*
X267333333Y-120047620D01*
X267285714Y-120142858D01*
X267285714Y-120285716D01*
X267333333Y-120380954D01*
X267380952Y-120428573D01*
X267904762Y-119142858D02*
X267952381Y-119238096D01*
X267952381Y-119428573D01*
X267904762Y-119523811D01*
X267809524Y-119571430D01*
X267428571Y-119571430D01*
X267333333Y-119523811D01*
X267285714Y-119428573D01*
X267285714Y-119238096D01*
X267333333Y-119142858D01*
X267428571Y-119095239D01*
X267523810Y-119095239D01*
X267619048Y-119571430D01*
X267952381Y-118238096D02*
X267428571Y-118238096D01*
X267333333Y-118285715D01*
X267285714Y-118380953D01*
X267285714Y-118571430D01*
X267333333Y-118666668D01*
X267904762Y-118238096D02*
X267952381Y-118333334D01*
X267952381Y-118571430D01*
X267904762Y-118666668D01*
X267809524Y-118714287D01*
X267714286Y-118714287D01*
X267619048Y-118666668D01*
X267571429Y-118571430D01*
X267571429Y-118333334D01*
X267523810Y-118238096D01*
X267952381Y-117333334D02*
X266952381Y-117333334D01*
X267904762Y-117333334D02*
X267952381Y-117428572D01*
X267952381Y-117619049D01*
X267904762Y-117714287D01*
X267857143Y-117761906D01*
X267761905Y-117809525D01*
X267476190Y-117809525D01*
X267380952Y-117761906D01*
X267333333Y-117714287D01*
X267285714Y-117619049D01*
X267285714Y-117428572D01*
X267333333Y-117333334D01*
X267904762Y-116476191D02*
X267952381Y-116571429D01*
X267952381Y-116761906D01*
X267904762Y-116857144D01*
X267809524Y-116904763D01*
X267428571Y-116904763D01*
X267333333Y-116857144D01*
X267285714Y-116761906D01*
X267285714Y-116571429D01*
X267333333Y-116476191D01*
X267428571Y-116428572D01*
X267523810Y-116428572D01*
X267619048Y-116904763D01*
X267952381Y-116000001D02*
X267285714Y-116000001D01*
X267476190Y-116000001D02*
X267380952Y-115952382D01*
X267333333Y-115904763D01*
X267285714Y-115809525D01*
X267285714Y-115714286D01*
X268047619Y-115619048D02*
X268047619Y-114857143D01*
X267952381Y-114476191D02*
X267904762Y-114571429D01*
X267809524Y-114619048D01*
X266952381Y-114619048D01*
X267952381Y-113952381D02*
X267904762Y-114047619D01*
X267857143Y-114095238D01*
X267761905Y-114142857D01*
X267476190Y-114142857D01*
X267380952Y-114095238D01*
X267333333Y-114047619D01*
X267285714Y-113952381D01*
X267285714Y-113809523D01*
X267333333Y-113714285D01*
X267380952Y-113666666D01*
X267476190Y-113619047D01*
X267761905Y-113619047D01*
X267857143Y-113666666D01*
X267904762Y-113714285D01*
X267952381Y-113809523D01*
X267952381Y-113952381D01*
X267285714Y-113285714D02*
X267952381Y-113095238D01*
X267476190Y-112904761D01*
X267952381Y-112714285D01*
X267285714Y-112523809D01*
X242632381Y-36214286D02*
X241632381Y-36214286D01*
X241632381Y-35833333D01*
X241680000Y-35738095D01*
X241727619Y-35690476D01*
X241822857Y-35642857D01*
X241965714Y-35642857D01*
X242060952Y-35690476D01*
X242108571Y-35738095D01*
X242156190Y-35833333D01*
X242156190Y-36214286D01*
X242632381Y-34690476D02*
X242632381Y-35261905D01*
X242632381Y-34976191D02*
X241632381Y-34976191D01*
X241775238Y-35071429D01*
X241870476Y-35166667D01*
X241918095Y-35261905D01*
X242060952Y-34119048D02*
X242013333Y-34214286D01*
X241965714Y-34261905D01*
X241870476Y-34309524D01*
X241822857Y-34309524D01*
X241727619Y-34261905D01*
X241680000Y-34214286D01*
X241632381Y-34119048D01*
X241632381Y-33928571D01*
X241680000Y-33833333D01*
X241727619Y-33785714D01*
X241822857Y-33738095D01*
X241870476Y-33738095D01*
X241965714Y-33785714D01*
X242013333Y-33833333D01*
X242060952Y-33928571D01*
X242060952Y-34119048D01*
X242108571Y-34214286D01*
X242156190Y-34261905D01*
X242251429Y-34309524D01*
X242441905Y-34309524D01*
X242537143Y-34261905D01*
X242584762Y-34214286D01*
X242632381Y-34119048D01*
X242632381Y-33928571D01*
X242584762Y-33833333D01*
X242537143Y-33785714D01*
X242441905Y-33738095D01*
X242251429Y-33738095D01*
X242156190Y-33785714D01*
X242108571Y-33833333D01*
X242060952Y-33928571D01*
X216809524Y-41452381D02*
X216476190Y-40976190D01*
X216238095Y-41452381D02*
X216238095Y-40452381D01*
X216619048Y-40452381D01*
X216714286Y-40500000D01*
X216761905Y-40547619D01*
X216809524Y-40642857D01*
X216809524Y-40785714D01*
X216761905Y-40880952D01*
X216714286Y-40928571D01*
X216619048Y-40976190D01*
X216238095Y-40976190D01*
X217190476Y-41166667D02*
X217666667Y-41166667D01*
X217095238Y-41452381D02*
X217428571Y-40452381D01*
X217761905Y-41452381D01*
X218047619Y-41404762D02*
X218190476Y-41452381D01*
X218428572Y-41452381D01*
X218523810Y-41404762D01*
X218571429Y-41357143D01*
X218619048Y-41261905D01*
X218619048Y-41166667D01*
X218571429Y-41071429D01*
X218523810Y-41023810D01*
X218428572Y-40976190D01*
X218238095Y-40928571D01*
X218142857Y-40880952D01*
X218095238Y-40833333D01*
X218047619Y-40738095D01*
X218047619Y-40642857D01*
X218095238Y-40547619D01*
X218142857Y-40500000D01*
X218238095Y-40452381D01*
X218476191Y-40452381D01*
X218619048Y-40500000D01*
X219047619Y-41452381D02*
X219047619Y-40452381D01*
X219428572Y-40452381D01*
X219523810Y-40500000D01*
X219571429Y-40547619D01*
X219619048Y-40642857D01*
X219619048Y-40785714D01*
X219571429Y-40880952D01*
X219523810Y-40928571D01*
X219428572Y-40976190D01*
X219047619Y-40976190D01*
X220380953Y-40928571D02*
X220523810Y-40976190D01*
X220571429Y-41023810D01*
X220619048Y-41119048D01*
X220619048Y-41261905D01*
X220571429Y-41357143D01*
X220523810Y-41404762D01*
X220428572Y-41452381D01*
X220047619Y-41452381D01*
X220047619Y-40452381D01*
X220380953Y-40452381D01*
X220476191Y-40500000D01*
X220523810Y-40547619D01*
X220571429Y-40642857D01*
X220571429Y-40738095D01*
X220523810Y-40833333D01*
X220476191Y-40880952D01*
X220380953Y-40928571D01*
X220047619Y-40928571D01*
X221047619Y-40928571D02*
X221380953Y-40928571D01*
X221523810Y-41452381D02*
X221047619Y-41452381D01*
X221047619Y-40452381D01*
X221523810Y-40452381D01*
X222523810Y-41452381D02*
X222190476Y-40976190D01*
X221952381Y-41452381D02*
X221952381Y-40452381D01*
X222333334Y-40452381D01*
X222428572Y-40500000D01*
X222476191Y-40547619D01*
X222523810Y-40642857D01*
X222523810Y-40785714D01*
X222476191Y-40880952D01*
X222428572Y-40928571D01*
X222333334Y-40976190D01*
X221952381Y-40976190D01*
X223523810Y-41452381D02*
X223190476Y-40976190D01*
X222952381Y-41452381D02*
X222952381Y-40452381D01*
X223333334Y-40452381D01*
X223428572Y-40500000D01*
X223476191Y-40547619D01*
X223523810Y-40642857D01*
X223523810Y-40785714D01*
X223476191Y-40880952D01*
X223428572Y-40928571D01*
X223333334Y-40976190D01*
X222952381Y-40976190D01*
X224142857Y-40976190D02*
X224142857Y-41452381D01*
X223809524Y-40452381D02*
X224142857Y-40976190D01*
X224476191Y-40452381D01*
X224809524Y-41452381D02*
X224809524Y-40452381D01*
X225190477Y-40452381D01*
X225285715Y-40500000D01*
X225333334Y-40547619D01*
X225380953Y-40642857D01*
X225380953Y-40785714D01*
X225333334Y-40880952D01*
X225285715Y-40928571D01*
X225190477Y-40976190D01*
X224809524Y-40976190D01*
X225809524Y-41452381D02*
X225809524Y-40452381D01*
X226238095Y-40547619D02*
X226285714Y-40500000D01*
X226380952Y-40452381D01*
X226619048Y-40452381D01*
X226714286Y-40500000D01*
X226761905Y-40547619D01*
X226809524Y-40642857D01*
X226809524Y-40738095D01*
X226761905Y-40880952D01*
X226190476Y-41452381D01*
X226809524Y-41452381D01*
M02*
