M48
;DRILL file {KiCad 4.0.2+dfsg1-stable} date fr. 11. mai 2018 kl. 17.01 +0200
;FORMAT={3:3/ absolute / metric / suppress leading zeros}
FMAT,2
METRIC,TZ
T1C0.400
T2C0.800
T3C0.800
T4C1.001
T5C1.016
T6C3.200
%
G90
G05
M71
T1
X152500Y-125000
X160000Y-127500
X167500Y-102500
X180322Y-119678
X182500Y-122500
X186790Y-120000
X187500Y-100000
X189555Y-127945
X189890Y-102390
X192500Y-100000
X192500Y-120000
X197500Y-97500
X197500Y-100000
X197500Y-127500
X200000Y-100000
X200000Y-122500
X202500Y-102500
X207500Y-135316
T2
X130000Y-125000
X133800Y-125000
X141500Y-125000
X145000Y-125000
X147500Y-102500
X150000Y-107500
X150000Y-112500
X150000Y-120000
X157500Y-105000
X157500Y-107540
X157500Y-110080
X157500Y-112620
X157500Y-115160
X157500Y-117700
X157500Y-120240
X157500Y-122780
X165120Y-105000
X165120Y-107540
X165120Y-110080
X165120Y-112620
X165120Y-115160
X165120Y-117700
X165120Y-120240
X165120Y-122780
T3
X147500Y-107500
X150000Y-102500
X150000Y-115000
X150000Y-117500
T4
X129840Y-112500
X130000Y-117500
X132460Y-107500
X135000Y-107500
X137540Y-107500
X140000Y-112500
X140160Y-117500
T5
X131296Y-89200
X131296Y-89200
X132500Y-135000
X133836Y-89200
X133836Y-89200
X135000Y-100000
X136376Y-89200
X136376Y-89200
X137540Y-100000
X138916Y-89200
X138916Y-89200
X139880Y-132500
X140440Y-137460
X140440Y-137460
X141456Y-89200
X141456Y-89200
X142420Y-132500
X142500Y-95000
X142980Y-137460
X142980Y-137460
X143996Y-89200
X143996Y-89200
X144960Y-132500
X145040Y-95000
X145520Y-137460
X145520Y-137460
X146536Y-89200
X146536Y-89200
X147500Y-132500
X148060Y-137460
X148060Y-137460
X149076Y-89200
X149076Y-89200
X150600Y-137460
X150600Y-137460
X151616Y-89200
X151616Y-89200
X152500Y-95000
X153140Y-137460
X153140Y-137460
X154156Y-89200
X154156Y-89200
X155040Y-95000
X155680Y-137460
X155680Y-137460
X157220Y-132500
X157580Y-95000
X158220Y-89200
X158220Y-89200
X158220Y-137460
X158220Y-137460
X159760Y-132500
X160120Y-95000
X160760Y-89200
X160760Y-89200
X162300Y-132500
X162660Y-95000
X163300Y-89200
X163300Y-89200
X163300Y-137460
X163300Y-137460
X164840Y-132500
X165200Y-95000
X165840Y-89200
X165840Y-89200
X165840Y-137460
X165840Y-137460
X167380Y-132500
X167740Y-95000
X168380Y-89200
X168380Y-89200
X168380Y-137460
X168380Y-137460
X169920Y-132500
X170280Y-95000
X170920Y-89200
X170920Y-89200
X170920Y-137460
X170920Y-137460
X172460Y-132500
X172500Y-99960
X172500Y-102500
X172500Y-110000
X172500Y-112540
X172500Y-117460
X172500Y-120000
X173460Y-89200
X173460Y-89200
X173460Y-137460
X173460Y-137460
X175000Y-132500
X176000Y-89200
X176000Y-89200
X176000Y-137460
X176000Y-137460
X176127Y-109520
X176127Y-109520
X176127Y-112060
X176127Y-112060
X176127Y-114600
X176127Y-114600
X177500Y-95000
X178540Y-137460
X178540Y-137460
X178667Y-109520
X178667Y-109520
X178667Y-112060
X178667Y-112060
X178667Y-114600
X178667Y-114600
X180040Y-95000
X181080Y-89200
X181080Y-89200
X181080Y-137460
X181080Y-137460
X182180Y-117500
X182220Y-110000
X183620Y-89200
X183620Y-89200
X184720Y-117500
X184760Y-110000
X185000Y-132500
X186160Y-89200
X186160Y-89200
X186160Y-137460
X186160Y-137460
X187260Y-117500
X187300Y-110000
X187340Y-95000
X187540Y-132500
X188700Y-89200
X188700Y-89200
X188700Y-137460
X188700Y-137460
X189800Y-117500
X189840Y-110000
X189880Y-95000
X190080Y-132500
X191240Y-89200
X191240Y-89200
X191240Y-137460
X191240Y-137460
X192340Y-117500
X192380Y-110000
X192420Y-95000
X193780Y-89200
X193780Y-89200
X193780Y-137460
X193780Y-137460
X194880Y-117500
X194920Y-110000
X194960Y-95000
X196320Y-89200
X196320Y-89200
X196320Y-137460
X196320Y-137460
X197420Y-117500
X197460Y-110000
X197500Y-95000
X197500Y-132500
X198860Y-89200
X198860Y-89200
X198860Y-137460
X198860Y-137460
X199960Y-117500
X200000Y-110000
X200040Y-132500
X201400Y-137460
X201400Y-137460
X202500Y-117500
X202580Y-132500
X203940Y-137460
X203940Y-137460
X206480Y-89200
X206480Y-89200
X206480Y-91740
X206480Y-91740
X206480Y-94280
X206480Y-94280
X206480Y-96820
X206480Y-96820
X206480Y-99360
X206480Y-99360
X206480Y-101900
X206480Y-101900
X206480Y-104440
X206480Y-104440
X206480Y-106980
X206480Y-106980
X206480Y-109520
X206480Y-109520
X206480Y-112060
X206480Y-112060
X206480Y-114600
X206480Y-114600
X206480Y-117140
X206480Y-117140
X206480Y-119680
X206480Y-119680
X206480Y-122220
X206480Y-122220
X206480Y-124760
X206480Y-124760
X206480Y-127300
X206480Y-127300
X206480Y-129840
X206480Y-129840
X206480Y-132380
X206480Y-132380
X209020Y-89200
X209020Y-89200
X209020Y-91740
X209020Y-91740
X209020Y-94280
X209020Y-94280
X209020Y-96820
X209020Y-96820
X209020Y-99360
X209020Y-99360
X209020Y-101900
X209020Y-101900
X209020Y-104440
X209020Y-104440
X209020Y-106980
X209020Y-106980
X209020Y-109520
X209020Y-109520
X209020Y-112060
X209020Y-112060
X209020Y-114600
X209020Y-114600
X209020Y-117140
X209020Y-117140
X209020Y-119680
X209020Y-119680
X209020Y-122220
X209020Y-122220
X209020Y-124760
X209020Y-124760
X209020Y-127300
X209020Y-127300
X209020Y-129840
X209020Y-129840
X209020Y-132380
X209020Y-132380
T6
X126470Y-137460
X126470Y-137460
X127740Y-89200
X127740Y-89200
X178540Y-104440
X178540Y-104440
X178540Y-132380
X178540Y-132380
X202670Y-89200
X202670Y-89200
X209020Y-137460
X209020Y-137460
T0
M30
