G04 #@! TF.FileFunction,Legend,Top*
%FSLAX46Y46*%
G04 Gerber Fmt 4.6, Leading zero omitted, Abs format (unit mm)*
G04 Created by KiCad (PCBNEW 4.0.2+dfsg1-stable) date fr. 11. mai 2018 kl. 17.00 +0200*
%MOMM*%
G01*
G04 APERTURE LIST*
%ADD10C,0.100000*%
%ADD11C,0.150000*%
G04 APERTURE END LIST*
D10*
D11*
X112500000Y-86660000D02*
X112500000Y-140000000D01*
X211560000Y-99360000D02*
X211560000Y-88184000D01*
X214100000Y-101900000D02*
X211560000Y-99360000D01*
X214100000Y-136190000D02*
X214100000Y-101900000D01*
X211560000Y-138730000D02*
X214100000Y-136190000D01*
X211560000Y-140000000D02*
X211560000Y-138730000D01*
X210036000Y-86660000D02*
X211560000Y-88184000D01*
X112500000Y-140000000D02*
X211560000Y-140000000D01*
X112500000Y-86660000D02*
X210036000Y-86660000D01*
X112500000Y-86660000D02*
X112500000Y-140000000D01*
X211560000Y-99360000D02*
X211560000Y-88184000D01*
X214100000Y-101900000D02*
X211560000Y-99360000D01*
X214100000Y-136190000D02*
X214100000Y-101900000D01*
X211560000Y-138730000D02*
X214100000Y-136190000D01*
X211560000Y-140000000D02*
X211560000Y-138730000D01*
X210036000Y-86660000D02*
X211560000Y-88184000D01*
X112500000Y-140000000D02*
X211560000Y-140000000D01*
X112500000Y-86660000D02*
X210036000Y-86660000D01*
X143175000Y-128999000D02*
X143175000Y-121001000D01*
X143035000Y-128994000D02*
X143035000Y-121006000D01*
X142895000Y-128984000D02*
X142895000Y-121016000D01*
X142755000Y-128969000D02*
X142755000Y-121031000D01*
X142615000Y-128949000D02*
X142615000Y-121051000D01*
X142475000Y-128924000D02*
X142475000Y-125222000D01*
X142475000Y-124778000D02*
X142475000Y-121076000D01*
X142335000Y-128894000D02*
X142335000Y-125550000D01*
X142335000Y-124450000D02*
X142335000Y-121106000D01*
X142195000Y-128858000D02*
X142195000Y-125719000D01*
X142195000Y-124281000D02*
X142195000Y-121142000D01*
X142055000Y-128817000D02*
X142055000Y-125832000D01*
X142055000Y-124168000D02*
X142055000Y-121183000D01*
X141915000Y-128771000D02*
X141915000Y-125910000D01*
X141915000Y-124090000D02*
X141915000Y-121229000D01*
X141775000Y-128718000D02*
X141775000Y-125961000D01*
X141775000Y-124039000D02*
X141775000Y-121282000D01*
X141635000Y-128659000D02*
X141635000Y-125991000D01*
X141635000Y-124009000D02*
X141635000Y-121341000D01*
X141495000Y-128594000D02*
X141495000Y-126000000D01*
X141495000Y-124000000D02*
X141495000Y-121406000D01*
X141355000Y-128523000D02*
X141355000Y-125989000D01*
X141355000Y-124011000D02*
X141355000Y-121477000D01*
X141215000Y-128444000D02*
X141215000Y-125959000D01*
X141215000Y-124041000D02*
X141215000Y-121556000D01*
X141075000Y-128357000D02*
X141075000Y-125905000D01*
X141075000Y-124095000D02*
X141075000Y-121643000D01*
X140935000Y-128262000D02*
X140935000Y-125825000D01*
X140935000Y-124175000D02*
X140935000Y-121738000D01*
X140795000Y-128158000D02*
X140795000Y-125709000D01*
X140795000Y-124291000D02*
X140795000Y-121842000D01*
X140655000Y-128044000D02*
X140655000Y-125535000D01*
X140655000Y-124465000D02*
X140655000Y-121956000D01*
X140515000Y-127919000D02*
X140515000Y-125173000D01*
X140515000Y-124827000D02*
X140515000Y-122081000D01*
X140375000Y-127781000D02*
X140375000Y-122219000D01*
X140235000Y-127629000D02*
X140235000Y-122371000D01*
X140095000Y-127459000D02*
X140095000Y-122541000D01*
X139955000Y-127268000D02*
X139955000Y-122732000D01*
X139815000Y-127050000D02*
X139815000Y-122950000D01*
X139675000Y-126794000D02*
X139675000Y-123206000D01*
X139535000Y-126483000D02*
X139535000Y-123517000D01*
X139395000Y-126067000D02*
X139395000Y-123933000D01*
X139255000Y-125200000D02*
X139255000Y-124800000D01*
X142500000Y-125000000D02*
G75*
G03X142500000Y-125000000I-1000000J0D01*
G01*
X147287500Y-125000000D02*
G75*
G03X147287500Y-125000000I-4037500J0D01*
G01*
X131975000Y-121001000D02*
X131975000Y-128999000D01*
X132115000Y-121006000D02*
X132115000Y-128994000D01*
X132255000Y-121016000D02*
X132255000Y-128984000D01*
X132395000Y-121031000D02*
X132395000Y-128969000D01*
X132535000Y-121051000D02*
X132535000Y-128949000D01*
X132675000Y-121076000D02*
X132675000Y-128924000D01*
X132815000Y-121106000D02*
X132815000Y-124827000D01*
X132815000Y-125173000D02*
X132815000Y-128894000D01*
X132955000Y-121142000D02*
X132955000Y-124465000D01*
X132955000Y-125535000D02*
X132955000Y-128858000D01*
X133095000Y-121183000D02*
X133095000Y-124291000D01*
X133095000Y-125709000D02*
X133095000Y-128817000D01*
X133235000Y-121229000D02*
X133235000Y-124175000D01*
X133235000Y-125825000D02*
X133235000Y-128771000D01*
X133375000Y-121282000D02*
X133375000Y-124095000D01*
X133375000Y-125905000D02*
X133375000Y-128718000D01*
X133515000Y-121341000D02*
X133515000Y-124041000D01*
X133515000Y-125959000D02*
X133515000Y-128659000D01*
X133655000Y-121406000D02*
X133655000Y-124011000D01*
X133655000Y-125989000D02*
X133655000Y-128594000D01*
X133795000Y-121477000D02*
X133795000Y-124000000D01*
X133795000Y-126000000D02*
X133795000Y-128523000D01*
X133935000Y-121556000D02*
X133935000Y-124009000D01*
X133935000Y-125991000D02*
X133935000Y-128444000D01*
X134075000Y-121643000D02*
X134075000Y-124039000D01*
X134075000Y-125961000D02*
X134075000Y-128357000D01*
X134215000Y-121738000D02*
X134215000Y-124090000D01*
X134215000Y-125910000D02*
X134215000Y-128262000D01*
X134355000Y-121842000D02*
X134355000Y-124168000D01*
X134355000Y-125832000D02*
X134355000Y-128158000D01*
X134495000Y-121956000D02*
X134495000Y-124281000D01*
X134495000Y-125719000D02*
X134495000Y-128044000D01*
X134635000Y-122081000D02*
X134635000Y-124450000D01*
X134635000Y-125550000D02*
X134635000Y-127919000D01*
X134775000Y-122219000D02*
X134775000Y-124778000D01*
X134775000Y-125222000D02*
X134775000Y-127781000D01*
X134915000Y-122371000D02*
X134915000Y-127629000D01*
X135055000Y-122541000D02*
X135055000Y-127459000D01*
X135195000Y-122732000D02*
X135195000Y-127268000D01*
X135335000Y-122950000D02*
X135335000Y-127050000D01*
X135475000Y-123206000D02*
X135475000Y-126794000D01*
X135615000Y-123517000D02*
X135615000Y-126483000D01*
X135755000Y-123933000D02*
X135755000Y-126067000D01*
X135895000Y-124800000D02*
X135895000Y-125200000D01*
X134800000Y-125000000D02*
G75*
G03X134800000Y-125000000I-1000000J0D01*
G01*
X135937500Y-125000000D02*
G75*
G03X135937500Y-125000000I-4037500J0D01*
G01*
X150250000Y-108750000D02*
X147250000Y-108750000D01*
X147250000Y-106250000D02*
X150250000Y-106250000D01*
X151250000Y-112250000D02*
X151250000Y-115250000D01*
X148750000Y-115250000D02*
X148750000Y-112250000D01*
X147250000Y-101250000D02*
X150250000Y-101250000D01*
X150250000Y-103750000D02*
X147250000Y-103750000D01*
X148750000Y-120250000D02*
X148750000Y-117250000D01*
X151250000Y-117250000D02*
X151250000Y-120250000D01*
X201230000Y-118770000D02*
X180910000Y-118770000D01*
X180910000Y-118770000D02*
X180910000Y-116230000D01*
X180910000Y-116230000D02*
X201230000Y-116230000D01*
X204050000Y-119050000D02*
X202500000Y-119050000D01*
X201230000Y-118770000D02*
X201230000Y-116230000D01*
X202500000Y-115950000D02*
X204050000Y-115950000D01*
X204050000Y-115950000D02*
X204050000Y-119050000D01*
X198730000Y-111270000D02*
X180950000Y-111270000D01*
X180950000Y-111270000D02*
X180950000Y-108730000D01*
X180950000Y-108730000D02*
X198730000Y-108730000D01*
X201550000Y-111550000D02*
X200000000Y-111550000D01*
X198730000Y-111270000D02*
X198730000Y-108730000D01*
X200000000Y-108450000D02*
X201550000Y-108450000D01*
X201550000Y-108450000D02*
X201550000Y-111550000D01*
X197500000Y-93450000D02*
X199050000Y-93450000D01*
X199050000Y-93450000D02*
X199050000Y-96550000D01*
X199050000Y-96550000D02*
X197500000Y-96550000D01*
X196230000Y-96270000D02*
X186070000Y-96270000D01*
X186070000Y-96270000D02*
X186070000Y-93730000D01*
X186070000Y-93730000D02*
X196230000Y-93730000D01*
X196230000Y-96270000D02*
X196230000Y-93730000D01*
X146230000Y-131230000D02*
X138610000Y-131230000D01*
X146230000Y-133770000D02*
X138610000Y-133770000D01*
X149050000Y-134050000D02*
X147500000Y-134050000D01*
X138610000Y-131230000D02*
X138610000Y-133770000D01*
X146230000Y-133770000D02*
X146230000Y-131230000D01*
X147500000Y-130950000D02*
X149050000Y-130950000D01*
X149050000Y-130950000D02*
X149050000Y-134050000D01*
X186270000Y-133770000D02*
X191350000Y-133770000D01*
X191350000Y-133770000D02*
X191350000Y-131230000D01*
X191350000Y-131230000D02*
X186270000Y-131230000D01*
X183450000Y-130950000D02*
X185000000Y-130950000D01*
X186270000Y-131230000D02*
X186270000Y-133770000D01*
X185000000Y-134050000D02*
X183450000Y-134050000D01*
X183450000Y-134050000D02*
X183450000Y-130950000D01*
X134050000Y-133450000D02*
X134050000Y-135000000D01*
X130950000Y-135000000D02*
X130950000Y-133450000D01*
X130950000Y-133450000D02*
X134050000Y-133450000D01*
X131230000Y-136270000D02*
X133770000Y-136270000D01*
X133450000Y-100000000D02*
X133450000Y-98450000D01*
X135000000Y-98450000D02*
X133450000Y-98450000D01*
X133730000Y-101270000D02*
X136270000Y-101270000D01*
X138810000Y-98730000D02*
X136270000Y-98730000D01*
X136270000Y-98730000D02*
X136270000Y-101270000D01*
X136270000Y-101270000D02*
X138810000Y-101270000D01*
X138810000Y-101270000D02*
X138810000Y-98730000D01*
X173730000Y-133770000D02*
X155950000Y-133770000D01*
X155950000Y-133770000D02*
X155950000Y-131230000D01*
X155950000Y-131230000D02*
X173730000Y-131230000D01*
X176550000Y-134050000D02*
X175000000Y-134050000D01*
X173730000Y-133770000D02*
X173730000Y-131230000D01*
X175000000Y-130950000D02*
X176550000Y-130950000D01*
X176550000Y-130950000D02*
X176550000Y-134050000D01*
X153770000Y-93730000D02*
X171550000Y-93730000D01*
X171550000Y-93730000D02*
X171550000Y-96270000D01*
X171550000Y-96270000D02*
X153770000Y-96270000D01*
X150950000Y-93450000D02*
X152500000Y-93450000D01*
X153770000Y-93730000D02*
X153770000Y-96270000D01*
X152500000Y-96550000D02*
X150950000Y-96550000D01*
X150950000Y-96550000D02*
X150950000Y-93450000D01*
X198770000Y-133770000D02*
X203850000Y-133770000D01*
X203850000Y-133770000D02*
X203850000Y-131230000D01*
X203850000Y-131230000D02*
X198770000Y-131230000D01*
X195950000Y-130950000D02*
X197500000Y-130950000D01*
X198770000Y-131230000D02*
X198770000Y-133770000D01*
X197500000Y-134050000D02*
X195950000Y-134050000D01*
X195950000Y-134050000D02*
X195950000Y-130950000D01*
X140950000Y-95000000D02*
X140950000Y-93450000D01*
X142500000Y-93450000D02*
X140950000Y-93450000D01*
X141230000Y-96270000D02*
X143770000Y-96270000D01*
X146310000Y-93730000D02*
X143770000Y-93730000D01*
X143770000Y-93730000D02*
X143770000Y-96270000D01*
X143770000Y-96270000D02*
X146310000Y-96270000D01*
X146310000Y-96270000D02*
X146310000Y-93730000D01*
X175950000Y-95000000D02*
X175950000Y-93450000D01*
X177500000Y-93450000D02*
X175950000Y-93450000D01*
X176230000Y-96270000D02*
X178770000Y-96270000D01*
X181310000Y-93730000D02*
X178770000Y-93730000D01*
X178770000Y-93730000D02*
X178770000Y-96270000D01*
X178770000Y-96270000D02*
X181310000Y-96270000D01*
X181310000Y-96270000D02*
X181310000Y-93730000D01*
X172500000Y-121550000D02*
X170950000Y-121550000D01*
X170950000Y-120000000D02*
X170950000Y-121550000D01*
X173770000Y-121270000D02*
X173770000Y-118730000D01*
X171230000Y-116190000D02*
X171230000Y-118730000D01*
X171230000Y-118730000D02*
X173770000Y-118730000D01*
X173770000Y-118730000D02*
X173770000Y-116190000D01*
X173770000Y-116190000D02*
X171230000Y-116190000D01*
X172500000Y-104050000D02*
X170950000Y-104050000D01*
X170950000Y-102500000D02*
X170950000Y-104050000D01*
X173770000Y-103770000D02*
X173770000Y-101230000D01*
X171230000Y-98690000D02*
X171230000Y-101230000D01*
X171230000Y-101230000D02*
X173770000Y-101230000D01*
X173770000Y-101230000D02*
X173770000Y-98690000D01*
X173770000Y-98690000D02*
X171230000Y-98690000D01*
X172500000Y-108450000D02*
X174050000Y-108450000D01*
X174050000Y-110000000D02*
X174050000Y-108450000D01*
X171230000Y-108730000D02*
X171230000Y-111270000D01*
X173770000Y-113810000D02*
X173770000Y-111270000D01*
X173770000Y-111270000D02*
X171230000Y-111270000D01*
X171230000Y-111270000D02*
X171230000Y-113810000D01*
X171230000Y-113810000D02*
X173770000Y-113810000D01*
X137460000Y-113770000D02*
X132380000Y-113770000D01*
X132380000Y-113770000D02*
X132380000Y-111230000D01*
X132380000Y-111230000D02*
X137460000Y-111230000D01*
X137460000Y-111230000D02*
X137460000Y-113770000D01*
X137460000Y-112500000D02*
X138730000Y-112500000D01*
X132380000Y-112500000D02*
X131110000Y-112500000D01*
X132540000Y-116230000D02*
X137620000Y-116230000D01*
X137620000Y-116230000D02*
X137620000Y-118770000D01*
X137620000Y-118770000D02*
X132540000Y-118770000D01*
X132540000Y-118770000D02*
X132540000Y-116230000D01*
X132540000Y-117500000D02*
X131270000Y-117500000D01*
X137620000Y-117500000D02*
X138890000Y-117500000D01*
X157635000Y-102705000D02*
X157635000Y-103975000D01*
X164985000Y-102705000D02*
X164985000Y-103975000D01*
X164985000Y-125075000D02*
X164985000Y-123805000D01*
X157635000Y-125075000D02*
X157635000Y-123805000D01*
X157635000Y-102705000D02*
X164985000Y-102705000D01*
X157635000Y-125075000D02*
X164985000Y-125075000D01*
X157635000Y-103975000D02*
X156350000Y-103975000D01*
X133476000Y-104452000D02*
X133476000Y-105595000D01*
X136524000Y-104452000D02*
X136524000Y-105595000D01*
X140334000Y-105595000D02*
X140334000Y-109278000D01*
X140334000Y-109278000D02*
X129666000Y-109278000D01*
X129666000Y-109278000D02*
X129666000Y-105595000D01*
X140334000Y-104452000D02*
X140334000Y-105595000D01*
X140334000Y-105595000D02*
X129666000Y-105595000D01*
X129666000Y-105595000D02*
X129666000Y-104452000D01*
X135000000Y-104452000D02*
X129666000Y-104452000D01*
X135000000Y-104452000D02*
X140334000Y-104452000D01*
X113801905Y-85096381D02*
X114468572Y-86096381D01*
X114468572Y-85096381D02*
X113801905Y-86096381D01*
X114801905Y-85810667D02*
X115278096Y-85810667D01*
X114706667Y-86096381D02*
X115040000Y-85096381D01*
X115373334Y-86096381D01*
X116230477Y-86096381D02*
X115659048Y-86096381D01*
X115944762Y-86096381D02*
X115944762Y-85096381D01*
X115849524Y-85239238D01*
X115754286Y-85334476D01*
X115659048Y-85382095D01*
X174984000Y-108353143D02*
X175031619Y-108400762D01*
X174984000Y-108448381D01*
X174936381Y-108400762D01*
X174984000Y-108353143D01*
X174984000Y-108448381D01*
X113801905Y-85096381D02*
X114468572Y-86096381D01*
X114468572Y-85096381D02*
X113801905Y-86096381D01*
X114801905Y-85810667D02*
X115278096Y-85810667D01*
X114706667Y-86096381D02*
X115040000Y-85096381D01*
X115373334Y-86096381D01*
X116230477Y-86096381D02*
X115659048Y-86096381D01*
X115944762Y-86096381D02*
X115944762Y-85096381D01*
X115849524Y-85239238D01*
X115754286Y-85334476D01*
X115659048Y-85382095D01*
X174984000Y-108353143D02*
X175031619Y-108400762D01*
X174984000Y-108448381D01*
X174936381Y-108400762D01*
X174984000Y-108353143D01*
X174984000Y-108448381D01*
X143083334Y-130657143D02*
X143035715Y-130704762D01*
X142892858Y-130752381D01*
X142797620Y-130752381D01*
X142654762Y-130704762D01*
X142559524Y-130609524D01*
X142511905Y-130514286D01*
X142464286Y-130323810D01*
X142464286Y-130180952D01*
X142511905Y-129990476D01*
X142559524Y-129895238D01*
X142654762Y-129800000D01*
X142797620Y-129752381D01*
X142892858Y-129752381D01*
X143035715Y-129800000D01*
X143083334Y-129847619D01*
X144035715Y-130752381D02*
X143464286Y-130752381D01*
X143750000Y-130752381D02*
X143750000Y-129752381D01*
X143654762Y-129895238D01*
X143559524Y-129990476D01*
X143464286Y-130038095D01*
X131733334Y-120057143D02*
X131685715Y-120104762D01*
X131542858Y-120152381D01*
X131447620Y-120152381D01*
X131304762Y-120104762D01*
X131209524Y-120009524D01*
X131161905Y-119914286D01*
X131114286Y-119723810D01*
X131114286Y-119580952D01*
X131161905Y-119390476D01*
X131209524Y-119295238D01*
X131304762Y-119200000D01*
X131447620Y-119152381D01*
X131542858Y-119152381D01*
X131685715Y-119200000D01*
X131733334Y-119247619D01*
X132114286Y-119247619D02*
X132161905Y-119200000D01*
X132257143Y-119152381D01*
X132495239Y-119152381D01*
X132590477Y-119200000D01*
X132638096Y-119247619D01*
X132685715Y-119342857D01*
X132685715Y-119438095D01*
X132638096Y-119580952D01*
X132066667Y-120152381D01*
X132685715Y-120152381D01*
X148583334Y-110357143D02*
X148535715Y-110404762D01*
X148392858Y-110452381D01*
X148297620Y-110452381D01*
X148154762Y-110404762D01*
X148059524Y-110309524D01*
X148011905Y-110214286D01*
X147964286Y-110023810D01*
X147964286Y-109880952D01*
X148011905Y-109690476D01*
X148059524Y-109595238D01*
X148154762Y-109500000D01*
X148297620Y-109452381D01*
X148392858Y-109452381D01*
X148535715Y-109500000D01*
X148583334Y-109547619D01*
X148916667Y-109452381D02*
X149535715Y-109452381D01*
X149202381Y-109833333D01*
X149345239Y-109833333D01*
X149440477Y-109880952D01*
X149488096Y-109928571D01*
X149535715Y-110023810D01*
X149535715Y-110261905D01*
X149488096Y-110357143D01*
X149440477Y-110404762D01*
X149345239Y-110452381D01*
X149059524Y-110452381D01*
X148964286Y-110404762D01*
X148916667Y-110357143D01*
X152857143Y-113916666D02*
X152904762Y-113964285D01*
X152952381Y-114107142D01*
X152952381Y-114202380D01*
X152904762Y-114345238D01*
X152809524Y-114440476D01*
X152714286Y-114488095D01*
X152523810Y-114535714D01*
X152380952Y-114535714D01*
X152190476Y-114488095D01*
X152095238Y-114440476D01*
X152000000Y-114345238D01*
X151952381Y-114202380D01*
X151952381Y-114107142D01*
X152000000Y-113964285D01*
X152047619Y-113916666D01*
X152285714Y-113059523D02*
X152952381Y-113059523D01*
X151904762Y-113297619D02*
X152619048Y-113535714D01*
X152619048Y-112916666D01*
X148583334Y-100357143D02*
X148535715Y-100404762D01*
X148392858Y-100452381D01*
X148297620Y-100452381D01*
X148154762Y-100404762D01*
X148059524Y-100309524D01*
X148011905Y-100214286D01*
X147964286Y-100023810D01*
X147964286Y-99880952D01*
X148011905Y-99690476D01*
X148059524Y-99595238D01*
X148154762Y-99500000D01*
X148297620Y-99452381D01*
X148392858Y-99452381D01*
X148535715Y-99500000D01*
X148583334Y-99547619D01*
X149488096Y-99452381D02*
X149011905Y-99452381D01*
X148964286Y-99928571D01*
X149011905Y-99880952D01*
X149107143Y-99833333D01*
X149345239Y-99833333D01*
X149440477Y-99880952D01*
X149488096Y-99928571D01*
X149535715Y-100023810D01*
X149535715Y-100261905D01*
X149488096Y-100357143D01*
X149440477Y-100404762D01*
X149345239Y-100452381D01*
X149107143Y-100452381D01*
X149011905Y-100404762D01*
X148964286Y-100357143D01*
X147857143Y-118916666D02*
X147904762Y-118964285D01*
X147952381Y-119107142D01*
X147952381Y-119202380D01*
X147904762Y-119345238D01*
X147809524Y-119440476D01*
X147714286Y-119488095D01*
X147523810Y-119535714D01*
X147380952Y-119535714D01*
X147190476Y-119488095D01*
X147095238Y-119440476D01*
X147000000Y-119345238D01*
X146952381Y-119202380D01*
X146952381Y-119107142D01*
X147000000Y-118964285D01*
X147047619Y-118916666D01*
X146952381Y-118059523D02*
X146952381Y-118250000D01*
X147000000Y-118345238D01*
X147047619Y-118392857D01*
X147190476Y-118488095D01*
X147380952Y-118535714D01*
X147761905Y-118535714D01*
X147857143Y-118488095D01*
X147904762Y-118440476D01*
X147952381Y-118345238D01*
X147952381Y-118154761D01*
X147904762Y-118059523D01*
X147857143Y-118011904D01*
X147761905Y-117964285D01*
X147523810Y-117964285D01*
X147428571Y-118011904D01*
X147380952Y-118059523D01*
X147333333Y-118154761D01*
X147333333Y-118345238D01*
X147380952Y-118440476D01*
X147428571Y-118488095D01*
X147523810Y-118535714D01*
X208052381Y-118238095D02*
X207052381Y-118238095D01*
X207052381Y-117857142D01*
X207100000Y-117761904D01*
X207147619Y-117714285D01*
X207242857Y-117666666D01*
X207385714Y-117666666D01*
X207480952Y-117714285D01*
X207528571Y-117761904D01*
X207576190Y-117857142D01*
X207576190Y-118238095D01*
X208052381Y-116714285D02*
X208052381Y-117285714D01*
X208052381Y-117000000D02*
X207052381Y-117000000D01*
X207195238Y-117095238D01*
X207290476Y-117190476D01*
X207338095Y-117285714D01*
X205552381Y-110738095D02*
X204552381Y-110738095D01*
X204552381Y-110357142D01*
X204600000Y-110261904D01*
X204647619Y-110214285D01*
X204742857Y-110166666D01*
X204885714Y-110166666D01*
X204980952Y-110214285D01*
X205028571Y-110261904D01*
X205076190Y-110357142D01*
X205076190Y-110738095D01*
X204647619Y-109785714D02*
X204600000Y-109738095D01*
X204552381Y-109642857D01*
X204552381Y-109404761D01*
X204600000Y-109309523D01*
X204647619Y-109261904D01*
X204742857Y-109214285D01*
X204838095Y-109214285D01*
X204980952Y-109261904D01*
X205552381Y-109833333D01*
X205552381Y-109214285D01*
X203052381Y-95738095D02*
X202052381Y-95738095D01*
X202052381Y-95357142D01*
X202100000Y-95261904D01*
X202147619Y-95214285D01*
X202242857Y-95166666D01*
X202385714Y-95166666D01*
X202480952Y-95214285D01*
X202528571Y-95261904D01*
X202576190Y-95357142D01*
X202576190Y-95738095D01*
X202052381Y-94833333D02*
X202052381Y-94214285D01*
X202433333Y-94547619D01*
X202433333Y-94404761D01*
X202480952Y-94309523D01*
X202528571Y-94261904D01*
X202623810Y-94214285D01*
X202861905Y-94214285D01*
X202957143Y-94261904D01*
X203004762Y-94309523D01*
X203052381Y-94404761D01*
X203052381Y-94690476D01*
X203004762Y-94785714D01*
X202957143Y-94833333D01*
X153052381Y-133238095D02*
X152052381Y-133238095D01*
X152052381Y-132857142D01*
X152100000Y-132761904D01*
X152147619Y-132714285D01*
X152242857Y-132666666D01*
X152385714Y-132666666D01*
X152480952Y-132714285D01*
X152528571Y-132761904D01*
X152576190Y-132857142D01*
X152576190Y-133238095D01*
X152385714Y-131809523D02*
X153052381Y-131809523D01*
X152004762Y-132047619D02*
X152719048Y-132285714D01*
X152719048Y-131666666D01*
X180352381Y-133238095D02*
X179352381Y-133238095D01*
X179352381Y-132857142D01*
X179400000Y-132761904D01*
X179447619Y-132714285D01*
X179542857Y-132666666D01*
X179685714Y-132666666D01*
X179780952Y-132714285D01*
X179828571Y-132761904D01*
X179876190Y-132857142D01*
X179876190Y-133238095D01*
X179352381Y-131761904D02*
X179352381Y-132238095D01*
X179828571Y-132285714D01*
X179780952Y-132238095D01*
X179733333Y-132142857D01*
X179733333Y-131904761D01*
X179780952Y-131809523D01*
X179828571Y-131761904D01*
X179923810Y-131714285D01*
X180161905Y-131714285D01*
X180257143Y-131761904D01*
X180304762Y-131809523D01*
X180352381Y-131904761D01*
X180352381Y-132142857D01*
X180304762Y-132238095D01*
X180257143Y-132285714D01*
X131761905Y-130352381D02*
X131761905Y-129352381D01*
X132142858Y-129352381D01*
X132238096Y-129400000D01*
X132285715Y-129447619D01*
X132333334Y-129542857D01*
X132333334Y-129685714D01*
X132285715Y-129780952D01*
X132238096Y-129828571D01*
X132142858Y-129876190D01*
X131761905Y-129876190D01*
X133190477Y-129352381D02*
X133000000Y-129352381D01*
X132904762Y-129400000D01*
X132857143Y-129447619D01*
X132761905Y-129590476D01*
X132714286Y-129780952D01*
X132714286Y-130161905D01*
X132761905Y-130257143D01*
X132809524Y-130304762D01*
X132904762Y-130352381D01*
X133095239Y-130352381D01*
X133190477Y-130304762D01*
X133238096Y-130257143D01*
X133285715Y-130161905D01*
X133285715Y-129923810D01*
X133238096Y-129828571D01*
X133190477Y-129780952D01*
X133095239Y-129733333D01*
X132904762Y-129733333D01*
X132809524Y-129780952D01*
X132761905Y-129828571D01*
X132714286Y-129923810D01*
X134261905Y-95352381D02*
X134261905Y-94352381D01*
X134642858Y-94352381D01*
X134738096Y-94400000D01*
X134785715Y-94447619D01*
X134833334Y-94542857D01*
X134833334Y-94685714D01*
X134785715Y-94780952D01*
X134738096Y-94828571D01*
X134642858Y-94876190D01*
X134261905Y-94876190D01*
X135166667Y-94352381D02*
X135833334Y-94352381D01*
X135404762Y-95352381D01*
X180552381Y-133238095D02*
X179552381Y-133238095D01*
X179552381Y-132857142D01*
X179600000Y-132761904D01*
X179647619Y-132714285D01*
X179742857Y-132666666D01*
X179885714Y-132666666D01*
X179980952Y-132714285D01*
X180028571Y-132761904D01*
X180076190Y-132857142D01*
X180076190Y-133238095D01*
X179980952Y-132095238D02*
X179933333Y-132190476D01*
X179885714Y-132238095D01*
X179790476Y-132285714D01*
X179742857Y-132285714D01*
X179647619Y-132238095D01*
X179600000Y-132190476D01*
X179552381Y-132095238D01*
X179552381Y-131904761D01*
X179600000Y-131809523D01*
X179647619Y-131761904D01*
X179742857Y-131714285D01*
X179790476Y-131714285D01*
X179885714Y-131761904D01*
X179933333Y-131809523D01*
X179980952Y-131904761D01*
X179980952Y-132095238D01*
X180028571Y-132190476D01*
X180076190Y-132238095D01*
X180171429Y-132285714D01*
X180361905Y-132285714D01*
X180457143Y-132238095D01*
X180504762Y-132190476D01*
X180552381Y-132095238D01*
X180552381Y-131904761D01*
X180504762Y-131809523D01*
X180457143Y-131761904D01*
X180361905Y-131714285D01*
X180171429Y-131714285D01*
X180076190Y-131761904D01*
X180028571Y-131809523D01*
X179980952Y-131904761D01*
X147852381Y-95738095D02*
X146852381Y-95738095D01*
X146852381Y-95357142D01*
X146900000Y-95261904D01*
X146947619Y-95214285D01*
X147042857Y-95166666D01*
X147185714Y-95166666D01*
X147280952Y-95214285D01*
X147328571Y-95261904D01*
X147376190Y-95357142D01*
X147376190Y-95738095D01*
X147852381Y-94690476D02*
X147852381Y-94500000D01*
X147804762Y-94404761D01*
X147757143Y-94357142D01*
X147614286Y-94261904D01*
X147423810Y-94214285D01*
X147042857Y-94214285D01*
X146947619Y-94261904D01*
X146900000Y-94309523D01*
X146852381Y-94404761D01*
X146852381Y-94595238D01*
X146900000Y-94690476D01*
X146947619Y-94738095D01*
X147042857Y-94785714D01*
X147280952Y-94785714D01*
X147376190Y-94738095D01*
X147423810Y-94690476D01*
X147471429Y-94595238D01*
X147471429Y-94404761D01*
X147423810Y-94309523D01*
X147376190Y-94261904D01*
X147280952Y-94214285D01*
X192852381Y-133714286D02*
X191852381Y-133714286D01*
X191852381Y-133333333D01*
X191900000Y-133238095D01*
X191947619Y-133190476D01*
X192042857Y-133142857D01*
X192185714Y-133142857D01*
X192280952Y-133190476D01*
X192328571Y-133238095D01*
X192376190Y-133333333D01*
X192376190Y-133714286D01*
X192852381Y-132190476D02*
X192852381Y-132761905D01*
X192852381Y-132476191D02*
X191852381Y-132476191D01*
X191995238Y-132571429D01*
X192090476Y-132666667D01*
X192138095Y-132761905D01*
X191852381Y-131571429D02*
X191852381Y-131476190D01*
X191900000Y-131380952D01*
X191947619Y-131333333D01*
X192042857Y-131285714D01*
X192233333Y-131238095D01*
X192471429Y-131238095D01*
X192661905Y-131285714D01*
X192757143Y-131333333D01*
X192804762Y-131380952D01*
X192852381Y-131476190D01*
X192852381Y-131571429D01*
X192804762Y-131666667D01*
X192757143Y-131714286D01*
X192661905Y-131761905D01*
X192471429Y-131809524D01*
X192233333Y-131809524D01*
X192042857Y-131761905D01*
X191947619Y-131714286D01*
X191900000Y-131666667D01*
X191852381Y-131571429D01*
X141285714Y-90352381D02*
X141285714Y-89352381D01*
X141666667Y-89352381D01*
X141761905Y-89400000D01*
X141809524Y-89447619D01*
X141857143Y-89542857D01*
X141857143Y-89685714D01*
X141809524Y-89780952D01*
X141761905Y-89828571D01*
X141666667Y-89876190D01*
X141285714Y-89876190D01*
X142809524Y-90352381D02*
X142238095Y-90352381D01*
X142523809Y-90352381D02*
X142523809Y-89352381D01*
X142428571Y-89495238D01*
X142333333Y-89590476D01*
X142238095Y-89638095D01*
X143761905Y-90352381D02*
X143190476Y-90352381D01*
X143476190Y-90352381D02*
X143476190Y-89352381D01*
X143380952Y-89495238D01*
X143285714Y-89590476D01*
X143190476Y-89638095D01*
X176285714Y-90352381D02*
X176285714Y-89352381D01*
X176666667Y-89352381D01*
X176761905Y-89400000D01*
X176809524Y-89447619D01*
X176857143Y-89542857D01*
X176857143Y-89685714D01*
X176809524Y-89780952D01*
X176761905Y-89828571D01*
X176666667Y-89876190D01*
X176285714Y-89876190D01*
X177809524Y-90352381D02*
X177238095Y-90352381D01*
X177523809Y-90352381D02*
X177523809Y-89352381D01*
X177428571Y-89495238D01*
X177333333Y-89590476D01*
X177238095Y-89638095D01*
X178190476Y-89447619D02*
X178238095Y-89400000D01*
X178333333Y-89352381D01*
X178571429Y-89352381D01*
X178666667Y-89400000D01*
X178714286Y-89447619D01*
X178761905Y-89542857D01*
X178761905Y-89638095D01*
X178714286Y-89780952D01*
X178142857Y-90352381D01*
X178761905Y-90352381D01*
X167852381Y-121214286D02*
X166852381Y-121214286D01*
X166852381Y-120833333D01*
X166900000Y-120738095D01*
X166947619Y-120690476D01*
X167042857Y-120642857D01*
X167185714Y-120642857D01*
X167280952Y-120690476D01*
X167328571Y-120738095D01*
X167376190Y-120833333D01*
X167376190Y-121214286D01*
X167852381Y-119690476D02*
X167852381Y-120261905D01*
X167852381Y-119976191D02*
X166852381Y-119976191D01*
X166995238Y-120071429D01*
X167090476Y-120166667D01*
X167138095Y-120261905D01*
X166852381Y-119357143D02*
X166852381Y-118738095D01*
X167233333Y-119071429D01*
X167233333Y-118928571D01*
X167280952Y-118833333D01*
X167328571Y-118785714D01*
X167423810Y-118738095D01*
X167661905Y-118738095D01*
X167757143Y-118785714D01*
X167804762Y-118833333D01*
X167852381Y-118928571D01*
X167852381Y-119214286D01*
X167804762Y-119309524D01*
X167757143Y-119357143D01*
X167852381Y-103714286D02*
X166852381Y-103714286D01*
X166852381Y-103333333D01*
X166900000Y-103238095D01*
X166947619Y-103190476D01*
X167042857Y-103142857D01*
X167185714Y-103142857D01*
X167280952Y-103190476D01*
X167328571Y-103238095D01*
X167376190Y-103333333D01*
X167376190Y-103714286D01*
X167852381Y-102190476D02*
X167852381Y-102761905D01*
X167852381Y-102476191D02*
X166852381Y-102476191D01*
X166995238Y-102571429D01*
X167090476Y-102666667D01*
X167138095Y-102761905D01*
X167185714Y-101333333D02*
X167852381Y-101333333D01*
X166804762Y-101571429D02*
X167519048Y-101809524D01*
X167519048Y-101190476D01*
X178052381Y-111214286D02*
X177052381Y-111214286D01*
X177052381Y-110833333D01*
X177100000Y-110738095D01*
X177147619Y-110690476D01*
X177242857Y-110642857D01*
X177385714Y-110642857D01*
X177480952Y-110690476D01*
X177528571Y-110738095D01*
X177576190Y-110833333D01*
X177576190Y-111214286D01*
X178052381Y-109690476D02*
X178052381Y-110261905D01*
X178052381Y-109976191D02*
X177052381Y-109976191D01*
X177195238Y-110071429D01*
X177290476Y-110166667D01*
X177338095Y-110261905D01*
X177052381Y-108785714D02*
X177052381Y-109261905D01*
X177528571Y-109309524D01*
X177480952Y-109261905D01*
X177433333Y-109166667D01*
X177433333Y-108928571D01*
X177480952Y-108833333D01*
X177528571Y-108785714D01*
X177623810Y-108738095D01*
X177861905Y-108738095D01*
X177957143Y-108785714D01*
X178004762Y-108833333D01*
X178052381Y-108928571D01*
X178052381Y-109166667D01*
X178004762Y-109261905D01*
X177957143Y-109309524D01*
X134504414Y-116452501D02*
X134171080Y-115976310D01*
X133932985Y-116452501D02*
X133932985Y-115452501D01*
X134313938Y-115452501D01*
X134409176Y-115500120D01*
X134456795Y-115547739D01*
X134504414Y-115642977D01*
X134504414Y-115785834D01*
X134456795Y-115881072D01*
X134409176Y-115928691D01*
X134313938Y-115976310D01*
X133932985Y-115976310D01*
X135456795Y-116452501D02*
X134885366Y-116452501D01*
X135171080Y-116452501D02*
X135171080Y-115452501D01*
X135075842Y-115595358D01*
X134980604Y-115690596D01*
X134885366Y-115738215D01*
X135162254Y-114452261D02*
X134828920Y-113976070D01*
X134590825Y-114452261D02*
X134590825Y-113452261D01*
X134971778Y-113452261D01*
X135067016Y-113499880D01*
X135114635Y-113547499D01*
X135162254Y-113642737D01*
X135162254Y-113785594D01*
X135114635Y-113880832D01*
X135067016Y-113928451D01*
X134971778Y-113976070D01*
X134590825Y-113976070D01*
X135543206Y-113547499D02*
X135590825Y-113499880D01*
X135686063Y-113452261D01*
X135924159Y-113452261D01*
X136019397Y-113499880D01*
X136067016Y-113547499D01*
X136114635Y-113642737D01*
X136114635Y-113737975D01*
X136067016Y-113880832D01*
X135495587Y-114452261D01*
X136114635Y-114452261D01*
X156738095Y-99232381D02*
X156738095Y-100041905D01*
X156785714Y-100137143D01*
X156833333Y-100184762D01*
X156928571Y-100232381D01*
X157119048Y-100232381D01*
X157214286Y-100184762D01*
X157261905Y-100137143D01*
X157309524Y-100041905D01*
X157309524Y-99232381D01*
X158309524Y-100232381D02*
X157738095Y-100232381D01*
X158023809Y-100232381D02*
X158023809Y-99232381D01*
X157928571Y-99375238D01*
X157833333Y-99470476D01*
X157738095Y-99518095D01*
X134238095Y-101872381D02*
X134238095Y-102681905D01*
X134285714Y-102777143D01*
X134333333Y-102824762D01*
X134428571Y-102872381D01*
X134619048Y-102872381D01*
X134714286Y-102824762D01*
X134761905Y-102777143D01*
X134809524Y-102681905D01*
X134809524Y-101872381D01*
X135238095Y-101967619D02*
X135285714Y-101920000D01*
X135380952Y-101872381D01*
X135619048Y-101872381D01*
X135714286Y-101920000D01*
X135761905Y-101967619D01*
X135809524Y-102062857D01*
X135809524Y-102158095D01*
X135761905Y-102300952D01*
X135190476Y-102872381D01*
X135809524Y-102872381D01*
M02*
