G04 #@! TF.FileFunction,Soldermask,Top*
%FSLAX46Y46*%
G04 Gerber Fmt 4.6, Leading zero omitted, Abs format (unit mm)*
G04 Created by KiCad (PCBNEW 4.0.2+dfsg1-stable) date fr. 11. mai 2018 kl. 17.00 +0200*
%MOMM*%
G01*
G04 APERTURE LIST*
%ADD10C,0.100000*%
%ADD11O,2.127200X2.127200*%
%ADD12C,3.600000*%
%ADD13C,1.700000*%
%ADD14R,1.700000X1.700000*%
%ADD15R,2.127200X2.432000*%
%ADD16O,2.127200X2.432000*%
%ADD17R,2.635200X2.635200*%
%ADD18R,2.127200X2.127200*%
%ADD19C,2.398980*%
%ADD20O,2.700000X2.000000*%
%ADD21O,1.901140X2.899360*%
G04 APERTURE END LIST*
D10*
D11*
X176127000Y-114600000D03*
X178667000Y-114600000D03*
X178667000Y-112060000D03*
X176127000Y-112060000D03*
X178667000Y-109520000D03*
X163300000Y-137460000D03*
X158220000Y-137460000D03*
X155680000Y-137460000D03*
X153140000Y-137460000D03*
X150600000Y-137460000D03*
X148060000Y-137460000D03*
X145520000Y-137460000D03*
X142980000Y-137460000D03*
X198860000Y-89200000D03*
X196320000Y-89200000D03*
X193780000Y-89200000D03*
X191240000Y-89200000D03*
X188700000Y-89200000D03*
X186160000Y-89200000D03*
X183620000Y-89200000D03*
X181080000Y-89200000D03*
X176000000Y-89200000D03*
X173460000Y-89200000D03*
X170920000Y-89200000D03*
X168380000Y-89200000D03*
X165840000Y-89200000D03*
X163300000Y-89200000D03*
X160760000Y-89200000D03*
X158220000Y-89200000D03*
X138916000Y-89200000D03*
X154156000Y-89200000D03*
X151616000Y-89200000D03*
X149076000Y-89200000D03*
D12*
X178540000Y-132380000D03*
X178540000Y-104440000D03*
X202670000Y-89200000D03*
X127740000Y-89200000D03*
X209020000Y-137460000D03*
X126470000Y-137460000D03*
D11*
X131296000Y-89200000D03*
X133836000Y-89200000D03*
X136376000Y-89200000D03*
X141456000Y-89200000D03*
X143996000Y-89200000D03*
X146536000Y-89200000D03*
X140440000Y-137460000D03*
X165840000Y-137460000D03*
X168380000Y-137460000D03*
X170920000Y-137460000D03*
X173460000Y-137460000D03*
X176000000Y-137460000D03*
X178540000Y-137460000D03*
X181080000Y-137460000D03*
X186160000Y-137460000D03*
X188700000Y-137460000D03*
X191240000Y-137460000D03*
X193780000Y-137460000D03*
X196320000Y-137460000D03*
X198860000Y-137460000D03*
X201400000Y-137460000D03*
X203940000Y-137460000D03*
X206480000Y-89200000D03*
X209020000Y-89200000D03*
X206480000Y-91740000D03*
X209020000Y-91740000D03*
X206480000Y-94280000D03*
X209020000Y-94280000D03*
X206480000Y-96820000D03*
X209020000Y-96820000D03*
X206480000Y-99360000D03*
X209020000Y-99360000D03*
X206480000Y-101900000D03*
X209020000Y-101900000D03*
X206480000Y-104440000D03*
X209020000Y-104440000D03*
X206480000Y-106980000D03*
X209020000Y-106980000D03*
X206480000Y-109520000D03*
X209020000Y-109520000D03*
X206480000Y-112060000D03*
X209020000Y-112060000D03*
X206480000Y-114600000D03*
X209020000Y-114600000D03*
X206480000Y-117140000D03*
X209020000Y-117140000D03*
X206480000Y-119680000D03*
X209020000Y-119680000D03*
X206480000Y-122220000D03*
X209020000Y-122220000D03*
X206480000Y-124760000D03*
X209020000Y-124760000D03*
X206480000Y-127300000D03*
X209020000Y-127300000D03*
X206480000Y-129840000D03*
X209020000Y-129840000D03*
X206480000Y-132380000D03*
X209020000Y-132380000D03*
X176127000Y-109520000D03*
X176127000Y-114600000D03*
X178667000Y-114600000D03*
X178667000Y-112060000D03*
X176127000Y-112060000D03*
X178667000Y-109520000D03*
X163300000Y-137460000D03*
X158220000Y-137460000D03*
X155680000Y-137460000D03*
X153140000Y-137460000D03*
X150600000Y-137460000D03*
X148060000Y-137460000D03*
X145520000Y-137460000D03*
X142980000Y-137460000D03*
X198860000Y-89200000D03*
X196320000Y-89200000D03*
X193780000Y-89200000D03*
X191240000Y-89200000D03*
X188700000Y-89200000D03*
X186160000Y-89200000D03*
X183620000Y-89200000D03*
X181080000Y-89200000D03*
X176000000Y-89200000D03*
X173460000Y-89200000D03*
X170920000Y-89200000D03*
X168380000Y-89200000D03*
X165840000Y-89200000D03*
X163300000Y-89200000D03*
X160760000Y-89200000D03*
X158220000Y-89200000D03*
X138916000Y-89200000D03*
X154156000Y-89200000D03*
X151616000Y-89200000D03*
X149076000Y-89200000D03*
D12*
X178540000Y-132380000D03*
X178540000Y-104440000D03*
X202670000Y-89200000D03*
X127740000Y-89200000D03*
X209020000Y-137460000D03*
X126470000Y-137460000D03*
D11*
X131296000Y-89200000D03*
X133836000Y-89200000D03*
X136376000Y-89200000D03*
X141456000Y-89200000D03*
X143996000Y-89200000D03*
X146536000Y-89200000D03*
X140440000Y-137460000D03*
X165840000Y-137460000D03*
X168380000Y-137460000D03*
X170920000Y-137460000D03*
X173460000Y-137460000D03*
X176000000Y-137460000D03*
X178540000Y-137460000D03*
X181080000Y-137460000D03*
X186160000Y-137460000D03*
X188700000Y-137460000D03*
X191240000Y-137460000D03*
X193780000Y-137460000D03*
X196320000Y-137460000D03*
X198860000Y-137460000D03*
X201400000Y-137460000D03*
X203940000Y-137460000D03*
X206480000Y-89200000D03*
X209020000Y-89200000D03*
X206480000Y-91740000D03*
X209020000Y-91740000D03*
X206480000Y-94280000D03*
X209020000Y-94280000D03*
X206480000Y-96820000D03*
X209020000Y-96820000D03*
X206480000Y-99360000D03*
X209020000Y-99360000D03*
X206480000Y-101900000D03*
X209020000Y-101900000D03*
X206480000Y-104440000D03*
X209020000Y-104440000D03*
X206480000Y-106980000D03*
X209020000Y-106980000D03*
X206480000Y-109520000D03*
X209020000Y-109520000D03*
X206480000Y-112060000D03*
X209020000Y-112060000D03*
X206480000Y-114600000D03*
X209020000Y-114600000D03*
X206480000Y-117140000D03*
X209020000Y-117140000D03*
X206480000Y-119680000D03*
X209020000Y-119680000D03*
X206480000Y-122220000D03*
X209020000Y-122220000D03*
X206480000Y-124760000D03*
X209020000Y-124760000D03*
X206480000Y-127300000D03*
X209020000Y-127300000D03*
X206480000Y-129840000D03*
X209020000Y-129840000D03*
X206480000Y-132380000D03*
X209020000Y-132380000D03*
X176127000Y-109520000D03*
D13*
X141500000Y-125000000D03*
D14*
X145000000Y-125000000D03*
X130000000Y-125000000D03*
D13*
X133800000Y-125000000D03*
D14*
X150000000Y-107500000D03*
D13*
X147500000Y-107500000D03*
D14*
X150000000Y-112500000D03*
D13*
X150000000Y-115000000D03*
D14*
X147500000Y-102500000D03*
D13*
X150000000Y-102500000D03*
D14*
X150000000Y-120000000D03*
D13*
X150000000Y-117500000D03*
D15*
X202500000Y-117500000D03*
D16*
X199960000Y-117500000D03*
X197420000Y-117500000D03*
X194880000Y-117500000D03*
X192340000Y-117500000D03*
X189800000Y-117500000D03*
X187260000Y-117500000D03*
X184720000Y-117500000D03*
X182180000Y-117500000D03*
D15*
X200000000Y-110000000D03*
D16*
X197460000Y-110000000D03*
X194920000Y-110000000D03*
X192380000Y-110000000D03*
X189840000Y-110000000D03*
X187300000Y-110000000D03*
X184760000Y-110000000D03*
X182220000Y-110000000D03*
D15*
X197500000Y-95000000D03*
D16*
X194960000Y-95000000D03*
X192420000Y-95000000D03*
X189880000Y-95000000D03*
X187340000Y-95000000D03*
D15*
X147500000Y-132500000D03*
D16*
X144960000Y-132500000D03*
X142420000Y-132500000D03*
X139880000Y-132500000D03*
D15*
X185000000Y-132500000D03*
D16*
X187540000Y-132500000D03*
X190080000Y-132500000D03*
D17*
X132500000Y-135000000D03*
D18*
X135000000Y-100000000D03*
D11*
X137540000Y-100000000D03*
D15*
X175000000Y-132500000D03*
D16*
X172460000Y-132500000D03*
X169920000Y-132500000D03*
X167380000Y-132500000D03*
X164840000Y-132500000D03*
X162300000Y-132500000D03*
X159760000Y-132500000D03*
X157220000Y-132500000D03*
D15*
X152500000Y-95000000D03*
D16*
X155040000Y-95000000D03*
X157580000Y-95000000D03*
X160120000Y-95000000D03*
X162660000Y-95000000D03*
X165200000Y-95000000D03*
X167740000Y-95000000D03*
X170280000Y-95000000D03*
D15*
X197500000Y-132500000D03*
D16*
X200040000Y-132500000D03*
X202580000Y-132500000D03*
D18*
X142500000Y-95000000D03*
D11*
X145040000Y-95000000D03*
D18*
X177500000Y-95000000D03*
D11*
X180040000Y-95000000D03*
D18*
X172500000Y-120000000D03*
D11*
X172500000Y-117460000D03*
D18*
X172500000Y-102500000D03*
D11*
X172500000Y-99960000D03*
D18*
X172500000Y-110000000D03*
D11*
X172500000Y-112540000D03*
D19*
X140000000Y-112500000D03*
X129840000Y-112500000D03*
X130000000Y-117500000D03*
X140160000Y-117500000D03*
D20*
X157500000Y-105000000D03*
X157500000Y-107540000D03*
X157500000Y-110080000D03*
X157500000Y-112620000D03*
X157500000Y-115160000D03*
X157500000Y-117700000D03*
X157500000Y-120240000D03*
X157500000Y-122780000D03*
X165120000Y-122780000D03*
X165120000Y-120240000D03*
X165120000Y-117700000D03*
X165120000Y-115160000D03*
X165120000Y-112620000D03*
X165120000Y-110080000D03*
X165120000Y-107540000D03*
X165120000Y-105000000D03*
D21*
X135000000Y-107500000D03*
X132460000Y-107500000D03*
X137540000Y-107500000D03*
M02*
