G04 #@! TF.FileFunction,Copper,L1,Top,Signal*
%FSLAX46Y46*%
G04 Gerber Fmt 4.6, Leading zero omitted, Abs format (unit mm)*
G04 Created by KiCad (PCBNEW 4.0.2+dfsg1-stable) date ti. 12. des. 2017 kl. 16.44 +0100*
%MOMM*%
G01*
G04 APERTURE LIST*
%ADD10C,0.100000*%
%ADD11C,0.497840*%
%ADD12R,1.651000X1.651000*%
%ADD13C,1.651000*%
%ADD14R,2.032000X2.032000*%
%ADD15C,2.032000*%
%ADD16R,2.032000X1.727200*%
%ADD17O,2.032000X1.727200*%
%ADD18O,2.032000X2.032000*%
%ADD19R,1.727200X2.032000*%
%ADD20O,1.727200X2.032000*%
%ADD21R,1.016000X1.143000*%
%ADD22R,0.889000X0.889000*%
%ADD23R,1.270000X0.558800*%
%ADD24R,0.558800X1.270000*%
%ADD25C,1.320800*%
%ADD26C,0.700000*%
%ADD27C,0.250000*%
%ADD28C,0.300000*%
%ADD29C,3.000000*%
%ADD30C,1.000000*%
%ADD31C,0.254000*%
G04 APERTURE END LIST*
D10*
D11*
X149037720Y-94000000D03*
X149962280Y-94000000D03*
X147037720Y-108000000D03*
X147962280Y-108000000D03*
D12*
X168040000Y-119230000D03*
D13*
X165500000Y-119230000D03*
X162960000Y-119230000D03*
X162960000Y-121770000D03*
X165500000Y-121770000D03*
X168040000Y-121770000D03*
D14*
X180000000Y-82499360D03*
D15*
X180000000Y-77500640D03*
D14*
X180000000Y-112499360D03*
D15*
X180000000Y-107500640D03*
D14*
X180000000Y-92500640D03*
D15*
X180000000Y-97499360D03*
D14*
X180000000Y-122500640D03*
D15*
X180000000Y-127499360D03*
D14*
X153498720Y-73000000D03*
D15*
X148500000Y-73000000D03*
X143501280Y-73000000D03*
D16*
X139500000Y-113000000D03*
D17*
X139500000Y-115540000D03*
X139500000Y-118080000D03*
X139500000Y-120620000D03*
X139500000Y-123160000D03*
X139500000Y-125700000D03*
D14*
X168000000Y-129500000D03*
D18*
X165460000Y-129500000D03*
D19*
X147000000Y-129500000D03*
D20*
X149540000Y-129500000D03*
X152080000Y-129500000D03*
X154620000Y-129500000D03*
X157160000Y-129500000D03*
X159700000Y-129500000D03*
D21*
X147611000Y-84016000D03*
X149389000Y-84016000D03*
X148500000Y-81984000D03*
X161611000Y-83516000D03*
X163389000Y-83516000D03*
X162500000Y-81484000D03*
D22*
X163262000Y-77500000D03*
X161738000Y-77500000D03*
X167488000Y-80250000D03*
X169012000Y-80250000D03*
X147738000Y-88500000D03*
X149262000Y-88500000D03*
X157000000Y-91738000D03*
X157000000Y-93262000D03*
X161738000Y-87500000D03*
X163262000Y-87500000D03*
D23*
X156207400Y-101700920D03*
X156207400Y-102501020D03*
X156207400Y-103301120D03*
X156207400Y-104101220D03*
X156207400Y-104898780D03*
X156207400Y-105698880D03*
X156207400Y-106498980D03*
X156207400Y-107299080D03*
D24*
X157700920Y-108792600D03*
X158501020Y-108792600D03*
X159301120Y-108792600D03*
X160101220Y-108792600D03*
X160898780Y-108792600D03*
X161698880Y-108792600D03*
X162498980Y-108792600D03*
X163299080Y-108792600D03*
D23*
X164792600Y-107299080D03*
X164792600Y-106498980D03*
X164792600Y-105698880D03*
X164792600Y-104898780D03*
X164792600Y-104101220D03*
X164792600Y-103301120D03*
X164792600Y-102501020D03*
X164792600Y-101700920D03*
D24*
X163299080Y-100207400D03*
X162498980Y-100207400D03*
X161698880Y-100207400D03*
X160898780Y-100207400D03*
X160101220Y-100207400D03*
X159301120Y-100207400D03*
X158501020Y-100207400D03*
X157700920Y-100207400D03*
D25*
X142500000Y-95587000D03*
X142500000Y-100413000D03*
D22*
X154762000Y-97500000D03*
X153238000Y-97500000D03*
D26*
X150909265Y-84655615D03*
X154250000Y-98500000D03*
X166000000Y-105000000D03*
X149250000Y-86750000D03*
X150000000Y-95750000D03*
X153500000Y-105000000D03*
X153500000Y-103250000D03*
X160500000Y-81000000D03*
X149250000Y-109250000D03*
X160000000Y-97000000D03*
X158250000Y-95250000D03*
X172250000Y-110500000D03*
X168500000Y-110500000D03*
X152750000Y-80500000D03*
X146500000Y-86500000D03*
X140750000Y-130500000D03*
X143750000Y-125750000D03*
X151750000Y-108500000D03*
X151000000Y-105750000D03*
X162500000Y-131500000D03*
X162250000Y-127500000D03*
X161000000Y-96000000D03*
X159250000Y-94250000D03*
X161698880Y-97801120D03*
X160250000Y-92716878D03*
X160826230Y-98250000D03*
X157000000Y-87500000D03*
X161500000Y-102500000D03*
X170500000Y-100000000D03*
X158713500Y-97811820D03*
X168000000Y-98500000D03*
X151250000Y-89250000D03*
X151750000Y-93250000D03*
X161750000Y-93750000D03*
X161750000Y-89750000D03*
D27*
X156207400Y-106498980D02*
X147001020Y-106498980D01*
X147000000Y-106497960D02*
X147000000Y-95587000D01*
X147001020Y-106498980D02*
X147000000Y-106497960D01*
X142500000Y-95587000D02*
X147000000Y-95587000D01*
X147000000Y-95587000D02*
X147450720Y-95587000D01*
X147450720Y-95587000D02*
X149037720Y-94000000D01*
D28*
X150559266Y-84305616D02*
X150909265Y-84655615D01*
X150269650Y-84016000D02*
X150559266Y-84305616D01*
X149389000Y-84016000D02*
X150269650Y-84016000D01*
X153238000Y-97500000D02*
X153250000Y-97500000D01*
X153250000Y-97500000D02*
X154250000Y-98500000D01*
X164792600Y-104101220D02*
X165727600Y-104101220D01*
X165727600Y-104101220D02*
X166000000Y-104373620D01*
X166000000Y-104373620D02*
X166000000Y-105000000D01*
X149262000Y-88500000D02*
X149262000Y-86762000D01*
X149262000Y-86762000D02*
X149250000Y-86750000D01*
X149962280Y-94000000D02*
X149962280Y-95712280D01*
X149962280Y-95712280D02*
X150000000Y-95750000D01*
X156207400Y-104898780D02*
X153601220Y-104898780D01*
X153601220Y-104898780D02*
X153500000Y-105000000D01*
X156207400Y-103301120D02*
X153551120Y-103301120D01*
X153551120Y-103301120D02*
X153500000Y-103250000D01*
X162500000Y-81484000D02*
X160984000Y-81484000D01*
X160984000Y-81484000D02*
X160500000Y-81000000D01*
D27*
X147962280Y-108000000D02*
X148000000Y-108000000D01*
X148000000Y-108000000D02*
X149250000Y-109250000D01*
X156207400Y-107299080D02*
X146336800Y-107299080D01*
X146336800Y-107299080D02*
X146500000Y-107462280D01*
X146500000Y-107462280D02*
X146500000Y-107500000D01*
X146500000Y-107500000D02*
X146500000Y-107462280D01*
X142500000Y-100413000D02*
X142500000Y-103462280D01*
X142500000Y-103462280D02*
X146500000Y-107462280D01*
X146500000Y-107462280D02*
X147037720Y-108000000D01*
X163299080Y-108792600D02*
X163299080Y-109148200D01*
X163299080Y-109148200D02*
X168040000Y-113889120D01*
X168040000Y-113889120D02*
X168040000Y-119230000D01*
X165500000Y-119230000D02*
X166700501Y-120430501D01*
X166700501Y-120430501D02*
X169165501Y-120430501D01*
X169165501Y-120430501D02*
X169240501Y-120355501D01*
X169240501Y-112276381D02*
X164792600Y-107828480D01*
X169240501Y-120355501D02*
X169240501Y-112276381D01*
X164792600Y-107828480D02*
X164792600Y-107299080D01*
X158250000Y-94755026D02*
X158250000Y-95250000D01*
X157000000Y-93262000D02*
X157000000Y-94000000D01*
X160101220Y-97101220D02*
X160101220Y-100207400D01*
X160000000Y-97000000D02*
X160101220Y-97101220D01*
X157000000Y-94000000D02*
X158250000Y-95250000D01*
X165500000Y-121770000D02*
X164299499Y-120569499D01*
X164299499Y-120569499D02*
X164299499Y-111478119D01*
X164299499Y-111478119D02*
X162498980Y-109677600D01*
X162498980Y-109677600D02*
X162498980Y-108792600D01*
D28*
X156207400Y-104101220D02*
X152648780Y-104101220D01*
X152648780Y-104101220D02*
X151000000Y-105750000D01*
X172250000Y-110500000D02*
X179316640Y-110500000D01*
X179316640Y-110500000D02*
X180000000Y-111183360D01*
X180000000Y-111183360D02*
X180000000Y-112499360D01*
X164792600Y-106498980D02*
X165727600Y-106498980D01*
X165727600Y-106498980D02*
X168500000Y-109271380D01*
X168500000Y-109271380D02*
X168500000Y-110500000D01*
X152750000Y-80500000D02*
X152750000Y-73748720D01*
X152750000Y-73748720D02*
X153498720Y-73000000D01*
X157000000Y-91738000D02*
X154652240Y-91738000D01*
X154652240Y-91738000D02*
X152864241Y-89950001D01*
X152864241Y-89950001D02*
X147668999Y-89950001D01*
X146500000Y-88781002D02*
X146500000Y-86500000D01*
X147668999Y-89950001D02*
X146500000Y-88781002D01*
X140750000Y-130500000D02*
X142116021Y-131866021D01*
X142116021Y-131866021D02*
X162133979Y-131866021D01*
X162133979Y-131866021D02*
X162150001Y-131849999D01*
X162150001Y-131849999D02*
X162500000Y-131500000D01*
X151750000Y-108500000D02*
X143750000Y-116500000D01*
X143750000Y-116500000D02*
X143750000Y-125750000D01*
X156207400Y-105698880D02*
X153837122Y-105698880D01*
X153837122Y-105698880D02*
X153786002Y-105750000D01*
X153786002Y-105750000D02*
X151000000Y-105750000D01*
X162500000Y-131500000D02*
X162849999Y-131849999D01*
X162849999Y-131849999D02*
X169334641Y-131849999D01*
X169334641Y-131849999D02*
X178684000Y-122500640D01*
X178684000Y-122500640D02*
X180000000Y-122500640D01*
X168040000Y-121770000D02*
X162310000Y-127500000D01*
X162310000Y-127500000D02*
X162250000Y-127500000D01*
X166738000Y-92500000D02*
X168262000Y-92500000D01*
D27*
X168262000Y-92500000D02*
X179999360Y-92500000D01*
X179999360Y-92500000D02*
X180000000Y-92500640D01*
D29*
X180000000Y-92500640D02*
X180000000Y-82499360D01*
D27*
X165998980Y-102501020D02*
X164792600Y-102501020D01*
X166738000Y-92500000D02*
X166738000Y-101762000D01*
X166738000Y-101762000D02*
X165998980Y-102501020D01*
D29*
X173500000Y-79000000D02*
X173500000Y-80500000D01*
D28*
X173250000Y-80250000D02*
X173500000Y-80500000D01*
D29*
X173500000Y-80500000D02*
X173500000Y-83500000D01*
D28*
X169012000Y-80250000D02*
X173250000Y-80250000D01*
X163262000Y-87500000D02*
X163262000Y-83643000D01*
X163262000Y-83643000D02*
X163389000Y-83516000D01*
X174998720Y-77500000D02*
X174999360Y-77500640D01*
D29*
X165500000Y-83500000D02*
X173500000Y-83500000D01*
X174999360Y-77500640D02*
X173500000Y-79000000D01*
X174999360Y-77500640D02*
X180000000Y-77500640D01*
X165500000Y-83500000D02*
X165484000Y-83516000D01*
D30*
X163389000Y-83516000D02*
X165484000Y-83516000D01*
X165484000Y-83516000D02*
X165500000Y-83500000D01*
X148500000Y-81984000D02*
X148500000Y-78500000D01*
D29*
X148500000Y-78500000D02*
X148500000Y-73000000D01*
D28*
X154000000Y-92500000D02*
X154000000Y-95993500D01*
X154000000Y-95993500D02*
X154762000Y-96755500D01*
X154762000Y-96755500D02*
X154762000Y-97500000D01*
X156207400Y-101700920D02*
X156207400Y-98200900D01*
X156207400Y-98200900D02*
X155506500Y-97500000D01*
X155506500Y-97500000D02*
X154762000Y-97500000D01*
X143501280Y-73000000D02*
X143501280Y-89501280D01*
X153000000Y-91500000D02*
X154000000Y-92500000D01*
X145500000Y-91500000D02*
X153000000Y-91500000D01*
X143501280Y-89501280D02*
X145500000Y-91500000D01*
D27*
X139500000Y-113000000D02*
X139500000Y-74942598D01*
X142833599Y-71608999D02*
X144168961Y-71608999D01*
X139500000Y-74942598D02*
X142833599Y-71608999D01*
X161024999Y-93767881D02*
X161024999Y-93401999D01*
X161024999Y-93401999D02*
X161401999Y-93024999D01*
X161401999Y-93024999D02*
X162098001Y-93024999D01*
X144168961Y-71608999D02*
X145717466Y-73157504D01*
X145717466Y-73157504D02*
X145717466Y-90974990D01*
X145717466Y-90974990D02*
X153217466Y-90974990D01*
X153217466Y-90974990D02*
X154525010Y-92282534D01*
X154525010Y-92282534D02*
X154525010Y-94916070D01*
X154525010Y-94916070D02*
X157200910Y-97591970D01*
X163299080Y-94226078D02*
X163299080Y-100207400D01*
X157200910Y-97591970D02*
X161024999Y-93767881D01*
X162098001Y-93024999D02*
X163299080Y-94226078D01*
X161000000Y-96000000D02*
X162498980Y-97498980D01*
X162498980Y-97498980D02*
X162498980Y-100207400D01*
X139500000Y-115540000D02*
X138108999Y-114148999D01*
X138108999Y-114148999D02*
X138108999Y-75626479D01*
X157744501Y-90918499D02*
X159250000Y-92423998D01*
X138108999Y-75626479D02*
X142626489Y-71108989D01*
X146217476Y-81717476D02*
X147569499Y-83069499D01*
X142626489Y-71108989D02*
X144376071Y-71108989D01*
X148505999Y-84887501D02*
X154536997Y-90918499D01*
X144376071Y-71108989D02*
X146217476Y-72950394D01*
X146217476Y-72950394D02*
X146217476Y-81717476D01*
X147569499Y-83069499D02*
X148419001Y-83069499D01*
X154536997Y-90918499D02*
X157744501Y-90918499D01*
X148419001Y-83069499D02*
X148505999Y-83156497D01*
X148505999Y-83156497D02*
X148505999Y-84887501D01*
X159250000Y-92423998D02*
X159250000Y-94250000D01*
X161698880Y-100207400D02*
X161698880Y-97801120D01*
X139500000Y-118080000D02*
X139347600Y-118080000D01*
X137608989Y-75419369D02*
X142419379Y-70608979D01*
X139347600Y-118080000D02*
X137608989Y-116341389D01*
X137608989Y-116341389D02*
X137608989Y-75419369D01*
X148760643Y-70608979D02*
X150375010Y-72223346D01*
X150375010Y-72223346D02*
X150375010Y-82841888D01*
X142419379Y-70608979D02*
X148760643Y-70608979D01*
X150375010Y-82841888D02*
X160250000Y-92716878D01*
X160250000Y-92716878D02*
X160250000Y-92716878D01*
X160826230Y-98250000D02*
X160826230Y-100134850D01*
X160826230Y-100134850D02*
X160898780Y-100207400D01*
X139500000Y-120620000D02*
X139347600Y-120620000D01*
X142212269Y-70108969D02*
X148967753Y-70108969D01*
X139347600Y-120620000D02*
X137108979Y-118381379D01*
X137108979Y-118381379D02*
X137108979Y-75212259D01*
X137108979Y-75212259D02*
X142212269Y-70108969D01*
X148967753Y-70108969D02*
X150875020Y-72016236D01*
X150875020Y-72016236D02*
X150875020Y-81375020D01*
X150875020Y-81375020D02*
X157000000Y-87500000D01*
X139500000Y-123160000D02*
X139652400Y-123160000D01*
X169740511Y-109761791D02*
X165677600Y-105698880D01*
X165677600Y-105698880D02*
X164792600Y-105698880D01*
X139652400Y-123160000D02*
X145761399Y-129268999D01*
X145761399Y-129268999D02*
X145761399Y-130816001D01*
X160695741Y-130891001D02*
X169740511Y-121846231D01*
X145761399Y-130816001D02*
X145836399Y-130891001D01*
X145836399Y-130891001D02*
X160695741Y-130891001D01*
X169740511Y-121846231D02*
X169740511Y-109761791D01*
X139500000Y-125700000D02*
X139652400Y-125700000D01*
X139652400Y-125700000D02*
X145343411Y-131391011D01*
X145343411Y-131391011D02*
X160902851Y-131391011D01*
X160902851Y-131391011D02*
X170240521Y-122053341D01*
X170240521Y-122053341D02*
X170240521Y-107864041D01*
X170240521Y-107864041D02*
X165677600Y-103301120D01*
X165677600Y-103301120D02*
X164792600Y-103301120D01*
D28*
X161500000Y-102500000D02*
X160658720Y-102500000D01*
X160658720Y-102500000D02*
X159301120Y-101142400D01*
X159301120Y-101142400D02*
X159301120Y-100207400D01*
X168000000Y-129500000D02*
X168000000Y-128184000D01*
X168000000Y-128184000D02*
X171215541Y-124968459D01*
X171215541Y-100715541D02*
X170500000Y-100000000D01*
X171215541Y-124968459D02*
X171215541Y-100715541D01*
D27*
X158713500Y-97811820D02*
X158363501Y-98161819D01*
X158363501Y-98161819D02*
X158363501Y-100069881D01*
X158363501Y-100069881D02*
X158501020Y-100207400D01*
X165460000Y-129500000D02*
X165460000Y-127540982D01*
X165460000Y-127540982D02*
X170740531Y-122260451D01*
X170740531Y-122260451D02*
X170740531Y-101240531D01*
X170740531Y-101240531D02*
X168000000Y-98500000D01*
D28*
X155000000Y-122500000D02*
X152684000Y-122500000D01*
X152684000Y-122500000D02*
X147000000Y-128184000D01*
X147000000Y-128184000D02*
X147000000Y-129500000D01*
X155000000Y-115500000D02*
X155000000Y-122500000D01*
X157700920Y-112799080D02*
X155000000Y-115500000D01*
X157700920Y-108792600D02*
X157700920Y-112799080D01*
X154250000Y-126750000D02*
X152137600Y-126750000D01*
X152137600Y-126750000D02*
X149540000Y-129347600D01*
X149540000Y-129347600D02*
X149540000Y-129500000D01*
X156000000Y-125000000D02*
X154250000Y-126750000D01*
X156000000Y-116000000D02*
X156000000Y-125000000D01*
X155750000Y-115750000D02*
X156000000Y-116000000D01*
X158501020Y-112998980D02*
X155750000Y-115750000D01*
X158501020Y-108792600D02*
X158501020Y-112998980D01*
X157000000Y-125750000D02*
X156750000Y-125750000D01*
X153293610Y-128133990D02*
X152080000Y-129347600D01*
X156750000Y-125750000D02*
X154366010Y-128133990D01*
X154366010Y-128133990D02*
X153293610Y-128133990D01*
X152080000Y-129347600D02*
X152080000Y-129500000D01*
X157000000Y-115750000D02*
X157000000Y-125750000D01*
X159500000Y-113250000D02*
X157000000Y-115750000D01*
X159500000Y-109926480D02*
X159500000Y-113250000D01*
X159301120Y-108792600D02*
X159301120Y-109727600D01*
X159301120Y-109727600D02*
X159500000Y-109926480D01*
X158000000Y-126250000D02*
X157717600Y-126250000D01*
X157717600Y-126250000D02*
X154620000Y-129347600D01*
X154620000Y-129347600D02*
X154620000Y-129500000D01*
X158000000Y-116000000D02*
X158000000Y-126250000D01*
X160250000Y-113750000D02*
X158000000Y-116000000D01*
X160250000Y-109876380D02*
X160250000Y-113750000D01*
X160101220Y-108792600D02*
X160101220Y-109727600D01*
X160101220Y-109727600D02*
X160250000Y-109876380D01*
X160898780Y-108792600D02*
X160898780Y-109727600D01*
X160898780Y-109727600D02*
X161000000Y-109828820D01*
X161000000Y-109828820D02*
X161000000Y-114000000D01*
X161000000Y-114000000D02*
X158750000Y-116250000D01*
X158750000Y-116250000D02*
X158750000Y-127757600D01*
X158750000Y-127757600D02*
X157160000Y-129347600D01*
X157160000Y-129347600D02*
X157160000Y-129500000D01*
D27*
X161750000Y-114500000D02*
X161698880Y-114448880D01*
X161698880Y-114448880D02*
X161698880Y-108792600D01*
X159700000Y-116550000D02*
X161750000Y-114500000D01*
X159700000Y-129500000D02*
X159700000Y-116550000D01*
X151250000Y-89250000D02*
X150076002Y-89250000D01*
X150076002Y-89250000D02*
X150006501Y-89319501D01*
X150006501Y-89319501D02*
X147863001Y-89319501D01*
X147863001Y-89319501D02*
X147738000Y-89194500D01*
X147738000Y-89194500D02*
X147738000Y-88500000D01*
X156207400Y-102501020D02*
X155322400Y-102501020D01*
X155322400Y-102501020D02*
X151750000Y-98928620D01*
X151750000Y-98928620D02*
X151750000Y-93250000D01*
D28*
X147611000Y-84016000D02*
X147611000Y-88373000D01*
X147611000Y-88373000D02*
X147738000Y-88500000D01*
D27*
X161738000Y-87500000D02*
X161738000Y-89738000D01*
X157700920Y-97799080D02*
X157700920Y-100207400D01*
X161750000Y-93750000D02*
X157700920Y-97799080D01*
X161738000Y-89738000D02*
X161750000Y-89750000D01*
D28*
X161738000Y-87500000D02*
X161738000Y-83643000D01*
X161738000Y-83643000D02*
X161611000Y-83516000D01*
X167488000Y-80250000D02*
X163774000Y-80250000D01*
X163774000Y-80250000D02*
X163262000Y-79738000D01*
D27*
X163262000Y-77500000D02*
X163262000Y-79738000D01*
X165799080Y-101700920D02*
X164792600Y-101700920D01*
X166000000Y-101500000D02*
X165799080Y-101700920D01*
X166000000Y-96000000D02*
X166000000Y-101500000D01*
X159500000Y-89500000D02*
X166000000Y-96000000D01*
X159500000Y-80500000D02*
X159500000Y-89500000D01*
X160000000Y-80000000D02*
X159500000Y-80500000D01*
X163000000Y-80000000D02*
X160000000Y-80000000D01*
X163262000Y-79738000D02*
X163000000Y-80000000D01*
D28*
X164792600Y-104898780D02*
X164351220Y-104898780D01*
D31*
G36*
X184315000Y-133315000D02*
X136685000Y-133315000D01*
X136685000Y-119032202D01*
X137892334Y-120239536D01*
X137816655Y-120620000D01*
X137930729Y-121193489D01*
X138255585Y-121679670D01*
X138570366Y-121890000D01*
X138255585Y-122100330D01*
X137930729Y-122586511D01*
X137816655Y-123160000D01*
X137930729Y-123733489D01*
X138255585Y-124219670D01*
X138570366Y-124430000D01*
X138255585Y-124640330D01*
X137930729Y-125126511D01*
X137816655Y-125700000D01*
X137930729Y-126273489D01*
X138255585Y-126759670D01*
X138741766Y-127084526D01*
X139315255Y-127198600D01*
X139684745Y-127198600D01*
X140011252Y-127133654D01*
X144806010Y-131928412D01*
X145052572Y-132093159D01*
X145343411Y-132151011D01*
X160902851Y-132151011D01*
X161193690Y-132093159D01*
X161440252Y-131928412D01*
X163813533Y-129555131D01*
X163934675Y-130164155D01*
X164292567Y-130699778D01*
X164828190Y-131057670D01*
X165460000Y-131183345D01*
X166091810Y-131057670D01*
X166431792Y-130830501D01*
X166519910Y-130967441D01*
X166732110Y-131112431D01*
X166984000Y-131163440D01*
X169016000Y-131163440D01*
X169251317Y-131119162D01*
X169467441Y-130980090D01*
X169612431Y-130767890D01*
X169663440Y-130516000D01*
X169663440Y-128484000D01*
X169619162Y-128248683D01*
X169480090Y-128032559D01*
X169350289Y-127943869D01*
X169467835Y-127826323D01*
X178348714Y-127826323D01*
X178599534Y-128433355D01*
X179063563Y-128898194D01*
X179670155Y-129150073D01*
X180326963Y-129150646D01*
X180933995Y-128899826D01*
X181398834Y-128435797D01*
X181650713Y-127829205D01*
X181651286Y-127172397D01*
X181400466Y-126565365D01*
X180936437Y-126100526D01*
X180329845Y-125848647D01*
X179673037Y-125848074D01*
X179066005Y-126098894D01*
X178601166Y-126562923D01*
X178349287Y-127169515D01*
X178348714Y-127826323D01*
X169467835Y-127826323D01*
X171770620Y-125523538D01*
X171940786Y-125268865D01*
X172000541Y-124968459D01*
X172000541Y-122786390D01*
X178349000Y-122786390D01*
X178349000Y-123642950D01*
X178445673Y-123876339D01*
X178624302Y-124054967D01*
X178857691Y-124151640D01*
X179714250Y-124151640D01*
X179873000Y-123992890D01*
X179873000Y-122627640D01*
X180127000Y-122627640D01*
X180127000Y-123992890D01*
X180285750Y-124151640D01*
X181142309Y-124151640D01*
X181375698Y-124054967D01*
X181554327Y-123876339D01*
X181651000Y-123642950D01*
X181651000Y-122786390D01*
X181492250Y-122627640D01*
X180127000Y-122627640D01*
X179873000Y-122627640D01*
X178507750Y-122627640D01*
X178349000Y-122786390D01*
X172000541Y-122786390D01*
X172000541Y-121358330D01*
X178349000Y-121358330D01*
X178349000Y-122214890D01*
X178507750Y-122373640D01*
X179873000Y-122373640D01*
X179873000Y-121008390D01*
X180127000Y-121008390D01*
X180127000Y-122373640D01*
X181492250Y-122373640D01*
X181651000Y-122214890D01*
X181651000Y-121358330D01*
X181554327Y-121124941D01*
X181375698Y-120946313D01*
X181142309Y-120849640D01*
X180285750Y-120849640D01*
X180127000Y-121008390D01*
X179873000Y-121008390D01*
X179714250Y-120849640D01*
X178857691Y-120849640D01*
X178624302Y-120946313D01*
X178445673Y-121124941D01*
X178349000Y-121358330D01*
X172000541Y-121358330D01*
X172000541Y-112785110D01*
X178349000Y-112785110D01*
X178349000Y-113641670D01*
X178445673Y-113875059D01*
X178624302Y-114053687D01*
X178857691Y-114150360D01*
X179714250Y-114150360D01*
X179873000Y-113991610D01*
X179873000Y-112626360D01*
X180127000Y-112626360D01*
X180127000Y-113991610D01*
X180285750Y-114150360D01*
X181142309Y-114150360D01*
X181375698Y-114053687D01*
X181554327Y-113875059D01*
X181651000Y-113641670D01*
X181651000Y-112785110D01*
X181492250Y-112626360D01*
X180127000Y-112626360D01*
X179873000Y-112626360D01*
X178507750Y-112626360D01*
X178349000Y-112785110D01*
X172000541Y-112785110D01*
X172000541Y-111357050D01*
X178349000Y-111357050D01*
X178349000Y-112213610D01*
X178507750Y-112372360D01*
X179873000Y-112372360D01*
X179873000Y-111007110D01*
X180127000Y-111007110D01*
X180127000Y-112372360D01*
X181492250Y-112372360D01*
X181651000Y-112213610D01*
X181651000Y-111357050D01*
X181554327Y-111123661D01*
X181375698Y-110945033D01*
X181142309Y-110848360D01*
X180285750Y-110848360D01*
X180127000Y-111007110D01*
X179873000Y-111007110D01*
X179714250Y-110848360D01*
X178857691Y-110848360D01*
X178624302Y-110945033D01*
X178445673Y-111123661D01*
X178349000Y-111357050D01*
X172000541Y-111357050D01*
X172000541Y-107827603D01*
X178348714Y-107827603D01*
X178599534Y-108434635D01*
X179063563Y-108899474D01*
X179670155Y-109151353D01*
X180326963Y-109151926D01*
X180933995Y-108901106D01*
X181398834Y-108437077D01*
X181650713Y-107830485D01*
X181651286Y-107173677D01*
X181400466Y-106566645D01*
X180936437Y-106101806D01*
X180329845Y-105849927D01*
X179673037Y-105849354D01*
X179066005Y-106100174D01*
X178601166Y-106564203D01*
X178349287Y-107170795D01*
X178348714Y-107827603D01*
X172000541Y-107827603D01*
X172000541Y-100715541D01*
X171940786Y-100415135D01*
X171770620Y-100160462D01*
X171485109Y-99874951D01*
X171485170Y-99804931D01*
X171335529Y-99442771D01*
X171058686Y-99165445D01*
X170696788Y-99015172D01*
X170304931Y-99014830D01*
X169942771Y-99164471D01*
X169840933Y-99266131D01*
X168985078Y-98410276D01*
X168985170Y-98304931D01*
X168835529Y-97942771D01*
X168719284Y-97826323D01*
X178348714Y-97826323D01*
X178599534Y-98433355D01*
X179063563Y-98898194D01*
X179670155Y-99150073D01*
X180326963Y-99150646D01*
X180933995Y-98899826D01*
X181398834Y-98435797D01*
X181650713Y-97829205D01*
X181651286Y-97172397D01*
X181400466Y-96565365D01*
X180936437Y-96100526D01*
X180329845Y-95848647D01*
X179673037Y-95848074D01*
X179066005Y-96098894D01*
X178601166Y-96562923D01*
X178349287Y-97169515D01*
X178348714Y-97826323D01*
X168719284Y-97826323D01*
X168558686Y-97665445D01*
X168196788Y-97515172D01*
X167804931Y-97514830D01*
X167498000Y-97641651D01*
X167498000Y-93285000D01*
X168262000Y-93285000D01*
X168387682Y-93260000D01*
X178016046Y-93260000D01*
X178027517Y-93317669D01*
X178490327Y-94010313D01*
X179182971Y-94473123D01*
X180000000Y-94635640D01*
X180817029Y-94473123D01*
X181509673Y-94010313D01*
X181972483Y-93317669D01*
X182135000Y-92500640D01*
X182135000Y-82499360D01*
X181972483Y-81682331D01*
X181509673Y-80989687D01*
X180817029Y-80526877D01*
X180000000Y-80364360D01*
X179182971Y-80526877D01*
X178490327Y-80989687D01*
X178027517Y-81682331D01*
X177865000Y-82499360D01*
X177865000Y-91740000D01*
X168387682Y-91740000D01*
X168262000Y-91715000D01*
X166738000Y-91715000D01*
X166437594Y-91774755D01*
X166182921Y-91944921D01*
X166012755Y-92199594D01*
X165953000Y-92500000D01*
X165978000Y-92625682D01*
X165978000Y-94903198D01*
X161809854Y-90735052D01*
X161945069Y-90735170D01*
X162307229Y-90585529D01*
X162584555Y-90308686D01*
X162734828Y-89946788D01*
X162735170Y-89554931D01*
X162585529Y-89192771D01*
X162498000Y-89105089D01*
X162498000Y-88496066D01*
X162499003Y-88495420D01*
X162565610Y-88540931D01*
X162817500Y-88591940D01*
X163706500Y-88591940D01*
X163941817Y-88547662D01*
X164157941Y-88408590D01*
X164302931Y-88196390D01*
X164353940Y-87944500D01*
X164353940Y-87055500D01*
X164309662Y-86820183D01*
X164170590Y-86604059D01*
X164047000Y-86519614D01*
X164047000Y-85074232D01*
X164666971Y-85488483D01*
X165484000Y-85651000D01*
X165564438Y-85635000D01*
X173500000Y-85635000D01*
X174317029Y-85472483D01*
X175009673Y-85009673D01*
X175472483Y-84317029D01*
X175635000Y-83500000D01*
X175635000Y-79884346D01*
X175883706Y-79635640D01*
X180000000Y-79635640D01*
X180817029Y-79473123D01*
X181509673Y-79010313D01*
X181972483Y-78317669D01*
X182135000Y-77500640D01*
X181972483Y-76683611D01*
X181509673Y-75990967D01*
X180817029Y-75528157D01*
X180000000Y-75365640D01*
X174999360Y-75365640D01*
X174182330Y-75528157D01*
X173489687Y-75990967D01*
X171990327Y-77490327D01*
X171527517Y-78182971D01*
X171365000Y-79000000D01*
X171365000Y-79465000D01*
X169991979Y-79465000D01*
X169920590Y-79354059D01*
X169708390Y-79209069D01*
X169456500Y-79158060D01*
X168567500Y-79158060D01*
X168332183Y-79202338D01*
X168250997Y-79254580D01*
X168184390Y-79209069D01*
X167932500Y-79158060D01*
X167043500Y-79158060D01*
X166808183Y-79202338D01*
X166592059Y-79341410D01*
X166507614Y-79465000D01*
X164099158Y-79465000D01*
X164022000Y-79387842D01*
X164022000Y-78496066D01*
X164157941Y-78408590D01*
X164302931Y-78196390D01*
X164353940Y-77944500D01*
X164353940Y-77055500D01*
X164309662Y-76820183D01*
X164170590Y-76604059D01*
X163958390Y-76459069D01*
X163706500Y-76408060D01*
X162817500Y-76408060D01*
X162582183Y-76452338D01*
X162505226Y-76501859D01*
X162308809Y-76420500D01*
X162023750Y-76420500D01*
X161865000Y-76579250D01*
X161865000Y-77373000D01*
X161885000Y-77373000D01*
X161885000Y-77627000D01*
X161865000Y-77627000D01*
X161865000Y-78420750D01*
X162023750Y-78579500D01*
X162308809Y-78579500D01*
X162502000Y-78499478D01*
X162502000Y-79240000D01*
X160000000Y-79240000D01*
X159709161Y-79297852D01*
X159462599Y-79462599D01*
X158962599Y-79962599D01*
X158797852Y-80209161D01*
X158740000Y-80500000D01*
X158740000Y-89500000D01*
X158797852Y-89790839D01*
X158962599Y-90037401D01*
X160806694Y-91881496D01*
X160446788Y-91732050D01*
X160339881Y-91731957D01*
X157093005Y-88485081D01*
X157195069Y-88485170D01*
X157557229Y-88335529D01*
X157834555Y-88058686D01*
X157984828Y-87696788D01*
X157985170Y-87304931D01*
X157835529Y-86942771D01*
X157558686Y-86665445D01*
X157196788Y-86515172D01*
X157089881Y-86515079D01*
X151635020Y-81060218D01*
X151635020Y-77785750D01*
X160658500Y-77785750D01*
X160658500Y-78070810D01*
X160755173Y-78304199D01*
X160933802Y-78482827D01*
X161167191Y-78579500D01*
X161452250Y-78579500D01*
X161611000Y-78420750D01*
X161611000Y-77627000D01*
X160817250Y-77627000D01*
X160658500Y-77785750D01*
X151635020Y-77785750D01*
X151635020Y-76929190D01*
X160658500Y-76929190D01*
X160658500Y-77214250D01*
X160817250Y-77373000D01*
X161611000Y-77373000D01*
X161611000Y-76579250D01*
X161452250Y-76420500D01*
X161167191Y-76420500D01*
X160933802Y-76517173D01*
X160755173Y-76695801D01*
X160658500Y-76929190D01*
X151635020Y-76929190D01*
X151635020Y-73285750D01*
X151847720Y-73285750D01*
X151847720Y-74142309D01*
X151944393Y-74375698D01*
X152123021Y-74554327D01*
X152356410Y-74651000D01*
X153212970Y-74651000D01*
X153371720Y-74492250D01*
X153371720Y-73127000D01*
X153625720Y-73127000D01*
X153625720Y-74492250D01*
X153784470Y-74651000D01*
X154641030Y-74651000D01*
X154874419Y-74554327D01*
X155053047Y-74375698D01*
X155149720Y-74142309D01*
X155149720Y-73285750D01*
X154990970Y-73127000D01*
X153625720Y-73127000D01*
X153371720Y-73127000D01*
X152006470Y-73127000D01*
X151847720Y-73285750D01*
X151635020Y-73285750D01*
X151635020Y-72016236D01*
X151603484Y-71857691D01*
X151847720Y-71857691D01*
X151847720Y-72714250D01*
X152006470Y-72873000D01*
X153371720Y-72873000D01*
X153371720Y-71507750D01*
X153625720Y-71507750D01*
X153625720Y-72873000D01*
X154990970Y-72873000D01*
X155149720Y-72714250D01*
X155149720Y-71857691D01*
X155053047Y-71624302D01*
X154874419Y-71445673D01*
X154641030Y-71349000D01*
X153784470Y-71349000D01*
X153625720Y-71507750D01*
X153371720Y-71507750D01*
X153212970Y-71349000D01*
X152356410Y-71349000D01*
X152123021Y-71445673D01*
X151944393Y-71624302D01*
X151847720Y-71857691D01*
X151603484Y-71857691D01*
X151577168Y-71725397D01*
X151412421Y-71478835D01*
X149505154Y-69571568D01*
X149258592Y-69406821D01*
X148967753Y-69348969D01*
X142212269Y-69348969D01*
X141921430Y-69406821D01*
X141674868Y-69571568D01*
X136685000Y-74561436D01*
X136685000Y-68685000D01*
X184315000Y-68685000D01*
X184315000Y-133315000D01*
X184315000Y-133315000D01*
G37*
X184315000Y-133315000D02*
X136685000Y-133315000D01*
X136685000Y-119032202D01*
X137892334Y-120239536D01*
X137816655Y-120620000D01*
X137930729Y-121193489D01*
X138255585Y-121679670D01*
X138570366Y-121890000D01*
X138255585Y-122100330D01*
X137930729Y-122586511D01*
X137816655Y-123160000D01*
X137930729Y-123733489D01*
X138255585Y-124219670D01*
X138570366Y-124430000D01*
X138255585Y-124640330D01*
X137930729Y-125126511D01*
X137816655Y-125700000D01*
X137930729Y-126273489D01*
X138255585Y-126759670D01*
X138741766Y-127084526D01*
X139315255Y-127198600D01*
X139684745Y-127198600D01*
X140011252Y-127133654D01*
X144806010Y-131928412D01*
X145052572Y-132093159D01*
X145343411Y-132151011D01*
X160902851Y-132151011D01*
X161193690Y-132093159D01*
X161440252Y-131928412D01*
X163813533Y-129555131D01*
X163934675Y-130164155D01*
X164292567Y-130699778D01*
X164828190Y-131057670D01*
X165460000Y-131183345D01*
X166091810Y-131057670D01*
X166431792Y-130830501D01*
X166519910Y-130967441D01*
X166732110Y-131112431D01*
X166984000Y-131163440D01*
X169016000Y-131163440D01*
X169251317Y-131119162D01*
X169467441Y-130980090D01*
X169612431Y-130767890D01*
X169663440Y-130516000D01*
X169663440Y-128484000D01*
X169619162Y-128248683D01*
X169480090Y-128032559D01*
X169350289Y-127943869D01*
X169467835Y-127826323D01*
X178348714Y-127826323D01*
X178599534Y-128433355D01*
X179063563Y-128898194D01*
X179670155Y-129150073D01*
X180326963Y-129150646D01*
X180933995Y-128899826D01*
X181398834Y-128435797D01*
X181650713Y-127829205D01*
X181651286Y-127172397D01*
X181400466Y-126565365D01*
X180936437Y-126100526D01*
X180329845Y-125848647D01*
X179673037Y-125848074D01*
X179066005Y-126098894D01*
X178601166Y-126562923D01*
X178349287Y-127169515D01*
X178348714Y-127826323D01*
X169467835Y-127826323D01*
X171770620Y-125523538D01*
X171940786Y-125268865D01*
X172000541Y-124968459D01*
X172000541Y-122786390D01*
X178349000Y-122786390D01*
X178349000Y-123642950D01*
X178445673Y-123876339D01*
X178624302Y-124054967D01*
X178857691Y-124151640D01*
X179714250Y-124151640D01*
X179873000Y-123992890D01*
X179873000Y-122627640D01*
X180127000Y-122627640D01*
X180127000Y-123992890D01*
X180285750Y-124151640D01*
X181142309Y-124151640D01*
X181375698Y-124054967D01*
X181554327Y-123876339D01*
X181651000Y-123642950D01*
X181651000Y-122786390D01*
X181492250Y-122627640D01*
X180127000Y-122627640D01*
X179873000Y-122627640D01*
X178507750Y-122627640D01*
X178349000Y-122786390D01*
X172000541Y-122786390D01*
X172000541Y-121358330D01*
X178349000Y-121358330D01*
X178349000Y-122214890D01*
X178507750Y-122373640D01*
X179873000Y-122373640D01*
X179873000Y-121008390D01*
X180127000Y-121008390D01*
X180127000Y-122373640D01*
X181492250Y-122373640D01*
X181651000Y-122214890D01*
X181651000Y-121358330D01*
X181554327Y-121124941D01*
X181375698Y-120946313D01*
X181142309Y-120849640D01*
X180285750Y-120849640D01*
X180127000Y-121008390D01*
X179873000Y-121008390D01*
X179714250Y-120849640D01*
X178857691Y-120849640D01*
X178624302Y-120946313D01*
X178445673Y-121124941D01*
X178349000Y-121358330D01*
X172000541Y-121358330D01*
X172000541Y-112785110D01*
X178349000Y-112785110D01*
X178349000Y-113641670D01*
X178445673Y-113875059D01*
X178624302Y-114053687D01*
X178857691Y-114150360D01*
X179714250Y-114150360D01*
X179873000Y-113991610D01*
X179873000Y-112626360D01*
X180127000Y-112626360D01*
X180127000Y-113991610D01*
X180285750Y-114150360D01*
X181142309Y-114150360D01*
X181375698Y-114053687D01*
X181554327Y-113875059D01*
X181651000Y-113641670D01*
X181651000Y-112785110D01*
X181492250Y-112626360D01*
X180127000Y-112626360D01*
X179873000Y-112626360D01*
X178507750Y-112626360D01*
X178349000Y-112785110D01*
X172000541Y-112785110D01*
X172000541Y-111357050D01*
X178349000Y-111357050D01*
X178349000Y-112213610D01*
X178507750Y-112372360D01*
X179873000Y-112372360D01*
X179873000Y-111007110D01*
X180127000Y-111007110D01*
X180127000Y-112372360D01*
X181492250Y-112372360D01*
X181651000Y-112213610D01*
X181651000Y-111357050D01*
X181554327Y-111123661D01*
X181375698Y-110945033D01*
X181142309Y-110848360D01*
X180285750Y-110848360D01*
X180127000Y-111007110D01*
X179873000Y-111007110D01*
X179714250Y-110848360D01*
X178857691Y-110848360D01*
X178624302Y-110945033D01*
X178445673Y-111123661D01*
X178349000Y-111357050D01*
X172000541Y-111357050D01*
X172000541Y-107827603D01*
X178348714Y-107827603D01*
X178599534Y-108434635D01*
X179063563Y-108899474D01*
X179670155Y-109151353D01*
X180326963Y-109151926D01*
X180933995Y-108901106D01*
X181398834Y-108437077D01*
X181650713Y-107830485D01*
X181651286Y-107173677D01*
X181400466Y-106566645D01*
X180936437Y-106101806D01*
X180329845Y-105849927D01*
X179673037Y-105849354D01*
X179066005Y-106100174D01*
X178601166Y-106564203D01*
X178349287Y-107170795D01*
X178348714Y-107827603D01*
X172000541Y-107827603D01*
X172000541Y-100715541D01*
X171940786Y-100415135D01*
X171770620Y-100160462D01*
X171485109Y-99874951D01*
X171485170Y-99804931D01*
X171335529Y-99442771D01*
X171058686Y-99165445D01*
X170696788Y-99015172D01*
X170304931Y-99014830D01*
X169942771Y-99164471D01*
X169840933Y-99266131D01*
X168985078Y-98410276D01*
X168985170Y-98304931D01*
X168835529Y-97942771D01*
X168719284Y-97826323D01*
X178348714Y-97826323D01*
X178599534Y-98433355D01*
X179063563Y-98898194D01*
X179670155Y-99150073D01*
X180326963Y-99150646D01*
X180933995Y-98899826D01*
X181398834Y-98435797D01*
X181650713Y-97829205D01*
X181651286Y-97172397D01*
X181400466Y-96565365D01*
X180936437Y-96100526D01*
X180329845Y-95848647D01*
X179673037Y-95848074D01*
X179066005Y-96098894D01*
X178601166Y-96562923D01*
X178349287Y-97169515D01*
X178348714Y-97826323D01*
X168719284Y-97826323D01*
X168558686Y-97665445D01*
X168196788Y-97515172D01*
X167804931Y-97514830D01*
X167498000Y-97641651D01*
X167498000Y-93285000D01*
X168262000Y-93285000D01*
X168387682Y-93260000D01*
X178016046Y-93260000D01*
X178027517Y-93317669D01*
X178490327Y-94010313D01*
X179182971Y-94473123D01*
X180000000Y-94635640D01*
X180817029Y-94473123D01*
X181509673Y-94010313D01*
X181972483Y-93317669D01*
X182135000Y-92500640D01*
X182135000Y-82499360D01*
X181972483Y-81682331D01*
X181509673Y-80989687D01*
X180817029Y-80526877D01*
X180000000Y-80364360D01*
X179182971Y-80526877D01*
X178490327Y-80989687D01*
X178027517Y-81682331D01*
X177865000Y-82499360D01*
X177865000Y-91740000D01*
X168387682Y-91740000D01*
X168262000Y-91715000D01*
X166738000Y-91715000D01*
X166437594Y-91774755D01*
X166182921Y-91944921D01*
X166012755Y-92199594D01*
X165953000Y-92500000D01*
X165978000Y-92625682D01*
X165978000Y-94903198D01*
X161809854Y-90735052D01*
X161945069Y-90735170D01*
X162307229Y-90585529D01*
X162584555Y-90308686D01*
X162734828Y-89946788D01*
X162735170Y-89554931D01*
X162585529Y-89192771D01*
X162498000Y-89105089D01*
X162498000Y-88496066D01*
X162499003Y-88495420D01*
X162565610Y-88540931D01*
X162817500Y-88591940D01*
X163706500Y-88591940D01*
X163941817Y-88547662D01*
X164157941Y-88408590D01*
X164302931Y-88196390D01*
X164353940Y-87944500D01*
X164353940Y-87055500D01*
X164309662Y-86820183D01*
X164170590Y-86604059D01*
X164047000Y-86519614D01*
X164047000Y-85074232D01*
X164666971Y-85488483D01*
X165484000Y-85651000D01*
X165564438Y-85635000D01*
X173500000Y-85635000D01*
X174317029Y-85472483D01*
X175009673Y-85009673D01*
X175472483Y-84317029D01*
X175635000Y-83500000D01*
X175635000Y-79884346D01*
X175883706Y-79635640D01*
X180000000Y-79635640D01*
X180817029Y-79473123D01*
X181509673Y-79010313D01*
X181972483Y-78317669D01*
X182135000Y-77500640D01*
X181972483Y-76683611D01*
X181509673Y-75990967D01*
X180817029Y-75528157D01*
X180000000Y-75365640D01*
X174999360Y-75365640D01*
X174182330Y-75528157D01*
X173489687Y-75990967D01*
X171990327Y-77490327D01*
X171527517Y-78182971D01*
X171365000Y-79000000D01*
X171365000Y-79465000D01*
X169991979Y-79465000D01*
X169920590Y-79354059D01*
X169708390Y-79209069D01*
X169456500Y-79158060D01*
X168567500Y-79158060D01*
X168332183Y-79202338D01*
X168250997Y-79254580D01*
X168184390Y-79209069D01*
X167932500Y-79158060D01*
X167043500Y-79158060D01*
X166808183Y-79202338D01*
X166592059Y-79341410D01*
X166507614Y-79465000D01*
X164099158Y-79465000D01*
X164022000Y-79387842D01*
X164022000Y-78496066D01*
X164157941Y-78408590D01*
X164302931Y-78196390D01*
X164353940Y-77944500D01*
X164353940Y-77055500D01*
X164309662Y-76820183D01*
X164170590Y-76604059D01*
X163958390Y-76459069D01*
X163706500Y-76408060D01*
X162817500Y-76408060D01*
X162582183Y-76452338D01*
X162505226Y-76501859D01*
X162308809Y-76420500D01*
X162023750Y-76420500D01*
X161865000Y-76579250D01*
X161865000Y-77373000D01*
X161885000Y-77373000D01*
X161885000Y-77627000D01*
X161865000Y-77627000D01*
X161865000Y-78420750D01*
X162023750Y-78579500D01*
X162308809Y-78579500D01*
X162502000Y-78499478D01*
X162502000Y-79240000D01*
X160000000Y-79240000D01*
X159709161Y-79297852D01*
X159462599Y-79462599D01*
X158962599Y-79962599D01*
X158797852Y-80209161D01*
X158740000Y-80500000D01*
X158740000Y-89500000D01*
X158797852Y-89790839D01*
X158962599Y-90037401D01*
X160806694Y-91881496D01*
X160446788Y-91732050D01*
X160339881Y-91731957D01*
X157093005Y-88485081D01*
X157195069Y-88485170D01*
X157557229Y-88335529D01*
X157834555Y-88058686D01*
X157984828Y-87696788D01*
X157985170Y-87304931D01*
X157835529Y-86942771D01*
X157558686Y-86665445D01*
X157196788Y-86515172D01*
X157089881Y-86515079D01*
X151635020Y-81060218D01*
X151635020Y-77785750D01*
X160658500Y-77785750D01*
X160658500Y-78070810D01*
X160755173Y-78304199D01*
X160933802Y-78482827D01*
X161167191Y-78579500D01*
X161452250Y-78579500D01*
X161611000Y-78420750D01*
X161611000Y-77627000D01*
X160817250Y-77627000D01*
X160658500Y-77785750D01*
X151635020Y-77785750D01*
X151635020Y-76929190D01*
X160658500Y-76929190D01*
X160658500Y-77214250D01*
X160817250Y-77373000D01*
X161611000Y-77373000D01*
X161611000Y-76579250D01*
X161452250Y-76420500D01*
X161167191Y-76420500D01*
X160933802Y-76517173D01*
X160755173Y-76695801D01*
X160658500Y-76929190D01*
X151635020Y-76929190D01*
X151635020Y-73285750D01*
X151847720Y-73285750D01*
X151847720Y-74142309D01*
X151944393Y-74375698D01*
X152123021Y-74554327D01*
X152356410Y-74651000D01*
X153212970Y-74651000D01*
X153371720Y-74492250D01*
X153371720Y-73127000D01*
X153625720Y-73127000D01*
X153625720Y-74492250D01*
X153784470Y-74651000D01*
X154641030Y-74651000D01*
X154874419Y-74554327D01*
X155053047Y-74375698D01*
X155149720Y-74142309D01*
X155149720Y-73285750D01*
X154990970Y-73127000D01*
X153625720Y-73127000D01*
X153371720Y-73127000D01*
X152006470Y-73127000D01*
X151847720Y-73285750D01*
X151635020Y-73285750D01*
X151635020Y-72016236D01*
X151603484Y-71857691D01*
X151847720Y-71857691D01*
X151847720Y-72714250D01*
X152006470Y-72873000D01*
X153371720Y-72873000D01*
X153371720Y-71507750D01*
X153625720Y-71507750D01*
X153625720Y-72873000D01*
X154990970Y-72873000D01*
X155149720Y-72714250D01*
X155149720Y-71857691D01*
X155053047Y-71624302D01*
X154874419Y-71445673D01*
X154641030Y-71349000D01*
X153784470Y-71349000D01*
X153625720Y-71507750D01*
X153371720Y-71507750D01*
X153212970Y-71349000D01*
X152356410Y-71349000D01*
X152123021Y-71445673D01*
X151944393Y-71624302D01*
X151847720Y-71857691D01*
X151603484Y-71857691D01*
X151577168Y-71725397D01*
X151412421Y-71478835D01*
X149505154Y-69571568D01*
X149258592Y-69406821D01*
X148967753Y-69348969D01*
X142212269Y-69348969D01*
X141921430Y-69406821D01*
X141674868Y-69571568D01*
X136685000Y-74561436D01*
X136685000Y-68685000D01*
X184315000Y-68685000D01*
X184315000Y-133315000D01*
G36*
X163539499Y-111792921D02*
X163539499Y-117889223D01*
X163251786Y-117769754D01*
X162670763Y-117769247D01*
X162133774Y-117991126D01*
X161722570Y-118401613D01*
X161499754Y-118938214D01*
X161499247Y-119519237D01*
X161721126Y-120056226D01*
X162131613Y-120467430D01*
X162209579Y-120499804D01*
X162133774Y-120531126D01*
X161722570Y-120941613D01*
X161499754Y-121478214D01*
X161499247Y-122059237D01*
X161721126Y-122596226D01*
X162131613Y-123007430D01*
X162668214Y-123230246D01*
X163249237Y-123230753D01*
X163786226Y-123008874D01*
X164197430Y-122598387D01*
X164229804Y-122520421D01*
X164261126Y-122596226D01*
X164671613Y-123007430D01*
X165208214Y-123230246D01*
X165789237Y-123230753D01*
X166326226Y-123008874D01*
X166737430Y-122598387D01*
X166763487Y-122535634D01*
X166765024Y-122539344D01*
X167013785Y-122616610D01*
X167860395Y-121770000D01*
X167846253Y-121755858D01*
X168025858Y-121576253D01*
X168040000Y-121590395D01*
X168054143Y-121576253D01*
X168233748Y-121755858D01*
X168219605Y-121770000D01*
X168233748Y-121784143D01*
X168054143Y-121963748D01*
X168040000Y-121949605D01*
X167193390Y-122796215D01*
X167270656Y-123044976D01*
X167414877Y-123097063D01*
X161198282Y-129313658D01*
X161084526Y-128741766D01*
X160759670Y-128255585D01*
X160460000Y-128055352D01*
X160460000Y-116864802D01*
X162287401Y-115037401D01*
X162349194Y-114944921D01*
X162452148Y-114790840D01*
X162510000Y-114500000D01*
X162505076Y-114475245D01*
X162458880Y-114243004D01*
X162458880Y-110712302D01*
X163539499Y-111792921D01*
X163539499Y-111792921D01*
G37*
X163539499Y-111792921D02*
X163539499Y-117889223D01*
X163251786Y-117769754D01*
X162670763Y-117769247D01*
X162133774Y-117991126D01*
X161722570Y-118401613D01*
X161499754Y-118938214D01*
X161499247Y-119519237D01*
X161721126Y-120056226D01*
X162131613Y-120467430D01*
X162209579Y-120499804D01*
X162133774Y-120531126D01*
X161722570Y-120941613D01*
X161499754Y-121478214D01*
X161499247Y-122059237D01*
X161721126Y-122596226D01*
X162131613Y-123007430D01*
X162668214Y-123230246D01*
X163249237Y-123230753D01*
X163786226Y-123008874D01*
X164197430Y-122598387D01*
X164229804Y-122520421D01*
X164261126Y-122596226D01*
X164671613Y-123007430D01*
X165208214Y-123230246D01*
X165789237Y-123230753D01*
X166326226Y-123008874D01*
X166737430Y-122598387D01*
X166763487Y-122535634D01*
X166765024Y-122539344D01*
X167013785Y-122616610D01*
X167860395Y-121770000D01*
X167846253Y-121755858D01*
X168025858Y-121576253D01*
X168040000Y-121590395D01*
X168054143Y-121576253D01*
X168233748Y-121755858D01*
X168219605Y-121770000D01*
X168233748Y-121784143D01*
X168054143Y-121963748D01*
X168040000Y-121949605D01*
X167193390Y-122796215D01*
X167270656Y-123044976D01*
X167414877Y-123097063D01*
X161198282Y-129313658D01*
X161084526Y-128741766D01*
X160759670Y-128255585D01*
X160460000Y-128055352D01*
X160460000Y-116864802D01*
X162287401Y-115037401D01*
X162349194Y-114944921D01*
X162452148Y-114790840D01*
X162510000Y-114500000D01*
X162505076Y-114475245D01*
X162458880Y-114243004D01*
X162458880Y-110712302D01*
X163539499Y-111792921D01*
G36*
X142100814Y-73933995D02*
X142564843Y-74398834D01*
X142716280Y-74461716D01*
X142716280Y-89501280D01*
X142776035Y-89801687D01*
X142946201Y-90056359D01*
X144944921Y-92055079D01*
X145199594Y-92225245D01*
X145500000Y-92285000D01*
X151506116Y-92285000D01*
X151192771Y-92414471D01*
X150915445Y-92691314D01*
X150765172Y-93053212D01*
X150764830Y-93445069D01*
X150914471Y-93807229D01*
X150990000Y-93882890D01*
X150990000Y-98928620D01*
X151047852Y-99219459D01*
X151212599Y-99466021D01*
X154262698Y-102516120D01*
X154159186Y-102516120D01*
X154058686Y-102415445D01*
X153696788Y-102265172D01*
X153304931Y-102264830D01*
X152942771Y-102414471D01*
X152665445Y-102691314D01*
X152515172Y-103053212D01*
X152514830Y-103445069D01*
X152664471Y-103807229D01*
X152941314Y-104084555D01*
X153038508Y-104124913D01*
X152942771Y-104164471D01*
X152665445Y-104441314D01*
X152515172Y-104803212D01*
X152514830Y-105195069D01*
X152664471Y-105557229D01*
X152845905Y-105738980D01*
X147760000Y-105738980D01*
X147760000Y-96276826D01*
X147988121Y-96124401D01*
X149177280Y-94935242D01*
X149177280Y-95179500D01*
X149165445Y-95191314D01*
X149015172Y-95553212D01*
X149014830Y-95945069D01*
X149164471Y-96307229D01*
X149441314Y-96584555D01*
X149803212Y-96734828D01*
X150195069Y-96735170D01*
X150557229Y-96585529D01*
X150834555Y-96308686D01*
X150984828Y-95946788D01*
X150985170Y-95554931D01*
X150835529Y-95192771D01*
X150747280Y-95104368D01*
X150747280Y-94414449D01*
X150846046Y-94176594D01*
X150846353Y-93824949D01*
X150712068Y-93499954D01*
X150463634Y-93251086D01*
X150138874Y-93116234D01*
X149787229Y-93115927D01*
X149499694Y-93234734D01*
X149214314Y-93116234D01*
X148862669Y-93115927D01*
X148537674Y-93250212D01*
X148288806Y-93498646D01*
X148164209Y-93798709D01*
X147135918Y-94827000D01*
X143571700Y-94827000D01*
X143234743Y-94489454D01*
X142758801Y-94291826D01*
X142243460Y-94291376D01*
X141767174Y-94488173D01*
X141402454Y-94852257D01*
X141204826Y-95328199D01*
X141204376Y-95843540D01*
X141401173Y-96319826D01*
X141765257Y-96684546D01*
X142241199Y-96882174D01*
X142756540Y-96882624D01*
X143232826Y-96685827D01*
X143572245Y-96347000D01*
X146240000Y-96347000D01*
X146240000Y-106127478D01*
X143260000Y-103147478D01*
X143260000Y-101484700D01*
X143597546Y-101147743D01*
X143795174Y-100671801D01*
X143795624Y-100156460D01*
X143598827Y-99680174D01*
X143234743Y-99315454D01*
X142758801Y-99117826D01*
X142243460Y-99117376D01*
X141767174Y-99314173D01*
X141402454Y-99678257D01*
X141204826Y-100154199D01*
X141204376Y-100669540D01*
X141401173Y-101145826D01*
X141740000Y-101485245D01*
X141740000Y-103462280D01*
X141797852Y-103753119D01*
X141962599Y-103999681D01*
X145886644Y-107923726D01*
X145962599Y-108037401D01*
X146076274Y-108113356D01*
X146164686Y-108201768D01*
X146287932Y-108500046D01*
X146536366Y-108748914D01*
X146861126Y-108883766D01*
X147212771Y-108884073D01*
X147500306Y-108765266D01*
X147785686Y-108883766D01*
X147808984Y-108883786D01*
X148264922Y-109339724D01*
X148264830Y-109445069D01*
X148414471Y-109807229D01*
X148691314Y-110084555D01*
X149053212Y-110234828D01*
X149445069Y-110235170D01*
X149807229Y-110085529D01*
X150084555Y-109808686D01*
X150234828Y-109446788D01*
X150235170Y-109054931D01*
X150085529Y-108692771D01*
X149808686Y-108415445D01*
X149446788Y-108265172D01*
X149339881Y-108265079D01*
X149133882Y-108059080D01*
X155150986Y-108059080D01*
X155320510Y-108174911D01*
X155572400Y-108225920D01*
X156774080Y-108225920D01*
X156774080Y-109427600D01*
X156818358Y-109662917D01*
X156915920Y-109814533D01*
X156915920Y-112473922D01*
X154444921Y-114944921D01*
X154274755Y-115199593D01*
X154262739Y-115260000D01*
X154215000Y-115500000D01*
X154215000Y-121715000D01*
X152684000Y-121715000D01*
X152383594Y-121774755D01*
X152128921Y-121944921D01*
X146444921Y-127628921D01*
X146306181Y-127836560D01*
X146136400Y-127836560D01*
X145901083Y-127880838D01*
X145684959Y-128019910D01*
X145645241Y-128078039D01*
X141107666Y-123540464D01*
X141183345Y-123160000D01*
X141069271Y-122586511D01*
X140744415Y-122100330D01*
X140429634Y-121890000D01*
X140744415Y-121679670D01*
X141069271Y-121193489D01*
X141183345Y-120620000D01*
X141069271Y-120046511D01*
X140744415Y-119560330D01*
X140429634Y-119350000D01*
X140744415Y-119139670D01*
X141069271Y-118653489D01*
X141183345Y-118080000D01*
X141069271Y-117506511D01*
X140744415Y-117020330D01*
X140429634Y-116810000D01*
X140744415Y-116599670D01*
X141069271Y-116113489D01*
X141183345Y-115540000D01*
X141069271Y-114966511D01*
X140744415Y-114480330D01*
X140730087Y-114470757D01*
X140751317Y-114466762D01*
X140967441Y-114327690D01*
X141112431Y-114115490D01*
X141163440Y-113863600D01*
X141163440Y-112136400D01*
X141119162Y-111901083D01*
X140980090Y-111684959D01*
X140767890Y-111539969D01*
X140516000Y-111488960D01*
X140260000Y-111488960D01*
X140260000Y-75257400D01*
X141949533Y-73567867D01*
X142100814Y-73933995D01*
X142100814Y-73933995D01*
G37*
X142100814Y-73933995D02*
X142564843Y-74398834D01*
X142716280Y-74461716D01*
X142716280Y-89501280D01*
X142776035Y-89801687D01*
X142946201Y-90056359D01*
X144944921Y-92055079D01*
X145199594Y-92225245D01*
X145500000Y-92285000D01*
X151506116Y-92285000D01*
X151192771Y-92414471D01*
X150915445Y-92691314D01*
X150765172Y-93053212D01*
X150764830Y-93445069D01*
X150914471Y-93807229D01*
X150990000Y-93882890D01*
X150990000Y-98928620D01*
X151047852Y-99219459D01*
X151212599Y-99466021D01*
X154262698Y-102516120D01*
X154159186Y-102516120D01*
X154058686Y-102415445D01*
X153696788Y-102265172D01*
X153304931Y-102264830D01*
X152942771Y-102414471D01*
X152665445Y-102691314D01*
X152515172Y-103053212D01*
X152514830Y-103445069D01*
X152664471Y-103807229D01*
X152941314Y-104084555D01*
X153038508Y-104124913D01*
X152942771Y-104164471D01*
X152665445Y-104441314D01*
X152515172Y-104803212D01*
X152514830Y-105195069D01*
X152664471Y-105557229D01*
X152845905Y-105738980D01*
X147760000Y-105738980D01*
X147760000Y-96276826D01*
X147988121Y-96124401D01*
X149177280Y-94935242D01*
X149177280Y-95179500D01*
X149165445Y-95191314D01*
X149015172Y-95553212D01*
X149014830Y-95945069D01*
X149164471Y-96307229D01*
X149441314Y-96584555D01*
X149803212Y-96734828D01*
X150195069Y-96735170D01*
X150557229Y-96585529D01*
X150834555Y-96308686D01*
X150984828Y-95946788D01*
X150985170Y-95554931D01*
X150835529Y-95192771D01*
X150747280Y-95104368D01*
X150747280Y-94414449D01*
X150846046Y-94176594D01*
X150846353Y-93824949D01*
X150712068Y-93499954D01*
X150463634Y-93251086D01*
X150138874Y-93116234D01*
X149787229Y-93115927D01*
X149499694Y-93234734D01*
X149214314Y-93116234D01*
X148862669Y-93115927D01*
X148537674Y-93250212D01*
X148288806Y-93498646D01*
X148164209Y-93798709D01*
X147135918Y-94827000D01*
X143571700Y-94827000D01*
X143234743Y-94489454D01*
X142758801Y-94291826D01*
X142243460Y-94291376D01*
X141767174Y-94488173D01*
X141402454Y-94852257D01*
X141204826Y-95328199D01*
X141204376Y-95843540D01*
X141401173Y-96319826D01*
X141765257Y-96684546D01*
X142241199Y-96882174D01*
X142756540Y-96882624D01*
X143232826Y-96685827D01*
X143572245Y-96347000D01*
X146240000Y-96347000D01*
X146240000Y-106127478D01*
X143260000Y-103147478D01*
X143260000Y-101484700D01*
X143597546Y-101147743D01*
X143795174Y-100671801D01*
X143795624Y-100156460D01*
X143598827Y-99680174D01*
X143234743Y-99315454D01*
X142758801Y-99117826D01*
X142243460Y-99117376D01*
X141767174Y-99314173D01*
X141402454Y-99678257D01*
X141204826Y-100154199D01*
X141204376Y-100669540D01*
X141401173Y-101145826D01*
X141740000Y-101485245D01*
X141740000Y-103462280D01*
X141797852Y-103753119D01*
X141962599Y-103999681D01*
X145886644Y-107923726D01*
X145962599Y-108037401D01*
X146076274Y-108113356D01*
X146164686Y-108201768D01*
X146287932Y-108500046D01*
X146536366Y-108748914D01*
X146861126Y-108883766D01*
X147212771Y-108884073D01*
X147500306Y-108765266D01*
X147785686Y-108883766D01*
X147808984Y-108883786D01*
X148264922Y-109339724D01*
X148264830Y-109445069D01*
X148414471Y-109807229D01*
X148691314Y-110084555D01*
X149053212Y-110234828D01*
X149445069Y-110235170D01*
X149807229Y-110085529D01*
X150084555Y-109808686D01*
X150234828Y-109446788D01*
X150235170Y-109054931D01*
X150085529Y-108692771D01*
X149808686Y-108415445D01*
X149446788Y-108265172D01*
X149339881Y-108265079D01*
X149133882Y-108059080D01*
X155150986Y-108059080D01*
X155320510Y-108174911D01*
X155572400Y-108225920D01*
X156774080Y-108225920D01*
X156774080Y-109427600D01*
X156818358Y-109662917D01*
X156915920Y-109814533D01*
X156915920Y-112473922D01*
X154444921Y-114944921D01*
X154274755Y-115199593D01*
X154262739Y-115260000D01*
X154215000Y-115500000D01*
X154215000Y-121715000D01*
X152684000Y-121715000D01*
X152383594Y-121774755D01*
X152128921Y-121944921D01*
X146444921Y-127628921D01*
X146306181Y-127836560D01*
X146136400Y-127836560D01*
X145901083Y-127880838D01*
X145684959Y-128019910D01*
X145645241Y-128078039D01*
X141107666Y-123540464D01*
X141183345Y-123160000D01*
X141069271Y-122586511D01*
X140744415Y-122100330D01*
X140429634Y-121890000D01*
X140744415Y-121679670D01*
X141069271Y-121193489D01*
X141183345Y-120620000D01*
X141069271Y-120046511D01*
X140744415Y-119560330D01*
X140429634Y-119350000D01*
X140744415Y-119139670D01*
X141069271Y-118653489D01*
X141183345Y-118080000D01*
X141069271Y-117506511D01*
X140744415Y-117020330D01*
X140429634Y-116810000D01*
X140744415Y-116599670D01*
X141069271Y-116113489D01*
X141183345Y-115540000D01*
X141069271Y-114966511D01*
X140744415Y-114480330D01*
X140730087Y-114470757D01*
X140751317Y-114466762D01*
X140967441Y-114327690D01*
X141112431Y-114115490D01*
X141163440Y-113863600D01*
X141163440Y-112136400D01*
X141119162Y-111901083D01*
X140980090Y-111684959D01*
X140767890Y-111539969D01*
X140516000Y-111488960D01*
X140260000Y-111488960D01*
X140260000Y-75257400D01*
X141949533Y-73567867D01*
X142100814Y-73933995D01*
G36*
X157147000Y-91865000D02*
X157127000Y-91865000D01*
X157127000Y-91885000D01*
X156873000Y-91885000D01*
X156873000Y-91865000D01*
X156079250Y-91865000D01*
X155920500Y-92023750D01*
X155920500Y-92308809D01*
X156001281Y-92503831D01*
X155959069Y-92565610D01*
X155908060Y-92817500D01*
X155908060Y-93706500D01*
X155952338Y-93941817D01*
X156091410Y-94157941D01*
X156303610Y-94302931D01*
X156306295Y-94303475D01*
X156462599Y-94537401D01*
X157264922Y-95339724D01*
X157264830Y-95445069D01*
X157414471Y-95807229D01*
X157662444Y-96055634D01*
X157200910Y-96517168D01*
X155285010Y-94601268D01*
X155285010Y-92282534D01*
X155227158Y-91991695D01*
X155227158Y-91991694D01*
X155062411Y-91745133D01*
X154995777Y-91678499D01*
X157147000Y-91678499D01*
X157147000Y-91865000D01*
X157147000Y-91865000D01*
G37*
X157147000Y-91865000D02*
X157127000Y-91865000D01*
X157127000Y-91885000D01*
X156873000Y-91885000D01*
X156873000Y-91865000D01*
X156079250Y-91865000D01*
X155920500Y-92023750D01*
X155920500Y-92308809D01*
X156001281Y-92503831D01*
X155959069Y-92565610D01*
X155908060Y-92817500D01*
X155908060Y-93706500D01*
X155952338Y-93941817D01*
X156091410Y-94157941D01*
X156303610Y-94302931D01*
X156306295Y-94303475D01*
X156462599Y-94537401D01*
X157264922Y-95339724D01*
X157264830Y-95445069D01*
X157414471Y-95807229D01*
X157662444Y-96055634D01*
X157200910Y-96517168D01*
X155285010Y-94601268D01*
X155285010Y-92282534D01*
X155227158Y-91991695D01*
X155227158Y-91991694D01*
X155062411Y-91745133D01*
X154995777Y-91678499D01*
X157147000Y-91678499D01*
X157147000Y-91865000D01*
G36*
X146499838Y-84822817D02*
X146638910Y-85038941D01*
X146826000Y-85166774D01*
X146826000Y-87614913D01*
X146697069Y-87803610D01*
X146646060Y-88055500D01*
X146646060Y-88944500D01*
X146690338Y-89179817D01*
X146829410Y-89395941D01*
X147041610Y-89540931D01*
X147077909Y-89548282D01*
X147200599Y-89731901D01*
X147325600Y-89856902D01*
X147572162Y-90021649D01*
X147863001Y-90079501D01*
X150006501Y-90079501D01*
X150297340Y-90021649D01*
X150314774Y-90010000D01*
X150616889Y-90010000D01*
X150691314Y-90084555D01*
X151005437Y-90214990D01*
X146477466Y-90214990D01*
X146477466Y-84703920D01*
X146499838Y-84822817D01*
X146499838Y-84822817D01*
G37*
X146499838Y-84822817D02*
X146638910Y-85038941D01*
X146826000Y-85166774D01*
X146826000Y-87614913D01*
X146697069Y-87803610D01*
X146646060Y-88055500D01*
X146646060Y-88944500D01*
X146690338Y-89179817D01*
X146829410Y-89395941D01*
X147041610Y-89540931D01*
X147077909Y-89548282D01*
X147200599Y-89731901D01*
X147325600Y-89856902D01*
X147572162Y-90021649D01*
X147863001Y-90079501D01*
X150006501Y-90079501D01*
X150297340Y-90021649D01*
X150314774Y-90010000D01*
X150616889Y-90010000D01*
X150691314Y-90084555D01*
X151005437Y-90214990D01*
X146477466Y-90214990D01*
X146477466Y-84703920D01*
X146499838Y-84822817D01*
M02*
