M48
;DRILL file {KiCad 4.0.2+dfsg1-stable} date ti. 12. des. 2017 kl. 16.45 +0100
;FORMAT={3:3/ absolute / metric / suppress leading zeros}
FMAT,2
METRIC,TZ
T1C0.500
T2C0.813
T3C0.889
T4C1.016
T5C1.168
%
G90
G05
M71
T1
X140750Y-130500
X143750Y-125750
X146500Y-86500
X149250Y-86750
X149250Y-109250
X150000Y-95750
X150909Y-84656
X151000Y-105750
X151250Y-89250
X151750Y-93250
X151750Y-108500
X152750Y-80500
X153500Y-103250
X153500Y-105000
X154250Y-98500
X157000Y-87500
X158250Y-95250
X158714Y-97812
X159250Y-94250
X160000Y-97000
X160250Y-92717
X160500Y-81000
X160826Y-98250
X161000Y-96000
X161500Y-102500
X161699Y-97801
X161750Y-89750
X161750Y-93750
X162250Y-127500
X162500Y-131500
X166000Y-105000
X168000Y-98500
X168500Y-110500
X170500Y-100000
X172250Y-110500
T2
X142500Y-95587
X142500Y-100413
T3
X162960Y-119230
X162960Y-121770
X165500Y-119230
X165500Y-121770
X168040Y-119230
X168040Y-121770
T4
X139500Y-113000
X139500Y-115540
X139500Y-118080
X139500Y-120620
X139500Y-123160
X139500Y-125700
X147000Y-129500
X149540Y-129500
X152080Y-129500
X154620Y-129500
X157160Y-129500
X159700Y-129500
X165460Y-129500
X168000Y-129500
T5
X143501Y-73000
X148500Y-73000
X153499Y-73000
X180000Y-77501
X180000Y-82499
X180000Y-92501
X180000Y-97499
X180000Y-107501
X180000Y-112499
X180000Y-122501
X180000Y-127499
T0
M30
