G04 #@! TF.FileFunction,Soldermask,Top*
%FSLAX46Y46*%
G04 Gerber Fmt 4.6, Leading zero omitted, Abs format (unit mm)*
G04 Created by KiCad (PCBNEW 4.0.2+dfsg1-stable) date ti. 12. des. 2017 kl. 16.44 +0100*
%MOMM*%
G01*
G04 APERTURE LIST*
%ADD10C,0.100000*%
%ADD11C,0.497840*%
%ADD12R,1.651000X1.651000*%
%ADD13C,1.651000*%
%ADD14R,2.032000X2.032000*%
%ADD15C,2.032000*%
%ADD16R,2.032000X1.727200*%
%ADD17O,2.032000X1.727200*%
%ADD18O,2.032000X2.032000*%
%ADD19R,1.727200X2.032000*%
%ADD20O,1.727200X2.032000*%
%ADD21R,1.016000X1.143000*%
%ADD22R,0.889000X0.889000*%
%ADD23R,1.270000X0.558800*%
%ADD24R,0.558800X1.270000*%
%ADD25C,1.320800*%
G04 APERTURE END LIST*
D10*
D11*
X149037720Y-94000000D03*
X149962280Y-94000000D03*
X147037720Y-108000000D03*
X147962280Y-108000000D03*
D12*
X168040000Y-119230000D03*
D13*
X165500000Y-119230000D03*
X162960000Y-119230000D03*
X162960000Y-121770000D03*
X165500000Y-121770000D03*
X168040000Y-121770000D03*
D14*
X180000000Y-82499360D03*
D15*
X180000000Y-77500640D03*
D14*
X180000000Y-112499360D03*
D15*
X180000000Y-107500640D03*
D14*
X180000000Y-92500640D03*
D15*
X180000000Y-97499360D03*
D14*
X180000000Y-122500640D03*
D15*
X180000000Y-127499360D03*
D14*
X153498720Y-73000000D03*
D15*
X148500000Y-73000000D03*
X143501280Y-73000000D03*
D16*
X139500000Y-113000000D03*
D17*
X139500000Y-115540000D03*
X139500000Y-118080000D03*
X139500000Y-120620000D03*
X139500000Y-123160000D03*
X139500000Y-125700000D03*
D14*
X168000000Y-129500000D03*
D18*
X165460000Y-129500000D03*
D19*
X147000000Y-129500000D03*
D20*
X149540000Y-129500000D03*
X152080000Y-129500000D03*
X154620000Y-129500000D03*
X157160000Y-129500000D03*
X159700000Y-129500000D03*
D21*
X147611000Y-84016000D03*
X149389000Y-84016000D03*
X148500000Y-81984000D03*
X161611000Y-83516000D03*
X163389000Y-83516000D03*
X162500000Y-81484000D03*
D22*
X163262000Y-77500000D03*
X161738000Y-77500000D03*
X167488000Y-80250000D03*
X169012000Y-80250000D03*
X147738000Y-88500000D03*
X149262000Y-88500000D03*
X157000000Y-91738000D03*
X157000000Y-93262000D03*
X161738000Y-87500000D03*
X163262000Y-87500000D03*
D23*
X156207400Y-101700920D03*
X156207400Y-102501020D03*
X156207400Y-103301120D03*
X156207400Y-104101220D03*
X156207400Y-104898780D03*
X156207400Y-105698880D03*
X156207400Y-106498980D03*
X156207400Y-107299080D03*
D24*
X157700920Y-108792600D03*
X158501020Y-108792600D03*
X159301120Y-108792600D03*
X160101220Y-108792600D03*
X160898780Y-108792600D03*
X161698880Y-108792600D03*
X162498980Y-108792600D03*
X163299080Y-108792600D03*
D23*
X164792600Y-107299080D03*
X164792600Y-106498980D03*
X164792600Y-105698880D03*
X164792600Y-104898780D03*
X164792600Y-104101220D03*
X164792600Y-103301120D03*
X164792600Y-102501020D03*
X164792600Y-101700920D03*
D24*
X163299080Y-100207400D03*
X162498980Y-100207400D03*
X161698880Y-100207400D03*
X160898780Y-100207400D03*
X160101220Y-100207400D03*
X159301120Y-100207400D03*
X158501020Y-100207400D03*
X157700920Y-100207400D03*
D25*
X142500000Y-95587000D03*
X142500000Y-100413000D03*
D22*
X154762000Y-97500000D03*
X153238000Y-97500000D03*
M02*
