G04 #@! TF.FileFunction,Soldermask,Bot*
%FSLAX46Y46*%
G04 Gerber Fmt 4.6, Leading zero omitted, Abs format (unit mm)*
G04 Created by KiCad (PCBNEW 4.0.2+dfsg1-stable) date ti. 12. des. 2017 kl. 16.44 +0100*
%MOMM*%
G01*
G04 APERTURE LIST*
%ADD10C,0.100000*%
%ADD11C,0.300000*%
%ADD12R,1.651000X1.651000*%
%ADD13C,1.651000*%
%ADD14R,2.032000X2.032000*%
%ADD15C,2.032000*%
%ADD16R,2.032000X1.727200*%
%ADD17O,2.032000X1.727200*%
%ADD18O,2.032000X2.032000*%
%ADD19R,1.727200X2.032000*%
%ADD20O,1.727200X2.032000*%
%ADD21C,1.320800*%
G04 APERTURE END LIST*
D10*
D11*
X165142856Y-111778571D02*
X165142856Y-110278571D01*
X164571428Y-110278571D01*
X164428570Y-110350000D01*
X164357142Y-110421429D01*
X164285713Y-110564286D01*
X164285713Y-110778571D01*
X164357142Y-110921429D01*
X164428570Y-110992857D01*
X164571428Y-111064286D01*
X165142856Y-111064286D01*
X163428570Y-111778571D02*
X163571428Y-111707143D01*
X163642856Y-111635714D01*
X163714285Y-111492857D01*
X163714285Y-111064286D01*
X163642856Y-110921429D01*
X163571428Y-110850000D01*
X163428570Y-110778571D01*
X163214285Y-110778571D01*
X163071428Y-110850000D01*
X162999999Y-110921429D01*
X162928570Y-111064286D01*
X162928570Y-111492857D01*
X162999999Y-111635714D01*
X163071428Y-111707143D01*
X163214285Y-111778571D01*
X163428570Y-111778571D01*
X162428570Y-110778571D02*
X162142856Y-111778571D01*
X161857142Y-111064286D01*
X161571427Y-111778571D01*
X161285713Y-110778571D01*
X160142856Y-111707143D02*
X160285713Y-111778571D01*
X160571427Y-111778571D01*
X160714284Y-111707143D01*
X160785713Y-111564286D01*
X160785713Y-110992857D01*
X160714284Y-110850000D01*
X160571427Y-110778571D01*
X160285713Y-110778571D01*
X160142856Y-110850000D01*
X160071427Y-110992857D01*
X160071427Y-111135714D01*
X160785713Y-111278571D01*
X159428570Y-111778571D02*
X159428570Y-110778571D01*
X159428570Y-111064286D02*
X159357142Y-110921429D01*
X159285713Y-110850000D01*
X159142856Y-110778571D01*
X158999999Y-110778571D01*
X157357142Y-111778571D02*
X157357142Y-110278571D01*
X156857142Y-111350000D01*
X156357142Y-110278571D01*
X156357142Y-111778571D01*
X154999999Y-111778571D02*
X154999999Y-110992857D01*
X155071428Y-110850000D01*
X155214285Y-110778571D01*
X155499999Y-110778571D01*
X155642856Y-110850000D01*
X154999999Y-111707143D02*
X155142856Y-111778571D01*
X155499999Y-111778571D01*
X155642856Y-111707143D01*
X155714285Y-111564286D01*
X155714285Y-111421429D01*
X155642856Y-111278571D01*
X155499999Y-111207143D01*
X155142856Y-111207143D01*
X154999999Y-111135714D01*
X154285713Y-110778571D02*
X154285713Y-111778571D01*
X154285713Y-110921429D02*
X154214285Y-110850000D01*
X154071427Y-110778571D01*
X153857142Y-110778571D01*
X153714285Y-110850000D01*
X153642856Y-110992857D01*
X153642856Y-111778571D01*
X152285713Y-111778571D02*
X152285713Y-110992857D01*
X152357142Y-110850000D01*
X152499999Y-110778571D01*
X152785713Y-110778571D01*
X152928570Y-110850000D01*
X152285713Y-111707143D02*
X152428570Y-111778571D01*
X152785713Y-111778571D01*
X152928570Y-111707143D01*
X152999999Y-111564286D01*
X152999999Y-111421429D01*
X152928570Y-111278571D01*
X152785713Y-111207143D01*
X152428570Y-111207143D01*
X152285713Y-111135714D01*
X150928570Y-110778571D02*
X150928570Y-111992857D01*
X150999999Y-112135714D01*
X151071427Y-112207143D01*
X151214284Y-112278571D01*
X151428570Y-112278571D01*
X151571427Y-112207143D01*
X150928570Y-111707143D02*
X151071427Y-111778571D01*
X151357141Y-111778571D01*
X151499999Y-111707143D01*
X151571427Y-111635714D01*
X151642856Y-111492857D01*
X151642856Y-111064286D01*
X151571427Y-110921429D01*
X151499999Y-110850000D01*
X151357141Y-110778571D01*
X151071427Y-110778571D01*
X150928570Y-110850000D01*
X149642856Y-111707143D02*
X149785713Y-111778571D01*
X150071427Y-111778571D01*
X150214284Y-111707143D01*
X150285713Y-111564286D01*
X150285713Y-110992857D01*
X150214284Y-110850000D01*
X150071427Y-110778571D01*
X149785713Y-110778571D01*
X149642856Y-110850000D01*
X149571427Y-110992857D01*
X149571427Y-111135714D01*
X150285713Y-111278571D01*
X148928570Y-111778571D02*
X148928570Y-110778571D01*
X148928570Y-111064286D02*
X148857142Y-110921429D01*
X148785713Y-110850000D01*
X148642856Y-110778571D01*
X148499999Y-110778571D01*
X146999999Y-110778571D02*
X146642856Y-111778571D01*
X146285714Y-110778571D01*
X145857142Y-110278571D02*
X144928571Y-110278571D01*
X145428571Y-110850000D01*
X145214285Y-110850000D01*
X145071428Y-110921429D01*
X144999999Y-110992857D01*
X144928571Y-111135714D01*
X144928571Y-111492857D01*
X144999999Y-111635714D01*
X145071428Y-111707143D01*
X145214285Y-111778571D01*
X145642857Y-111778571D01*
X145785714Y-111707143D01*
X145857142Y-111635714D01*
X144285714Y-111635714D02*
X144214286Y-111707143D01*
X144285714Y-111778571D01*
X144357143Y-111707143D01*
X144285714Y-111635714D01*
X144285714Y-111778571D01*
X142785714Y-111778571D02*
X143642857Y-111778571D01*
X143214285Y-111778571D02*
X143214285Y-110278571D01*
X143357142Y-110492857D01*
X143500000Y-110635714D01*
X143642857Y-110707143D01*
X163500001Y-112678571D02*
X163500001Y-113750000D01*
X163571429Y-113964286D01*
X163714286Y-114107143D01*
X163928572Y-114178571D01*
X164071429Y-114178571D01*
X162214287Y-114107143D02*
X162357144Y-114178571D01*
X162642858Y-114178571D01*
X162785715Y-114107143D01*
X162857144Y-113964286D01*
X162857144Y-113392857D01*
X162785715Y-113250000D01*
X162642858Y-113178571D01*
X162357144Y-113178571D01*
X162214287Y-113250000D01*
X162142858Y-113392857D01*
X162142858Y-113535714D01*
X162857144Y-113678571D01*
X160857144Y-114178571D02*
X160857144Y-113392857D01*
X160928573Y-113250000D01*
X161071430Y-113178571D01*
X161357144Y-113178571D01*
X161500001Y-113250000D01*
X160857144Y-114107143D02*
X161000001Y-114178571D01*
X161357144Y-114178571D01*
X161500001Y-114107143D01*
X161571430Y-113964286D01*
X161571430Y-113821429D01*
X161500001Y-113678571D01*
X161357144Y-113607143D01*
X161000001Y-113607143D01*
X160857144Y-113535714D01*
X160142858Y-113178571D02*
X160142858Y-114178571D01*
X160142858Y-113321429D02*
X160071430Y-113250000D01*
X159928572Y-113178571D01*
X159714287Y-113178571D01*
X159571430Y-113250000D01*
X159500001Y-113392857D01*
X159500001Y-114178571D01*
X156785715Y-114178571D02*
X157285715Y-113464286D01*
X157642858Y-114178571D02*
X157642858Y-112678571D01*
X157071430Y-112678571D01*
X156928572Y-112750000D01*
X156857144Y-112821429D01*
X156785715Y-112964286D01*
X156785715Y-113178571D01*
X156857144Y-113321429D01*
X156928572Y-113392857D01*
X157071430Y-113464286D01*
X157642858Y-113464286D01*
X155500001Y-114178571D02*
X155500001Y-113392857D01*
X155571430Y-113250000D01*
X155714287Y-113178571D01*
X156000001Y-113178571D01*
X156142858Y-113250000D01*
X155500001Y-114107143D02*
X155642858Y-114178571D01*
X156000001Y-114178571D01*
X156142858Y-114107143D01*
X156214287Y-113964286D01*
X156214287Y-113821429D01*
X156142858Y-113678571D01*
X156000001Y-113607143D01*
X155642858Y-113607143D01*
X155500001Y-113535714D01*
X154785715Y-114178571D02*
X154785715Y-112678571D01*
X154785715Y-113250000D02*
X154642858Y-113178571D01*
X154357144Y-113178571D01*
X154214287Y-113250000D01*
X154142858Y-113321429D01*
X154071429Y-113464286D01*
X154071429Y-113892857D01*
X154142858Y-114035714D01*
X154214287Y-114107143D01*
X154357144Y-114178571D01*
X154642858Y-114178571D01*
X154785715Y-114107143D01*
X152785715Y-114178571D02*
X152785715Y-113392857D01*
X152857144Y-113250000D01*
X153000001Y-113178571D01*
X153285715Y-113178571D01*
X153428572Y-113250000D01*
X152785715Y-114107143D02*
X152928572Y-114178571D01*
X153285715Y-114178571D01*
X153428572Y-114107143D01*
X153500001Y-113964286D01*
X153500001Y-113821429D01*
X153428572Y-113678571D01*
X153285715Y-113607143D01*
X152928572Y-113607143D01*
X152785715Y-113535714D01*
X151428572Y-113178571D02*
X151428572Y-114178571D01*
X152071429Y-113178571D02*
X152071429Y-113964286D01*
X152000001Y-114107143D01*
X151857143Y-114178571D01*
X151642858Y-114178571D01*
X151500001Y-114107143D01*
X151428572Y-114035714D01*
X150500000Y-114178571D02*
X150642858Y-114107143D01*
X150714286Y-113964286D01*
X150714286Y-112678571D01*
X150142858Y-113178571D02*
X149571429Y-113178571D01*
X149928572Y-112678571D02*
X149928572Y-113964286D01*
X149857144Y-114107143D01*
X149714286Y-114178571D01*
X149571429Y-114178571D01*
X149000001Y-114107143D02*
X149000001Y-114178571D01*
X149071429Y-114321429D01*
X149142858Y-114392857D01*
X147214286Y-112678571D02*
X147214286Y-113892857D01*
X147142858Y-114035714D01*
X147071429Y-114107143D01*
X146928572Y-114178571D01*
X146642858Y-114178571D01*
X146500000Y-114107143D01*
X146428572Y-114035714D01*
X146357143Y-113892857D01*
X146357143Y-112678571D01*
X145642857Y-114178571D02*
X145642857Y-113178571D01*
X145642857Y-112678571D02*
X145714286Y-112750000D01*
X145642857Y-112821429D01*
X145571429Y-112750000D01*
X145642857Y-112678571D01*
X145642857Y-112821429D01*
X144642857Y-112678571D02*
X144357143Y-112678571D01*
X144214285Y-112750000D01*
X144071428Y-112892857D01*
X144000000Y-113178571D01*
X144000000Y-113678571D01*
X144071428Y-113964286D01*
X144214285Y-114107143D01*
X144357143Y-114178571D01*
X144642857Y-114178571D01*
X144785714Y-114107143D01*
X144928571Y-113964286D01*
X145000000Y-113678571D01*
X145000000Y-113178571D01*
X144928571Y-112892857D01*
X144785714Y-112750000D01*
X144642857Y-112678571D01*
X158071427Y-116578571D02*
X158928570Y-116578571D01*
X158499998Y-116578571D02*
X158499998Y-115078571D01*
X158642855Y-115292857D01*
X158785713Y-115435714D01*
X158928570Y-115507143D01*
X157499999Y-115221429D02*
X157428570Y-115150000D01*
X157285713Y-115078571D01*
X156928570Y-115078571D01*
X156785713Y-115150000D01*
X156714284Y-115221429D01*
X156642856Y-115364286D01*
X156642856Y-115507143D01*
X156714284Y-115721429D01*
X157571427Y-116578571D01*
X156642856Y-116578571D01*
X155999999Y-116007143D02*
X154857142Y-116007143D01*
X154214285Y-115221429D02*
X154142856Y-115150000D01*
X153999999Y-115078571D01*
X153642856Y-115078571D01*
X153499999Y-115150000D01*
X153428570Y-115221429D01*
X153357142Y-115364286D01*
X153357142Y-115507143D01*
X153428570Y-115721429D01*
X154285713Y-116578571D01*
X153357142Y-116578571D01*
X152428571Y-115078571D02*
X152285714Y-115078571D01*
X152142857Y-115150000D01*
X152071428Y-115221429D01*
X151999999Y-115364286D01*
X151928571Y-115650000D01*
X151928571Y-116007143D01*
X151999999Y-116292857D01*
X152071428Y-116435714D01*
X152142857Y-116507143D01*
X152285714Y-116578571D01*
X152428571Y-116578571D01*
X152571428Y-116507143D01*
X152642857Y-116435714D01*
X152714285Y-116292857D01*
X152785714Y-116007143D01*
X152785714Y-115650000D01*
X152714285Y-115364286D01*
X152642857Y-115221429D01*
X152571428Y-115150000D01*
X152428571Y-115078571D01*
X150500000Y-116578571D02*
X151357143Y-116578571D01*
X150928571Y-116578571D02*
X150928571Y-115078571D01*
X151071428Y-115292857D01*
X151214286Y-115435714D01*
X151357143Y-115507143D01*
X150000000Y-115078571D02*
X149000000Y-115078571D01*
X149642857Y-116578571D01*
D12*
X168040000Y-119230000D03*
D13*
X165500000Y-119230000D03*
X162960000Y-119230000D03*
X162960000Y-121770000D03*
X165500000Y-121770000D03*
X168040000Y-121770000D03*
D14*
X180000000Y-82499360D03*
D15*
X180000000Y-77500640D03*
D14*
X180000000Y-112499360D03*
D15*
X180000000Y-107500640D03*
D14*
X180000000Y-92500640D03*
D15*
X180000000Y-97499360D03*
D14*
X180000000Y-122500640D03*
D15*
X180000000Y-127499360D03*
D14*
X153498720Y-73000000D03*
D15*
X148500000Y-73000000D03*
X143501280Y-73000000D03*
D16*
X139500000Y-113000000D03*
D17*
X139500000Y-115540000D03*
X139500000Y-118080000D03*
X139500000Y-120620000D03*
X139500000Y-123160000D03*
X139500000Y-125700000D03*
D14*
X168000000Y-129500000D03*
D18*
X165460000Y-129500000D03*
D19*
X147000000Y-129500000D03*
D20*
X149540000Y-129500000D03*
X152080000Y-129500000D03*
X154620000Y-129500000D03*
X157160000Y-129500000D03*
X159700000Y-129500000D03*
D21*
X142500000Y-95587000D03*
X142500000Y-100413000D03*
M02*
