G04 #@! TF.FileFunction,Legend,Top*
%FSLAX46Y46*%
G04 Gerber Fmt 4.6, Leading zero omitted, Abs format (unit mm)*
G04 Created by KiCad (PCBNEW 4.0.2+dfsg1-stable) date ti. 12. des. 2017 kl. 16.44 +0100*
%MOMM*%
G01*
G04 APERTURE LIST*
%ADD10C,0.100000*%
%ADD11C,0.300000*%
%ADD12C,0.076200*%
%ADD13C,0.066040*%
%ADD14C,0.127000*%
%ADD15C,0.063500*%
%ADD16C,0.150000*%
%ADD17C,0.152400*%
%ADD18C,0.406400*%
%ADD19C,0.101600*%
G04 APERTURE END LIST*
D10*
D11*
X169142857Y-117428571D02*
X169142857Y-115928571D01*
X169642857Y-117000000D01*
X170142857Y-115928571D01*
X170142857Y-117428571D01*
X170857143Y-117428571D02*
X170857143Y-115928571D01*
X171500000Y-117357143D02*
X171714286Y-117428571D01*
X172071429Y-117428571D01*
X172214286Y-117357143D01*
X172285715Y-117285714D01*
X172357143Y-117142857D01*
X172357143Y-117000000D01*
X172285715Y-116857143D01*
X172214286Y-116785714D01*
X172071429Y-116714286D01*
X171785715Y-116642857D01*
X171642857Y-116571429D01*
X171571429Y-116500000D01*
X171500000Y-116357143D01*
X171500000Y-116214286D01*
X171571429Y-116071429D01*
X171642857Y-116000000D01*
X171785715Y-115928571D01*
X172142857Y-115928571D01*
X172357143Y-116000000D01*
X173285714Y-115928571D02*
X173571428Y-115928571D01*
X173714286Y-116000000D01*
X173857143Y-116142857D01*
X173928571Y-116428571D01*
X173928571Y-116928571D01*
X173857143Y-117214286D01*
X173714286Y-117357143D01*
X173571428Y-117428571D01*
X173285714Y-117428571D01*
X173142857Y-117357143D01*
X173000000Y-117214286D01*
X172928571Y-116928571D01*
X172928571Y-116428571D01*
X173000000Y-116142857D01*
X173142857Y-116000000D01*
X173285714Y-115928571D01*
X159428572Y-117428571D02*
X158928572Y-116714286D01*
X158571429Y-117428571D02*
X158571429Y-115928571D01*
X159142857Y-115928571D01*
X159285715Y-116000000D01*
X159357143Y-116071429D01*
X159428572Y-116214286D01*
X159428572Y-116428571D01*
X159357143Y-116571429D01*
X159285715Y-116642857D01*
X159142857Y-116714286D01*
X158571429Y-116714286D01*
X160000000Y-117357143D02*
X160214286Y-117428571D01*
X160571429Y-117428571D01*
X160714286Y-117357143D01*
X160785715Y-117285714D01*
X160857143Y-117142857D01*
X160857143Y-117000000D01*
X160785715Y-116857143D01*
X160714286Y-116785714D01*
X160571429Y-116714286D01*
X160285715Y-116642857D01*
X160142857Y-116571429D01*
X160071429Y-116500000D01*
X160000000Y-116357143D01*
X160000000Y-116214286D01*
X160071429Y-116071429D01*
X160142857Y-116000000D01*
X160285715Y-115928571D01*
X160642857Y-115928571D01*
X160857143Y-116000000D01*
X161285714Y-115928571D02*
X162142857Y-115928571D01*
X161714286Y-117428571D02*
X161714286Y-115928571D01*
X163571429Y-117357143D02*
X163785715Y-117428571D01*
X164142858Y-117428571D01*
X164285715Y-117357143D01*
X164357144Y-117285714D01*
X164428572Y-117142857D01*
X164428572Y-117000000D01*
X164357144Y-116857143D01*
X164285715Y-116785714D01*
X164142858Y-116714286D01*
X163857144Y-116642857D01*
X163714286Y-116571429D01*
X163642858Y-116500000D01*
X163571429Y-116357143D01*
X163571429Y-116214286D01*
X163642858Y-116071429D01*
X163714286Y-116000000D01*
X163857144Y-115928571D01*
X164214286Y-115928571D01*
X164428572Y-116000000D01*
X165928572Y-117285714D02*
X165857143Y-117357143D01*
X165642857Y-117428571D01*
X165500000Y-117428571D01*
X165285715Y-117357143D01*
X165142857Y-117214286D01*
X165071429Y-117071429D01*
X165000000Y-116785714D01*
X165000000Y-116571429D01*
X165071429Y-116285714D01*
X165142857Y-116142857D01*
X165285715Y-116000000D01*
X165500000Y-115928571D01*
X165642857Y-115928571D01*
X165857143Y-116000000D01*
X165928572Y-116071429D01*
X166571429Y-117428571D02*
X166571429Y-115928571D01*
X167428572Y-117428571D02*
X166785715Y-116571429D01*
X167428572Y-115928571D02*
X166571429Y-116785714D01*
X169428572Y-124107143D02*
X170571429Y-124107143D01*
X170000000Y-124678571D02*
X170000000Y-123535714D01*
X163142857Y-124928571D02*
X163142857Y-123428571D01*
X163642857Y-124500000D01*
X164142857Y-123428571D01*
X164142857Y-124928571D01*
X165142857Y-123428571D02*
X165428571Y-123428571D01*
X165571429Y-123500000D01*
X165714286Y-123642857D01*
X165785714Y-123928571D01*
X165785714Y-124428571D01*
X165714286Y-124714286D01*
X165571429Y-124857143D01*
X165428571Y-124928571D01*
X165142857Y-124928571D01*
X165000000Y-124857143D01*
X164857143Y-124714286D01*
X164785714Y-124428571D01*
X164785714Y-123928571D01*
X164857143Y-123642857D01*
X165000000Y-123500000D01*
X165142857Y-123428571D01*
X166357143Y-124857143D02*
X166571429Y-124928571D01*
X166928572Y-124928571D01*
X167071429Y-124857143D01*
X167142858Y-124785714D01*
X167214286Y-124642857D01*
X167214286Y-124500000D01*
X167142858Y-124357143D01*
X167071429Y-124285714D01*
X166928572Y-124214286D01*
X166642858Y-124142857D01*
X166500000Y-124071429D01*
X166428572Y-124000000D01*
X166357143Y-123857143D01*
X166357143Y-123714286D01*
X166428572Y-123571429D01*
X166500000Y-123500000D01*
X166642858Y-123428571D01*
X167000000Y-123428571D01*
X167214286Y-123500000D01*
X167857143Y-124928571D02*
X167857143Y-123428571D01*
X160428572Y-123857143D02*
X161571429Y-123857143D01*
X156285715Y-121178571D02*
X156285715Y-119678571D01*
X157857144Y-121035714D02*
X157785715Y-121107143D01*
X157571429Y-121178571D01*
X157428572Y-121178571D01*
X157214287Y-121107143D01*
X157071429Y-120964286D01*
X157000001Y-120821429D01*
X156928572Y-120535714D01*
X156928572Y-120321429D01*
X157000001Y-120035714D01*
X157071429Y-119892857D01*
X157214287Y-119750000D01*
X157428572Y-119678571D01*
X157571429Y-119678571D01*
X157785715Y-119750000D01*
X157857144Y-119821429D01*
X158428572Y-121107143D02*
X158642858Y-121178571D01*
X159000001Y-121178571D01*
X159142858Y-121107143D01*
X159214287Y-121035714D01*
X159285715Y-120892857D01*
X159285715Y-120750000D01*
X159214287Y-120607143D01*
X159142858Y-120535714D01*
X159000001Y-120464286D01*
X158714287Y-120392857D01*
X158571429Y-120321429D01*
X158500001Y-120250000D01*
X158428572Y-120107143D01*
X158428572Y-119964286D01*
X158500001Y-119821429D01*
X158571429Y-119750000D01*
X158714287Y-119678571D01*
X159071429Y-119678571D01*
X159285715Y-119750000D01*
X159928572Y-121178571D02*
X159928572Y-119678571D01*
X160500000Y-119678571D01*
X160642858Y-119750000D01*
X160714286Y-119821429D01*
X160785715Y-119964286D01*
X160785715Y-120178571D01*
X160714286Y-120321429D01*
X160642858Y-120392857D01*
X160500000Y-120464286D01*
X159928572Y-120464286D01*
X173928572Y-127357143D02*
X175071429Y-127357143D01*
X173928572Y-122607143D02*
X175071429Y-122607143D01*
X174500000Y-123178571D02*
X174500000Y-122035714D01*
X178107144Y-119035714D02*
X178035715Y-119107143D01*
X177821429Y-119178571D01*
X177678572Y-119178571D01*
X177464287Y-119107143D01*
X177321429Y-118964286D01*
X177250001Y-118821429D01*
X177178572Y-118535714D01*
X177178572Y-118321429D01*
X177250001Y-118035714D01*
X177321429Y-117892857D01*
X177464287Y-117750000D01*
X177678572Y-117678571D01*
X177821429Y-117678571D01*
X178035715Y-117750000D01*
X178107144Y-117821429D01*
X178678572Y-118750000D02*
X179392858Y-118750000D01*
X178535715Y-119178571D02*
X179035715Y-117678571D01*
X179535715Y-119178571D01*
X180035715Y-119178571D02*
X180035715Y-117678571D01*
X180607143Y-117678571D01*
X180750001Y-117750000D01*
X180821429Y-117821429D01*
X180892858Y-117964286D01*
X180892858Y-118178571D01*
X180821429Y-118321429D01*
X180750001Y-118392857D01*
X180607143Y-118464286D01*
X180035715Y-118464286D01*
X181464286Y-119107143D02*
X181678572Y-119178571D01*
X182035715Y-119178571D01*
X182178572Y-119107143D01*
X182250001Y-119035714D01*
X182321429Y-118892857D01*
X182321429Y-118750000D01*
X182250001Y-118607143D01*
X182178572Y-118535714D01*
X182035715Y-118464286D01*
X181750001Y-118392857D01*
X181607143Y-118321429D01*
X181535715Y-118250000D01*
X181464286Y-118107143D01*
X181464286Y-117964286D01*
X181535715Y-117821429D01*
X181607143Y-117750000D01*
X181750001Y-117678571D01*
X182107143Y-117678571D01*
X182321429Y-117750000D01*
X174178572Y-112607143D02*
X175321429Y-112607143D01*
X174750000Y-113178571D02*
X174750000Y-112035714D01*
X173928572Y-107607143D02*
X175071429Y-107607143D01*
X176035714Y-103928571D02*
X176035714Y-102428571D01*
X176607142Y-102428571D01*
X176750000Y-102500000D01*
X176821428Y-102571429D01*
X176892857Y-102714286D01*
X176892857Y-102928571D01*
X176821428Y-103071429D01*
X176750000Y-103142857D01*
X176607142Y-103214286D01*
X176035714Y-103214286D01*
X177821428Y-102428571D02*
X178107142Y-102428571D01*
X178250000Y-102500000D01*
X178392857Y-102642857D01*
X178464285Y-102928571D01*
X178464285Y-103428571D01*
X178392857Y-103714286D01*
X178250000Y-103857143D01*
X178107142Y-103928571D01*
X177821428Y-103928571D01*
X177678571Y-103857143D01*
X177535714Y-103714286D01*
X177464285Y-103428571D01*
X177464285Y-102928571D01*
X177535714Y-102642857D01*
X177678571Y-102500000D01*
X177821428Y-102428571D01*
X179821429Y-103928571D02*
X179107143Y-103928571D01*
X179107143Y-102428571D01*
X180607143Y-102428571D02*
X180892857Y-102428571D01*
X181035715Y-102500000D01*
X181178572Y-102642857D01*
X181250000Y-102928571D01*
X181250000Y-103428571D01*
X181178572Y-103714286D01*
X181035715Y-103857143D01*
X180892857Y-103928571D01*
X180607143Y-103928571D01*
X180464286Y-103857143D01*
X180321429Y-103714286D01*
X180250000Y-103428571D01*
X180250000Y-102928571D01*
X180321429Y-102642857D01*
X180464286Y-102500000D01*
X180607143Y-102428571D01*
X182607144Y-103928571D02*
X181892858Y-103928571D01*
X181892858Y-102428571D01*
X183107144Y-102428571D02*
X183107144Y-103642857D01*
X183178572Y-103785714D01*
X183250001Y-103857143D01*
X183392858Y-103928571D01*
X183678572Y-103928571D01*
X183821430Y-103857143D01*
X183892858Y-103785714D01*
X183964287Y-103642857D01*
X183964287Y-102428571D01*
X173678572Y-97607143D02*
X174821429Y-97607143D01*
X173678572Y-92357143D02*
X174821429Y-92357143D01*
X174250000Y-92928571D02*
X174250000Y-91785714D01*
X178321429Y-88392857D02*
X178535715Y-88464286D01*
X178607143Y-88535714D01*
X178678572Y-88678571D01*
X178678572Y-88892857D01*
X178607143Y-89035714D01*
X178535715Y-89107143D01*
X178392857Y-89178571D01*
X177821429Y-89178571D01*
X177821429Y-87678571D01*
X178321429Y-87678571D01*
X178464286Y-87750000D01*
X178535715Y-87821429D01*
X178607143Y-87964286D01*
X178607143Y-88107143D01*
X178535715Y-88250000D01*
X178464286Y-88321429D01*
X178321429Y-88392857D01*
X177821429Y-88392857D01*
X179250000Y-88750000D02*
X179964286Y-88750000D01*
X179107143Y-89178571D02*
X179607143Y-87678571D01*
X180107143Y-89178571D01*
X180392857Y-87678571D02*
X181250000Y-87678571D01*
X180821429Y-89178571D02*
X180821429Y-87678571D01*
X181535714Y-87678571D02*
X182392857Y-87678571D01*
X181964286Y-89178571D02*
X181964286Y-87678571D01*
X173428572Y-82607143D02*
X174571429Y-82607143D01*
X174000000Y-83178571D02*
X174000000Y-82035714D01*
X173428572Y-77607143D02*
X174571429Y-77607143D01*
X178428571Y-73857143D02*
X178642857Y-73928571D01*
X179000000Y-73928571D01*
X179142857Y-73857143D01*
X179214286Y-73785714D01*
X179285714Y-73642857D01*
X179285714Y-73500000D01*
X179214286Y-73357143D01*
X179142857Y-73285714D01*
X179000000Y-73214286D01*
X178714286Y-73142857D01*
X178571428Y-73071429D01*
X178500000Y-73000000D01*
X178428571Y-72857143D01*
X178428571Y-72714286D01*
X178500000Y-72571429D01*
X178571428Y-72500000D01*
X178714286Y-72428571D01*
X179071428Y-72428571D01*
X179285714Y-72500000D01*
X180214285Y-72428571D02*
X180499999Y-72428571D01*
X180642857Y-72500000D01*
X180785714Y-72642857D01*
X180857142Y-72928571D01*
X180857142Y-73428571D01*
X180785714Y-73714286D01*
X180642857Y-73857143D01*
X180499999Y-73928571D01*
X180214285Y-73928571D01*
X180071428Y-73857143D01*
X179928571Y-73714286D01*
X179857142Y-73428571D01*
X179857142Y-72928571D01*
X179928571Y-72642857D01*
X180071428Y-72500000D01*
X180214285Y-72428571D01*
X182214286Y-73928571D02*
X181500000Y-73928571D01*
X181500000Y-72428571D01*
X139678571Y-75571428D02*
X138178571Y-75571428D01*
X139250000Y-75071428D01*
X138178571Y-74571428D01*
X139678571Y-74571428D01*
X138892857Y-73857142D02*
X138892857Y-73357142D01*
X139678571Y-73142856D02*
X139678571Y-73857142D01*
X138178571Y-73857142D01*
X138178571Y-73142856D01*
X138250000Y-71714285D02*
X138178571Y-71857142D01*
X138178571Y-72071428D01*
X138250000Y-72285713D01*
X138392857Y-72428571D01*
X138535714Y-72499999D01*
X138821429Y-72571428D01*
X139035714Y-72571428D01*
X139321429Y-72499999D01*
X139464286Y-72428571D01*
X139607143Y-72285713D01*
X139678571Y-72071428D01*
X139678571Y-71928571D01*
X139607143Y-71714285D01*
X139535714Y-71642856D01*
X139035714Y-71642856D01*
X139035714Y-71928571D01*
X139250000Y-71071428D02*
X139250000Y-70357142D01*
X139678571Y-71214285D02*
X138178571Y-70714285D01*
X139678571Y-70214285D01*
X153178572Y-78357143D02*
X154321429Y-78357143D01*
X153750000Y-78928571D02*
X153750000Y-77785714D01*
X147928572Y-78357143D02*
X149071429Y-78357143D01*
X141964286Y-78142857D02*
X141464286Y-78142857D01*
X141464286Y-78928571D02*
X141464286Y-77428571D01*
X142178572Y-77428571D01*
X143250000Y-78142857D02*
X143464286Y-78214286D01*
X143535714Y-78285714D01*
X143607143Y-78428571D01*
X143607143Y-78642857D01*
X143535714Y-78785714D01*
X143464286Y-78857143D01*
X143321428Y-78928571D01*
X142750000Y-78928571D01*
X142750000Y-77428571D01*
X143250000Y-77428571D01*
X143392857Y-77500000D01*
X143464286Y-77571429D01*
X143535714Y-77714286D01*
X143535714Y-77857143D01*
X143464286Y-78000000D01*
X143392857Y-78071429D01*
X143250000Y-78142857D01*
X142750000Y-78142857D01*
X144250000Y-78928571D02*
X144250000Y-77428571D01*
X145107143Y-78928571D02*
X144464286Y-78071429D01*
X145107143Y-77428571D02*
X144250000Y-78285714D01*
D12*
X150338200Y-93733300D02*
X150338200Y-94266700D01*
X150211200Y-94393700D02*
X148788800Y-94393700D01*
X148661800Y-94266700D02*
X148661800Y-93733300D01*
X148788800Y-93606300D02*
X150211200Y-93606300D01*
X150338200Y-93733300D02*
G75*
G03X150211200Y-93606300I-127000J0D01*
G01*
X150211200Y-94393700D02*
G75*
G03X150338200Y-94266700I0J127000D01*
G01*
X148661800Y-94266700D02*
G75*
G03X148788800Y-94393700I127000J0D01*
G01*
X148788800Y-93606300D02*
G75*
G03X148661800Y-93733300I0J-127000D01*
G01*
X148338200Y-107733300D02*
X148338200Y-108266700D01*
X148211200Y-108393700D02*
X146788800Y-108393700D01*
X146661800Y-108266700D02*
X146661800Y-107733300D01*
X146788800Y-107606300D02*
X148211200Y-107606300D01*
X148338200Y-107733300D02*
G75*
G03X148211200Y-107606300I-127000J0D01*
G01*
X148211200Y-108393700D02*
G75*
G03X148338200Y-108266700I0J127000D01*
G01*
X146661800Y-108266700D02*
G75*
G03X146788800Y-108393700I127000J0D01*
G01*
X146788800Y-107606300D02*
G75*
G03X146661800Y-107733300I0J-127000D01*
G01*
D13*
X161690000Y-117960000D02*
X161690000Y-123040000D01*
X161690000Y-123040000D02*
X169310000Y-123040000D01*
X169310000Y-117960000D02*
X169310000Y-123040000D01*
X161690000Y-117960000D02*
X169310000Y-117960000D01*
D14*
X169310000Y-117960000D02*
X169310000Y-123040000D01*
X169310000Y-123040000D02*
X161690000Y-123040000D01*
X161690000Y-123040000D02*
X161690000Y-117960000D01*
X161690000Y-117960000D02*
X169310000Y-117960000D01*
D10*
X169310000Y-117960000D02*
X169310000Y-123040000D01*
X169310000Y-123040000D02*
X161690000Y-123040000D01*
X161690000Y-123040000D02*
X161690000Y-117960000D01*
X161690000Y-117960000D02*
X169310000Y-117960000D01*
D13*
X184064000Y-74793000D02*
X175936000Y-74793000D01*
X175936000Y-74793000D02*
X175936000Y-85207000D01*
X184064000Y-85207000D02*
X175936000Y-85207000D01*
X184064000Y-74793000D02*
X184064000Y-85207000D01*
D14*
X184064000Y-85207000D02*
X175936000Y-85207000D01*
X175936000Y-85207000D02*
X175936000Y-74793000D01*
X175936000Y-74793000D02*
X184064000Y-74793000D01*
X184064000Y-74793000D02*
X184064000Y-85207000D01*
X182540000Y-84953000D02*
X177460000Y-84953000D01*
X177460000Y-84953000D02*
X177460000Y-75047000D01*
X177460000Y-75047000D02*
X182540000Y-75047000D01*
X182540000Y-75047000D02*
X182540000Y-84953000D01*
D15*
X181616446Y-82540000D02*
G75*
G03X181616446Y-82540000I-1616446J0D01*
G01*
X181616446Y-77460000D02*
G75*
G03X181616446Y-77460000I-1616446J0D01*
G01*
D13*
X184064000Y-104793000D02*
X175936000Y-104793000D01*
X175936000Y-104793000D02*
X175936000Y-115207000D01*
X184064000Y-115207000D02*
X175936000Y-115207000D01*
X184064000Y-104793000D02*
X184064000Y-115207000D01*
D14*
X184064000Y-115207000D02*
X175936000Y-115207000D01*
X175936000Y-115207000D02*
X175936000Y-104793000D01*
X175936000Y-104793000D02*
X184064000Y-104793000D01*
X184064000Y-104793000D02*
X184064000Y-115207000D01*
X182540000Y-114953000D02*
X177460000Y-114953000D01*
X177460000Y-114953000D02*
X177460000Y-105047000D01*
X177460000Y-105047000D02*
X182540000Y-105047000D01*
X182540000Y-105047000D02*
X182540000Y-114953000D01*
D15*
X181616446Y-112540000D02*
G75*
G03X181616446Y-112540000I-1616446J0D01*
G01*
X181616446Y-107460000D02*
G75*
G03X181616446Y-107460000I-1616446J0D01*
G01*
D13*
X175936000Y-100207000D02*
X184064000Y-100207000D01*
X184064000Y-100207000D02*
X184064000Y-89793000D01*
X175936000Y-89793000D02*
X184064000Y-89793000D01*
X175936000Y-100207000D02*
X175936000Y-89793000D01*
D14*
X175936000Y-89793000D02*
X184064000Y-89793000D01*
X184064000Y-89793000D02*
X184064000Y-100207000D01*
X184064000Y-100207000D02*
X175936000Y-100207000D01*
X175936000Y-100207000D02*
X175936000Y-89793000D01*
X177460000Y-90047000D02*
X182540000Y-90047000D01*
X182540000Y-90047000D02*
X182540000Y-99953000D01*
X182540000Y-99953000D02*
X177460000Y-99953000D01*
X177460000Y-99953000D02*
X177460000Y-90047000D01*
D15*
X181616446Y-92460000D02*
G75*
G03X181616446Y-92460000I-1616446J0D01*
G01*
X181616446Y-97540000D02*
G75*
G03X181616446Y-97540000I-1616446J0D01*
G01*
D13*
X175936000Y-130207000D02*
X184064000Y-130207000D01*
X184064000Y-130207000D02*
X184064000Y-119793000D01*
X175936000Y-119793000D02*
X184064000Y-119793000D01*
X175936000Y-130207000D02*
X175936000Y-119793000D01*
D14*
X175936000Y-119793000D02*
X184064000Y-119793000D01*
X184064000Y-119793000D02*
X184064000Y-130207000D01*
X184064000Y-130207000D02*
X175936000Y-130207000D01*
X175936000Y-130207000D02*
X175936000Y-119793000D01*
X177460000Y-120047000D02*
X182540000Y-120047000D01*
X182540000Y-120047000D02*
X182540000Y-129953000D01*
X182540000Y-129953000D02*
X177460000Y-129953000D01*
X177460000Y-129953000D02*
X177460000Y-120047000D01*
D15*
X181616446Y-122460000D02*
G75*
G03X181616446Y-122460000I-1616446J0D01*
G01*
X181616446Y-127540000D02*
G75*
G03X181616446Y-127540000I-1616446J0D01*
G01*
D13*
X140753000Y-68936000D02*
X140753000Y-77064000D01*
X140753000Y-77064000D02*
X156247000Y-77064000D01*
X156247000Y-68936000D02*
X156247000Y-77064000D01*
X140753000Y-68936000D02*
X156247000Y-68936000D01*
D14*
X156247000Y-68936000D02*
X156247000Y-77064000D01*
X156247000Y-77064000D02*
X140753000Y-77064000D01*
X140753000Y-77064000D02*
X140753000Y-68936000D01*
X140753000Y-68936000D02*
X156247000Y-68936000D01*
X155993000Y-70460000D02*
X155993000Y-75540000D01*
X155993000Y-75540000D02*
X141007000Y-75540000D01*
X141007000Y-75540000D02*
X141007000Y-70460000D01*
X141007000Y-70460000D02*
X155993000Y-70460000D01*
D15*
X155196446Y-73000000D02*
G75*
G03X155196446Y-73000000I-1616446J0D01*
G01*
X150116446Y-73000000D02*
G75*
G03X150116446Y-73000000I-1616446J0D01*
G01*
X145036446Y-73000000D02*
G75*
G03X145036446Y-73000000I-1616446J0D01*
G01*
D16*
X140770000Y-114270000D02*
X140770000Y-126970000D01*
X140770000Y-126970000D02*
X138230000Y-126970000D01*
X138230000Y-126970000D02*
X138230000Y-114270000D01*
X141050000Y-111450000D02*
X141050000Y-113000000D01*
X140770000Y-114270000D02*
X138230000Y-114270000D01*
X137950000Y-113000000D02*
X137950000Y-111450000D01*
X137950000Y-111450000D02*
X141050000Y-111450000D01*
X166730000Y-130770000D02*
X164190000Y-130770000D01*
X169550000Y-131050000D02*
X168000000Y-131050000D01*
X166730000Y-130770000D02*
X166730000Y-128230000D01*
X168000000Y-127950000D02*
X169550000Y-127950000D01*
X169550000Y-127950000D02*
X169550000Y-131050000D01*
X166730000Y-128230000D02*
X164190000Y-128230000D01*
X164190000Y-128230000D02*
X164190000Y-130770000D01*
X148270000Y-128230000D02*
X160970000Y-128230000D01*
X160970000Y-128230000D02*
X160970000Y-130770000D01*
X160970000Y-130770000D02*
X148270000Y-130770000D01*
X145450000Y-127950000D02*
X147000000Y-127950000D01*
X148270000Y-128230000D02*
X148270000Y-130770000D01*
X147000000Y-131050000D02*
X145450000Y-131050000D01*
X145450000Y-131050000D02*
X145450000Y-127950000D01*
D13*
X146976000Y-84651000D02*
X150024000Y-84651000D01*
X150024000Y-84651000D02*
X150024000Y-81349000D01*
X146976000Y-81349000D02*
X150024000Y-81349000D01*
X146976000Y-84651000D02*
X146976000Y-81349000D01*
D14*
X148309500Y-83635000D02*
X148690500Y-83635000D01*
X149960500Y-83254000D02*
X149960500Y-82365000D01*
X149960500Y-82365000D02*
X149198500Y-82365000D01*
X147801500Y-82365000D02*
X147039500Y-82365000D01*
X147039500Y-82365000D02*
X147039500Y-83254000D01*
D13*
X160976000Y-84151000D02*
X164024000Y-84151000D01*
X164024000Y-84151000D02*
X164024000Y-80849000D01*
X160976000Y-80849000D02*
X164024000Y-80849000D01*
X160976000Y-84151000D02*
X160976000Y-80849000D01*
D14*
X162309500Y-83135000D02*
X162690500Y-83135000D01*
X163960500Y-82754000D02*
X163960500Y-81865000D01*
X163960500Y-81865000D02*
X163198500Y-81865000D01*
X161801500Y-81865000D02*
X161039500Y-81865000D01*
X161039500Y-81865000D02*
X161039500Y-82754000D01*
X163897000Y-78135000D02*
X161103000Y-78135000D01*
X161103000Y-78135000D02*
X161103000Y-76865000D01*
X161103000Y-76865000D02*
X163897000Y-76865000D01*
X163897000Y-76865000D02*
X163897000Y-78135000D01*
X166853000Y-79615000D02*
X169647000Y-79615000D01*
X169647000Y-79615000D02*
X169647000Y-80885000D01*
X169647000Y-80885000D02*
X166853000Y-80885000D01*
X166853000Y-80885000D02*
X166853000Y-79615000D01*
X147103000Y-87865000D02*
X149897000Y-87865000D01*
X149897000Y-87865000D02*
X149897000Y-89135000D01*
X149897000Y-89135000D02*
X147103000Y-89135000D01*
X147103000Y-89135000D02*
X147103000Y-87865000D01*
X157635000Y-91103000D02*
X157635000Y-93897000D01*
X157635000Y-93897000D02*
X156365000Y-93897000D01*
X156365000Y-93897000D02*
X156365000Y-91103000D01*
X156365000Y-91103000D02*
X157635000Y-91103000D01*
X161103000Y-86865000D02*
X163897000Y-86865000D01*
X163897000Y-86865000D02*
X163897000Y-88135000D01*
X163897000Y-88135000D02*
X161103000Y-88135000D01*
X161103000Y-88135000D02*
X161103000Y-86865000D01*
D13*
X156997340Y-108002660D02*
X164002660Y-108002660D01*
X164002660Y-108002660D02*
X164002660Y-100997340D01*
X156997340Y-100997340D02*
X164002660Y-100997340D01*
X156997340Y-108002660D02*
X156997340Y-100997340D01*
D17*
X164002660Y-100997340D02*
X164002660Y-108002660D01*
X164002660Y-108002660D02*
X156997340Y-108002660D01*
X156997340Y-108002660D02*
X156997340Y-101350400D01*
X157350400Y-100997340D02*
X164002660Y-100997340D01*
X157350400Y-100997340D02*
X156997340Y-101350400D01*
D10*
X156832408Y-100563000D02*
G75*
G03X156832408Y-100563000I-269408J0D01*
G01*
D18*
X140341000Y-94952000D02*
X140341000Y-101048000D01*
X144659000Y-94952000D02*
X144659000Y-101048000D01*
D17*
X140849000Y-94952000D02*
X140849000Y-101048000D01*
X144151000Y-101048000D02*
X144151000Y-94952000D01*
X143262000Y-97746000D02*
X143262000Y-98254000D01*
X143262000Y-98254000D02*
X141738000Y-98254000D01*
X141738000Y-98254000D02*
X141738000Y-97746000D01*
X141738000Y-97746000D02*
X143262000Y-97746000D01*
X143262000Y-98635000D02*
X142500000Y-98635000D01*
X142500000Y-98635000D02*
X141738000Y-98635000D01*
X143262000Y-97365000D02*
X142500000Y-97365000D01*
X142500000Y-97365000D02*
X141738000Y-97365000D01*
X142500000Y-98635000D02*
X142500000Y-99270000D01*
X142500000Y-97365000D02*
X142500000Y-96730000D01*
D18*
X144659000Y-94952000D02*
G75*
G03X140341000Y-94952000I-2159000J0D01*
G01*
X140341000Y-101048000D02*
G75*
G03X144659000Y-101048000I2159000J0D01*
G01*
D17*
X144151000Y-94952000D02*
G75*
G03X140849000Y-94952000I-1651000J0D01*
G01*
X140849000Y-101048000D02*
G75*
G03X144151000Y-101048000I1651000J0D01*
G01*
D14*
X155397000Y-98135000D02*
X152603000Y-98135000D01*
X152603000Y-98135000D02*
X152603000Y-96865000D01*
X152603000Y-96865000D02*
X155397000Y-96865000D01*
X155397000Y-96865000D02*
X155397000Y-98135000D01*
D19*
X150304334Y-93238000D02*
X150262000Y-93280333D01*
X150135000Y-93322667D01*
X150050334Y-93322667D01*
X149923334Y-93280333D01*
X149838667Y-93195667D01*
X149796334Y-93111000D01*
X149754000Y-92941667D01*
X149754000Y-92814667D01*
X149796334Y-92645333D01*
X149838667Y-92560667D01*
X149923334Y-92476000D01*
X150050334Y-92433667D01*
X150135000Y-92433667D01*
X150262000Y-92476000D01*
X150304334Y-92518333D01*
X151151000Y-93322667D02*
X150643000Y-93322667D01*
X150897000Y-93322667D02*
X150897000Y-92433667D01*
X150812334Y-92560667D01*
X150727667Y-92645333D01*
X150643000Y-92687667D01*
X148304334Y-107238000D02*
X148262000Y-107280333D01*
X148135000Y-107322667D01*
X148050334Y-107322667D01*
X147923334Y-107280333D01*
X147838667Y-107195667D01*
X147796334Y-107111000D01*
X147754000Y-106941667D01*
X147754000Y-106814667D01*
X147796334Y-106645333D01*
X147838667Y-106560667D01*
X147923334Y-106476000D01*
X148050334Y-106433667D01*
X148135000Y-106433667D01*
X148262000Y-106476000D01*
X148304334Y-106518333D01*
X148643000Y-106518333D02*
X148685334Y-106476000D01*
X148770000Y-106433667D01*
X148981667Y-106433667D01*
X149066334Y-106476000D01*
X149108667Y-106518333D01*
X149151000Y-106603000D01*
X149151000Y-106687667D01*
X149108667Y-106814667D01*
X148600667Y-107322667D01*
X149151000Y-107322667D01*
X169953667Y-120013167D02*
X169953667Y-120648167D01*
X169911333Y-120775167D01*
X169826667Y-120859833D01*
X169699667Y-120902167D01*
X169615000Y-120902167D01*
X170842666Y-120902167D02*
X170334666Y-120902167D01*
X170588666Y-120902167D02*
X170588666Y-120013167D01*
X170504000Y-120140167D01*
X170419333Y-120224833D01*
X170334666Y-120267167D01*
X176263167Y-80296333D02*
X176898167Y-80296333D01*
X177025167Y-80338667D01*
X177109833Y-80423333D01*
X177152167Y-80550333D01*
X177152167Y-80635000D01*
X176347833Y-79915334D02*
X176305500Y-79873000D01*
X176263167Y-79788334D01*
X176263167Y-79576667D01*
X176305500Y-79492000D01*
X176347833Y-79449667D01*
X176432500Y-79407334D01*
X176517167Y-79407334D01*
X176644167Y-79449667D01*
X177152167Y-79957667D01*
X177152167Y-79407334D01*
X176263167Y-110296333D02*
X176898167Y-110296333D01*
X177025167Y-110338667D01*
X177109833Y-110423333D01*
X177152167Y-110550333D01*
X177152167Y-110635000D01*
X176263167Y-109957667D02*
X176263167Y-109407334D01*
X176601833Y-109703667D01*
X176601833Y-109576667D01*
X176644167Y-109492000D01*
X176686500Y-109449667D01*
X176771167Y-109407334D01*
X176982833Y-109407334D01*
X177067500Y-109449667D01*
X177109833Y-109492000D01*
X177152167Y-109576667D01*
X177152167Y-109830667D01*
X177109833Y-109915334D01*
X177067500Y-109957667D01*
X176263167Y-95296333D02*
X176898167Y-95296333D01*
X177025167Y-95338667D01*
X177109833Y-95423333D01*
X177152167Y-95550333D01*
X177152167Y-95635000D01*
X176559500Y-94492000D02*
X177152167Y-94492000D01*
X176220833Y-94703667D02*
X176855833Y-94915334D01*
X176855833Y-94365000D01*
X176263167Y-125296333D02*
X176898167Y-125296333D01*
X177025167Y-125338667D01*
X177109833Y-125423333D01*
X177152167Y-125550333D01*
X177152167Y-125635000D01*
X176263167Y-124449667D02*
X176263167Y-124873000D01*
X176686500Y-124915334D01*
X176644167Y-124873000D01*
X176601833Y-124788334D01*
X176601833Y-124576667D01*
X176644167Y-124492000D01*
X176686500Y-124449667D01*
X176771167Y-124407334D01*
X176982833Y-124407334D01*
X177067500Y-124449667D01*
X177109833Y-124492000D01*
X177152167Y-124576667D01*
X177152167Y-124788334D01*
X177109833Y-124873000D01*
X177067500Y-124915334D01*
X148203667Y-75763167D02*
X148203667Y-76398167D01*
X148161333Y-76525167D01*
X148076667Y-76609833D01*
X147949667Y-76652167D01*
X147865000Y-76652167D01*
X149008000Y-75763167D02*
X148838666Y-75763167D01*
X148754000Y-75805500D01*
X148711666Y-75847833D01*
X148627000Y-75974833D01*
X148584666Y-76144167D01*
X148584666Y-76482833D01*
X148627000Y-76567500D01*
X148669333Y-76609833D01*
X148754000Y-76652167D01*
X148923333Y-76652167D01*
X149008000Y-76609833D01*
X149050333Y-76567500D01*
X149092666Y-76482833D01*
X149092666Y-76271167D01*
X149050333Y-76186500D01*
X149008000Y-76144167D01*
X148923333Y-76101833D01*
X148754000Y-76101833D01*
X148669333Y-76144167D01*
X148627000Y-76186500D01*
X148584666Y-76271167D01*
D16*
X142452381Y-119738095D02*
X141452381Y-119738095D01*
X141452381Y-119357142D01*
X141500000Y-119261904D01*
X141547619Y-119214285D01*
X141642857Y-119166666D01*
X141785714Y-119166666D01*
X141880952Y-119214285D01*
X141928571Y-119261904D01*
X141976190Y-119357142D01*
X141976190Y-119738095D01*
X142452381Y-118214285D02*
X142452381Y-118785714D01*
X142452381Y-118500000D02*
X141452381Y-118500000D01*
X141595238Y-118595238D01*
X141690476Y-118690476D01*
X141738095Y-118785714D01*
X166011905Y-127202381D02*
X166011905Y-126202381D01*
X166392858Y-126202381D01*
X166488096Y-126250000D01*
X166535715Y-126297619D01*
X166583334Y-126392857D01*
X166583334Y-126535714D01*
X166535715Y-126630952D01*
X166488096Y-126678571D01*
X166392858Y-126726190D01*
X166011905Y-126726190D01*
X166964286Y-126297619D02*
X167011905Y-126250000D01*
X167107143Y-126202381D01*
X167345239Y-126202381D01*
X167440477Y-126250000D01*
X167488096Y-126297619D01*
X167535715Y-126392857D01*
X167535715Y-126488095D01*
X167488096Y-126630952D01*
X166916667Y-127202381D01*
X167535715Y-127202381D01*
X153011905Y-127452381D02*
X153011905Y-126452381D01*
X153392858Y-126452381D01*
X153488096Y-126500000D01*
X153535715Y-126547619D01*
X153583334Y-126642857D01*
X153583334Y-126785714D01*
X153535715Y-126880952D01*
X153488096Y-126928571D01*
X153392858Y-126976190D01*
X153011905Y-126976190D01*
X153916667Y-126452381D02*
X154535715Y-126452381D01*
X154202381Y-126833333D01*
X154345239Y-126833333D01*
X154440477Y-126880952D01*
X154488096Y-126928571D01*
X154535715Y-127023810D01*
X154535715Y-127261905D01*
X154488096Y-127357143D01*
X154440477Y-127404762D01*
X154345239Y-127452381D01*
X154059524Y-127452381D01*
X153964286Y-127404762D01*
X153916667Y-127357143D01*
D19*
X148732833Y-81137333D02*
X148648167Y-81095000D01*
X148563500Y-81010333D01*
X148436500Y-80883333D01*
X148351833Y-80841000D01*
X148267167Y-80841000D01*
X148309500Y-81052667D02*
X148224833Y-81010333D01*
X148140167Y-80925667D01*
X148097833Y-80756333D01*
X148097833Y-80460000D01*
X148140167Y-80290667D01*
X148224833Y-80206000D01*
X148309500Y-80163667D01*
X148478833Y-80163667D01*
X148563500Y-80206000D01*
X148648167Y-80290667D01*
X148690500Y-80460000D01*
X148690500Y-80756333D01*
X148648167Y-80925667D01*
X148563500Y-81010333D01*
X148478833Y-81052667D01*
X148309500Y-81052667D01*
X149537166Y-81052667D02*
X149029166Y-81052667D01*
X149283166Y-81052667D02*
X149283166Y-80163667D01*
X149198500Y-80290667D01*
X149113833Y-80375333D01*
X149029166Y-80417667D01*
X159415333Y-82986833D02*
X159330667Y-82944500D01*
X159246000Y-82859833D01*
X159119000Y-82732833D01*
X159034333Y-82690500D01*
X158949667Y-82690500D01*
X158992000Y-82902167D02*
X158907333Y-82859833D01*
X158822667Y-82775167D01*
X158780333Y-82605833D01*
X158780333Y-82309500D01*
X158822667Y-82140167D01*
X158907333Y-82055500D01*
X158992000Y-82013167D01*
X159161333Y-82013167D01*
X159246000Y-82055500D01*
X159330667Y-82140167D01*
X159373000Y-82309500D01*
X159373000Y-82605833D01*
X159330667Y-82775167D01*
X159246000Y-82859833D01*
X159161333Y-82902167D01*
X158992000Y-82902167D01*
X159711666Y-82097833D02*
X159754000Y-82055500D01*
X159838666Y-82013167D01*
X160050333Y-82013167D01*
X160135000Y-82055500D01*
X160177333Y-82097833D01*
X160219666Y-82182500D01*
X160219666Y-82267167D01*
X160177333Y-82394167D01*
X159669333Y-82902167D01*
X160219666Y-82902167D01*
X162669334Y-76441667D02*
X162373000Y-76018333D01*
X162161334Y-76441667D02*
X162161334Y-75552667D01*
X162500000Y-75552667D01*
X162584667Y-75595000D01*
X162627000Y-75637333D01*
X162669334Y-75722000D01*
X162669334Y-75849000D01*
X162627000Y-75933667D01*
X162584667Y-75976000D01*
X162500000Y-76018333D01*
X162161334Y-76018333D01*
X163516000Y-76441667D02*
X163008000Y-76441667D01*
X163262000Y-76441667D02*
X163262000Y-75552667D01*
X163177334Y-75679667D01*
X163092667Y-75764333D01*
X163008000Y-75806667D01*
X168101834Y-82152167D02*
X167805500Y-81728833D01*
X167593834Y-82152167D02*
X167593834Y-81263167D01*
X167932500Y-81263167D01*
X168017167Y-81305500D01*
X168059500Y-81347833D01*
X168101834Y-81432500D01*
X168101834Y-81559500D01*
X168059500Y-81644167D01*
X168017167Y-81686500D01*
X167932500Y-81728833D01*
X167593834Y-81728833D01*
X168440500Y-81347833D02*
X168482834Y-81305500D01*
X168567500Y-81263167D01*
X168779167Y-81263167D01*
X168863834Y-81305500D01*
X168906167Y-81347833D01*
X168948500Y-81432500D01*
X168948500Y-81517167D01*
X168906167Y-81644167D01*
X168398167Y-82152167D01*
X168948500Y-82152167D01*
X148034334Y-90362667D02*
X147738000Y-89939333D01*
X147526334Y-90362667D02*
X147526334Y-89473667D01*
X147865000Y-89473667D01*
X147949667Y-89516000D01*
X147992000Y-89558333D01*
X148034334Y-89643000D01*
X148034334Y-89770000D01*
X147992000Y-89854667D01*
X147949667Y-89897000D01*
X147865000Y-89939333D01*
X147526334Y-89939333D01*
X148330667Y-89473667D02*
X148881000Y-89473667D01*
X148584667Y-89812333D01*
X148711667Y-89812333D01*
X148796334Y-89854667D01*
X148838667Y-89897000D01*
X148881000Y-89981667D01*
X148881000Y-90193333D01*
X148838667Y-90278000D01*
X148796334Y-90320333D01*
X148711667Y-90362667D01*
X148457667Y-90362667D01*
X148373000Y-90320333D01*
X148330667Y-90278000D01*
X155941667Y-92330666D02*
X155518333Y-92627000D01*
X155941667Y-92838666D02*
X155052667Y-92838666D01*
X155052667Y-92500000D01*
X155095000Y-92415333D01*
X155137333Y-92373000D01*
X155222000Y-92330666D01*
X155349000Y-92330666D01*
X155433667Y-92373000D01*
X155476000Y-92415333D01*
X155518333Y-92500000D01*
X155518333Y-92838666D01*
X155349000Y-91568666D02*
X155941667Y-91568666D01*
X155010333Y-91780333D02*
X155645333Y-91992000D01*
X155645333Y-91441666D01*
X162034334Y-89362667D02*
X161738000Y-88939333D01*
X161526334Y-89362667D02*
X161526334Y-88473667D01*
X161865000Y-88473667D01*
X161949667Y-88516000D01*
X161992000Y-88558333D01*
X162034334Y-88643000D01*
X162034334Y-88770000D01*
X161992000Y-88854667D01*
X161949667Y-88897000D01*
X161865000Y-88939333D01*
X161526334Y-88939333D01*
X162796334Y-88473667D02*
X162627000Y-88473667D01*
X162542334Y-88516000D01*
X162500000Y-88558333D01*
X162415334Y-88685333D01*
X162373000Y-88854667D01*
X162373000Y-89193333D01*
X162415334Y-89278000D01*
X162457667Y-89320333D01*
X162542334Y-89362667D01*
X162711667Y-89362667D01*
X162796334Y-89320333D01*
X162838667Y-89278000D01*
X162881000Y-89193333D01*
X162881000Y-88981667D01*
X162838667Y-88897000D01*
X162796334Y-88854667D01*
X162711667Y-88812333D01*
X162542334Y-88812333D01*
X162457667Y-88854667D01*
X162415334Y-88897000D01*
X162373000Y-88981667D01*
X160140167Y-98488667D02*
X160140167Y-99208333D01*
X160182500Y-99293000D01*
X160224833Y-99335333D01*
X160309500Y-99377667D01*
X160478833Y-99377667D01*
X160563500Y-99335333D01*
X160605833Y-99293000D01*
X160648167Y-99208333D01*
X160648167Y-98488667D01*
X161537166Y-99377667D02*
X161029166Y-99377667D01*
X161283166Y-99377667D02*
X161283166Y-98488667D01*
X161198500Y-98615667D01*
X161113833Y-98700333D01*
X161029166Y-98742667D01*
X138978833Y-98173333D02*
X139402167Y-98173333D01*
X138513167Y-98469666D02*
X138978833Y-98173333D01*
X138513167Y-97877000D01*
X139402167Y-97115000D02*
X139402167Y-97623000D01*
X139402167Y-97369000D02*
X138513167Y-97369000D01*
X138640167Y-97453666D01*
X138724833Y-97538333D01*
X138767167Y-97623000D01*
X154169334Y-96441667D02*
X153873000Y-96018333D01*
X153661334Y-96441667D02*
X153661334Y-95552667D01*
X154000000Y-95552667D01*
X154084667Y-95595000D01*
X154127000Y-95637333D01*
X154169334Y-95722000D01*
X154169334Y-95849000D01*
X154127000Y-95933667D01*
X154084667Y-95976000D01*
X154000000Y-96018333D01*
X153661334Y-96018333D01*
X154465667Y-95552667D02*
X155058334Y-95552667D01*
X154677334Y-96441667D01*
M02*
