G04 #@! TF.FileFunction,Other,User*
%FSLAX46Y46*%
G04 Gerber Fmt 4.6, Leading zero omitted, Abs format (unit mm)*
G04 Created by KiCad (PCBNEW 4.0.2+dfsg1-stable) date on. 29. nov. 2017 kl. 15.41 +0100*
%MOMM*%
G01*
G04 APERTURE LIST*
%ADD10C,0.100000*%
%ADD11C,0.050000*%
G04 APERTURE END LIST*
D10*
D11*
X95100000Y-113500000D02*
X99400000Y-113500000D01*
X99400000Y-113500000D02*
X99400000Y-116500000D01*
X99400000Y-116500000D02*
X95100000Y-116500000D01*
X95100000Y-116500000D02*
X95100000Y-113500000D01*
X98400000Y-97500000D02*
X94100000Y-97500000D01*
X94100000Y-97500000D02*
X94100000Y-94500000D01*
X94100000Y-94500000D02*
X98400000Y-94500000D01*
X98400000Y-94500000D02*
X98400000Y-97500000D01*
X132700000Y-95800000D02*
X132700000Y-100800000D01*
X132700000Y-100800000D02*
X137200000Y-100800000D01*
X137200000Y-100800000D02*
X137200000Y-95800000D01*
X137200000Y-95800000D02*
X132700000Y-95800000D01*
X103600000Y-75550000D02*
X103600000Y-113500000D01*
X114000000Y-75550000D02*
X114000000Y-113500000D01*
X103600000Y-75550000D02*
X114000000Y-75550000D01*
X103600000Y-113500000D02*
X114000000Y-113500000D01*
X126500000Y-92250000D02*
X126500000Y-79600000D01*
X129500000Y-92250000D02*
X126500000Y-92250000D01*
X126500000Y-79600000D02*
X129500000Y-79600000D01*
X129500000Y-92250000D02*
X129500000Y-79600000D01*
X126500000Y-77250000D02*
X126500000Y-64600000D01*
X129500000Y-77250000D02*
X126500000Y-77250000D01*
X126500000Y-64600000D02*
X129500000Y-64600000D01*
X129500000Y-77250000D02*
X129500000Y-64600000D01*
X93750000Y-68500000D02*
X106400000Y-68500000D01*
X93750000Y-71500000D02*
X93750000Y-68500000D01*
X106400000Y-68500000D02*
X106400000Y-71500000D01*
X93750000Y-71500000D02*
X106400000Y-71500000D01*
X116750000Y-98500000D02*
X129400000Y-98500000D01*
X116750000Y-101500000D02*
X116750000Y-98500000D01*
X129400000Y-98500000D02*
X129400000Y-101500000D01*
X116750000Y-101500000D02*
X129400000Y-101500000D01*
X121250000Y-61500000D02*
X108600000Y-61500000D01*
X121250000Y-58500000D02*
X121250000Y-61500000D01*
X108600000Y-61500000D02*
X108600000Y-58500000D01*
X121250000Y-58500000D02*
X108600000Y-58500000D01*
X92750000Y-58500000D02*
X105400000Y-58500000D01*
X92750000Y-61500000D02*
X92750000Y-58500000D01*
X105400000Y-58500000D02*
X105400000Y-61500000D01*
X92750000Y-61500000D02*
X105400000Y-61500000D01*
X96500000Y-89250000D02*
X96500000Y-76600000D01*
X99500000Y-89250000D02*
X96500000Y-89250000D01*
X96500000Y-76600000D02*
X99500000Y-76600000D01*
X99500000Y-89250000D02*
X99500000Y-76600000D01*
M02*
