G04 #@! TF.FileFunction,Copper,L2,Bot,Signal*
%FSLAX46Y46*%
G04 Gerber Fmt 4.6, Leading zero omitted, Abs format (unit mm)*
G04 Created by KiCad (PCBNEW 4.0.2+dfsg1-stable) date on. 29. nov. 2017 kl. 15.41 +0100*
%MOMM*%
G01*
G04 APERTURE LIST*
%ADD10C,0.100000*%
%ADD11C,4.000500*%
%ADD12R,1.300000X1.300000*%
%ADD13C,1.300000*%
%ADD14R,2.000000X2.000000*%
%ADD15C,2.000000*%
%ADD16O,2.300000X1.600000*%
%ADD17C,3.500120*%
%ADD18C,1.998980*%
%ADD19C,1.501140*%
%ADD20O,1.501140X2.499360*%
%ADD21C,0.900000*%
%ADD22C,0.600000*%
%ADD23C,0.500000*%
%ADD24C,1.000000*%
%ADD25C,0.750000*%
%ADD26C,0.254000*%
G04 APERTURE END LIST*
D10*
D11*
X86000000Y-44000000D03*
X96160000Y-44000000D03*
X125000000Y-44000000D03*
X135160000Y-44000000D03*
X85000000Y-90000000D03*
X85000000Y-79840000D03*
D12*
X96000000Y-115000000D03*
D13*
X98500000Y-115000000D03*
D12*
X97500000Y-96000000D03*
D13*
X95000000Y-96000000D03*
D14*
X135000000Y-97000000D03*
D15*
X135000000Y-99540000D03*
D16*
X105000000Y-78000000D03*
X105000000Y-80540000D03*
X105000000Y-83080000D03*
X105000000Y-85620000D03*
X105000000Y-88160000D03*
X105000000Y-90700000D03*
X105000000Y-93240000D03*
X105000000Y-95780000D03*
X105000000Y-98320000D03*
X105000000Y-100860000D03*
X105000000Y-103400000D03*
X105000000Y-105940000D03*
X105000000Y-108480000D03*
X105000000Y-111020000D03*
X112620000Y-111020000D03*
X112620000Y-108480000D03*
X112620000Y-105940000D03*
X112620000Y-103400000D03*
X112620000Y-100860000D03*
X112620000Y-98320000D03*
X112620000Y-95780000D03*
X112620000Y-93240000D03*
X112620000Y-90700000D03*
X112620000Y-88160000D03*
X112620000Y-85620000D03*
X112620000Y-83080000D03*
X112620000Y-80540000D03*
X112620000Y-78000000D03*
D11*
X85000000Y-70000000D03*
X85000000Y-59840000D03*
X105000000Y-44000000D03*
X115160000Y-44000000D03*
D17*
X84000000Y-51000000D03*
D18*
X128000000Y-91000000D03*
X128000000Y-80840000D03*
X128000000Y-76000000D03*
X128000000Y-65840000D03*
X95000000Y-70000000D03*
X105160000Y-70000000D03*
X118000000Y-100000000D03*
X128160000Y-100000000D03*
X120000000Y-60000000D03*
X109840000Y-60000000D03*
X94000000Y-60000000D03*
X104160000Y-60000000D03*
X98000000Y-88000000D03*
X98000000Y-77840000D03*
D19*
X97000000Y-102559060D03*
X97000000Y-107440940D03*
D20*
X123000000Y-53000000D03*
X120460000Y-53000000D03*
X125540000Y-53000000D03*
X99500000Y-52500000D03*
X96960000Y-52500000D03*
X102040000Y-52500000D03*
D21*
X90050000Y-96000000D03*
D22*
X112000000Y-73000000D03*
X106750000Y-96000000D03*
D23*
X106650000Y-85620000D02*
X107000000Y-85270000D01*
X111700001Y-73299999D02*
X112000000Y-73000000D01*
X107000000Y-85270000D02*
X107000000Y-78000000D01*
X107000000Y-78000000D02*
X111700001Y-73299999D01*
X105000000Y-85620000D02*
X106650000Y-85620000D01*
D24*
X106750000Y-96000000D02*
X105000000Y-96000000D01*
X109500000Y-96000000D02*
X106750000Y-96000000D01*
D25*
X112620000Y-93240000D02*
X112500000Y-93000000D01*
D24*
X112500000Y-93000000D02*
X109500000Y-96000000D01*
D25*
X105000000Y-96000000D02*
X105000000Y-95780000D01*
X105000000Y-95780000D02*
X105000000Y-96000000D01*
D24*
X105000000Y-96000000D02*
X103500000Y-94500000D01*
X103500000Y-94500000D02*
X96000000Y-94500000D01*
X96000000Y-94500000D02*
X96000000Y-95000000D01*
X96000000Y-95000000D02*
X95000000Y-96000000D01*
D26*
G36*
X139315000Y-119315000D02*
X80685000Y-119315000D01*
X80685000Y-114350000D01*
X94702560Y-114350000D01*
X94702560Y-115650000D01*
X94746838Y-115885317D01*
X94885910Y-116101441D01*
X95098110Y-116246431D01*
X95350000Y-116297440D01*
X96650000Y-116297440D01*
X96885317Y-116253162D01*
X97101441Y-116114090D01*
X97246431Y-115901890D01*
X97297440Y-115650000D01*
X97297440Y-115454540D01*
X97409995Y-115726943D01*
X97771155Y-116088735D01*
X98243276Y-116284777D01*
X98754481Y-116285223D01*
X99226943Y-116090005D01*
X99588735Y-115728845D01*
X99784777Y-115256724D01*
X99785223Y-114745519D01*
X99590005Y-114273057D01*
X99228845Y-113911265D01*
X98756724Y-113715223D01*
X98245519Y-113714777D01*
X97773057Y-113909995D01*
X97411265Y-114271155D01*
X97297440Y-114545276D01*
X97297440Y-114350000D01*
X97253162Y-114114683D01*
X97114090Y-113898559D01*
X96901890Y-113753569D01*
X96650000Y-113702560D01*
X95350000Y-113702560D01*
X95114683Y-113746838D01*
X94898559Y-113885910D01*
X94753569Y-114098110D01*
X94702560Y-114350000D01*
X80685000Y-114350000D01*
X80685000Y-107715338D01*
X95614190Y-107715338D01*
X95824686Y-108224777D01*
X96214113Y-108614884D01*
X96723184Y-108826269D01*
X97274398Y-108826750D01*
X97783837Y-108616254D01*
X98173944Y-108226827D01*
X98385329Y-107717756D01*
X98385810Y-107166542D01*
X98175314Y-106657103D01*
X97785887Y-106266996D01*
X97276816Y-106055611D01*
X96725602Y-106055130D01*
X96216163Y-106265626D01*
X95826056Y-106655053D01*
X95614671Y-107164124D01*
X95614190Y-107715338D01*
X80685000Y-107715338D01*
X80685000Y-102833458D01*
X95614190Y-102833458D01*
X95824686Y-103342897D01*
X96214113Y-103733004D01*
X96723184Y-103944389D01*
X97274398Y-103944870D01*
X97783837Y-103734374D01*
X98173944Y-103344947D01*
X98385329Y-102835876D01*
X98385810Y-102284662D01*
X98175314Y-101775223D01*
X97785887Y-101385116D01*
X97276816Y-101173731D01*
X96725602Y-101173250D01*
X96216163Y-101383746D01*
X95826056Y-101773173D01*
X95614671Y-102282244D01*
X95614190Y-102833458D01*
X80685000Y-102833458D01*
X80685000Y-96254481D01*
X93714777Y-96254481D01*
X93909995Y-96726943D01*
X94271155Y-97088735D01*
X94743276Y-97284777D01*
X95254481Y-97285223D01*
X95726943Y-97090005D01*
X96088735Y-96728845D01*
X96202560Y-96454724D01*
X96202560Y-96650000D01*
X96246838Y-96885317D01*
X96385910Y-97101441D01*
X96598110Y-97246431D01*
X96850000Y-97297440D01*
X98150000Y-97297440D01*
X98385317Y-97253162D01*
X98601441Y-97114090D01*
X98746431Y-96901890D01*
X98797440Y-96650000D01*
X98797440Y-95635000D01*
X103029868Y-95635000D01*
X103181312Y-95786444D01*
X103289263Y-96329151D01*
X103600332Y-96794698D01*
X103982418Y-97050000D01*
X103600332Y-97305302D01*
X103289263Y-97770849D01*
X103180030Y-98320000D01*
X103289263Y-98869151D01*
X103600332Y-99334698D01*
X103982418Y-99590000D01*
X103600332Y-99845302D01*
X103289263Y-100310849D01*
X103180030Y-100860000D01*
X103289263Y-101409151D01*
X103600332Y-101874698D01*
X103982418Y-102130000D01*
X103600332Y-102385302D01*
X103289263Y-102850849D01*
X103180030Y-103400000D01*
X103289263Y-103949151D01*
X103600332Y-104414698D01*
X103982418Y-104670000D01*
X103600332Y-104925302D01*
X103289263Y-105390849D01*
X103180030Y-105940000D01*
X103289263Y-106489151D01*
X103600332Y-106954698D01*
X103982418Y-107210000D01*
X103600332Y-107465302D01*
X103289263Y-107930849D01*
X103180030Y-108480000D01*
X103289263Y-109029151D01*
X103600332Y-109494698D01*
X103982418Y-109750000D01*
X103600332Y-110005302D01*
X103289263Y-110470849D01*
X103180030Y-111020000D01*
X103289263Y-111569151D01*
X103600332Y-112034698D01*
X104065879Y-112345767D01*
X104615030Y-112455000D01*
X105384970Y-112455000D01*
X105934121Y-112345767D01*
X106399668Y-112034698D01*
X106710737Y-111569151D01*
X106819970Y-111020000D01*
X106710737Y-110470849D01*
X106399668Y-110005302D01*
X106017582Y-109750000D01*
X106399668Y-109494698D01*
X106710737Y-109029151D01*
X106819970Y-108480000D01*
X106710737Y-107930849D01*
X106399668Y-107465302D01*
X106017582Y-107210000D01*
X106399668Y-106954698D01*
X106710737Y-106489151D01*
X106819970Y-105940000D01*
X106710737Y-105390849D01*
X106399668Y-104925302D01*
X106017582Y-104670000D01*
X106399668Y-104414698D01*
X106710737Y-103949151D01*
X106819970Y-103400000D01*
X106710737Y-102850849D01*
X106399668Y-102385302D01*
X106017582Y-102130000D01*
X106399668Y-101874698D01*
X106710737Y-101409151D01*
X106819970Y-100860000D01*
X106710737Y-100310849D01*
X106399668Y-99845302D01*
X106017582Y-99590000D01*
X106399668Y-99334698D01*
X106710737Y-98869151D01*
X106819970Y-98320000D01*
X106710737Y-97770849D01*
X106399668Y-97305302D01*
X106144793Y-97135000D01*
X109500000Y-97135000D01*
X109934346Y-97048603D01*
X110302566Y-96802566D01*
X110887150Y-96217982D01*
X110909263Y-96329151D01*
X111220332Y-96794698D01*
X111602418Y-97050000D01*
X111220332Y-97305302D01*
X110909263Y-97770849D01*
X110800030Y-98320000D01*
X110909263Y-98869151D01*
X111220332Y-99334698D01*
X111602418Y-99590000D01*
X111220332Y-99845302D01*
X110909263Y-100310849D01*
X110800030Y-100860000D01*
X110909263Y-101409151D01*
X111220332Y-101874698D01*
X111602418Y-102130000D01*
X111220332Y-102385302D01*
X110909263Y-102850849D01*
X110800030Y-103400000D01*
X110909263Y-103949151D01*
X111220332Y-104414698D01*
X111602418Y-104670000D01*
X111220332Y-104925302D01*
X110909263Y-105390849D01*
X110800030Y-105940000D01*
X110909263Y-106489151D01*
X111220332Y-106954698D01*
X111602418Y-107210000D01*
X111220332Y-107465302D01*
X110909263Y-107930849D01*
X110800030Y-108480000D01*
X110909263Y-109029151D01*
X111220332Y-109494698D01*
X111602418Y-109750000D01*
X111220332Y-110005302D01*
X110909263Y-110470849D01*
X110800030Y-111020000D01*
X110909263Y-111569151D01*
X111220332Y-112034698D01*
X111685879Y-112345767D01*
X112235030Y-112455000D01*
X113004970Y-112455000D01*
X113554121Y-112345767D01*
X114019668Y-112034698D01*
X114330737Y-111569151D01*
X114439970Y-111020000D01*
X114330737Y-110470849D01*
X114019668Y-110005302D01*
X113637582Y-109750000D01*
X114019668Y-109494698D01*
X114330737Y-109029151D01*
X114439970Y-108480000D01*
X114330737Y-107930849D01*
X114019668Y-107465302D01*
X113637582Y-107210000D01*
X114019668Y-106954698D01*
X114330737Y-106489151D01*
X114439970Y-105940000D01*
X114330737Y-105390849D01*
X114019668Y-104925302D01*
X113637582Y-104670000D01*
X114019668Y-104414698D01*
X114330737Y-103949151D01*
X114439970Y-103400000D01*
X114330737Y-102850849D01*
X114019668Y-102385302D01*
X113637582Y-102130000D01*
X114019668Y-101874698D01*
X114330737Y-101409151D01*
X114439970Y-100860000D01*
X114333293Y-100323694D01*
X116365226Y-100323694D01*
X116613538Y-100924655D01*
X117072927Y-101384846D01*
X117673453Y-101634206D01*
X118323694Y-101634774D01*
X118924655Y-101386462D01*
X119384846Y-100927073D01*
X119634206Y-100326547D01*
X119634208Y-100323694D01*
X126525226Y-100323694D01*
X126773538Y-100924655D01*
X127232927Y-101384846D01*
X127833453Y-101634206D01*
X128483694Y-101634774D01*
X129084655Y-101386462D01*
X129544846Y-100927073D01*
X129794206Y-100326547D01*
X129794610Y-99863795D01*
X133364716Y-99863795D01*
X133613106Y-100464943D01*
X134072637Y-100925278D01*
X134673352Y-101174716D01*
X135323795Y-101175284D01*
X135924943Y-100926894D01*
X136385278Y-100467363D01*
X136634716Y-99866648D01*
X136635284Y-99216205D01*
X136386894Y-98615057D01*
X136324749Y-98552803D01*
X136359698Y-98538327D01*
X136538327Y-98359699D01*
X136635000Y-98126310D01*
X136635000Y-97285750D01*
X136476250Y-97127000D01*
X135127000Y-97127000D01*
X135127000Y-97147000D01*
X134873000Y-97147000D01*
X134873000Y-97127000D01*
X133523750Y-97127000D01*
X133365000Y-97285750D01*
X133365000Y-98126310D01*
X133461673Y-98359699D01*
X133640302Y-98538327D01*
X133674834Y-98552630D01*
X133614722Y-98612637D01*
X133365284Y-99213352D01*
X133364716Y-99863795D01*
X129794610Y-99863795D01*
X129794774Y-99676306D01*
X129546462Y-99075345D01*
X129087073Y-98615154D01*
X128486547Y-98365794D01*
X127836306Y-98365226D01*
X127235345Y-98613538D01*
X126775154Y-99072927D01*
X126525794Y-99673453D01*
X126525226Y-100323694D01*
X119634208Y-100323694D01*
X119634774Y-99676306D01*
X119386462Y-99075345D01*
X118927073Y-98615154D01*
X118326547Y-98365794D01*
X117676306Y-98365226D01*
X117075345Y-98613538D01*
X116615154Y-99072927D01*
X116365794Y-99673453D01*
X116365226Y-100323694D01*
X114333293Y-100323694D01*
X114330737Y-100310849D01*
X114019668Y-99845302D01*
X113637582Y-99590000D01*
X114019668Y-99334698D01*
X114330737Y-98869151D01*
X114439970Y-98320000D01*
X114330737Y-97770849D01*
X114019668Y-97305302D01*
X113637582Y-97050000D01*
X114019668Y-96794698D01*
X114330737Y-96329151D01*
X114421333Y-95873690D01*
X133365000Y-95873690D01*
X133365000Y-96714250D01*
X133523750Y-96873000D01*
X134873000Y-96873000D01*
X134873000Y-95523750D01*
X135127000Y-95523750D01*
X135127000Y-96873000D01*
X136476250Y-96873000D01*
X136635000Y-96714250D01*
X136635000Y-95873690D01*
X136538327Y-95640301D01*
X136359698Y-95461673D01*
X136126309Y-95365000D01*
X135285750Y-95365000D01*
X135127000Y-95523750D01*
X134873000Y-95523750D01*
X134714250Y-95365000D01*
X133873691Y-95365000D01*
X133640302Y-95461673D01*
X133461673Y-95640301D01*
X133365000Y-95873690D01*
X114421333Y-95873690D01*
X114439970Y-95780000D01*
X114330737Y-95230849D01*
X114019668Y-94765302D01*
X113637582Y-94510000D01*
X114019668Y-94254698D01*
X114330737Y-93789151D01*
X114439970Y-93240000D01*
X114330737Y-92690849D01*
X114019668Y-92225302D01*
X113637582Y-91970000D01*
X114019668Y-91714698D01*
X114280928Y-91323694D01*
X126365226Y-91323694D01*
X126613538Y-91924655D01*
X127072927Y-92384846D01*
X127673453Y-92634206D01*
X128323694Y-92634774D01*
X128924655Y-92386462D01*
X129384846Y-91927073D01*
X129634206Y-91326547D01*
X129634774Y-90676306D01*
X129386462Y-90075345D01*
X128927073Y-89615154D01*
X128326547Y-89365794D01*
X127676306Y-89365226D01*
X127075345Y-89613538D01*
X126615154Y-90072927D01*
X126365794Y-90673453D01*
X126365226Y-91323694D01*
X114280928Y-91323694D01*
X114330737Y-91249151D01*
X114439970Y-90700000D01*
X114330737Y-90150849D01*
X114019668Y-89685302D01*
X113637582Y-89430000D01*
X114019668Y-89174698D01*
X114330737Y-88709151D01*
X114439970Y-88160000D01*
X114330737Y-87610849D01*
X114019668Y-87145302D01*
X113637582Y-86890000D01*
X114019668Y-86634698D01*
X114330737Y-86169151D01*
X114439970Y-85620000D01*
X114330737Y-85070849D01*
X114019668Y-84605302D01*
X113637582Y-84350000D01*
X114019668Y-84094698D01*
X114330737Y-83629151D01*
X114439970Y-83080000D01*
X114330737Y-82530849D01*
X114019668Y-82065302D01*
X113637582Y-81810000D01*
X114019668Y-81554698D01*
X114280928Y-81163694D01*
X126365226Y-81163694D01*
X126613538Y-81764655D01*
X127072927Y-82224846D01*
X127673453Y-82474206D01*
X128323694Y-82474774D01*
X128924655Y-82226462D01*
X129384846Y-81767073D01*
X129634206Y-81166547D01*
X129634774Y-80516306D01*
X129386462Y-79915345D01*
X128927073Y-79455154D01*
X128326547Y-79205794D01*
X127676306Y-79205226D01*
X127075345Y-79453538D01*
X126615154Y-79912927D01*
X126365794Y-80513453D01*
X126365226Y-81163694D01*
X114280928Y-81163694D01*
X114330737Y-81089151D01*
X114439970Y-80540000D01*
X114330737Y-79990849D01*
X114019668Y-79525302D01*
X113637582Y-79270000D01*
X114019668Y-79014698D01*
X114330737Y-78549151D01*
X114439970Y-78000000D01*
X114330737Y-77450849D01*
X114019668Y-76985302D01*
X113554121Y-76674233D01*
X113004970Y-76565000D01*
X112235030Y-76565000D01*
X111685879Y-76674233D01*
X111220332Y-76985302D01*
X110909263Y-77450849D01*
X110800030Y-78000000D01*
X110909263Y-78549151D01*
X111220332Y-79014698D01*
X111602418Y-79270000D01*
X111220332Y-79525302D01*
X110909263Y-79990849D01*
X110800030Y-80540000D01*
X110909263Y-81089151D01*
X111220332Y-81554698D01*
X111602418Y-81810000D01*
X111220332Y-82065302D01*
X110909263Y-82530849D01*
X110800030Y-83080000D01*
X110909263Y-83629151D01*
X111220332Y-84094698D01*
X111602418Y-84350000D01*
X111220332Y-84605302D01*
X110909263Y-85070849D01*
X110800030Y-85620000D01*
X110909263Y-86169151D01*
X111220332Y-86634698D01*
X111602418Y-86890000D01*
X111220332Y-87145302D01*
X110909263Y-87610849D01*
X110800030Y-88160000D01*
X110909263Y-88709151D01*
X111220332Y-89174698D01*
X111602418Y-89430000D01*
X111220332Y-89685302D01*
X110909263Y-90150849D01*
X110800030Y-90700000D01*
X110909263Y-91249151D01*
X111220332Y-91714698D01*
X111602418Y-91970000D01*
X111220332Y-92225302D01*
X110909263Y-92690849D01*
X110836074Y-93058794D01*
X109029868Y-94865000D01*
X106466284Y-94865000D01*
X106399668Y-94765302D01*
X106017582Y-94510000D01*
X106399668Y-94254698D01*
X106710737Y-93789151D01*
X106819970Y-93240000D01*
X106710737Y-92690849D01*
X106399668Y-92225302D01*
X106017582Y-91970000D01*
X106399668Y-91714698D01*
X106710737Y-91249151D01*
X106819970Y-90700000D01*
X106710737Y-90150849D01*
X106399668Y-89685302D01*
X106017582Y-89430000D01*
X106399668Y-89174698D01*
X106710737Y-88709151D01*
X106819970Y-88160000D01*
X106710737Y-87610849D01*
X106399668Y-87145302D01*
X106017582Y-86890000D01*
X106399668Y-86634698D01*
X106486330Y-86505000D01*
X106649995Y-86505000D01*
X106650000Y-86505001D01*
X106932484Y-86448810D01*
X106988675Y-86437633D01*
X107275790Y-86245790D01*
X107625787Y-85895792D01*
X107625790Y-85895790D01*
X107817633Y-85608675D01*
X107828810Y-85552484D01*
X107885001Y-85270000D01*
X107885000Y-85269995D01*
X107885000Y-78366580D01*
X109927885Y-76323694D01*
X126365226Y-76323694D01*
X126613538Y-76924655D01*
X127072927Y-77384846D01*
X127673453Y-77634206D01*
X128323694Y-77634774D01*
X128924655Y-77386462D01*
X129384846Y-76927073D01*
X129634206Y-76326547D01*
X129634774Y-75676306D01*
X129386462Y-75075345D01*
X128927073Y-74615154D01*
X128326547Y-74365794D01*
X127676306Y-74365226D01*
X127075345Y-74613538D01*
X126615154Y-75072927D01*
X126365794Y-75673453D01*
X126365226Y-76323694D01*
X109927885Y-76323694D01*
X112325788Y-73925791D01*
X112325791Y-73925789D01*
X112408835Y-73842744D01*
X112528943Y-73793117D01*
X112792192Y-73530327D01*
X112934838Y-73186799D01*
X112935162Y-72814833D01*
X112793117Y-72471057D01*
X112530327Y-72207808D01*
X112186799Y-72065162D01*
X111814833Y-72064838D01*
X111471057Y-72206883D01*
X111207808Y-72469673D01*
X111157434Y-72590986D01*
X111074211Y-72674209D01*
X111074209Y-72674212D01*
X106545246Y-77203174D01*
X106399668Y-76985302D01*
X105934121Y-76674233D01*
X105384970Y-76565000D01*
X104615030Y-76565000D01*
X104065879Y-76674233D01*
X103600332Y-76985302D01*
X103289263Y-77450849D01*
X103180030Y-78000000D01*
X103289263Y-78549151D01*
X103600332Y-79014698D01*
X103982418Y-79270000D01*
X103600332Y-79525302D01*
X103289263Y-79990849D01*
X103180030Y-80540000D01*
X103289263Y-81089151D01*
X103600332Y-81554698D01*
X103982418Y-81810000D01*
X103600332Y-82065302D01*
X103289263Y-82530849D01*
X103180030Y-83080000D01*
X103289263Y-83629151D01*
X103600332Y-84094698D01*
X103982418Y-84350000D01*
X103600332Y-84605302D01*
X103289263Y-85070849D01*
X103180030Y-85620000D01*
X103289263Y-86169151D01*
X103600332Y-86634698D01*
X103982418Y-86890000D01*
X103600332Y-87145302D01*
X103289263Y-87610849D01*
X103180030Y-88160000D01*
X103289263Y-88709151D01*
X103600332Y-89174698D01*
X103982418Y-89430000D01*
X103600332Y-89685302D01*
X103289263Y-90150849D01*
X103180030Y-90700000D01*
X103289263Y-91249151D01*
X103600332Y-91714698D01*
X103982418Y-91970000D01*
X103600332Y-92225302D01*
X103289263Y-92690849D01*
X103180030Y-93240000D01*
X103204894Y-93365000D01*
X96000000Y-93365000D01*
X95565654Y-93451397D01*
X95197434Y-93697434D01*
X94951397Y-94065654D01*
X94865000Y-94500000D01*
X94865000Y-94529867D01*
X94634020Y-94760848D01*
X94273057Y-94909995D01*
X93911265Y-95271155D01*
X93715223Y-95743276D01*
X93714777Y-96254481D01*
X80685000Y-96254481D01*
X80685000Y-90521884D01*
X82364293Y-90521884D01*
X82764641Y-91490799D01*
X83505302Y-92232754D01*
X84473517Y-92634792D01*
X85521884Y-92635707D01*
X86490799Y-92235359D01*
X87232754Y-91494698D01*
X87634792Y-90526483D01*
X87635707Y-89478116D01*
X87235359Y-88509201D01*
X87050176Y-88323694D01*
X96365226Y-88323694D01*
X96613538Y-88924655D01*
X97072927Y-89384846D01*
X97673453Y-89634206D01*
X98323694Y-89634774D01*
X98924655Y-89386462D01*
X99384846Y-88927073D01*
X99634206Y-88326547D01*
X99634774Y-87676306D01*
X99386462Y-87075345D01*
X98927073Y-86615154D01*
X98326547Y-86365794D01*
X97676306Y-86365226D01*
X97075345Y-86613538D01*
X96615154Y-87072927D01*
X96365794Y-87673453D01*
X96365226Y-88323694D01*
X87050176Y-88323694D01*
X86494698Y-87767246D01*
X85526483Y-87365208D01*
X84478116Y-87364293D01*
X83509201Y-87764641D01*
X82767246Y-88505302D01*
X82365208Y-89473517D01*
X82364293Y-90521884D01*
X80685000Y-90521884D01*
X80685000Y-81715202D01*
X83304403Y-81715202D01*
X83525203Y-82085949D01*
X84496953Y-82479367D01*
X85545287Y-82470965D01*
X86474797Y-82085949D01*
X86695597Y-81715202D01*
X85000000Y-80019605D01*
X83304403Y-81715202D01*
X80685000Y-81715202D01*
X80685000Y-79336953D01*
X82360633Y-79336953D01*
X82369035Y-80385287D01*
X82754051Y-81314797D01*
X83124798Y-81535597D01*
X84820395Y-79840000D01*
X85179605Y-79840000D01*
X86875202Y-81535597D01*
X87245949Y-81314797D01*
X87639367Y-80343047D01*
X87630965Y-79294713D01*
X87505645Y-78992163D01*
X97027443Y-78992163D01*
X97126042Y-79258965D01*
X97735582Y-79485401D01*
X98385377Y-79461341D01*
X98873958Y-79258965D01*
X98972557Y-78992163D01*
X98000000Y-78019605D01*
X97027443Y-78992163D01*
X87505645Y-78992163D01*
X87245949Y-78365203D01*
X86875202Y-78144403D01*
X85179605Y-79840000D01*
X84820395Y-79840000D01*
X83124798Y-78144403D01*
X82754051Y-78365203D01*
X82360633Y-79336953D01*
X80685000Y-79336953D01*
X80685000Y-77964798D01*
X83304403Y-77964798D01*
X85000000Y-79660395D01*
X86695597Y-77964798D01*
X86474797Y-77594051D01*
X86429179Y-77575582D01*
X96354599Y-77575582D01*
X96378659Y-78225377D01*
X96581035Y-78713958D01*
X96847837Y-78812557D01*
X97820395Y-77840000D01*
X98179605Y-77840000D01*
X99152163Y-78812557D01*
X99418965Y-78713958D01*
X99645401Y-78104418D01*
X99621341Y-77454623D01*
X99418965Y-76966042D01*
X99152163Y-76867443D01*
X98179605Y-77840000D01*
X97820395Y-77840000D01*
X96847837Y-76867443D01*
X96581035Y-76966042D01*
X96354599Y-77575582D01*
X86429179Y-77575582D01*
X85503047Y-77200633D01*
X84454713Y-77209035D01*
X83525203Y-77594051D01*
X83304403Y-77964798D01*
X80685000Y-77964798D01*
X80685000Y-76687837D01*
X97027443Y-76687837D01*
X98000000Y-77660395D01*
X98972557Y-76687837D01*
X98873958Y-76421035D01*
X98264418Y-76194599D01*
X97614623Y-76218659D01*
X97126042Y-76421035D01*
X97027443Y-76687837D01*
X80685000Y-76687837D01*
X80685000Y-70521884D01*
X82364293Y-70521884D01*
X82764641Y-71490799D01*
X83505302Y-72232754D01*
X84473517Y-72634792D01*
X85521884Y-72635707D01*
X86490799Y-72235359D01*
X87232754Y-71494698D01*
X87634792Y-70526483D01*
X87634968Y-70323694D01*
X93365226Y-70323694D01*
X93613538Y-70924655D01*
X94072927Y-71384846D01*
X94673453Y-71634206D01*
X95323694Y-71634774D01*
X95924655Y-71386462D01*
X96384846Y-70927073D01*
X96634206Y-70326547D01*
X96634208Y-70323694D01*
X103525226Y-70323694D01*
X103773538Y-70924655D01*
X104232927Y-71384846D01*
X104833453Y-71634206D01*
X105483694Y-71634774D01*
X106084655Y-71386462D01*
X106544846Y-70927073D01*
X106794206Y-70326547D01*
X106794774Y-69676306D01*
X106546462Y-69075345D01*
X106087073Y-68615154D01*
X105486547Y-68365794D01*
X104836306Y-68365226D01*
X104235345Y-68613538D01*
X103775154Y-69072927D01*
X103525794Y-69673453D01*
X103525226Y-70323694D01*
X96634208Y-70323694D01*
X96634774Y-69676306D01*
X96386462Y-69075345D01*
X95927073Y-68615154D01*
X95326547Y-68365794D01*
X94676306Y-68365226D01*
X94075345Y-68613538D01*
X93615154Y-69072927D01*
X93365794Y-69673453D01*
X93365226Y-70323694D01*
X87634968Y-70323694D01*
X87635707Y-69478116D01*
X87235359Y-68509201D01*
X86494698Y-67767246D01*
X85526483Y-67365208D01*
X84478116Y-67364293D01*
X83509201Y-67764641D01*
X82767246Y-68505302D01*
X82365208Y-69473517D01*
X82364293Y-70521884D01*
X80685000Y-70521884D01*
X80685000Y-66163694D01*
X126365226Y-66163694D01*
X126613538Y-66764655D01*
X127072927Y-67224846D01*
X127673453Y-67474206D01*
X128323694Y-67474774D01*
X128924655Y-67226462D01*
X129384846Y-66767073D01*
X129634206Y-66166547D01*
X129634774Y-65516306D01*
X129386462Y-64915345D01*
X128927073Y-64455154D01*
X128326547Y-64205794D01*
X127676306Y-64205226D01*
X127075345Y-64453538D01*
X126615154Y-64912927D01*
X126365794Y-65513453D01*
X126365226Y-66163694D01*
X80685000Y-66163694D01*
X80685000Y-61715202D01*
X83304403Y-61715202D01*
X83525203Y-62085949D01*
X84496953Y-62479367D01*
X85545287Y-62470965D01*
X86474797Y-62085949D01*
X86695597Y-61715202D01*
X85000000Y-60019605D01*
X83304403Y-61715202D01*
X80685000Y-61715202D01*
X80685000Y-59336953D01*
X82360633Y-59336953D01*
X82369035Y-60385287D01*
X82754051Y-61314797D01*
X83124798Y-61535597D01*
X84820395Y-59840000D01*
X85179605Y-59840000D01*
X86875202Y-61535597D01*
X87245949Y-61314797D01*
X87639367Y-60343047D01*
X87639212Y-60323694D01*
X92365226Y-60323694D01*
X92613538Y-60924655D01*
X93072927Y-61384846D01*
X93673453Y-61634206D01*
X94323694Y-61634774D01*
X94924655Y-61386462D01*
X95159363Y-61152163D01*
X103187443Y-61152163D01*
X103286042Y-61418965D01*
X103895582Y-61645401D01*
X104545377Y-61621341D01*
X105033958Y-61418965D01*
X105132557Y-61152163D01*
X104160000Y-60179605D01*
X103187443Y-61152163D01*
X95159363Y-61152163D01*
X95384846Y-60927073D01*
X95634206Y-60326547D01*
X95634722Y-59735582D01*
X102514599Y-59735582D01*
X102538659Y-60385377D01*
X102741035Y-60873958D01*
X103007837Y-60972557D01*
X103980395Y-60000000D01*
X104339605Y-60000000D01*
X105312163Y-60972557D01*
X105578965Y-60873958D01*
X105783380Y-60323694D01*
X108205226Y-60323694D01*
X108453538Y-60924655D01*
X108912927Y-61384846D01*
X109513453Y-61634206D01*
X110163694Y-61634774D01*
X110764655Y-61386462D01*
X111224846Y-60927073D01*
X111474206Y-60326547D01*
X111474208Y-60323694D01*
X118365226Y-60323694D01*
X118613538Y-60924655D01*
X119072927Y-61384846D01*
X119673453Y-61634206D01*
X120323694Y-61634774D01*
X120924655Y-61386462D01*
X121384846Y-60927073D01*
X121634206Y-60326547D01*
X121634774Y-59676306D01*
X121386462Y-59075345D01*
X120927073Y-58615154D01*
X120326547Y-58365794D01*
X119676306Y-58365226D01*
X119075345Y-58613538D01*
X118615154Y-59072927D01*
X118365794Y-59673453D01*
X118365226Y-60323694D01*
X111474208Y-60323694D01*
X111474774Y-59676306D01*
X111226462Y-59075345D01*
X110767073Y-58615154D01*
X110166547Y-58365794D01*
X109516306Y-58365226D01*
X108915345Y-58613538D01*
X108455154Y-59072927D01*
X108205794Y-59673453D01*
X108205226Y-60323694D01*
X105783380Y-60323694D01*
X105805401Y-60264418D01*
X105781341Y-59614623D01*
X105578965Y-59126042D01*
X105312163Y-59027443D01*
X104339605Y-60000000D01*
X103980395Y-60000000D01*
X103007837Y-59027443D01*
X102741035Y-59126042D01*
X102514599Y-59735582D01*
X95634722Y-59735582D01*
X95634774Y-59676306D01*
X95386462Y-59075345D01*
X95159351Y-58847837D01*
X103187443Y-58847837D01*
X104160000Y-59820395D01*
X105132557Y-58847837D01*
X105033958Y-58581035D01*
X104424418Y-58354599D01*
X103774623Y-58378659D01*
X103286042Y-58581035D01*
X103187443Y-58847837D01*
X95159351Y-58847837D01*
X94927073Y-58615154D01*
X94326547Y-58365794D01*
X93676306Y-58365226D01*
X93075345Y-58613538D01*
X92615154Y-59072927D01*
X92365794Y-59673453D01*
X92365226Y-60323694D01*
X87639212Y-60323694D01*
X87630965Y-59294713D01*
X87245949Y-58365203D01*
X86875202Y-58144403D01*
X85179605Y-59840000D01*
X84820395Y-59840000D01*
X83124798Y-58144403D01*
X82754051Y-58365203D01*
X82360633Y-59336953D01*
X80685000Y-59336953D01*
X80685000Y-57964798D01*
X83304403Y-57964798D01*
X85000000Y-59660395D01*
X86695597Y-57964798D01*
X86474797Y-57594051D01*
X85503047Y-57200633D01*
X84454713Y-57209035D01*
X83525203Y-57594051D01*
X83304403Y-57964798D01*
X80685000Y-57964798D01*
X80685000Y-51472336D01*
X81614527Y-51472336D01*
X81976866Y-52349263D01*
X82647208Y-53020776D01*
X83523501Y-53384645D01*
X84472336Y-53385473D01*
X85349263Y-53023134D01*
X86020776Y-52352792D01*
X86182230Y-51963967D01*
X95574430Y-51963967D01*
X95574430Y-53036033D01*
X95679900Y-53566268D01*
X95980254Y-54015779D01*
X96429765Y-54316133D01*
X96960000Y-54421603D01*
X97490235Y-54316133D01*
X97939746Y-54015779D01*
X98230000Y-53581384D01*
X98520254Y-54015779D01*
X98969765Y-54316133D01*
X99500000Y-54421603D01*
X100030235Y-54316133D01*
X100479746Y-54015779D01*
X100780100Y-53566268D01*
X100781950Y-53556968D01*
X100808501Y-53646677D01*
X101150056Y-54068658D01*
X101627097Y-54327810D01*
X101698725Y-54341993D01*
X101913000Y-54219339D01*
X101913000Y-52627000D01*
X102167000Y-52627000D01*
X102167000Y-54219339D01*
X102381275Y-54341993D01*
X102452903Y-54327810D01*
X102929944Y-54068658D01*
X103271499Y-53646677D01*
X103425570Y-53126110D01*
X103425570Y-52627000D01*
X102167000Y-52627000D01*
X101913000Y-52627000D01*
X101893000Y-52627000D01*
X101893000Y-52463967D01*
X119074430Y-52463967D01*
X119074430Y-53536033D01*
X119179900Y-54066268D01*
X119480254Y-54515779D01*
X119929765Y-54816133D01*
X120460000Y-54921603D01*
X120990235Y-54816133D01*
X121439746Y-54515779D01*
X121740100Y-54066268D01*
X121741950Y-54056968D01*
X121768501Y-54146677D01*
X122110056Y-54568658D01*
X122587097Y-54827810D01*
X122658725Y-54841993D01*
X122873000Y-54719339D01*
X122873000Y-53127000D01*
X122853000Y-53127000D01*
X122853000Y-52873000D01*
X122873000Y-52873000D01*
X122873000Y-51280661D01*
X123127000Y-51280661D01*
X123127000Y-52873000D01*
X123147000Y-52873000D01*
X123147000Y-53127000D01*
X123127000Y-53127000D01*
X123127000Y-54719339D01*
X123341275Y-54841993D01*
X123412903Y-54827810D01*
X123889944Y-54568658D01*
X124231499Y-54146677D01*
X124258050Y-54056968D01*
X124259900Y-54066268D01*
X124560254Y-54515779D01*
X125009765Y-54816133D01*
X125540000Y-54921603D01*
X126070235Y-54816133D01*
X126519746Y-54515779D01*
X126820100Y-54066268D01*
X126925570Y-53536033D01*
X126925570Y-52463967D01*
X126820100Y-51933732D01*
X126519746Y-51484221D01*
X126070235Y-51183867D01*
X125540000Y-51078397D01*
X125009765Y-51183867D01*
X124560254Y-51484221D01*
X124259900Y-51933732D01*
X124258050Y-51943032D01*
X124231499Y-51853323D01*
X123889944Y-51431342D01*
X123412903Y-51172190D01*
X123341275Y-51158007D01*
X123127000Y-51280661D01*
X122873000Y-51280661D01*
X122658725Y-51158007D01*
X122587097Y-51172190D01*
X122110056Y-51431342D01*
X121768501Y-51853323D01*
X121741950Y-51943032D01*
X121740100Y-51933732D01*
X121439746Y-51484221D01*
X120990235Y-51183867D01*
X120460000Y-51078397D01*
X119929765Y-51183867D01*
X119480254Y-51484221D01*
X119179900Y-51933732D01*
X119074430Y-52463967D01*
X101893000Y-52463967D01*
X101893000Y-52373000D01*
X101913000Y-52373000D01*
X101913000Y-50780661D01*
X102167000Y-50780661D01*
X102167000Y-52373000D01*
X103425570Y-52373000D01*
X103425570Y-51873890D01*
X103271499Y-51353323D01*
X102929944Y-50931342D01*
X102452903Y-50672190D01*
X102381275Y-50658007D01*
X102167000Y-50780661D01*
X101913000Y-50780661D01*
X101698725Y-50658007D01*
X101627097Y-50672190D01*
X101150056Y-50931342D01*
X100808501Y-51353323D01*
X100781950Y-51443032D01*
X100780100Y-51433732D01*
X100479746Y-50984221D01*
X100030235Y-50683867D01*
X99500000Y-50578397D01*
X98969765Y-50683867D01*
X98520254Y-50984221D01*
X98230000Y-51418616D01*
X97939746Y-50984221D01*
X97490235Y-50683867D01*
X96960000Y-50578397D01*
X96429765Y-50683867D01*
X95980254Y-50984221D01*
X95679900Y-51433732D01*
X95574430Y-51963967D01*
X86182230Y-51963967D01*
X86384645Y-51476499D01*
X86385473Y-50527664D01*
X86023134Y-49650737D01*
X85352792Y-48979224D01*
X84476499Y-48615355D01*
X83527664Y-48614527D01*
X82650737Y-48976866D01*
X81979224Y-49647208D01*
X81615355Y-50523501D01*
X81614527Y-51472336D01*
X80685000Y-51472336D01*
X80685000Y-44521884D01*
X83364293Y-44521884D01*
X83764641Y-45490799D01*
X84505302Y-46232754D01*
X85473517Y-46634792D01*
X86521884Y-46635707D01*
X87490799Y-46235359D01*
X88232754Y-45494698D01*
X88634792Y-44526483D01*
X88634796Y-44521884D01*
X93524293Y-44521884D01*
X93924641Y-45490799D01*
X94665302Y-46232754D01*
X95633517Y-46634792D01*
X96681884Y-46635707D01*
X97650799Y-46235359D01*
X98392754Y-45494698D01*
X98794792Y-44526483D01*
X98794796Y-44521884D01*
X102364293Y-44521884D01*
X102764641Y-45490799D01*
X103505302Y-46232754D01*
X104473517Y-46634792D01*
X105521884Y-46635707D01*
X106490799Y-46235359D01*
X106851585Y-45875202D01*
X113464403Y-45875202D01*
X113685203Y-46245949D01*
X114656953Y-46639367D01*
X115705287Y-46630965D01*
X116634797Y-46245949D01*
X116855597Y-45875202D01*
X115160000Y-44179605D01*
X113464403Y-45875202D01*
X106851585Y-45875202D01*
X107232754Y-45494698D01*
X107634792Y-44526483D01*
X107635690Y-43496953D01*
X112520633Y-43496953D01*
X112529035Y-44545287D01*
X112914051Y-45474797D01*
X113284798Y-45695597D01*
X114980395Y-44000000D01*
X115339605Y-44000000D01*
X117035202Y-45695597D01*
X117405949Y-45474797D01*
X117791740Y-44521884D01*
X122364293Y-44521884D01*
X122764641Y-45490799D01*
X123505302Y-46232754D01*
X124473517Y-46634792D01*
X125521884Y-46635707D01*
X126490799Y-46235359D01*
X127232754Y-45494698D01*
X127634792Y-44526483D01*
X127634796Y-44521884D01*
X132524293Y-44521884D01*
X132924641Y-45490799D01*
X133665302Y-46232754D01*
X134633517Y-46634792D01*
X135681884Y-46635707D01*
X136650799Y-46235359D01*
X137392754Y-45494698D01*
X137794792Y-44526483D01*
X137795707Y-43478116D01*
X137395359Y-42509201D01*
X136654698Y-41767246D01*
X135686483Y-41365208D01*
X134638116Y-41364293D01*
X133669201Y-41764641D01*
X132927246Y-42505302D01*
X132525208Y-43473517D01*
X132524293Y-44521884D01*
X127634796Y-44521884D01*
X127635707Y-43478116D01*
X127235359Y-42509201D01*
X126494698Y-41767246D01*
X125526483Y-41365208D01*
X124478116Y-41364293D01*
X123509201Y-41764641D01*
X122767246Y-42505302D01*
X122365208Y-43473517D01*
X122364293Y-44521884D01*
X117791740Y-44521884D01*
X117799367Y-44503047D01*
X117790965Y-43454713D01*
X117405949Y-42525203D01*
X117035202Y-42304403D01*
X115339605Y-44000000D01*
X114980395Y-44000000D01*
X113284798Y-42304403D01*
X112914051Y-42525203D01*
X112520633Y-43496953D01*
X107635690Y-43496953D01*
X107635707Y-43478116D01*
X107235359Y-42509201D01*
X106851627Y-42124798D01*
X113464403Y-42124798D01*
X115160000Y-43820395D01*
X116855597Y-42124798D01*
X116634797Y-41754051D01*
X115663047Y-41360633D01*
X114614713Y-41369035D01*
X113685203Y-41754051D01*
X113464403Y-42124798D01*
X106851627Y-42124798D01*
X106494698Y-41767246D01*
X105526483Y-41365208D01*
X104478116Y-41364293D01*
X103509201Y-41764641D01*
X102767246Y-42505302D01*
X102365208Y-43473517D01*
X102364293Y-44521884D01*
X98794796Y-44521884D01*
X98795707Y-43478116D01*
X98395359Y-42509201D01*
X97654698Y-41767246D01*
X96686483Y-41365208D01*
X95638116Y-41364293D01*
X94669201Y-41764641D01*
X93927246Y-42505302D01*
X93525208Y-43473517D01*
X93524293Y-44521884D01*
X88634796Y-44521884D01*
X88635707Y-43478116D01*
X88235359Y-42509201D01*
X87494698Y-41767246D01*
X86526483Y-41365208D01*
X85478116Y-41364293D01*
X84509201Y-41764641D01*
X83767246Y-42505302D01*
X83365208Y-43473517D01*
X83364293Y-44521884D01*
X80685000Y-44521884D01*
X80685000Y-39185000D01*
X139315000Y-39185000D01*
X139315000Y-119315000D01*
X139315000Y-119315000D01*
G37*
X139315000Y-119315000D02*
X80685000Y-119315000D01*
X80685000Y-114350000D01*
X94702560Y-114350000D01*
X94702560Y-115650000D01*
X94746838Y-115885317D01*
X94885910Y-116101441D01*
X95098110Y-116246431D01*
X95350000Y-116297440D01*
X96650000Y-116297440D01*
X96885317Y-116253162D01*
X97101441Y-116114090D01*
X97246431Y-115901890D01*
X97297440Y-115650000D01*
X97297440Y-115454540D01*
X97409995Y-115726943D01*
X97771155Y-116088735D01*
X98243276Y-116284777D01*
X98754481Y-116285223D01*
X99226943Y-116090005D01*
X99588735Y-115728845D01*
X99784777Y-115256724D01*
X99785223Y-114745519D01*
X99590005Y-114273057D01*
X99228845Y-113911265D01*
X98756724Y-113715223D01*
X98245519Y-113714777D01*
X97773057Y-113909995D01*
X97411265Y-114271155D01*
X97297440Y-114545276D01*
X97297440Y-114350000D01*
X97253162Y-114114683D01*
X97114090Y-113898559D01*
X96901890Y-113753569D01*
X96650000Y-113702560D01*
X95350000Y-113702560D01*
X95114683Y-113746838D01*
X94898559Y-113885910D01*
X94753569Y-114098110D01*
X94702560Y-114350000D01*
X80685000Y-114350000D01*
X80685000Y-107715338D01*
X95614190Y-107715338D01*
X95824686Y-108224777D01*
X96214113Y-108614884D01*
X96723184Y-108826269D01*
X97274398Y-108826750D01*
X97783837Y-108616254D01*
X98173944Y-108226827D01*
X98385329Y-107717756D01*
X98385810Y-107166542D01*
X98175314Y-106657103D01*
X97785887Y-106266996D01*
X97276816Y-106055611D01*
X96725602Y-106055130D01*
X96216163Y-106265626D01*
X95826056Y-106655053D01*
X95614671Y-107164124D01*
X95614190Y-107715338D01*
X80685000Y-107715338D01*
X80685000Y-102833458D01*
X95614190Y-102833458D01*
X95824686Y-103342897D01*
X96214113Y-103733004D01*
X96723184Y-103944389D01*
X97274398Y-103944870D01*
X97783837Y-103734374D01*
X98173944Y-103344947D01*
X98385329Y-102835876D01*
X98385810Y-102284662D01*
X98175314Y-101775223D01*
X97785887Y-101385116D01*
X97276816Y-101173731D01*
X96725602Y-101173250D01*
X96216163Y-101383746D01*
X95826056Y-101773173D01*
X95614671Y-102282244D01*
X95614190Y-102833458D01*
X80685000Y-102833458D01*
X80685000Y-96254481D01*
X93714777Y-96254481D01*
X93909995Y-96726943D01*
X94271155Y-97088735D01*
X94743276Y-97284777D01*
X95254481Y-97285223D01*
X95726943Y-97090005D01*
X96088735Y-96728845D01*
X96202560Y-96454724D01*
X96202560Y-96650000D01*
X96246838Y-96885317D01*
X96385910Y-97101441D01*
X96598110Y-97246431D01*
X96850000Y-97297440D01*
X98150000Y-97297440D01*
X98385317Y-97253162D01*
X98601441Y-97114090D01*
X98746431Y-96901890D01*
X98797440Y-96650000D01*
X98797440Y-95635000D01*
X103029868Y-95635000D01*
X103181312Y-95786444D01*
X103289263Y-96329151D01*
X103600332Y-96794698D01*
X103982418Y-97050000D01*
X103600332Y-97305302D01*
X103289263Y-97770849D01*
X103180030Y-98320000D01*
X103289263Y-98869151D01*
X103600332Y-99334698D01*
X103982418Y-99590000D01*
X103600332Y-99845302D01*
X103289263Y-100310849D01*
X103180030Y-100860000D01*
X103289263Y-101409151D01*
X103600332Y-101874698D01*
X103982418Y-102130000D01*
X103600332Y-102385302D01*
X103289263Y-102850849D01*
X103180030Y-103400000D01*
X103289263Y-103949151D01*
X103600332Y-104414698D01*
X103982418Y-104670000D01*
X103600332Y-104925302D01*
X103289263Y-105390849D01*
X103180030Y-105940000D01*
X103289263Y-106489151D01*
X103600332Y-106954698D01*
X103982418Y-107210000D01*
X103600332Y-107465302D01*
X103289263Y-107930849D01*
X103180030Y-108480000D01*
X103289263Y-109029151D01*
X103600332Y-109494698D01*
X103982418Y-109750000D01*
X103600332Y-110005302D01*
X103289263Y-110470849D01*
X103180030Y-111020000D01*
X103289263Y-111569151D01*
X103600332Y-112034698D01*
X104065879Y-112345767D01*
X104615030Y-112455000D01*
X105384970Y-112455000D01*
X105934121Y-112345767D01*
X106399668Y-112034698D01*
X106710737Y-111569151D01*
X106819970Y-111020000D01*
X106710737Y-110470849D01*
X106399668Y-110005302D01*
X106017582Y-109750000D01*
X106399668Y-109494698D01*
X106710737Y-109029151D01*
X106819970Y-108480000D01*
X106710737Y-107930849D01*
X106399668Y-107465302D01*
X106017582Y-107210000D01*
X106399668Y-106954698D01*
X106710737Y-106489151D01*
X106819970Y-105940000D01*
X106710737Y-105390849D01*
X106399668Y-104925302D01*
X106017582Y-104670000D01*
X106399668Y-104414698D01*
X106710737Y-103949151D01*
X106819970Y-103400000D01*
X106710737Y-102850849D01*
X106399668Y-102385302D01*
X106017582Y-102130000D01*
X106399668Y-101874698D01*
X106710737Y-101409151D01*
X106819970Y-100860000D01*
X106710737Y-100310849D01*
X106399668Y-99845302D01*
X106017582Y-99590000D01*
X106399668Y-99334698D01*
X106710737Y-98869151D01*
X106819970Y-98320000D01*
X106710737Y-97770849D01*
X106399668Y-97305302D01*
X106144793Y-97135000D01*
X109500000Y-97135000D01*
X109934346Y-97048603D01*
X110302566Y-96802566D01*
X110887150Y-96217982D01*
X110909263Y-96329151D01*
X111220332Y-96794698D01*
X111602418Y-97050000D01*
X111220332Y-97305302D01*
X110909263Y-97770849D01*
X110800030Y-98320000D01*
X110909263Y-98869151D01*
X111220332Y-99334698D01*
X111602418Y-99590000D01*
X111220332Y-99845302D01*
X110909263Y-100310849D01*
X110800030Y-100860000D01*
X110909263Y-101409151D01*
X111220332Y-101874698D01*
X111602418Y-102130000D01*
X111220332Y-102385302D01*
X110909263Y-102850849D01*
X110800030Y-103400000D01*
X110909263Y-103949151D01*
X111220332Y-104414698D01*
X111602418Y-104670000D01*
X111220332Y-104925302D01*
X110909263Y-105390849D01*
X110800030Y-105940000D01*
X110909263Y-106489151D01*
X111220332Y-106954698D01*
X111602418Y-107210000D01*
X111220332Y-107465302D01*
X110909263Y-107930849D01*
X110800030Y-108480000D01*
X110909263Y-109029151D01*
X111220332Y-109494698D01*
X111602418Y-109750000D01*
X111220332Y-110005302D01*
X110909263Y-110470849D01*
X110800030Y-111020000D01*
X110909263Y-111569151D01*
X111220332Y-112034698D01*
X111685879Y-112345767D01*
X112235030Y-112455000D01*
X113004970Y-112455000D01*
X113554121Y-112345767D01*
X114019668Y-112034698D01*
X114330737Y-111569151D01*
X114439970Y-111020000D01*
X114330737Y-110470849D01*
X114019668Y-110005302D01*
X113637582Y-109750000D01*
X114019668Y-109494698D01*
X114330737Y-109029151D01*
X114439970Y-108480000D01*
X114330737Y-107930849D01*
X114019668Y-107465302D01*
X113637582Y-107210000D01*
X114019668Y-106954698D01*
X114330737Y-106489151D01*
X114439970Y-105940000D01*
X114330737Y-105390849D01*
X114019668Y-104925302D01*
X113637582Y-104670000D01*
X114019668Y-104414698D01*
X114330737Y-103949151D01*
X114439970Y-103400000D01*
X114330737Y-102850849D01*
X114019668Y-102385302D01*
X113637582Y-102130000D01*
X114019668Y-101874698D01*
X114330737Y-101409151D01*
X114439970Y-100860000D01*
X114333293Y-100323694D01*
X116365226Y-100323694D01*
X116613538Y-100924655D01*
X117072927Y-101384846D01*
X117673453Y-101634206D01*
X118323694Y-101634774D01*
X118924655Y-101386462D01*
X119384846Y-100927073D01*
X119634206Y-100326547D01*
X119634208Y-100323694D01*
X126525226Y-100323694D01*
X126773538Y-100924655D01*
X127232927Y-101384846D01*
X127833453Y-101634206D01*
X128483694Y-101634774D01*
X129084655Y-101386462D01*
X129544846Y-100927073D01*
X129794206Y-100326547D01*
X129794610Y-99863795D01*
X133364716Y-99863795D01*
X133613106Y-100464943D01*
X134072637Y-100925278D01*
X134673352Y-101174716D01*
X135323795Y-101175284D01*
X135924943Y-100926894D01*
X136385278Y-100467363D01*
X136634716Y-99866648D01*
X136635284Y-99216205D01*
X136386894Y-98615057D01*
X136324749Y-98552803D01*
X136359698Y-98538327D01*
X136538327Y-98359699D01*
X136635000Y-98126310D01*
X136635000Y-97285750D01*
X136476250Y-97127000D01*
X135127000Y-97127000D01*
X135127000Y-97147000D01*
X134873000Y-97147000D01*
X134873000Y-97127000D01*
X133523750Y-97127000D01*
X133365000Y-97285750D01*
X133365000Y-98126310D01*
X133461673Y-98359699D01*
X133640302Y-98538327D01*
X133674834Y-98552630D01*
X133614722Y-98612637D01*
X133365284Y-99213352D01*
X133364716Y-99863795D01*
X129794610Y-99863795D01*
X129794774Y-99676306D01*
X129546462Y-99075345D01*
X129087073Y-98615154D01*
X128486547Y-98365794D01*
X127836306Y-98365226D01*
X127235345Y-98613538D01*
X126775154Y-99072927D01*
X126525794Y-99673453D01*
X126525226Y-100323694D01*
X119634208Y-100323694D01*
X119634774Y-99676306D01*
X119386462Y-99075345D01*
X118927073Y-98615154D01*
X118326547Y-98365794D01*
X117676306Y-98365226D01*
X117075345Y-98613538D01*
X116615154Y-99072927D01*
X116365794Y-99673453D01*
X116365226Y-100323694D01*
X114333293Y-100323694D01*
X114330737Y-100310849D01*
X114019668Y-99845302D01*
X113637582Y-99590000D01*
X114019668Y-99334698D01*
X114330737Y-98869151D01*
X114439970Y-98320000D01*
X114330737Y-97770849D01*
X114019668Y-97305302D01*
X113637582Y-97050000D01*
X114019668Y-96794698D01*
X114330737Y-96329151D01*
X114421333Y-95873690D01*
X133365000Y-95873690D01*
X133365000Y-96714250D01*
X133523750Y-96873000D01*
X134873000Y-96873000D01*
X134873000Y-95523750D01*
X135127000Y-95523750D01*
X135127000Y-96873000D01*
X136476250Y-96873000D01*
X136635000Y-96714250D01*
X136635000Y-95873690D01*
X136538327Y-95640301D01*
X136359698Y-95461673D01*
X136126309Y-95365000D01*
X135285750Y-95365000D01*
X135127000Y-95523750D01*
X134873000Y-95523750D01*
X134714250Y-95365000D01*
X133873691Y-95365000D01*
X133640302Y-95461673D01*
X133461673Y-95640301D01*
X133365000Y-95873690D01*
X114421333Y-95873690D01*
X114439970Y-95780000D01*
X114330737Y-95230849D01*
X114019668Y-94765302D01*
X113637582Y-94510000D01*
X114019668Y-94254698D01*
X114330737Y-93789151D01*
X114439970Y-93240000D01*
X114330737Y-92690849D01*
X114019668Y-92225302D01*
X113637582Y-91970000D01*
X114019668Y-91714698D01*
X114280928Y-91323694D01*
X126365226Y-91323694D01*
X126613538Y-91924655D01*
X127072927Y-92384846D01*
X127673453Y-92634206D01*
X128323694Y-92634774D01*
X128924655Y-92386462D01*
X129384846Y-91927073D01*
X129634206Y-91326547D01*
X129634774Y-90676306D01*
X129386462Y-90075345D01*
X128927073Y-89615154D01*
X128326547Y-89365794D01*
X127676306Y-89365226D01*
X127075345Y-89613538D01*
X126615154Y-90072927D01*
X126365794Y-90673453D01*
X126365226Y-91323694D01*
X114280928Y-91323694D01*
X114330737Y-91249151D01*
X114439970Y-90700000D01*
X114330737Y-90150849D01*
X114019668Y-89685302D01*
X113637582Y-89430000D01*
X114019668Y-89174698D01*
X114330737Y-88709151D01*
X114439970Y-88160000D01*
X114330737Y-87610849D01*
X114019668Y-87145302D01*
X113637582Y-86890000D01*
X114019668Y-86634698D01*
X114330737Y-86169151D01*
X114439970Y-85620000D01*
X114330737Y-85070849D01*
X114019668Y-84605302D01*
X113637582Y-84350000D01*
X114019668Y-84094698D01*
X114330737Y-83629151D01*
X114439970Y-83080000D01*
X114330737Y-82530849D01*
X114019668Y-82065302D01*
X113637582Y-81810000D01*
X114019668Y-81554698D01*
X114280928Y-81163694D01*
X126365226Y-81163694D01*
X126613538Y-81764655D01*
X127072927Y-82224846D01*
X127673453Y-82474206D01*
X128323694Y-82474774D01*
X128924655Y-82226462D01*
X129384846Y-81767073D01*
X129634206Y-81166547D01*
X129634774Y-80516306D01*
X129386462Y-79915345D01*
X128927073Y-79455154D01*
X128326547Y-79205794D01*
X127676306Y-79205226D01*
X127075345Y-79453538D01*
X126615154Y-79912927D01*
X126365794Y-80513453D01*
X126365226Y-81163694D01*
X114280928Y-81163694D01*
X114330737Y-81089151D01*
X114439970Y-80540000D01*
X114330737Y-79990849D01*
X114019668Y-79525302D01*
X113637582Y-79270000D01*
X114019668Y-79014698D01*
X114330737Y-78549151D01*
X114439970Y-78000000D01*
X114330737Y-77450849D01*
X114019668Y-76985302D01*
X113554121Y-76674233D01*
X113004970Y-76565000D01*
X112235030Y-76565000D01*
X111685879Y-76674233D01*
X111220332Y-76985302D01*
X110909263Y-77450849D01*
X110800030Y-78000000D01*
X110909263Y-78549151D01*
X111220332Y-79014698D01*
X111602418Y-79270000D01*
X111220332Y-79525302D01*
X110909263Y-79990849D01*
X110800030Y-80540000D01*
X110909263Y-81089151D01*
X111220332Y-81554698D01*
X111602418Y-81810000D01*
X111220332Y-82065302D01*
X110909263Y-82530849D01*
X110800030Y-83080000D01*
X110909263Y-83629151D01*
X111220332Y-84094698D01*
X111602418Y-84350000D01*
X111220332Y-84605302D01*
X110909263Y-85070849D01*
X110800030Y-85620000D01*
X110909263Y-86169151D01*
X111220332Y-86634698D01*
X111602418Y-86890000D01*
X111220332Y-87145302D01*
X110909263Y-87610849D01*
X110800030Y-88160000D01*
X110909263Y-88709151D01*
X111220332Y-89174698D01*
X111602418Y-89430000D01*
X111220332Y-89685302D01*
X110909263Y-90150849D01*
X110800030Y-90700000D01*
X110909263Y-91249151D01*
X111220332Y-91714698D01*
X111602418Y-91970000D01*
X111220332Y-92225302D01*
X110909263Y-92690849D01*
X110836074Y-93058794D01*
X109029868Y-94865000D01*
X106466284Y-94865000D01*
X106399668Y-94765302D01*
X106017582Y-94510000D01*
X106399668Y-94254698D01*
X106710737Y-93789151D01*
X106819970Y-93240000D01*
X106710737Y-92690849D01*
X106399668Y-92225302D01*
X106017582Y-91970000D01*
X106399668Y-91714698D01*
X106710737Y-91249151D01*
X106819970Y-90700000D01*
X106710737Y-90150849D01*
X106399668Y-89685302D01*
X106017582Y-89430000D01*
X106399668Y-89174698D01*
X106710737Y-88709151D01*
X106819970Y-88160000D01*
X106710737Y-87610849D01*
X106399668Y-87145302D01*
X106017582Y-86890000D01*
X106399668Y-86634698D01*
X106486330Y-86505000D01*
X106649995Y-86505000D01*
X106650000Y-86505001D01*
X106932484Y-86448810D01*
X106988675Y-86437633D01*
X107275790Y-86245790D01*
X107625787Y-85895792D01*
X107625790Y-85895790D01*
X107817633Y-85608675D01*
X107828810Y-85552484D01*
X107885001Y-85270000D01*
X107885000Y-85269995D01*
X107885000Y-78366580D01*
X109927885Y-76323694D01*
X126365226Y-76323694D01*
X126613538Y-76924655D01*
X127072927Y-77384846D01*
X127673453Y-77634206D01*
X128323694Y-77634774D01*
X128924655Y-77386462D01*
X129384846Y-76927073D01*
X129634206Y-76326547D01*
X129634774Y-75676306D01*
X129386462Y-75075345D01*
X128927073Y-74615154D01*
X128326547Y-74365794D01*
X127676306Y-74365226D01*
X127075345Y-74613538D01*
X126615154Y-75072927D01*
X126365794Y-75673453D01*
X126365226Y-76323694D01*
X109927885Y-76323694D01*
X112325788Y-73925791D01*
X112325791Y-73925789D01*
X112408835Y-73842744D01*
X112528943Y-73793117D01*
X112792192Y-73530327D01*
X112934838Y-73186799D01*
X112935162Y-72814833D01*
X112793117Y-72471057D01*
X112530327Y-72207808D01*
X112186799Y-72065162D01*
X111814833Y-72064838D01*
X111471057Y-72206883D01*
X111207808Y-72469673D01*
X111157434Y-72590986D01*
X111074211Y-72674209D01*
X111074209Y-72674212D01*
X106545246Y-77203174D01*
X106399668Y-76985302D01*
X105934121Y-76674233D01*
X105384970Y-76565000D01*
X104615030Y-76565000D01*
X104065879Y-76674233D01*
X103600332Y-76985302D01*
X103289263Y-77450849D01*
X103180030Y-78000000D01*
X103289263Y-78549151D01*
X103600332Y-79014698D01*
X103982418Y-79270000D01*
X103600332Y-79525302D01*
X103289263Y-79990849D01*
X103180030Y-80540000D01*
X103289263Y-81089151D01*
X103600332Y-81554698D01*
X103982418Y-81810000D01*
X103600332Y-82065302D01*
X103289263Y-82530849D01*
X103180030Y-83080000D01*
X103289263Y-83629151D01*
X103600332Y-84094698D01*
X103982418Y-84350000D01*
X103600332Y-84605302D01*
X103289263Y-85070849D01*
X103180030Y-85620000D01*
X103289263Y-86169151D01*
X103600332Y-86634698D01*
X103982418Y-86890000D01*
X103600332Y-87145302D01*
X103289263Y-87610849D01*
X103180030Y-88160000D01*
X103289263Y-88709151D01*
X103600332Y-89174698D01*
X103982418Y-89430000D01*
X103600332Y-89685302D01*
X103289263Y-90150849D01*
X103180030Y-90700000D01*
X103289263Y-91249151D01*
X103600332Y-91714698D01*
X103982418Y-91970000D01*
X103600332Y-92225302D01*
X103289263Y-92690849D01*
X103180030Y-93240000D01*
X103204894Y-93365000D01*
X96000000Y-93365000D01*
X95565654Y-93451397D01*
X95197434Y-93697434D01*
X94951397Y-94065654D01*
X94865000Y-94500000D01*
X94865000Y-94529867D01*
X94634020Y-94760848D01*
X94273057Y-94909995D01*
X93911265Y-95271155D01*
X93715223Y-95743276D01*
X93714777Y-96254481D01*
X80685000Y-96254481D01*
X80685000Y-90521884D01*
X82364293Y-90521884D01*
X82764641Y-91490799D01*
X83505302Y-92232754D01*
X84473517Y-92634792D01*
X85521884Y-92635707D01*
X86490799Y-92235359D01*
X87232754Y-91494698D01*
X87634792Y-90526483D01*
X87635707Y-89478116D01*
X87235359Y-88509201D01*
X87050176Y-88323694D01*
X96365226Y-88323694D01*
X96613538Y-88924655D01*
X97072927Y-89384846D01*
X97673453Y-89634206D01*
X98323694Y-89634774D01*
X98924655Y-89386462D01*
X99384846Y-88927073D01*
X99634206Y-88326547D01*
X99634774Y-87676306D01*
X99386462Y-87075345D01*
X98927073Y-86615154D01*
X98326547Y-86365794D01*
X97676306Y-86365226D01*
X97075345Y-86613538D01*
X96615154Y-87072927D01*
X96365794Y-87673453D01*
X96365226Y-88323694D01*
X87050176Y-88323694D01*
X86494698Y-87767246D01*
X85526483Y-87365208D01*
X84478116Y-87364293D01*
X83509201Y-87764641D01*
X82767246Y-88505302D01*
X82365208Y-89473517D01*
X82364293Y-90521884D01*
X80685000Y-90521884D01*
X80685000Y-81715202D01*
X83304403Y-81715202D01*
X83525203Y-82085949D01*
X84496953Y-82479367D01*
X85545287Y-82470965D01*
X86474797Y-82085949D01*
X86695597Y-81715202D01*
X85000000Y-80019605D01*
X83304403Y-81715202D01*
X80685000Y-81715202D01*
X80685000Y-79336953D01*
X82360633Y-79336953D01*
X82369035Y-80385287D01*
X82754051Y-81314797D01*
X83124798Y-81535597D01*
X84820395Y-79840000D01*
X85179605Y-79840000D01*
X86875202Y-81535597D01*
X87245949Y-81314797D01*
X87639367Y-80343047D01*
X87630965Y-79294713D01*
X87505645Y-78992163D01*
X97027443Y-78992163D01*
X97126042Y-79258965D01*
X97735582Y-79485401D01*
X98385377Y-79461341D01*
X98873958Y-79258965D01*
X98972557Y-78992163D01*
X98000000Y-78019605D01*
X97027443Y-78992163D01*
X87505645Y-78992163D01*
X87245949Y-78365203D01*
X86875202Y-78144403D01*
X85179605Y-79840000D01*
X84820395Y-79840000D01*
X83124798Y-78144403D01*
X82754051Y-78365203D01*
X82360633Y-79336953D01*
X80685000Y-79336953D01*
X80685000Y-77964798D01*
X83304403Y-77964798D01*
X85000000Y-79660395D01*
X86695597Y-77964798D01*
X86474797Y-77594051D01*
X86429179Y-77575582D01*
X96354599Y-77575582D01*
X96378659Y-78225377D01*
X96581035Y-78713958D01*
X96847837Y-78812557D01*
X97820395Y-77840000D01*
X98179605Y-77840000D01*
X99152163Y-78812557D01*
X99418965Y-78713958D01*
X99645401Y-78104418D01*
X99621341Y-77454623D01*
X99418965Y-76966042D01*
X99152163Y-76867443D01*
X98179605Y-77840000D01*
X97820395Y-77840000D01*
X96847837Y-76867443D01*
X96581035Y-76966042D01*
X96354599Y-77575582D01*
X86429179Y-77575582D01*
X85503047Y-77200633D01*
X84454713Y-77209035D01*
X83525203Y-77594051D01*
X83304403Y-77964798D01*
X80685000Y-77964798D01*
X80685000Y-76687837D01*
X97027443Y-76687837D01*
X98000000Y-77660395D01*
X98972557Y-76687837D01*
X98873958Y-76421035D01*
X98264418Y-76194599D01*
X97614623Y-76218659D01*
X97126042Y-76421035D01*
X97027443Y-76687837D01*
X80685000Y-76687837D01*
X80685000Y-70521884D01*
X82364293Y-70521884D01*
X82764641Y-71490799D01*
X83505302Y-72232754D01*
X84473517Y-72634792D01*
X85521884Y-72635707D01*
X86490799Y-72235359D01*
X87232754Y-71494698D01*
X87634792Y-70526483D01*
X87634968Y-70323694D01*
X93365226Y-70323694D01*
X93613538Y-70924655D01*
X94072927Y-71384846D01*
X94673453Y-71634206D01*
X95323694Y-71634774D01*
X95924655Y-71386462D01*
X96384846Y-70927073D01*
X96634206Y-70326547D01*
X96634208Y-70323694D01*
X103525226Y-70323694D01*
X103773538Y-70924655D01*
X104232927Y-71384846D01*
X104833453Y-71634206D01*
X105483694Y-71634774D01*
X106084655Y-71386462D01*
X106544846Y-70927073D01*
X106794206Y-70326547D01*
X106794774Y-69676306D01*
X106546462Y-69075345D01*
X106087073Y-68615154D01*
X105486547Y-68365794D01*
X104836306Y-68365226D01*
X104235345Y-68613538D01*
X103775154Y-69072927D01*
X103525794Y-69673453D01*
X103525226Y-70323694D01*
X96634208Y-70323694D01*
X96634774Y-69676306D01*
X96386462Y-69075345D01*
X95927073Y-68615154D01*
X95326547Y-68365794D01*
X94676306Y-68365226D01*
X94075345Y-68613538D01*
X93615154Y-69072927D01*
X93365794Y-69673453D01*
X93365226Y-70323694D01*
X87634968Y-70323694D01*
X87635707Y-69478116D01*
X87235359Y-68509201D01*
X86494698Y-67767246D01*
X85526483Y-67365208D01*
X84478116Y-67364293D01*
X83509201Y-67764641D01*
X82767246Y-68505302D01*
X82365208Y-69473517D01*
X82364293Y-70521884D01*
X80685000Y-70521884D01*
X80685000Y-66163694D01*
X126365226Y-66163694D01*
X126613538Y-66764655D01*
X127072927Y-67224846D01*
X127673453Y-67474206D01*
X128323694Y-67474774D01*
X128924655Y-67226462D01*
X129384846Y-66767073D01*
X129634206Y-66166547D01*
X129634774Y-65516306D01*
X129386462Y-64915345D01*
X128927073Y-64455154D01*
X128326547Y-64205794D01*
X127676306Y-64205226D01*
X127075345Y-64453538D01*
X126615154Y-64912927D01*
X126365794Y-65513453D01*
X126365226Y-66163694D01*
X80685000Y-66163694D01*
X80685000Y-61715202D01*
X83304403Y-61715202D01*
X83525203Y-62085949D01*
X84496953Y-62479367D01*
X85545287Y-62470965D01*
X86474797Y-62085949D01*
X86695597Y-61715202D01*
X85000000Y-60019605D01*
X83304403Y-61715202D01*
X80685000Y-61715202D01*
X80685000Y-59336953D01*
X82360633Y-59336953D01*
X82369035Y-60385287D01*
X82754051Y-61314797D01*
X83124798Y-61535597D01*
X84820395Y-59840000D01*
X85179605Y-59840000D01*
X86875202Y-61535597D01*
X87245949Y-61314797D01*
X87639367Y-60343047D01*
X87639212Y-60323694D01*
X92365226Y-60323694D01*
X92613538Y-60924655D01*
X93072927Y-61384846D01*
X93673453Y-61634206D01*
X94323694Y-61634774D01*
X94924655Y-61386462D01*
X95159363Y-61152163D01*
X103187443Y-61152163D01*
X103286042Y-61418965D01*
X103895582Y-61645401D01*
X104545377Y-61621341D01*
X105033958Y-61418965D01*
X105132557Y-61152163D01*
X104160000Y-60179605D01*
X103187443Y-61152163D01*
X95159363Y-61152163D01*
X95384846Y-60927073D01*
X95634206Y-60326547D01*
X95634722Y-59735582D01*
X102514599Y-59735582D01*
X102538659Y-60385377D01*
X102741035Y-60873958D01*
X103007837Y-60972557D01*
X103980395Y-60000000D01*
X104339605Y-60000000D01*
X105312163Y-60972557D01*
X105578965Y-60873958D01*
X105783380Y-60323694D01*
X108205226Y-60323694D01*
X108453538Y-60924655D01*
X108912927Y-61384846D01*
X109513453Y-61634206D01*
X110163694Y-61634774D01*
X110764655Y-61386462D01*
X111224846Y-60927073D01*
X111474206Y-60326547D01*
X111474208Y-60323694D01*
X118365226Y-60323694D01*
X118613538Y-60924655D01*
X119072927Y-61384846D01*
X119673453Y-61634206D01*
X120323694Y-61634774D01*
X120924655Y-61386462D01*
X121384846Y-60927073D01*
X121634206Y-60326547D01*
X121634774Y-59676306D01*
X121386462Y-59075345D01*
X120927073Y-58615154D01*
X120326547Y-58365794D01*
X119676306Y-58365226D01*
X119075345Y-58613538D01*
X118615154Y-59072927D01*
X118365794Y-59673453D01*
X118365226Y-60323694D01*
X111474208Y-60323694D01*
X111474774Y-59676306D01*
X111226462Y-59075345D01*
X110767073Y-58615154D01*
X110166547Y-58365794D01*
X109516306Y-58365226D01*
X108915345Y-58613538D01*
X108455154Y-59072927D01*
X108205794Y-59673453D01*
X108205226Y-60323694D01*
X105783380Y-60323694D01*
X105805401Y-60264418D01*
X105781341Y-59614623D01*
X105578965Y-59126042D01*
X105312163Y-59027443D01*
X104339605Y-60000000D01*
X103980395Y-60000000D01*
X103007837Y-59027443D01*
X102741035Y-59126042D01*
X102514599Y-59735582D01*
X95634722Y-59735582D01*
X95634774Y-59676306D01*
X95386462Y-59075345D01*
X95159351Y-58847837D01*
X103187443Y-58847837D01*
X104160000Y-59820395D01*
X105132557Y-58847837D01*
X105033958Y-58581035D01*
X104424418Y-58354599D01*
X103774623Y-58378659D01*
X103286042Y-58581035D01*
X103187443Y-58847837D01*
X95159351Y-58847837D01*
X94927073Y-58615154D01*
X94326547Y-58365794D01*
X93676306Y-58365226D01*
X93075345Y-58613538D01*
X92615154Y-59072927D01*
X92365794Y-59673453D01*
X92365226Y-60323694D01*
X87639212Y-60323694D01*
X87630965Y-59294713D01*
X87245949Y-58365203D01*
X86875202Y-58144403D01*
X85179605Y-59840000D01*
X84820395Y-59840000D01*
X83124798Y-58144403D01*
X82754051Y-58365203D01*
X82360633Y-59336953D01*
X80685000Y-59336953D01*
X80685000Y-57964798D01*
X83304403Y-57964798D01*
X85000000Y-59660395D01*
X86695597Y-57964798D01*
X86474797Y-57594051D01*
X85503047Y-57200633D01*
X84454713Y-57209035D01*
X83525203Y-57594051D01*
X83304403Y-57964798D01*
X80685000Y-57964798D01*
X80685000Y-51472336D01*
X81614527Y-51472336D01*
X81976866Y-52349263D01*
X82647208Y-53020776D01*
X83523501Y-53384645D01*
X84472336Y-53385473D01*
X85349263Y-53023134D01*
X86020776Y-52352792D01*
X86182230Y-51963967D01*
X95574430Y-51963967D01*
X95574430Y-53036033D01*
X95679900Y-53566268D01*
X95980254Y-54015779D01*
X96429765Y-54316133D01*
X96960000Y-54421603D01*
X97490235Y-54316133D01*
X97939746Y-54015779D01*
X98230000Y-53581384D01*
X98520254Y-54015779D01*
X98969765Y-54316133D01*
X99500000Y-54421603D01*
X100030235Y-54316133D01*
X100479746Y-54015779D01*
X100780100Y-53566268D01*
X100781950Y-53556968D01*
X100808501Y-53646677D01*
X101150056Y-54068658D01*
X101627097Y-54327810D01*
X101698725Y-54341993D01*
X101913000Y-54219339D01*
X101913000Y-52627000D01*
X102167000Y-52627000D01*
X102167000Y-54219339D01*
X102381275Y-54341993D01*
X102452903Y-54327810D01*
X102929944Y-54068658D01*
X103271499Y-53646677D01*
X103425570Y-53126110D01*
X103425570Y-52627000D01*
X102167000Y-52627000D01*
X101913000Y-52627000D01*
X101893000Y-52627000D01*
X101893000Y-52463967D01*
X119074430Y-52463967D01*
X119074430Y-53536033D01*
X119179900Y-54066268D01*
X119480254Y-54515779D01*
X119929765Y-54816133D01*
X120460000Y-54921603D01*
X120990235Y-54816133D01*
X121439746Y-54515779D01*
X121740100Y-54066268D01*
X121741950Y-54056968D01*
X121768501Y-54146677D01*
X122110056Y-54568658D01*
X122587097Y-54827810D01*
X122658725Y-54841993D01*
X122873000Y-54719339D01*
X122873000Y-53127000D01*
X122853000Y-53127000D01*
X122853000Y-52873000D01*
X122873000Y-52873000D01*
X122873000Y-51280661D01*
X123127000Y-51280661D01*
X123127000Y-52873000D01*
X123147000Y-52873000D01*
X123147000Y-53127000D01*
X123127000Y-53127000D01*
X123127000Y-54719339D01*
X123341275Y-54841993D01*
X123412903Y-54827810D01*
X123889944Y-54568658D01*
X124231499Y-54146677D01*
X124258050Y-54056968D01*
X124259900Y-54066268D01*
X124560254Y-54515779D01*
X125009765Y-54816133D01*
X125540000Y-54921603D01*
X126070235Y-54816133D01*
X126519746Y-54515779D01*
X126820100Y-54066268D01*
X126925570Y-53536033D01*
X126925570Y-52463967D01*
X126820100Y-51933732D01*
X126519746Y-51484221D01*
X126070235Y-51183867D01*
X125540000Y-51078397D01*
X125009765Y-51183867D01*
X124560254Y-51484221D01*
X124259900Y-51933732D01*
X124258050Y-51943032D01*
X124231499Y-51853323D01*
X123889944Y-51431342D01*
X123412903Y-51172190D01*
X123341275Y-51158007D01*
X123127000Y-51280661D01*
X122873000Y-51280661D01*
X122658725Y-51158007D01*
X122587097Y-51172190D01*
X122110056Y-51431342D01*
X121768501Y-51853323D01*
X121741950Y-51943032D01*
X121740100Y-51933732D01*
X121439746Y-51484221D01*
X120990235Y-51183867D01*
X120460000Y-51078397D01*
X119929765Y-51183867D01*
X119480254Y-51484221D01*
X119179900Y-51933732D01*
X119074430Y-52463967D01*
X101893000Y-52463967D01*
X101893000Y-52373000D01*
X101913000Y-52373000D01*
X101913000Y-50780661D01*
X102167000Y-50780661D01*
X102167000Y-52373000D01*
X103425570Y-52373000D01*
X103425570Y-51873890D01*
X103271499Y-51353323D01*
X102929944Y-50931342D01*
X102452903Y-50672190D01*
X102381275Y-50658007D01*
X102167000Y-50780661D01*
X101913000Y-50780661D01*
X101698725Y-50658007D01*
X101627097Y-50672190D01*
X101150056Y-50931342D01*
X100808501Y-51353323D01*
X100781950Y-51443032D01*
X100780100Y-51433732D01*
X100479746Y-50984221D01*
X100030235Y-50683867D01*
X99500000Y-50578397D01*
X98969765Y-50683867D01*
X98520254Y-50984221D01*
X98230000Y-51418616D01*
X97939746Y-50984221D01*
X97490235Y-50683867D01*
X96960000Y-50578397D01*
X96429765Y-50683867D01*
X95980254Y-50984221D01*
X95679900Y-51433732D01*
X95574430Y-51963967D01*
X86182230Y-51963967D01*
X86384645Y-51476499D01*
X86385473Y-50527664D01*
X86023134Y-49650737D01*
X85352792Y-48979224D01*
X84476499Y-48615355D01*
X83527664Y-48614527D01*
X82650737Y-48976866D01*
X81979224Y-49647208D01*
X81615355Y-50523501D01*
X81614527Y-51472336D01*
X80685000Y-51472336D01*
X80685000Y-44521884D01*
X83364293Y-44521884D01*
X83764641Y-45490799D01*
X84505302Y-46232754D01*
X85473517Y-46634792D01*
X86521884Y-46635707D01*
X87490799Y-46235359D01*
X88232754Y-45494698D01*
X88634792Y-44526483D01*
X88634796Y-44521884D01*
X93524293Y-44521884D01*
X93924641Y-45490799D01*
X94665302Y-46232754D01*
X95633517Y-46634792D01*
X96681884Y-46635707D01*
X97650799Y-46235359D01*
X98392754Y-45494698D01*
X98794792Y-44526483D01*
X98794796Y-44521884D01*
X102364293Y-44521884D01*
X102764641Y-45490799D01*
X103505302Y-46232754D01*
X104473517Y-46634792D01*
X105521884Y-46635707D01*
X106490799Y-46235359D01*
X106851585Y-45875202D01*
X113464403Y-45875202D01*
X113685203Y-46245949D01*
X114656953Y-46639367D01*
X115705287Y-46630965D01*
X116634797Y-46245949D01*
X116855597Y-45875202D01*
X115160000Y-44179605D01*
X113464403Y-45875202D01*
X106851585Y-45875202D01*
X107232754Y-45494698D01*
X107634792Y-44526483D01*
X107635690Y-43496953D01*
X112520633Y-43496953D01*
X112529035Y-44545287D01*
X112914051Y-45474797D01*
X113284798Y-45695597D01*
X114980395Y-44000000D01*
X115339605Y-44000000D01*
X117035202Y-45695597D01*
X117405949Y-45474797D01*
X117791740Y-44521884D01*
X122364293Y-44521884D01*
X122764641Y-45490799D01*
X123505302Y-46232754D01*
X124473517Y-46634792D01*
X125521884Y-46635707D01*
X126490799Y-46235359D01*
X127232754Y-45494698D01*
X127634792Y-44526483D01*
X127634796Y-44521884D01*
X132524293Y-44521884D01*
X132924641Y-45490799D01*
X133665302Y-46232754D01*
X134633517Y-46634792D01*
X135681884Y-46635707D01*
X136650799Y-46235359D01*
X137392754Y-45494698D01*
X137794792Y-44526483D01*
X137795707Y-43478116D01*
X137395359Y-42509201D01*
X136654698Y-41767246D01*
X135686483Y-41365208D01*
X134638116Y-41364293D01*
X133669201Y-41764641D01*
X132927246Y-42505302D01*
X132525208Y-43473517D01*
X132524293Y-44521884D01*
X127634796Y-44521884D01*
X127635707Y-43478116D01*
X127235359Y-42509201D01*
X126494698Y-41767246D01*
X125526483Y-41365208D01*
X124478116Y-41364293D01*
X123509201Y-41764641D01*
X122767246Y-42505302D01*
X122365208Y-43473517D01*
X122364293Y-44521884D01*
X117791740Y-44521884D01*
X117799367Y-44503047D01*
X117790965Y-43454713D01*
X117405949Y-42525203D01*
X117035202Y-42304403D01*
X115339605Y-44000000D01*
X114980395Y-44000000D01*
X113284798Y-42304403D01*
X112914051Y-42525203D01*
X112520633Y-43496953D01*
X107635690Y-43496953D01*
X107635707Y-43478116D01*
X107235359Y-42509201D01*
X106851627Y-42124798D01*
X113464403Y-42124798D01*
X115160000Y-43820395D01*
X116855597Y-42124798D01*
X116634797Y-41754051D01*
X115663047Y-41360633D01*
X114614713Y-41369035D01*
X113685203Y-41754051D01*
X113464403Y-42124798D01*
X106851627Y-42124798D01*
X106494698Y-41767246D01*
X105526483Y-41365208D01*
X104478116Y-41364293D01*
X103509201Y-41764641D01*
X102767246Y-42505302D01*
X102365208Y-43473517D01*
X102364293Y-44521884D01*
X98794796Y-44521884D01*
X98795707Y-43478116D01*
X98395359Y-42509201D01*
X97654698Y-41767246D01*
X96686483Y-41365208D01*
X95638116Y-41364293D01*
X94669201Y-41764641D01*
X93927246Y-42505302D01*
X93525208Y-43473517D01*
X93524293Y-44521884D01*
X88634796Y-44521884D01*
X88635707Y-43478116D01*
X88235359Y-42509201D01*
X87494698Y-41767246D01*
X86526483Y-41365208D01*
X85478116Y-41364293D01*
X84509201Y-41764641D01*
X83767246Y-42505302D01*
X83365208Y-43473517D01*
X83364293Y-44521884D01*
X80685000Y-44521884D01*
X80685000Y-39185000D01*
X139315000Y-39185000D01*
X139315000Y-119315000D01*
M02*
