G04 #@! TF.FileFunction,Other,Fab,Top*
%FSLAX46Y46*%
G04 Gerber Fmt 4.6, Leading zero omitted, Abs format (unit mm)*
G04 Created by KiCad (PCBNEW 4.0.2+dfsg1-stable) date on. 29. nov. 2017 kl. 15.41 +0100*
%MOMM*%
G01*
G04 APERTURE LIST*
%ADD10C,0.100000*%
%ADD11C,0.300000*%
%ADD12C,0.150000*%
G04 APERTURE END LIST*
D10*
D11*
X133428572Y-48107143D02*
X134571429Y-48107143D01*
D12*
X95607143Y-117047619D02*
X95654762Y-117000000D01*
X95750000Y-116952381D01*
X95988096Y-116952381D01*
X96083334Y-117000000D01*
X96130953Y-117047619D01*
X96178572Y-117142857D01*
X96178572Y-117238095D01*
X96130953Y-117380952D01*
X95559524Y-117952381D01*
X96178572Y-117952381D01*
X96797619Y-116952381D02*
X96892858Y-116952381D01*
X96988096Y-117000000D01*
X97035715Y-117047619D01*
X97083334Y-117142857D01*
X97130953Y-117333333D01*
X97130953Y-117571429D01*
X97083334Y-117761905D01*
X97035715Y-117857143D01*
X96988096Y-117904762D01*
X96892858Y-117952381D01*
X96797619Y-117952381D01*
X96702381Y-117904762D01*
X96654762Y-117857143D01*
X96607143Y-117761905D01*
X96559524Y-117571429D01*
X96559524Y-117333333D01*
X96607143Y-117142857D01*
X96654762Y-117047619D01*
X96702381Y-117000000D01*
X96797619Y-116952381D01*
X97559524Y-117285714D02*
X97559524Y-118285714D01*
X97559524Y-117333333D02*
X97654762Y-117285714D01*
X97845239Y-117285714D01*
X97940477Y-117333333D01*
X97988096Y-117380952D01*
X98035715Y-117476190D01*
X98035715Y-117761905D01*
X97988096Y-117857143D01*
X97940477Y-117904762D01*
X97845239Y-117952381D01*
X97654762Y-117952381D01*
X97559524Y-117904762D01*
X98797620Y-117428571D02*
X98464286Y-117428571D01*
X98464286Y-117952381D02*
X98464286Y-116952381D01*
X98940477Y-116952381D01*
X94607143Y-93047619D02*
X94654762Y-93000000D01*
X94750000Y-92952381D01*
X94988096Y-92952381D01*
X95083334Y-93000000D01*
X95130953Y-93047619D01*
X95178572Y-93142857D01*
X95178572Y-93238095D01*
X95130953Y-93380952D01*
X94559524Y-93952381D01*
X95178572Y-93952381D01*
X95797619Y-92952381D02*
X95892858Y-92952381D01*
X95988096Y-93000000D01*
X96035715Y-93047619D01*
X96083334Y-93142857D01*
X96130953Y-93333333D01*
X96130953Y-93571429D01*
X96083334Y-93761905D01*
X96035715Y-93857143D01*
X95988096Y-93904762D01*
X95892858Y-93952381D01*
X95797619Y-93952381D01*
X95702381Y-93904762D01*
X95654762Y-93857143D01*
X95607143Y-93761905D01*
X95559524Y-93571429D01*
X95559524Y-93333333D01*
X95607143Y-93142857D01*
X95654762Y-93047619D01*
X95702381Y-93000000D01*
X95797619Y-92952381D01*
X96559524Y-93285714D02*
X96559524Y-94285714D01*
X96559524Y-93333333D02*
X96654762Y-93285714D01*
X96845239Y-93285714D01*
X96940477Y-93333333D01*
X96988096Y-93380952D01*
X97035715Y-93476190D01*
X97035715Y-93761905D01*
X96988096Y-93857143D01*
X96940477Y-93904762D01*
X96845239Y-93952381D01*
X96654762Y-93952381D01*
X96559524Y-93904762D01*
X97797620Y-93428571D02*
X97464286Y-93428571D01*
X97464286Y-93952381D02*
X97464286Y-92952381D01*
X97940477Y-92952381D01*
X138352381Y-98942857D02*
X138352381Y-99419048D01*
X137352381Y-99419048D01*
X137828571Y-98609524D02*
X137828571Y-98276190D01*
X138352381Y-98133333D02*
X138352381Y-98609524D01*
X137352381Y-98609524D01*
X137352381Y-98133333D01*
X138352381Y-97704762D02*
X137352381Y-97704762D01*
X137352381Y-97466667D01*
X137400000Y-97323809D01*
X137495238Y-97228571D01*
X137590476Y-97180952D01*
X137780952Y-97133333D01*
X137923810Y-97133333D01*
X138114286Y-97180952D01*
X138209524Y-97228571D01*
X138304762Y-97323809D01*
X138352381Y-97466667D01*
X138352381Y-97704762D01*
X124452381Y-86800952D02*
X124452381Y-87277143D01*
X124928571Y-87324762D01*
X124880952Y-87277143D01*
X124833333Y-87181905D01*
X124833333Y-86943809D01*
X124880952Y-86848571D01*
X124928571Y-86800952D01*
X125023810Y-86753333D01*
X125261905Y-86753333D01*
X125357143Y-86800952D01*
X125404762Y-86848571D01*
X125452381Y-86943809D01*
X125452381Y-87181905D01*
X125404762Y-87277143D01*
X125357143Y-87324762D01*
X125357143Y-86324762D02*
X125404762Y-86277143D01*
X125452381Y-86324762D01*
X125404762Y-86372381D01*
X125357143Y-86324762D01*
X125452381Y-86324762D01*
X124452381Y-85420000D02*
X124452381Y-85610477D01*
X124500000Y-85705715D01*
X124547619Y-85753334D01*
X124690476Y-85848572D01*
X124880952Y-85896191D01*
X125261905Y-85896191D01*
X125357143Y-85848572D01*
X125404762Y-85800953D01*
X125452381Y-85705715D01*
X125452381Y-85515238D01*
X125404762Y-85420000D01*
X125357143Y-85372381D01*
X125261905Y-85324762D01*
X125023810Y-85324762D01*
X124928571Y-85372381D01*
X124880952Y-85420000D01*
X124833333Y-85515238D01*
X124833333Y-85705715D01*
X124880952Y-85800953D01*
X124928571Y-85848572D01*
X125023810Y-85896191D01*
X125452381Y-84896191D02*
X124452381Y-84896191D01*
X125071429Y-84800953D02*
X125452381Y-84515238D01*
X124785714Y-84515238D02*
X125166667Y-84896191D01*
X124452381Y-72372381D02*
X124452381Y-71753333D01*
X124833333Y-72086667D01*
X124833333Y-71943809D01*
X124880952Y-71848571D01*
X124928571Y-71800952D01*
X125023810Y-71753333D01*
X125261905Y-71753333D01*
X125357143Y-71800952D01*
X125404762Y-71848571D01*
X125452381Y-71943809D01*
X125452381Y-72229524D01*
X125404762Y-72324762D01*
X125357143Y-72372381D01*
X125357143Y-71324762D02*
X125404762Y-71277143D01*
X125452381Y-71324762D01*
X125404762Y-71372381D01*
X125357143Y-71324762D01*
X125452381Y-71324762D01*
X125452381Y-70800953D02*
X125452381Y-70610477D01*
X125404762Y-70515238D01*
X125357143Y-70467619D01*
X125214286Y-70372381D01*
X125023810Y-70324762D01*
X124642857Y-70324762D01*
X124547619Y-70372381D01*
X124500000Y-70420000D01*
X124452381Y-70515238D01*
X124452381Y-70705715D01*
X124500000Y-70800953D01*
X124547619Y-70848572D01*
X124642857Y-70896191D01*
X124880952Y-70896191D01*
X124976190Y-70848572D01*
X125023810Y-70800953D01*
X125071429Y-70705715D01*
X125071429Y-70515238D01*
X125023810Y-70420000D01*
X124976190Y-70372381D01*
X124880952Y-70324762D01*
X125452381Y-69896191D02*
X124452381Y-69896191D01*
X125071429Y-69800953D02*
X125452381Y-69515238D01*
X124785714Y-69515238D02*
X125166667Y-69896191D01*
X99437143Y-66452381D02*
X98960952Y-66452381D01*
X98913333Y-66928571D01*
X98960952Y-66880952D01*
X99056190Y-66833333D01*
X99294286Y-66833333D01*
X99389524Y-66880952D01*
X99437143Y-66928571D01*
X99484762Y-67023810D01*
X99484762Y-67261905D01*
X99437143Y-67357143D01*
X99389524Y-67404762D01*
X99294286Y-67452381D01*
X99056190Y-67452381D01*
X98960952Y-67404762D01*
X98913333Y-67357143D01*
X100103809Y-66452381D02*
X100199048Y-66452381D01*
X100294286Y-66500000D01*
X100341905Y-66547619D01*
X100389524Y-66642857D01*
X100437143Y-66833333D01*
X100437143Y-67071429D01*
X100389524Y-67261905D01*
X100341905Y-67357143D01*
X100294286Y-67404762D01*
X100199048Y-67452381D01*
X100103809Y-67452381D01*
X100008571Y-67404762D01*
X99960952Y-67357143D01*
X99913333Y-67261905D01*
X99865714Y-67071429D01*
X99865714Y-66833333D01*
X99913333Y-66642857D01*
X99960952Y-66547619D01*
X100008571Y-66500000D01*
X100103809Y-66452381D01*
X100865714Y-67452381D02*
X100865714Y-66452381D01*
X100960952Y-67071429D02*
X101246667Y-67452381D01*
X101246667Y-66785714D02*
X100865714Y-67166667D01*
X121761905Y-97047619D02*
X121809524Y-97000000D01*
X121904762Y-96952381D01*
X122142858Y-96952381D01*
X122238096Y-97000000D01*
X122285715Y-97047619D01*
X122333334Y-97142857D01*
X122333334Y-97238095D01*
X122285715Y-97380952D01*
X121714286Y-97952381D01*
X122333334Y-97952381D01*
X122714286Y-97047619D02*
X122761905Y-97000000D01*
X122857143Y-96952381D01*
X123095239Y-96952381D01*
X123190477Y-97000000D01*
X123238096Y-97047619D01*
X123285715Y-97142857D01*
X123285715Y-97238095D01*
X123238096Y-97380952D01*
X122666667Y-97952381D01*
X123285715Y-97952381D01*
X123904762Y-96952381D02*
X124000001Y-96952381D01*
X124095239Y-97000000D01*
X124142858Y-97047619D01*
X124190477Y-97142857D01*
X124238096Y-97333333D01*
X124238096Y-97571429D01*
X124190477Y-97761905D01*
X124142858Y-97857143D01*
X124095239Y-97904762D01*
X124000001Y-97952381D01*
X123904762Y-97952381D01*
X123809524Y-97904762D01*
X123761905Y-97857143D01*
X123714286Y-97761905D01*
X123666667Y-97571429D01*
X123666667Y-97333333D01*
X123714286Y-97142857D01*
X123761905Y-97047619D01*
X123809524Y-97000000D01*
X123904762Y-96952381D01*
X113857143Y-56952381D02*
X113380952Y-56952381D01*
X113333333Y-57428571D01*
X113380952Y-57380952D01*
X113476190Y-57333333D01*
X113714286Y-57333333D01*
X113809524Y-57380952D01*
X113857143Y-57428571D01*
X113904762Y-57523810D01*
X113904762Y-57761905D01*
X113857143Y-57857143D01*
X113809524Y-57904762D01*
X113714286Y-57952381D01*
X113476190Y-57952381D01*
X113380952Y-57904762D01*
X113333333Y-57857143D01*
X114523809Y-56952381D02*
X114619048Y-56952381D01*
X114714286Y-57000000D01*
X114761905Y-57047619D01*
X114809524Y-57142857D01*
X114857143Y-57333333D01*
X114857143Y-57571429D01*
X114809524Y-57761905D01*
X114761905Y-57857143D01*
X114714286Y-57904762D01*
X114619048Y-57952381D01*
X114523809Y-57952381D01*
X114428571Y-57904762D01*
X114380952Y-57857143D01*
X114333333Y-57761905D01*
X114285714Y-57571429D01*
X114285714Y-57333333D01*
X114333333Y-57142857D01*
X114380952Y-57047619D01*
X114428571Y-57000000D01*
X114523809Y-56952381D01*
X115285714Y-57952381D02*
X115285714Y-56952381D01*
X115380952Y-57571429D02*
X115666667Y-57952381D01*
X115666667Y-57285714D02*
X115285714Y-57666667D01*
X98357143Y-56952381D02*
X97880952Y-56952381D01*
X97833333Y-57428571D01*
X97880952Y-57380952D01*
X97976190Y-57333333D01*
X98214286Y-57333333D01*
X98309524Y-57380952D01*
X98357143Y-57428571D01*
X98404762Y-57523810D01*
X98404762Y-57761905D01*
X98357143Y-57857143D01*
X98309524Y-57904762D01*
X98214286Y-57952381D01*
X97976190Y-57952381D01*
X97880952Y-57904762D01*
X97833333Y-57857143D01*
X99023809Y-56952381D02*
X99119048Y-56952381D01*
X99214286Y-57000000D01*
X99261905Y-57047619D01*
X99309524Y-57142857D01*
X99357143Y-57333333D01*
X99357143Y-57571429D01*
X99309524Y-57761905D01*
X99261905Y-57857143D01*
X99214286Y-57904762D01*
X99119048Y-57952381D01*
X99023809Y-57952381D01*
X98928571Y-57904762D01*
X98880952Y-57857143D01*
X98833333Y-57761905D01*
X98785714Y-57571429D01*
X98785714Y-57333333D01*
X98833333Y-57142857D01*
X98880952Y-57047619D01*
X98928571Y-57000000D01*
X99023809Y-56952381D01*
X99785714Y-57952381D02*
X99785714Y-56952381D01*
X99880952Y-57571429D02*
X100166667Y-57952381D01*
X100166667Y-57285714D02*
X99785714Y-57666667D01*
X94952381Y-83142857D02*
X94952381Y-83619048D01*
X95428571Y-83666667D01*
X95380952Y-83619048D01*
X95333333Y-83523810D01*
X95333333Y-83285714D01*
X95380952Y-83190476D01*
X95428571Y-83142857D01*
X95523810Y-83095238D01*
X95761905Y-83095238D01*
X95857143Y-83142857D01*
X95904762Y-83190476D01*
X95952381Y-83285714D01*
X95952381Y-83523810D01*
X95904762Y-83619048D01*
X95857143Y-83666667D01*
X94952381Y-82476191D02*
X94952381Y-82380952D01*
X95000000Y-82285714D01*
X95047619Y-82238095D01*
X95142857Y-82190476D01*
X95333333Y-82142857D01*
X95571429Y-82142857D01*
X95761905Y-82190476D01*
X95857143Y-82238095D01*
X95904762Y-82285714D01*
X95952381Y-82380952D01*
X95952381Y-82476191D01*
X95904762Y-82571429D01*
X95857143Y-82619048D01*
X95761905Y-82666667D01*
X95571429Y-82714286D01*
X95333333Y-82714286D01*
X95142857Y-82666667D01*
X95047619Y-82619048D01*
X95000000Y-82571429D01*
X94952381Y-82476191D01*
X95952381Y-81714286D02*
X94952381Y-81714286D01*
X95571429Y-81619048D02*
X95952381Y-81333333D01*
X95285714Y-81333333D02*
X95666667Y-81714286D01*
X93642381Y-106690476D02*
X93642381Y-107261905D01*
X93642381Y-106976191D02*
X92642381Y-106976191D01*
X92785238Y-107071429D01*
X92880476Y-107166667D01*
X92928095Y-107261905D01*
X92642381Y-105833333D02*
X92642381Y-106023810D01*
X92690000Y-106119048D01*
X92737619Y-106166667D01*
X92880476Y-106261905D01*
X93070952Y-106309524D01*
X93451905Y-106309524D01*
X93547143Y-106261905D01*
X93594762Y-106214286D01*
X93642381Y-106119048D01*
X93642381Y-105928571D01*
X93594762Y-105833333D01*
X93547143Y-105785714D01*
X93451905Y-105738095D01*
X93213810Y-105738095D01*
X93118571Y-105785714D01*
X93070952Y-105833333D01*
X93023333Y-105928571D01*
X93023333Y-106119048D01*
X93070952Y-106214286D01*
X93118571Y-106261905D01*
X93213810Y-106309524D01*
X93642381Y-105309524D02*
X92642381Y-105309524D01*
X93356667Y-104976190D01*
X92642381Y-104642857D01*
X93642381Y-104642857D01*
X93642381Y-104166667D02*
X92642381Y-104166667D01*
X93118571Y-104166667D02*
X93118571Y-103595238D01*
X93642381Y-103595238D02*
X92642381Y-103595238D01*
X92975714Y-103214286D02*
X92975714Y-102690476D01*
X93642381Y-103214286D01*
X93642381Y-102690476D01*
X117523809Y-56452381D02*
X117523809Y-55452381D01*
X118571428Y-56452381D02*
X118238094Y-55976190D01*
X117999999Y-56452381D02*
X117999999Y-55452381D01*
X118380952Y-55452381D01*
X118476190Y-55500000D01*
X118523809Y-55547619D01*
X118571428Y-55642857D01*
X118571428Y-55785714D01*
X118523809Y-55880952D01*
X118476190Y-55928571D01*
X118380952Y-55976190D01*
X117999999Y-55976190D01*
X119476190Y-56452381D02*
X118999999Y-56452381D01*
X118999999Y-55452381D01*
X120142857Y-55928571D02*
X120285714Y-55976190D01*
X120333333Y-56023810D01*
X120380952Y-56119048D01*
X120380952Y-56261905D01*
X120333333Y-56357143D01*
X120285714Y-56404762D01*
X120190476Y-56452381D01*
X119809523Y-56452381D01*
X119809523Y-55452381D01*
X120142857Y-55452381D01*
X120238095Y-55500000D01*
X120285714Y-55547619D01*
X120333333Y-55642857D01*
X120333333Y-55738095D01*
X120285714Y-55833333D01*
X120238095Y-55880952D01*
X120142857Y-55928571D01*
X119809523Y-55928571D01*
X120571428Y-56547619D02*
X121333333Y-56547619D01*
X121714285Y-55880952D02*
X121619047Y-55833333D01*
X121571428Y-55785714D01*
X121523809Y-55690476D01*
X121523809Y-55642857D01*
X121571428Y-55547619D01*
X121619047Y-55500000D01*
X121714285Y-55452381D01*
X121904762Y-55452381D01*
X122000000Y-55500000D01*
X122047619Y-55547619D01*
X122095238Y-55642857D01*
X122095238Y-55690476D01*
X122047619Y-55785714D01*
X122000000Y-55833333D01*
X121904762Y-55880952D01*
X121714285Y-55880952D01*
X121619047Y-55928571D01*
X121571428Y-55976190D01*
X121523809Y-56071429D01*
X121523809Y-56261905D01*
X121571428Y-56357143D01*
X121619047Y-56404762D01*
X121714285Y-56452381D01*
X121904762Y-56452381D01*
X122000000Y-56404762D01*
X122047619Y-56357143D01*
X122095238Y-56261905D01*
X122095238Y-56071429D01*
X122047619Y-55976190D01*
X122000000Y-55928571D01*
X121904762Y-55880952D01*
X122428571Y-55452381D02*
X123095238Y-55452381D01*
X122666666Y-56452381D01*
X123428571Y-55547619D02*
X123476190Y-55500000D01*
X123571428Y-55452381D01*
X123809524Y-55452381D01*
X123904762Y-55500000D01*
X123952381Y-55547619D01*
X124000000Y-55642857D01*
X124000000Y-55738095D01*
X123952381Y-55880952D01*
X123380952Y-56452381D01*
X124000000Y-56452381D01*
X124952381Y-56452381D02*
X124380952Y-56452381D01*
X124666666Y-56452381D02*
X124666666Y-55452381D01*
X124571428Y-55595238D01*
X124476190Y-55690476D01*
X124380952Y-55738095D01*
X125142857Y-56547619D02*
X125904762Y-56547619D01*
X126095238Y-56404762D02*
X126238095Y-56452381D01*
X126476191Y-56452381D01*
X126571429Y-56404762D01*
X126619048Y-56357143D01*
X126666667Y-56261905D01*
X126666667Y-56166667D01*
X126619048Y-56071429D01*
X126571429Y-56023810D01*
X126476191Y-55976190D01*
X126285714Y-55928571D01*
X126190476Y-55880952D01*
X126142857Y-55833333D01*
X126095238Y-55738095D01*
X126095238Y-55642857D01*
X126142857Y-55547619D01*
X126190476Y-55500000D01*
X126285714Y-55452381D01*
X126523810Y-55452381D01*
X126666667Y-55500000D01*
X127285714Y-55452381D02*
X127476191Y-55452381D01*
X127571429Y-55500000D01*
X127666667Y-55595238D01*
X127714286Y-55785714D01*
X127714286Y-56119048D01*
X127666667Y-56309524D01*
X127571429Y-56404762D01*
X127476191Y-56452381D01*
X127285714Y-56452381D01*
X127190476Y-56404762D01*
X127095238Y-56309524D01*
X127047619Y-56119048D01*
X127047619Y-55785714D01*
X127095238Y-55595238D01*
X127190476Y-55500000D01*
X127285714Y-55452381D01*
X128619048Y-56452381D02*
X128142857Y-56452381D01*
X128142857Y-55452381D01*
X93261905Y-55952381D02*
X93261905Y-54952381D01*
X94309524Y-55952381D02*
X93976190Y-55476190D01*
X93738095Y-55952381D02*
X93738095Y-54952381D01*
X94119048Y-54952381D01*
X94214286Y-55000000D01*
X94261905Y-55047619D01*
X94309524Y-55142857D01*
X94309524Y-55285714D01*
X94261905Y-55380952D01*
X94214286Y-55428571D01*
X94119048Y-55476190D01*
X93738095Y-55476190D01*
X95214286Y-55952381D02*
X94738095Y-55952381D01*
X94738095Y-54952381D01*
X95500000Y-55904762D02*
X95642857Y-55952381D01*
X95880953Y-55952381D01*
X95976191Y-55904762D01*
X96023810Y-55857143D01*
X96071429Y-55761905D01*
X96071429Y-55666667D01*
X96023810Y-55571429D01*
X95976191Y-55523810D01*
X95880953Y-55476190D01*
X95690476Y-55428571D01*
X95595238Y-55380952D01*
X95547619Y-55333333D01*
X95500000Y-55238095D01*
X95500000Y-55142857D01*
X95547619Y-55047619D01*
X95595238Y-55000000D01*
X95690476Y-54952381D01*
X95928572Y-54952381D01*
X96071429Y-55000000D01*
X96500000Y-55571429D02*
X97261905Y-55571429D01*
X97880952Y-55380952D02*
X97785714Y-55333333D01*
X97738095Y-55285714D01*
X97690476Y-55190476D01*
X97690476Y-55142857D01*
X97738095Y-55047619D01*
X97785714Y-55000000D01*
X97880952Y-54952381D01*
X98071429Y-54952381D01*
X98166667Y-55000000D01*
X98214286Y-55047619D01*
X98261905Y-55142857D01*
X98261905Y-55190476D01*
X98214286Y-55285714D01*
X98166667Y-55333333D01*
X98071429Y-55380952D01*
X97880952Y-55380952D01*
X97785714Y-55428571D01*
X97738095Y-55476190D01*
X97690476Y-55571429D01*
X97690476Y-55761905D01*
X97738095Y-55857143D01*
X97785714Y-55904762D01*
X97880952Y-55952381D01*
X98071429Y-55952381D01*
X98166667Y-55904762D01*
X98214286Y-55857143D01*
X98261905Y-55761905D01*
X98261905Y-55571429D01*
X98214286Y-55476190D01*
X98166667Y-55428571D01*
X98071429Y-55380952D01*
X98595238Y-54952381D02*
X99261905Y-54952381D01*
X98833333Y-55952381D01*
X99595238Y-55047619D02*
X99642857Y-55000000D01*
X99738095Y-54952381D01*
X99976191Y-54952381D01*
X100071429Y-55000000D01*
X100119048Y-55047619D01*
X100166667Y-55142857D01*
X100166667Y-55238095D01*
X100119048Y-55380952D01*
X99547619Y-55952381D01*
X100166667Y-55952381D01*
X101119048Y-55952381D02*
X100547619Y-55952381D01*
X100833333Y-55952381D02*
X100833333Y-54952381D01*
X100738095Y-55095238D01*
X100642857Y-55190476D01*
X100547619Y-55238095D01*
X101309524Y-56047619D02*
X102071429Y-56047619D01*
X102309524Y-55952381D02*
X102309524Y-54952381D01*
X102642858Y-55666667D01*
X102976191Y-54952381D01*
X102976191Y-55952381D01*
X103452381Y-55428571D02*
X103785715Y-55428571D01*
X103928572Y-55952381D02*
X103452381Y-55952381D01*
X103452381Y-54952381D01*
X103928572Y-54952381D01*
X104880953Y-55000000D02*
X104785715Y-54952381D01*
X104642858Y-54952381D01*
X104500000Y-55000000D01*
X104404762Y-55095238D01*
X104357143Y-55190476D01*
X104309524Y-55380952D01*
X104309524Y-55523810D01*
X104357143Y-55714286D01*
X104404762Y-55809524D01*
X104500000Y-55904762D01*
X104642858Y-55952381D01*
X104738096Y-55952381D01*
X104880953Y-55904762D01*
X104928572Y-55857143D01*
X104928572Y-55523810D01*
X104738096Y-55523810D01*
X105309524Y-55666667D02*
X105785715Y-55666667D01*
X105214286Y-55952381D02*
X105547619Y-54952381D01*
X105880953Y-55952381D01*
M02*
