M48
;DRILL file {KiCad 4.0.2+dfsg1-stable} date on. 29. nov. 2017 kl. 15.43 +0100
;FORMAT={-:-/ absolute / inch / decimal}
FMAT,2
INCH,TZ
T1C0.016
T2C0.024
T3C0.031
T4C0.032
T5C0.039
T6C0.047
T7C0.079
%
G90
G05
M72
T1
X4.2028Y-3.7795
X4.4094Y-2.874
T2
X3.5453Y-3.7795
T3
X3.7795Y-4.5276
X3.8386Y-3.7795
X4.1339Y-3.0709
X4.1339Y-3.1709
X4.1339Y-3.2709
X4.1339Y-3.3709
X4.1339Y-3.4709
X4.1339Y-3.5709
X4.1339Y-3.6709
X4.1339Y-3.7709
X4.1339Y-3.8709
X4.1339Y-3.9709
X4.1339Y-4.0709
X4.1339Y-4.1709
X4.1339Y-4.2709
X4.1339Y-4.3709
X4.4339Y-3.0709
X4.4339Y-3.1709
X4.4339Y-3.2709
X4.4339Y-3.3709
X4.4339Y-3.4709
X4.4339Y-3.5709
X4.4339Y-3.6709
X4.4339Y-3.7709
X4.4339Y-3.8709
X4.4339Y-3.9709
X4.4339Y-4.0709
X4.4339Y-4.1709
X4.4339Y-4.2709
X4.4339Y-4.3709
T4
X3.7402Y-3.7795
X3.8189Y-4.0378
X3.8189Y-4.23
X3.878Y-4.5276
T5
X3.7008Y-2.3622
X3.7402Y-2.7559
X3.8173Y-2.0669
X3.8583Y-3.0646
X3.8583Y-3.4646
X3.9173Y-2.0669
X4.0173Y-2.0669
X4.1008Y-2.3622
X4.1402Y-2.7559
X4.3244Y-2.3622
X4.6457Y-3.937
X4.7244Y-2.3622
X4.7425Y-2.0866
X4.8425Y-2.0866
X4.9425Y-2.0866
X5.0394Y-2.5921
X5.0394Y-2.9921
X5.0394Y-3.1827
X5.0394Y-3.5827
X5.0457Y-3.937
X5.315Y-3.8189
X5.315Y-3.9189
T6
X3.3071Y-2.0079
T7
X3.3465Y-2.3559
X3.3465Y-2.7559
X3.3465Y-3.1433
X3.3465Y-3.5433
X3.3858Y-1.7323
X3.7858Y-1.7323
X4.1339Y-1.7323
X4.5339Y-1.7323
X4.9213Y-1.7323
X5.3213Y-1.7323
T0
M30
