G04 #@! TF.FileFunction,Copper,L1,Top,Signal*
%FSLAX46Y46*%
G04 Gerber Fmt 4.6, Leading zero omitted, Abs format (unit mm)*
G04 Created by KiCad (PCBNEW 4.0.2+dfsg1-stable) date on. 29. nov. 2017 kl. 15.41 +0100*
%MOMM*%
G01*
G04 APERTURE LIST*
%ADD10C,0.100000*%
%ADD11C,1.000000*%
%ADD12C,4.000500*%
%ADD13R,1.300000X1.300000*%
%ADD14C,1.300000*%
%ADD15R,2.000000X2.000000*%
%ADD16C,2.000000*%
%ADD17O,2.300000X1.600000*%
%ADD18C,3.500120*%
%ADD19C,1.998980*%
%ADD20C,1.501140*%
%ADD21C,1.000000*%
%ADD22O,1.501140X2.499360*%
%ADD23C,0.900000*%
%ADD24C,0.600000*%
%ADD25C,0.500000*%
%ADD26C,3.000000*%
%ADD27C,0.250000*%
%ADD28C,2.500000*%
%ADD29C,0.750000*%
%ADD30C,0.254000*%
G04 APERTURE END LIST*
D10*
D11*
X90050000Y-96000000D02*
X91950000Y-96000000D01*
D12*
X86000000Y-44000000D03*
X96160000Y-44000000D03*
X125000000Y-44000000D03*
X135160000Y-44000000D03*
X85000000Y-90000000D03*
X85000000Y-79840000D03*
D13*
X96000000Y-115000000D03*
D14*
X98500000Y-115000000D03*
D13*
X97500000Y-96000000D03*
D14*
X95000000Y-96000000D03*
D15*
X135000000Y-97000000D03*
D16*
X135000000Y-99540000D03*
D17*
X105000000Y-78000000D03*
X105000000Y-80540000D03*
X105000000Y-83080000D03*
X105000000Y-85620000D03*
X105000000Y-88160000D03*
X105000000Y-90700000D03*
X105000000Y-93240000D03*
X105000000Y-95780000D03*
X105000000Y-98320000D03*
X105000000Y-100860000D03*
X105000000Y-103400000D03*
X105000000Y-105940000D03*
X105000000Y-108480000D03*
X105000000Y-111020000D03*
X112620000Y-111020000D03*
X112620000Y-108480000D03*
X112620000Y-105940000D03*
X112620000Y-103400000D03*
X112620000Y-100860000D03*
X112620000Y-98320000D03*
X112620000Y-95780000D03*
X112620000Y-93240000D03*
X112620000Y-90700000D03*
X112620000Y-88160000D03*
X112620000Y-85620000D03*
X112620000Y-83080000D03*
X112620000Y-80540000D03*
X112620000Y-78000000D03*
D12*
X85000000Y-70000000D03*
X85000000Y-59840000D03*
X105000000Y-44000000D03*
X115160000Y-44000000D03*
D18*
X84000000Y-51000000D03*
D19*
X128000000Y-91000000D03*
X128000000Y-80840000D03*
X128000000Y-76000000D03*
X128000000Y-65840000D03*
X95000000Y-70000000D03*
X105160000Y-70000000D03*
X118000000Y-100000000D03*
X128160000Y-100000000D03*
X120000000Y-60000000D03*
X109840000Y-60000000D03*
X94000000Y-60000000D03*
X104160000Y-60000000D03*
X98000000Y-88000000D03*
X98000000Y-77840000D03*
D20*
X97000000Y-102559060D03*
X97000000Y-107440940D03*
D21*
X90050000Y-96000000D03*
X91950000Y-96000000D03*
D22*
X123000000Y-53000000D03*
X120460000Y-53000000D03*
X125540000Y-53000000D03*
X99500000Y-52500000D03*
X96960000Y-52500000D03*
X102040000Y-52500000D03*
D23*
X90050000Y-96000000D03*
D24*
X112000000Y-73000000D03*
X106750000Y-96000000D03*
D25*
X102940940Y-107440940D02*
X103299990Y-107081890D01*
X103299990Y-107081890D02*
X103299990Y-102210010D01*
X103299990Y-102210010D02*
X104650000Y-100860000D01*
X104650000Y-100860000D02*
X105000000Y-100860000D01*
X97000000Y-107440940D02*
X102940940Y-107440940D01*
X96000000Y-115000000D02*
X96000000Y-108440940D01*
X96000000Y-108440940D02*
X97000000Y-107440940D01*
X97500000Y-96000000D02*
X98650000Y-96000000D01*
X98650000Y-96000000D02*
X100970000Y-98320000D01*
X100970000Y-98320000D02*
X101239060Y-98320000D01*
X97000000Y-102559060D02*
X101239060Y-98320000D01*
X101239060Y-98320000D02*
X105000000Y-98320000D01*
X128160000Y-100000000D02*
X134540000Y-100000000D01*
X134540000Y-100000000D02*
X135000000Y-99540000D01*
X105160000Y-70000000D02*
X105160000Y-77840000D01*
X105160000Y-77840000D02*
X105000000Y-78000000D01*
X120460000Y-53000000D02*
X120460000Y-59540000D01*
X120460000Y-59540000D02*
X120000000Y-60000000D01*
X120000000Y-60000000D02*
X119500000Y-60000000D01*
X120000000Y-60000000D02*
X133000000Y-60000000D01*
X133000000Y-60000000D02*
X133000000Y-71000000D01*
X133000000Y-71000000D02*
X121000000Y-71000000D01*
X121000000Y-71000000D02*
X119000000Y-73000000D01*
X119000000Y-73000000D02*
X112000000Y-73000000D01*
X84000000Y-51000000D02*
X84000000Y-53474958D01*
X84000000Y-53474958D02*
X82449749Y-55025209D01*
X82449749Y-55025209D02*
X82449749Y-91224121D01*
X82449749Y-91224121D02*
X83775879Y-92550251D01*
X83775879Y-92550251D02*
X93449749Y-92550251D01*
X93449749Y-92550251D02*
X97000511Y-88999489D01*
X97000511Y-88999489D02*
X98000000Y-88000000D01*
X98000000Y-88000000D02*
X104840000Y-88000000D01*
X104840000Y-88000000D02*
X105000000Y-88160000D01*
X92290509Y-52500000D02*
X96960000Y-52500000D01*
X92500000Y-52500000D02*
X92290509Y-52500000D01*
X92290509Y-52500000D02*
X92290509Y-46290509D01*
X88550251Y-42775879D02*
X87224121Y-41449749D01*
X92290509Y-46290509D02*
X88775879Y-42775879D01*
X88775879Y-42775879D02*
X88550251Y-42775879D01*
X83444505Y-93350261D02*
X93781123Y-93350261D01*
X87224121Y-41449749D02*
X84775879Y-41449749D01*
X84775879Y-41449749D02*
X81649739Y-44575889D01*
X98950509Y-89549491D02*
X99500000Y-89000000D01*
X99500000Y-89000000D02*
X102950000Y-89000000D01*
X81649739Y-44575889D02*
X81649739Y-91555495D01*
X81649739Y-91555495D02*
X83444505Y-93350261D01*
X93781123Y-93350261D02*
X97581893Y-89549491D01*
X97581893Y-89549491D02*
X98950509Y-89549491D01*
X102950000Y-89000000D02*
X104650000Y-90700000D01*
X104650000Y-90700000D02*
X105000000Y-90700000D01*
X92500000Y-52500000D02*
X92500000Y-58500000D01*
X92500000Y-58500000D02*
X94000000Y-60000000D01*
X89000000Y-69500000D02*
X89500000Y-70000000D01*
X89500000Y-70000000D02*
X95000000Y-70000000D01*
D26*
X89000000Y-66000000D02*
X89000000Y-69500000D01*
X89000000Y-69500000D02*
X89000000Y-86000000D01*
X85000000Y-70000000D02*
X88500000Y-70000000D01*
X88500000Y-70000000D02*
X89000000Y-69500000D01*
X89000000Y-86000000D02*
X85000000Y-90000000D01*
X89000000Y-49828780D02*
X89000000Y-66000000D01*
X89000000Y-66000000D02*
X90500000Y-67500000D01*
X86000000Y-44000000D02*
X86000000Y-46828780D01*
X86000000Y-46828780D02*
X89000000Y-49828780D01*
D25*
X116500000Y-91000000D02*
X128000000Y-91000000D01*
X116500000Y-96500000D02*
X116500000Y-91000000D01*
X114680000Y-98320000D02*
X116500000Y-96500000D01*
X112620000Y-98320000D02*
X114680000Y-98320000D01*
X108500000Y-67500000D02*
X108500000Y-93000000D01*
X108500000Y-93000000D02*
X108500000Y-94550000D01*
X105000000Y-93240000D02*
X108260000Y-93240000D01*
X108260000Y-93240000D02*
X108500000Y-93000000D01*
X108500000Y-94550000D02*
X112270000Y-98320000D01*
X112270000Y-98320000D02*
X112620000Y-98320000D01*
X90500000Y-67500000D02*
X108500000Y-67500000D01*
X112620000Y-100860000D02*
X117140000Y-100860000D01*
X117140000Y-100860000D02*
X118000000Y-100000000D01*
D26*
X105000000Y-44000000D02*
X109000000Y-40000000D01*
X109000000Y-40000000D02*
X121000000Y-40000000D01*
X121000000Y-40000000D02*
X125000000Y-44000000D01*
D25*
X107000249Y-46000249D02*
X107000249Y-64000249D01*
X110000000Y-67000000D02*
X110000000Y-88430000D01*
X107000249Y-64000249D02*
X110000000Y-67000000D01*
X110000000Y-88430000D02*
X112270000Y-90700000D01*
X112270000Y-90700000D02*
X112620000Y-90700000D01*
D27*
X112970000Y-90700000D02*
X112620000Y-90700000D01*
D25*
X105000000Y-44000000D02*
X107000249Y-46000249D01*
X128000000Y-80840000D02*
X128000000Y-76000000D01*
X112620000Y-88160000D02*
X120680000Y-88160000D01*
X120680000Y-88160000D02*
X128000000Y-80840000D01*
X125500000Y-49500000D02*
X125540000Y-49540000D01*
X125540000Y-49540000D02*
X125540000Y-53000000D01*
X116500000Y-49500000D02*
X125500000Y-49500000D01*
X116500000Y-53340000D02*
X116500000Y-49500000D01*
X109840000Y-60000000D02*
X116500000Y-53340000D01*
D28*
X125540000Y-53000000D02*
X127500000Y-53000000D01*
D26*
X128988780Y-53000000D02*
X127500000Y-53000000D01*
X135160000Y-44000000D02*
X135160000Y-46828780D01*
X135160000Y-46828780D02*
X128988780Y-53000000D01*
D25*
X128000000Y-65840000D02*
X115680000Y-65840000D01*
X115680000Y-65840000D02*
X109840000Y-60000000D01*
D26*
X96160000Y-44000000D02*
X96160000Y-46828780D01*
X96160000Y-46828780D02*
X99331220Y-50000000D01*
X99331220Y-50000000D02*
X99500000Y-50000000D01*
D28*
X99500000Y-52500000D02*
X99500000Y-50000000D01*
D25*
X106700010Y-97760808D02*
X106700010Y-96049990D01*
X97000000Y-109500000D02*
X97000000Y-113500000D01*
X97000000Y-113500000D02*
X98500000Y-115000000D01*
X98000000Y-108500000D02*
X97000000Y-109500000D01*
X103000000Y-108500000D02*
X98000000Y-108500000D01*
X103000000Y-111279202D02*
X103000000Y-108500000D01*
X106700010Y-111579192D02*
X105909192Y-112370010D01*
X105909192Y-112370010D02*
X104090808Y-112370010D01*
X104090808Y-112370010D02*
X103000000Y-111279202D01*
X106700010Y-97760808D02*
X106700010Y-111579192D01*
D29*
X95000000Y-96000000D02*
X95000000Y-96500000D01*
X95000000Y-96000000D02*
X91950000Y-96000000D01*
D30*
G36*
X104616240Y-41364414D02*
X104478116Y-41364293D01*
X103509201Y-41764641D01*
X102767246Y-42505302D01*
X102365208Y-43473517D01*
X102364293Y-44521884D01*
X102764641Y-45490799D01*
X103505302Y-46232754D01*
X104473517Y-46634792D01*
X105521884Y-46635707D01*
X106115249Y-46390533D01*
X106115249Y-64000244D01*
X106115248Y-64000249D01*
X106171439Y-64282733D01*
X106182616Y-64338924D01*
X106260278Y-64455154D01*
X106374459Y-64626039D01*
X109115000Y-67366579D01*
X109115000Y-88429995D01*
X109114999Y-88430000D01*
X109161014Y-88661326D01*
X109182367Y-88768675D01*
X109336591Y-88999489D01*
X109374210Y-89055790D01*
X110836263Y-90517843D01*
X110800030Y-90700000D01*
X110909263Y-91249151D01*
X111220332Y-91714698D01*
X111602418Y-91970000D01*
X111220332Y-92225302D01*
X110909263Y-92690849D01*
X110800030Y-93240000D01*
X110909263Y-93789151D01*
X111220332Y-94254698D01*
X111602418Y-94510000D01*
X111220332Y-94765302D01*
X110909263Y-95230849D01*
X110800030Y-95780000D01*
X110909263Y-96329151D01*
X111220332Y-96794698D01*
X111598151Y-97047149D01*
X111165500Y-97395104D01*
X110895633Y-97888181D01*
X110878096Y-97970961D01*
X111000085Y-98193000D01*
X112493000Y-98193000D01*
X112493000Y-98173000D01*
X112747000Y-98173000D01*
X112747000Y-98193000D01*
X114239915Y-98193000D01*
X114361904Y-97970961D01*
X114344367Y-97888181D01*
X114074500Y-97395104D01*
X113641849Y-97047149D01*
X114019668Y-96794698D01*
X114330737Y-96329151D01*
X114439970Y-95780000D01*
X114330737Y-95230849D01*
X114019668Y-94765302D01*
X113637582Y-94510000D01*
X114019668Y-94254698D01*
X114330737Y-93789151D01*
X114439970Y-93240000D01*
X114330737Y-92690849D01*
X114019668Y-92225302D01*
X113910208Y-92152163D01*
X127027443Y-92152163D01*
X127126042Y-92418965D01*
X127735582Y-92645401D01*
X128385377Y-92621341D01*
X128873958Y-92418965D01*
X128972557Y-92152163D01*
X128000000Y-91179605D01*
X127027443Y-92152163D01*
X113910208Y-92152163D01*
X113637582Y-91970000D01*
X114019668Y-91714698D01*
X114330737Y-91249151D01*
X114432892Y-90735582D01*
X126354599Y-90735582D01*
X126378659Y-91385377D01*
X126581035Y-91873958D01*
X126847837Y-91972557D01*
X127820395Y-91000000D01*
X128179605Y-91000000D01*
X129152163Y-91972557D01*
X129418965Y-91873958D01*
X129645401Y-91264418D01*
X129621341Y-90614623D01*
X129418965Y-90126042D01*
X129152163Y-90027443D01*
X128179605Y-91000000D01*
X127820395Y-91000000D01*
X126847837Y-90027443D01*
X126581035Y-90126042D01*
X126354599Y-90735582D01*
X114432892Y-90735582D01*
X114439970Y-90700000D01*
X114330737Y-90150849D01*
X114128271Y-89847837D01*
X127027443Y-89847837D01*
X128000000Y-90820395D01*
X128972557Y-89847837D01*
X128873958Y-89581035D01*
X128264418Y-89354599D01*
X127614623Y-89378659D01*
X127126042Y-89581035D01*
X127027443Y-89847837D01*
X114128271Y-89847837D01*
X114019668Y-89685302D01*
X113637582Y-89430000D01*
X114019668Y-89174698D01*
X114106330Y-89045000D01*
X120679995Y-89045000D01*
X120680000Y-89045001D01*
X120962484Y-88988810D01*
X121018675Y-88977633D01*
X121305790Y-88785790D01*
X121305791Y-88785789D01*
X127633827Y-82457752D01*
X127673453Y-82474206D01*
X128323694Y-82474774D01*
X128924655Y-82226462D01*
X129384846Y-81767073D01*
X129634206Y-81166547D01*
X129634774Y-80516306D01*
X129386462Y-79915345D01*
X128927073Y-79455154D01*
X128885000Y-79437684D01*
X128885000Y-77402847D01*
X128924655Y-77386462D01*
X129384846Y-76927073D01*
X129634206Y-76326547D01*
X129634774Y-75676306D01*
X129386462Y-75075345D01*
X128927073Y-74615154D01*
X128326547Y-74365794D01*
X127676306Y-74365226D01*
X127075345Y-74613538D01*
X126615154Y-75072927D01*
X126365794Y-75673453D01*
X126365226Y-76323694D01*
X126613538Y-76924655D01*
X127072927Y-77384846D01*
X127115000Y-77402316D01*
X127115000Y-79437153D01*
X127075345Y-79453538D01*
X126615154Y-79912927D01*
X126365794Y-80513453D01*
X126365226Y-81163694D01*
X126382623Y-81205798D01*
X120313420Y-87275000D01*
X114106330Y-87275000D01*
X114019668Y-87145302D01*
X113637582Y-86890000D01*
X114019668Y-86634698D01*
X114330737Y-86169151D01*
X114439970Y-85620000D01*
X114330737Y-85070849D01*
X114019668Y-84605302D01*
X113637582Y-84350000D01*
X114019668Y-84094698D01*
X114330737Y-83629151D01*
X114439970Y-83080000D01*
X114330737Y-82530849D01*
X114019668Y-82065302D01*
X113637582Y-81810000D01*
X114019668Y-81554698D01*
X114330737Y-81089151D01*
X114439970Y-80540000D01*
X114330737Y-79990849D01*
X114019668Y-79525302D01*
X113637582Y-79270000D01*
X114019668Y-79014698D01*
X114330737Y-78549151D01*
X114439970Y-78000000D01*
X114330737Y-77450849D01*
X114019668Y-76985302D01*
X113554121Y-76674233D01*
X113004970Y-76565000D01*
X112235030Y-76565000D01*
X111685879Y-76674233D01*
X111220332Y-76985302D01*
X110909263Y-77450849D01*
X110885000Y-77572827D01*
X110885000Y-67000005D01*
X110885001Y-67000000D01*
X110817634Y-66661326D01*
X110686981Y-66465790D01*
X110625790Y-66374210D01*
X110625787Y-66374208D01*
X107885249Y-63633669D01*
X107885249Y-60323694D01*
X108205226Y-60323694D01*
X108453538Y-60924655D01*
X108912927Y-61384846D01*
X109513453Y-61634206D01*
X110163694Y-61634774D01*
X110205797Y-61617377D01*
X115054208Y-66465787D01*
X115054210Y-66465790D01*
X115341325Y-66657633D01*
X115680000Y-66725001D01*
X115680005Y-66725000D01*
X126597153Y-66725000D01*
X126613538Y-66764655D01*
X127072927Y-67224846D01*
X127673453Y-67474206D01*
X128323694Y-67474774D01*
X128924655Y-67226462D01*
X129384846Y-66767073D01*
X129634206Y-66166547D01*
X129634774Y-65516306D01*
X129386462Y-64915345D01*
X128927073Y-64455154D01*
X128326547Y-64205794D01*
X127676306Y-64205226D01*
X127075345Y-64453538D01*
X126615154Y-64912927D01*
X126597684Y-64955000D01*
X116046579Y-64955000D01*
X111457752Y-60366172D01*
X111474206Y-60326547D01*
X111474774Y-59676306D01*
X111457377Y-59634203D01*
X117125787Y-53965792D01*
X117125790Y-53965790D01*
X117317633Y-53678675D01*
X117385000Y-53340000D01*
X117385000Y-50385000D01*
X124655000Y-50385000D01*
X124655000Y-51367829D01*
X124207104Y-51667104D01*
X124154524Y-51745795D01*
X123979746Y-51484221D01*
X123530235Y-51183867D01*
X123000000Y-51078397D01*
X122469765Y-51183867D01*
X122020254Y-51484221D01*
X121730000Y-51918616D01*
X121439746Y-51484221D01*
X120990235Y-51183867D01*
X120460000Y-51078397D01*
X119929765Y-51183867D01*
X119480254Y-51484221D01*
X119179900Y-51933732D01*
X119074430Y-52463967D01*
X119074430Y-53536033D01*
X119179900Y-54066268D01*
X119480254Y-54515779D01*
X119575000Y-54579086D01*
X119575000Y-58407085D01*
X119075345Y-58613538D01*
X118615154Y-59072927D01*
X118365794Y-59673453D01*
X118365226Y-60323694D01*
X118613538Y-60924655D01*
X119072927Y-61384846D01*
X119673453Y-61634206D01*
X120323694Y-61634774D01*
X120924655Y-61386462D01*
X121384846Y-60927073D01*
X121402316Y-60885000D01*
X132115000Y-60885000D01*
X132115000Y-70115000D01*
X121000005Y-70115000D01*
X121000000Y-70114999D01*
X120675210Y-70179605D01*
X120661325Y-70182367D01*
X120374210Y-70374210D01*
X120374208Y-70374213D01*
X118633420Y-72115000D01*
X112306822Y-72115000D01*
X112186799Y-72065162D01*
X111814833Y-72064838D01*
X111471057Y-72206883D01*
X111207808Y-72469673D01*
X111065162Y-72813201D01*
X111064838Y-73185167D01*
X111206883Y-73528943D01*
X111469673Y-73792192D01*
X111813201Y-73934838D01*
X112185167Y-73935162D01*
X112306569Y-73885000D01*
X118999995Y-73885000D01*
X119000000Y-73885001D01*
X119282484Y-73828810D01*
X119338675Y-73817633D01*
X119625790Y-73625790D01*
X121366579Y-71885000D01*
X133000000Y-71885000D01*
X133338675Y-71817633D01*
X133625790Y-71625790D01*
X133817633Y-71338675D01*
X133885000Y-71000000D01*
X133885000Y-60000000D01*
X133817633Y-59661325D01*
X133625790Y-59374210D01*
X133338675Y-59182367D01*
X133000000Y-59115000D01*
X121402847Y-59115000D01*
X121386462Y-59075345D01*
X121345000Y-59033811D01*
X121345000Y-54579086D01*
X121439746Y-54515779D01*
X121730000Y-54081384D01*
X122020254Y-54515779D01*
X122469765Y-54816133D01*
X123000000Y-54921603D01*
X123530235Y-54816133D01*
X123979746Y-54515779D01*
X124154524Y-54254205D01*
X124207104Y-54332896D01*
X124818642Y-54741513D01*
X124931764Y-54764014D01*
X125009765Y-54816133D01*
X125540000Y-54921603D01*
X125724016Y-54885000D01*
X126552043Y-54885000D01*
X126682971Y-54972483D01*
X127500000Y-55135000D01*
X128988780Y-55135000D01*
X129805809Y-54972483D01*
X130498453Y-54509673D01*
X136669673Y-48338453D01*
X137132483Y-47645809D01*
X137295000Y-46828780D01*
X137295000Y-45592282D01*
X137392754Y-45494698D01*
X137794792Y-44526483D01*
X137795707Y-43478116D01*
X137395359Y-42509201D01*
X136654698Y-41767246D01*
X135686483Y-41365208D01*
X134638116Y-41364293D01*
X133669201Y-41764641D01*
X132927246Y-42505302D01*
X132525208Y-43473517D01*
X132524293Y-44521884D01*
X132924641Y-45490799D01*
X133025000Y-45591333D01*
X133025000Y-45944434D01*
X128104434Y-50865000D01*
X127500000Y-50865000D01*
X126682971Y-51027517D01*
X126552043Y-51115000D01*
X126425000Y-51115000D01*
X126425000Y-49540005D01*
X126425001Y-49540000D01*
X126357634Y-49201326D01*
X126293975Y-49106054D01*
X126165790Y-48914210D01*
X126165787Y-48914208D01*
X126125790Y-48874210D01*
X126016616Y-48801263D01*
X125838675Y-48682367D01*
X125761943Y-48667104D01*
X125500000Y-48614999D01*
X125499995Y-48615000D01*
X116500000Y-48615000D01*
X116161325Y-48682367D01*
X115874210Y-48874210D01*
X115682367Y-49161325D01*
X115615000Y-49500000D01*
X115615000Y-52973421D01*
X110206172Y-58382248D01*
X110166547Y-58365794D01*
X109516306Y-58365226D01*
X108915345Y-58613538D01*
X108455154Y-59072927D01*
X108205794Y-59673453D01*
X108205226Y-60323694D01*
X107885249Y-60323694D01*
X107885249Y-46000254D01*
X107885250Y-46000249D01*
X107817882Y-45661574D01*
X107626039Y-45374459D01*
X107626036Y-45374457D01*
X107383424Y-45131845D01*
X107634792Y-44526483D01*
X107634916Y-44384430D01*
X109884346Y-42135000D01*
X113298195Y-42135000D01*
X112927246Y-42505302D01*
X112525208Y-43473517D01*
X112524293Y-44521884D01*
X112924641Y-45490799D01*
X113665302Y-46232754D01*
X114633517Y-46634792D01*
X115681884Y-46635707D01*
X116650799Y-46235359D01*
X117392754Y-45494698D01*
X117794792Y-44526483D01*
X117795707Y-43478116D01*
X117395359Y-42509201D01*
X117021811Y-42135000D01*
X120115654Y-42135000D01*
X122364414Y-44383760D01*
X122364293Y-44521884D01*
X122764641Y-45490799D01*
X123505302Y-46232754D01*
X124473517Y-46634792D01*
X125521884Y-46635707D01*
X126490799Y-46235359D01*
X127232754Y-45494698D01*
X127634792Y-44526483D01*
X127635707Y-43478116D01*
X127235359Y-42509201D01*
X126494698Y-41767246D01*
X125526483Y-41365208D01*
X125384430Y-41365084D01*
X123204346Y-39185000D01*
X139315000Y-39185000D01*
X139315000Y-119315000D01*
X80685000Y-119315000D01*
X80685000Y-96224775D01*
X88914803Y-96224775D01*
X89087233Y-96642086D01*
X89406235Y-96961645D01*
X89823244Y-97134803D01*
X90274775Y-97135197D01*
X90275252Y-97135000D01*
X91949009Y-97135000D01*
X92174775Y-97135197D01*
X92477774Y-97010000D01*
X94149395Y-97010000D01*
X94285822Y-97214178D01*
X94613490Y-97433118D01*
X95000000Y-97510000D01*
X95386510Y-97433118D01*
X95714178Y-97214178D01*
X95933118Y-96886510D01*
X95933694Y-96883615D01*
X96088735Y-96728845D01*
X96202560Y-96454724D01*
X96202560Y-96650000D01*
X96246838Y-96885317D01*
X96385910Y-97101441D01*
X96598110Y-97246431D01*
X96850000Y-97297440D01*
X98150000Y-97297440D01*
X98385317Y-97253162D01*
X98547330Y-97148910D01*
X99852951Y-98454530D01*
X97133874Y-101173606D01*
X96725602Y-101173250D01*
X96216163Y-101383746D01*
X95826056Y-101773173D01*
X95614671Y-102282244D01*
X95614190Y-102833458D01*
X95824686Y-103342897D01*
X96214113Y-103733004D01*
X96723184Y-103944389D01*
X97274398Y-103944870D01*
X97783837Y-103734374D01*
X98173944Y-103344947D01*
X98385329Y-102835876D01*
X98385688Y-102424952D01*
X101605639Y-99205000D01*
X103513670Y-99205000D01*
X103600332Y-99334698D01*
X103982418Y-99590000D01*
X103600332Y-99845302D01*
X103289263Y-100310849D01*
X103180030Y-100860000D01*
X103216263Y-101042157D01*
X102674200Y-101584220D01*
X102482357Y-101871335D01*
X102482357Y-101871336D01*
X102414989Y-102210010D01*
X102414990Y-102210015D01*
X102414990Y-106555940D01*
X98074327Y-106555940D01*
X97785887Y-106266996D01*
X97276816Y-106055611D01*
X96725602Y-106055130D01*
X96216163Y-106265626D01*
X95826056Y-106655053D01*
X95614671Y-107164124D01*
X95614312Y-107575048D01*
X95374210Y-107815150D01*
X95182367Y-108102265D01*
X95182367Y-108102266D01*
X95114999Y-108440940D01*
X95115000Y-108440945D01*
X95115000Y-113746778D01*
X95114683Y-113746838D01*
X94898559Y-113885910D01*
X94753569Y-114098110D01*
X94702560Y-114350000D01*
X94702560Y-115650000D01*
X94746838Y-115885317D01*
X94885910Y-116101441D01*
X95098110Y-116246431D01*
X95350000Y-116297440D01*
X96650000Y-116297440D01*
X96885317Y-116253162D01*
X97101441Y-116114090D01*
X97246431Y-115901890D01*
X97297440Y-115650000D01*
X97297440Y-115454540D01*
X97409995Y-115726943D01*
X97771155Y-116088735D01*
X98243276Y-116284777D01*
X98754481Y-116285223D01*
X99226943Y-116090005D01*
X99588735Y-115728845D01*
X99784777Y-115256724D01*
X99785223Y-114745519D01*
X99590005Y-114273057D01*
X99228845Y-113911265D01*
X98756724Y-113715223D01*
X98466549Y-113714970D01*
X97885000Y-113133420D01*
X97885000Y-109866580D01*
X98366579Y-109385000D01*
X102115000Y-109385000D01*
X102115000Y-111279197D01*
X102114999Y-111279202D01*
X102155938Y-111485010D01*
X102182367Y-111617877D01*
X102374210Y-111904992D01*
X103465016Y-112995797D01*
X103465018Y-112995800D01*
X103712747Y-113161326D01*
X103752133Y-113187643D01*
X104090808Y-113255010D01*
X105909187Y-113255010D01*
X105909192Y-113255011D01*
X106191676Y-113198820D01*
X106247867Y-113187643D01*
X106534982Y-112995800D01*
X106534983Y-112995799D01*
X107325797Y-112204984D01*
X107325800Y-112204982D01*
X107517643Y-111917867D01*
X107517644Y-111917866D01*
X107585011Y-111579192D01*
X107585010Y-111579187D01*
X107585010Y-100860000D01*
X110800030Y-100860000D01*
X110909263Y-101409151D01*
X111220332Y-101874698D01*
X111602418Y-102130000D01*
X111220332Y-102385302D01*
X110909263Y-102850849D01*
X110800030Y-103400000D01*
X110909263Y-103949151D01*
X111220332Y-104414698D01*
X111602418Y-104670000D01*
X111220332Y-104925302D01*
X110909263Y-105390849D01*
X110800030Y-105940000D01*
X110909263Y-106489151D01*
X111220332Y-106954698D01*
X111602418Y-107210000D01*
X111220332Y-107465302D01*
X110909263Y-107930849D01*
X110800030Y-108480000D01*
X110909263Y-109029151D01*
X111220332Y-109494698D01*
X111602418Y-109750000D01*
X111220332Y-110005302D01*
X110909263Y-110470849D01*
X110800030Y-111020000D01*
X110909263Y-111569151D01*
X111220332Y-112034698D01*
X111685879Y-112345767D01*
X112235030Y-112455000D01*
X113004970Y-112455000D01*
X113554121Y-112345767D01*
X114019668Y-112034698D01*
X114330737Y-111569151D01*
X114439970Y-111020000D01*
X114330737Y-110470849D01*
X114019668Y-110005302D01*
X113637582Y-109750000D01*
X114019668Y-109494698D01*
X114330737Y-109029151D01*
X114439970Y-108480000D01*
X114330737Y-107930849D01*
X114019668Y-107465302D01*
X113637582Y-107210000D01*
X114019668Y-106954698D01*
X114330737Y-106489151D01*
X114439970Y-105940000D01*
X114330737Y-105390849D01*
X114019668Y-104925302D01*
X113637582Y-104670000D01*
X114019668Y-104414698D01*
X114330737Y-103949151D01*
X114439970Y-103400000D01*
X114330737Y-102850849D01*
X114019668Y-102385302D01*
X113637582Y-102130000D01*
X114019668Y-101874698D01*
X114106330Y-101745000D01*
X117139995Y-101745000D01*
X117140000Y-101745001D01*
X117422484Y-101688810D01*
X117478675Y-101677633D01*
X117593411Y-101600970D01*
X117673453Y-101634206D01*
X118323694Y-101634774D01*
X118924655Y-101386462D01*
X119384846Y-100927073D01*
X119634206Y-100326547D01*
X119634208Y-100323694D01*
X126525226Y-100323694D01*
X126773538Y-100924655D01*
X127232927Y-101384846D01*
X127833453Y-101634206D01*
X128483694Y-101634774D01*
X129084655Y-101386462D01*
X129544846Y-100927073D01*
X129562316Y-100885000D01*
X134032429Y-100885000D01*
X134072637Y-100925278D01*
X134673352Y-101174716D01*
X135323795Y-101175284D01*
X135924943Y-100926894D01*
X136385278Y-100467363D01*
X136634716Y-99866648D01*
X136635284Y-99216205D01*
X136386894Y-98615057D01*
X136320379Y-98548426D01*
X136451441Y-98464090D01*
X136596431Y-98251890D01*
X136647440Y-98000000D01*
X136647440Y-96000000D01*
X136603162Y-95764683D01*
X136464090Y-95548559D01*
X136251890Y-95403569D01*
X136000000Y-95352560D01*
X134000000Y-95352560D01*
X133764683Y-95396838D01*
X133548559Y-95535910D01*
X133403569Y-95748110D01*
X133352560Y-96000000D01*
X133352560Y-98000000D01*
X133396838Y-98235317D01*
X133535910Y-98451441D01*
X133678561Y-98548910D01*
X133614722Y-98612637D01*
X133406123Y-99115000D01*
X129562847Y-99115000D01*
X129546462Y-99075345D01*
X129087073Y-98615154D01*
X128486547Y-98365794D01*
X127836306Y-98365226D01*
X127235345Y-98613538D01*
X126775154Y-99072927D01*
X126525794Y-99673453D01*
X126525226Y-100323694D01*
X119634208Y-100323694D01*
X119634774Y-99676306D01*
X119386462Y-99075345D01*
X118927073Y-98615154D01*
X118326547Y-98365794D01*
X117676306Y-98365226D01*
X117075345Y-98613538D01*
X116615154Y-99072927D01*
X116365794Y-99673453D01*
X116365531Y-99975000D01*
X114106330Y-99975000D01*
X114019668Y-99845302D01*
X113641849Y-99592851D01*
X114074500Y-99244896D01*
X114344367Y-98751819D01*
X114361904Y-98669039D01*
X114239915Y-98447000D01*
X112747000Y-98447000D01*
X112747000Y-98467000D01*
X112493000Y-98467000D01*
X112493000Y-98447000D01*
X111000085Y-98447000D01*
X110878096Y-98669039D01*
X110895633Y-98751819D01*
X111165500Y-99244896D01*
X111598151Y-99592851D01*
X111220332Y-99845302D01*
X110909263Y-100310849D01*
X110800030Y-100860000D01*
X107585010Y-100860000D01*
X107585010Y-96427210D01*
X107684838Y-96186799D01*
X107685162Y-95814833D01*
X107543117Y-95471057D01*
X107280327Y-95207808D01*
X106936799Y-95065162D01*
X106599832Y-95064868D01*
X106399668Y-94765302D01*
X106021849Y-94512851D01*
X106454500Y-94164896D01*
X106724367Y-93671819D01*
X106741904Y-93589039D01*
X106619915Y-93367000D01*
X105127000Y-93367000D01*
X105127000Y-93387000D01*
X104873000Y-93387000D01*
X104873000Y-93367000D01*
X103380085Y-93367000D01*
X103258096Y-93589039D01*
X103275633Y-93671819D01*
X103545500Y-94164896D01*
X103978151Y-94512851D01*
X103600332Y-94765302D01*
X103289263Y-95230849D01*
X103180030Y-95780000D01*
X103289263Y-96329151D01*
X103600332Y-96794698D01*
X103982418Y-97050000D01*
X103600332Y-97305302D01*
X103513670Y-97435000D01*
X101336579Y-97435000D01*
X99275790Y-95374210D01*
X99143507Y-95285822D01*
X98988675Y-95182367D01*
X98932484Y-95171190D01*
X98757235Y-95136330D01*
X98753162Y-95114683D01*
X98614090Y-94898559D01*
X98401890Y-94753569D01*
X98150000Y-94702560D01*
X96850000Y-94702560D01*
X96614683Y-94746838D01*
X96398559Y-94885910D01*
X96253569Y-95098110D01*
X96202560Y-95350000D01*
X96202560Y-95545460D01*
X96090005Y-95273057D01*
X95728845Y-94911265D01*
X95256724Y-94715223D01*
X94745519Y-94714777D01*
X94273057Y-94909995D01*
X94192912Y-94990000D01*
X92477314Y-94990000D01*
X92176756Y-94865197D01*
X91725225Y-94864803D01*
X91724748Y-94865000D01*
X90050990Y-94865000D01*
X89825225Y-94864803D01*
X89407914Y-95037233D01*
X89088355Y-95356235D01*
X88915197Y-95773244D01*
X88914803Y-96224775D01*
X80685000Y-96224775D01*
X80685000Y-44575889D01*
X80764738Y-44575889D01*
X80764739Y-44575894D01*
X80764739Y-91555490D01*
X80764738Y-91555495D01*
X80799971Y-91732618D01*
X80832106Y-91894170D01*
X80920036Y-92025767D01*
X81023949Y-92181285D01*
X82818713Y-93976048D01*
X82818715Y-93976051D01*
X83101343Y-94164896D01*
X83105830Y-94167894D01*
X83444505Y-94235261D01*
X93781118Y-94235261D01*
X93781123Y-94235262D01*
X94063607Y-94179071D01*
X94119798Y-94167894D01*
X94406913Y-93976051D01*
X94406914Y-93976050D01*
X97948472Y-90434491D01*
X98950504Y-90434491D01*
X98950509Y-90434492D01*
X99232993Y-90378301D01*
X99289184Y-90367124D01*
X99576299Y-90175281D01*
X99866579Y-89885000D01*
X102583420Y-89885000D01*
X103216263Y-90517843D01*
X103180030Y-90700000D01*
X103289263Y-91249151D01*
X103600332Y-91714698D01*
X103978151Y-91967149D01*
X103545500Y-92315104D01*
X103275633Y-92808181D01*
X103258096Y-92890961D01*
X103380085Y-93113000D01*
X104873000Y-93113000D01*
X104873000Y-93093000D01*
X105127000Y-93093000D01*
X105127000Y-93113000D01*
X106619915Y-93113000D01*
X106741904Y-92890961D01*
X106724367Y-92808181D01*
X106454500Y-92315104D01*
X106021849Y-91967149D01*
X106399668Y-91714698D01*
X106710737Y-91249151D01*
X106819970Y-90700000D01*
X106710737Y-90150849D01*
X106399668Y-89685302D01*
X106017582Y-89430000D01*
X106399668Y-89174698D01*
X106710737Y-88709151D01*
X106819970Y-88160000D01*
X106710737Y-87610849D01*
X106399668Y-87145302D01*
X106017582Y-86890000D01*
X106399668Y-86634698D01*
X106710737Y-86169151D01*
X106819970Y-85620000D01*
X106710737Y-85070849D01*
X106399668Y-84605302D01*
X106017582Y-84350000D01*
X106399668Y-84094698D01*
X106710737Y-83629151D01*
X106819970Y-83080000D01*
X106710737Y-82530849D01*
X106399668Y-82065302D01*
X106017582Y-81810000D01*
X106399668Y-81554698D01*
X106710737Y-81089151D01*
X106819970Y-80540000D01*
X106710737Y-79990849D01*
X106399668Y-79525302D01*
X106017582Y-79270000D01*
X106399668Y-79014698D01*
X106710737Y-78549151D01*
X106819970Y-78000000D01*
X106710737Y-77450849D01*
X106399668Y-76985302D01*
X106045000Y-76748320D01*
X106045000Y-71402847D01*
X106084655Y-71386462D01*
X106544846Y-70927073D01*
X106794206Y-70326547D01*
X106794774Y-69676306D01*
X106546462Y-69075345D01*
X106087073Y-68615154D01*
X105486547Y-68365794D01*
X104836306Y-68365226D01*
X104235345Y-68613538D01*
X103775154Y-69072927D01*
X103525794Y-69673453D01*
X103525226Y-70323694D01*
X103773538Y-70924655D01*
X104232927Y-71384846D01*
X104275000Y-71402316D01*
X104275000Y-76632636D01*
X104065879Y-76674233D01*
X103600332Y-76985302D01*
X103289263Y-77450849D01*
X103180030Y-78000000D01*
X103289263Y-78549151D01*
X103600332Y-79014698D01*
X103982418Y-79270000D01*
X103600332Y-79525302D01*
X103289263Y-79990849D01*
X103180030Y-80540000D01*
X103289263Y-81089151D01*
X103600332Y-81554698D01*
X103982418Y-81810000D01*
X103600332Y-82065302D01*
X103289263Y-82530849D01*
X103180030Y-83080000D01*
X103289263Y-83629151D01*
X103600332Y-84094698D01*
X103982418Y-84350000D01*
X103600332Y-84605302D01*
X103289263Y-85070849D01*
X103180030Y-85620000D01*
X103289263Y-86169151D01*
X103600332Y-86634698D01*
X103982418Y-86890000D01*
X103645682Y-87115000D01*
X99402847Y-87115000D01*
X99386462Y-87075345D01*
X98927073Y-86615154D01*
X98326547Y-86365794D01*
X97676306Y-86365226D01*
X97075345Y-86613538D01*
X96615154Y-87072927D01*
X96365794Y-87673453D01*
X96365226Y-88323694D01*
X96382623Y-88365797D01*
X96374721Y-88373699D01*
X96374719Y-88373702D01*
X93083169Y-91665251D01*
X86926156Y-91665251D01*
X87245949Y-91474797D01*
X87639367Y-90503047D01*
X87630965Y-89454713D01*
X87245949Y-88525203D01*
X86875202Y-88304403D01*
X85179605Y-90000000D01*
X85193748Y-90014143D01*
X85014143Y-90193748D01*
X85000000Y-90179605D01*
X84985858Y-90193748D01*
X84806253Y-90014143D01*
X84820395Y-90000000D01*
X84806253Y-89985858D01*
X84985858Y-89806253D01*
X85000000Y-89820395D01*
X86695597Y-88124798D01*
X86474797Y-87754051D01*
X85503047Y-87360633D01*
X84454713Y-87369035D01*
X83525203Y-87754051D01*
X83334749Y-88073844D01*
X83334749Y-81901903D01*
X83505302Y-82072754D01*
X84473517Y-82474792D01*
X85521884Y-82475707D01*
X86490799Y-82075359D01*
X87232754Y-81334698D01*
X87634792Y-80366483D01*
X87635707Y-79318116D01*
X87235359Y-78349201D01*
X87050176Y-78163694D01*
X96365226Y-78163694D01*
X96613538Y-78764655D01*
X97072927Y-79224846D01*
X97673453Y-79474206D01*
X98323694Y-79474774D01*
X98924655Y-79226462D01*
X99384846Y-78767073D01*
X99634206Y-78166547D01*
X99634774Y-77516306D01*
X99386462Y-76915345D01*
X98927073Y-76455154D01*
X98326547Y-76205794D01*
X97676306Y-76205226D01*
X97075345Y-76453538D01*
X96615154Y-76912927D01*
X96365794Y-77513453D01*
X96365226Y-78163694D01*
X87050176Y-78163694D01*
X86494698Y-77607246D01*
X85526483Y-77205208D01*
X84478116Y-77204293D01*
X83509201Y-77604641D01*
X83334749Y-77778789D01*
X83334749Y-71926156D01*
X83525203Y-72245949D01*
X84496953Y-72639367D01*
X85545287Y-72630965D01*
X86474797Y-72245949D01*
X86695597Y-71875202D01*
X85000000Y-70179605D01*
X84985858Y-70193748D01*
X84806253Y-70014143D01*
X84820395Y-70000000D01*
X85179605Y-70000000D01*
X86875202Y-71695597D01*
X87245949Y-71474797D01*
X87376569Y-71152163D01*
X94027443Y-71152163D01*
X94126042Y-71418965D01*
X94735582Y-71645401D01*
X95385377Y-71621341D01*
X95873958Y-71418965D01*
X95972557Y-71152163D01*
X95000000Y-70179605D01*
X94027443Y-71152163D01*
X87376569Y-71152163D01*
X87639367Y-70503047D01*
X87633217Y-69735582D01*
X93354599Y-69735582D01*
X93378659Y-70385377D01*
X93581035Y-70873958D01*
X93847837Y-70972557D01*
X94820395Y-70000000D01*
X95179605Y-70000000D01*
X96152163Y-70972557D01*
X96418965Y-70873958D01*
X96645401Y-70264418D01*
X96621341Y-69614623D01*
X96418965Y-69126042D01*
X96152163Y-69027443D01*
X95179605Y-70000000D01*
X94820395Y-70000000D01*
X93847837Y-69027443D01*
X93581035Y-69126042D01*
X93354599Y-69735582D01*
X87633217Y-69735582D01*
X87630965Y-69454713D01*
X87379589Y-68847837D01*
X94027443Y-68847837D01*
X95000000Y-69820395D01*
X95972557Y-68847837D01*
X95873958Y-68581035D01*
X95264418Y-68354599D01*
X94614623Y-68378659D01*
X94126042Y-68581035D01*
X94027443Y-68847837D01*
X87379589Y-68847837D01*
X87245949Y-68525203D01*
X86875202Y-68304403D01*
X85179605Y-70000000D01*
X84820395Y-70000000D01*
X84806253Y-69985858D01*
X84985858Y-69806253D01*
X85000000Y-69820395D01*
X86695597Y-68124798D01*
X86474797Y-67754051D01*
X85503047Y-67360633D01*
X84454713Y-67369035D01*
X83525203Y-67754051D01*
X83334749Y-68073844D01*
X83334749Y-61901903D01*
X83505302Y-62072754D01*
X84473517Y-62474792D01*
X85521884Y-62475707D01*
X86490799Y-62075359D01*
X87232754Y-61334698D01*
X87634792Y-60366483D01*
X87635707Y-59318116D01*
X87235359Y-58349201D01*
X86494698Y-57607246D01*
X85526483Y-57205208D01*
X84478116Y-57204293D01*
X83509201Y-57604641D01*
X83334749Y-57778789D01*
X83334749Y-55391789D01*
X84625787Y-54100750D01*
X84625790Y-54100748D01*
X84817633Y-53813633D01*
X84844478Y-53678675D01*
X84885001Y-53474958D01*
X84885000Y-53474953D01*
X84885000Y-53214964D01*
X85349263Y-53023134D01*
X86020776Y-52352792D01*
X86384645Y-51476499D01*
X86385473Y-50527664D01*
X86023134Y-49650737D01*
X85352792Y-48979224D01*
X84476499Y-48615355D01*
X83527664Y-48614527D01*
X82650737Y-48976866D01*
X82534739Y-49092662D01*
X82534739Y-45875202D01*
X84304403Y-45875202D01*
X84525203Y-46245949D01*
X85496953Y-46639367D01*
X86545287Y-46630965D01*
X87474797Y-46245949D01*
X87695597Y-45875202D01*
X86000000Y-44179605D01*
X84304403Y-45875202D01*
X82534739Y-45875202D01*
X82534739Y-44942469D01*
X83365560Y-44111648D01*
X83369035Y-44545287D01*
X83754051Y-45474797D01*
X84124798Y-45695597D01*
X85820395Y-44000000D01*
X85806253Y-43985858D01*
X85985858Y-43806253D01*
X86000000Y-43820395D01*
X86014143Y-43806253D01*
X86193748Y-43985858D01*
X86179605Y-44000000D01*
X87875202Y-45695597D01*
X88245949Y-45474797D01*
X88639367Y-44503047D01*
X88634422Y-43886001D01*
X91405509Y-46657088D01*
X91405509Y-52500000D01*
X91472876Y-52838675D01*
X91615000Y-53051380D01*
X91615000Y-58499995D01*
X91614999Y-58500000D01*
X91645831Y-58654999D01*
X91682367Y-58838675D01*
X91838888Y-59072927D01*
X91874210Y-59125790D01*
X92382248Y-59633828D01*
X92365794Y-59673453D01*
X92365226Y-60323694D01*
X92613538Y-60924655D01*
X93072927Y-61384846D01*
X93673453Y-61634206D01*
X94323694Y-61634774D01*
X94924655Y-61386462D01*
X95384846Y-60927073D01*
X95634206Y-60326547D01*
X95634208Y-60323694D01*
X102525226Y-60323694D01*
X102773538Y-60924655D01*
X103232927Y-61384846D01*
X103833453Y-61634206D01*
X104483694Y-61634774D01*
X105084655Y-61386462D01*
X105544846Y-60927073D01*
X105794206Y-60326547D01*
X105794774Y-59676306D01*
X105546462Y-59075345D01*
X105087073Y-58615154D01*
X104486547Y-58365794D01*
X103836306Y-58365226D01*
X103235345Y-58613538D01*
X102775154Y-59072927D01*
X102525794Y-59673453D01*
X102525226Y-60323694D01*
X95634208Y-60323694D01*
X95634774Y-59676306D01*
X95386462Y-59075345D01*
X94927073Y-58615154D01*
X94326547Y-58365794D01*
X93676306Y-58365226D01*
X93634202Y-58382623D01*
X93385000Y-58133420D01*
X93385000Y-53385000D01*
X95643844Y-53385000D01*
X95679900Y-53566268D01*
X95980254Y-54015779D01*
X96429765Y-54316133D01*
X96960000Y-54421603D01*
X97490235Y-54316133D01*
X97939746Y-54015779D01*
X98114524Y-53754205D01*
X98167104Y-53832896D01*
X98778642Y-54241513D01*
X98891764Y-54264014D01*
X98969765Y-54316133D01*
X99500000Y-54421603D01*
X100030235Y-54316133D01*
X100108236Y-54264014D01*
X100221358Y-54241513D01*
X100832896Y-53832896D01*
X100885476Y-53754205D01*
X101060254Y-54015779D01*
X101509765Y-54316133D01*
X102040000Y-54421603D01*
X102570235Y-54316133D01*
X103019746Y-54015779D01*
X103320100Y-53566268D01*
X103425570Y-53036033D01*
X103425570Y-51963967D01*
X103320100Y-51433732D01*
X103019746Y-50984221D01*
X102570235Y-50683867D01*
X102040000Y-50578397D01*
X101509765Y-50683867D01*
X101497316Y-50692185D01*
X101635000Y-50000000D01*
X101472483Y-49182971D01*
X101009673Y-48490327D01*
X100501026Y-48150460D01*
X98295000Y-45944434D01*
X98295000Y-45592282D01*
X98392754Y-45494698D01*
X98794792Y-44526483D01*
X98795707Y-43478116D01*
X98395359Y-42509201D01*
X97654698Y-41767246D01*
X96686483Y-41365208D01*
X95638116Y-41364293D01*
X94669201Y-41764641D01*
X93927246Y-42505302D01*
X93525208Y-43473517D01*
X93524293Y-44521884D01*
X93924641Y-45490799D01*
X94025000Y-45591333D01*
X94025000Y-46828780D01*
X94187517Y-47645809D01*
X94650327Y-48338453D01*
X96901840Y-50589966D01*
X96429765Y-50683867D01*
X95980254Y-50984221D01*
X95679900Y-51433732D01*
X95643844Y-51615000D01*
X93175509Y-51615000D01*
X93175509Y-46290509D01*
X93108142Y-45951834D01*
X92916299Y-45664719D01*
X92916296Y-45664717D01*
X89401669Y-42150089D01*
X89290095Y-42075538D01*
X89114554Y-41958246D01*
X89058363Y-41947069D01*
X88951829Y-41925877D01*
X87849911Y-40823959D01*
X87839539Y-40817029D01*
X87562796Y-40632116D01*
X87506605Y-40620939D01*
X87224121Y-40564748D01*
X87224116Y-40564749D01*
X84775884Y-40564749D01*
X84775879Y-40564748D01*
X84437205Y-40632115D01*
X84437203Y-40632116D01*
X84437204Y-40632116D01*
X84150089Y-40823959D01*
X84150087Y-40823962D01*
X81023949Y-43950099D01*
X80832106Y-44237214D01*
X80832106Y-44237215D01*
X80764738Y-44575889D01*
X80685000Y-44575889D01*
X80685000Y-39185000D01*
X106795654Y-39185000D01*
X104616240Y-41364414D01*
X104616240Y-41364414D01*
G37*
X104616240Y-41364414D02*
X104478116Y-41364293D01*
X103509201Y-41764641D01*
X102767246Y-42505302D01*
X102365208Y-43473517D01*
X102364293Y-44521884D01*
X102764641Y-45490799D01*
X103505302Y-46232754D01*
X104473517Y-46634792D01*
X105521884Y-46635707D01*
X106115249Y-46390533D01*
X106115249Y-64000244D01*
X106115248Y-64000249D01*
X106171439Y-64282733D01*
X106182616Y-64338924D01*
X106260278Y-64455154D01*
X106374459Y-64626039D01*
X109115000Y-67366579D01*
X109115000Y-88429995D01*
X109114999Y-88430000D01*
X109161014Y-88661326D01*
X109182367Y-88768675D01*
X109336591Y-88999489D01*
X109374210Y-89055790D01*
X110836263Y-90517843D01*
X110800030Y-90700000D01*
X110909263Y-91249151D01*
X111220332Y-91714698D01*
X111602418Y-91970000D01*
X111220332Y-92225302D01*
X110909263Y-92690849D01*
X110800030Y-93240000D01*
X110909263Y-93789151D01*
X111220332Y-94254698D01*
X111602418Y-94510000D01*
X111220332Y-94765302D01*
X110909263Y-95230849D01*
X110800030Y-95780000D01*
X110909263Y-96329151D01*
X111220332Y-96794698D01*
X111598151Y-97047149D01*
X111165500Y-97395104D01*
X110895633Y-97888181D01*
X110878096Y-97970961D01*
X111000085Y-98193000D01*
X112493000Y-98193000D01*
X112493000Y-98173000D01*
X112747000Y-98173000D01*
X112747000Y-98193000D01*
X114239915Y-98193000D01*
X114361904Y-97970961D01*
X114344367Y-97888181D01*
X114074500Y-97395104D01*
X113641849Y-97047149D01*
X114019668Y-96794698D01*
X114330737Y-96329151D01*
X114439970Y-95780000D01*
X114330737Y-95230849D01*
X114019668Y-94765302D01*
X113637582Y-94510000D01*
X114019668Y-94254698D01*
X114330737Y-93789151D01*
X114439970Y-93240000D01*
X114330737Y-92690849D01*
X114019668Y-92225302D01*
X113910208Y-92152163D01*
X127027443Y-92152163D01*
X127126042Y-92418965D01*
X127735582Y-92645401D01*
X128385377Y-92621341D01*
X128873958Y-92418965D01*
X128972557Y-92152163D01*
X128000000Y-91179605D01*
X127027443Y-92152163D01*
X113910208Y-92152163D01*
X113637582Y-91970000D01*
X114019668Y-91714698D01*
X114330737Y-91249151D01*
X114432892Y-90735582D01*
X126354599Y-90735582D01*
X126378659Y-91385377D01*
X126581035Y-91873958D01*
X126847837Y-91972557D01*
X127820395Y-91000000D01*
X128179605Y-91000000D01*
X129152163Y-91972557D01*
X129418965Y-91873958D01*
X129645401Y-91264418D01*
X129621341Y-90614623D01*
X129418965Y-90126042D01*
X129152163Y-90027443D01*
X128179605Y-91000000D01*
X127820395Y-91000000D01*
X126847837Y-90027443D01*
X126581035Y-90126042D01*
X126354599Y-90735582D01*
X114432892Y-90735582D01*
X114439970Y-90700000D01*
X114330737Y-90150849D01*
X114128271Y-89847837D01*
X127027443Y-89847837D01*
X128000000Y-90820395D01*
X128972557Y-89847837D01*
X128873958Y-89581035D01*
X128264418Y-89354599D01*
X127614623Y-89378659D01*
X127126042Y-89581035D01*
X127027443Y-89847837D01*
X114128271Y-89847837D01*
X114019668Y-89685302D01*
X113637582Y-89430000D01*
X114019668Y-89174698D01*
X114106330Y-89045000D01*
X120679995Y-89045000D01*
X120680000Y-89045001D01*
X120962484Y-88988810D01*
X121018675Y-88977633D01*
X121305790Y-88785790D01*
X121305791Y-88785789D01*
X127633827Y-82457752D01*
X127673453Y-82474206D01*
X128323694Y-82474774D01*
X128924655Y-82226462D01*
X129384846Y-81767073D01*
X129634206Y-81166547D01*
X129634774Y-80516306D01*
X129386462Y-79915345D01*
X128927073Y-79455154D01*
X128885000Y-79437684D01*
X128885000Y-77402847D01*
X128924655Y-77386462D01*
X129384846Y-76927073D01*
X129634206Y-76326547D01*
X129634774Y-75676306D01*
X129386462Y-75075345D01*
X128927073Y-74615154D01*
X128326547Y-74365794D01*
X127676306Y-74365226D01*
X127075345Y-74613538D01*
X126615154Y-75072927D01*
X126365794Y-75673453D01*
X126365226Y-76323694D01*
X126613538Y-76924655D01*
X127072927Y-77384846D01*
X127115000Y-77402316D01*
X127115000Y-79437153D01*
X127075345Y-79453538D01*
X126615154Y-79912927D01*
X126365794Y-80513453D01*
X126365226Y-81163694D01*
X126382623Y-81205798D01*
X120313420Y-87275000D01*
X114106330Y-87275000D01*
X114019668Y-87145302D01*
X113637582Y-86890000D01*
X114019668Y-86634698D01*
X114330737Y-86169151D01*
X114439970Y-85620000D01*
X114330737Y-85070849D01*
X114019668Y-84605302D01*
X113637582Y-84350000D01*
X114019668Y-84094698D01*
X114330737Y-83629151D01*
X114439970Y-83080000D01*
X114330737Y-82530849D01*
X114019668Y-82065302D01*
X113637582Y-81810000D01*
X114019668Y-81554698D01*
X114330737Y-81089151D01*
X114439970Y-80540000D01*
X114330737Y-79990849D01*
X114019668Y-79525302D01*
X113637582Y-79270000D01*
X114019668Y-79014698D01*
X114330737Y-78549151D01*
X114439970Y-78000000D01*
X114330737Y-77450849D01*
X114019668Y-76985302D01*
X113554121Y-76674233D01*
X113004970Y-76565000D01*
X112235030Y-76565000D01*
X111685879Y-76674233D01*
X111220332Y-76985302D01*
X110909263Y-77450849D01*
X110885000Y-77572827D01*
X110885000Y-67000005D01*
X110885001Y-67000000D01*
X110817634Y-66661326D01*
X110686981Y-66465790D01*
X110625790Y-66374210D01*
X110625787Y-66374208D01*
X107885249Y-63633669D01*
X107885249Y-60323694D01*
X108205226Y-60323694D01*
X108453538Y-60924655D01*
X108912927Y-61384846D01*
X109513453Y-61634206D01*
X110163694Y-61634774D01*
X110205797Y-61617377D01*
X115054208Y-66465787D01*
X115054210Y-66465790D01*
X115341325Y-66657633D01*
X115680000Y-66725001D01*
X115680005Y-66725000D01*
X126597153Y-66725000D01*
X126613538Y-66764655D01*
X127072927Y-67224846D01*
X127673453Y-67474206D01*
X128323694Y-67474774D01*
X128924655Y-67226462D01*
X129384846Y-66767073D01*
X129634206Y-66166547D01*
X129634774Y-65516306D01*
X129386462Y-64915345D01*
X128927073Y-64455154D01*
X128326547Y-64205794D01*
X127676306Y-64205226D01*
X127075345Y-64453538D01*
X126615154Y-64912927D01*
X126597684Y-64955000D01*
X116046579Y-64955000D01*
X111457752Y-60366172D01*
X111474206Y-60326547D01*
X111474774Y-59676306D01*
X111457377Y-59634203D01*
X117125787Y-53965792D01*
X117125790Y-53965790D01*
X117317633Y-53678675D01*
X117385000Y-53340000D01*
X117385000Y-50385000D01*
X124655000Y-50385000D01*
X124655000Y-51367829D01*
X124207104Y-51667104D01*
X124154524Y-51745795D01*
X123979746Y-51484221D01*
X123530235Y-51183867D01*
X123000000Y-51078397D01*
X122469765Y-51183867D01*
X122020254Y-51484221D01*
X121730000Y-51918616D01*
X121439746Y-51484221D01*
X120990235Y-51183867D01*
X120460000Y-51078397D01*
X119929765Y-51183867D01*
X119480254Y-51484221D01*
X119179900Y-51933732D01*
X119074430Y-52463967D01*
X119074430Y-53536033D01*
X119179900Y-54066268D01*
X119480254Y-54515779D01*
X119575000Y-54579086D01*
X119575000Y-58407085D01*
X119075345Y-58613538D01*
X118615154Y-59072927D01*
X118365794Y-59673453D01*
X118365226Y-60323694D01*
X118613538Y-60924655D01*
X119072927Y-61384846D01*
X119673453Y-61634206D01*
X120323694Y-61634774D01*
X120924655Y-61386462D01*
X121384846Y-60927073D01*
X121402316Y-60885000D01*
X132115000Y-60885000D01*
X132115000Y-70115000D01*
X121000005Y-70115000D01*
X121000000Y-70114999D01*
X120675210Y-70179605D01*
X120661325Y-70182367D01*
X120374210Y-70374210D01*
X120374208Y-70374213D01*
X118633420Y-72115000D01*
X112306822Y-72115000D01*
X112186799Y-72065162D01*
X111814833Y-72064838D01*
X111471057Y-72206883D01*
X111207808Y-72469673D01*
X111065162Y-72813201D01*
X111064838Y-73185167D01*
X111206883Y-73528943D01*
X111469673Y-73792192D01*
X111813201Y-73934838D01*
X112185167Y-73935162D01*
X112306569Y-73885000D01*
X118999995Y-73885000D01*
X119000000Y-73885001D01*
X119282484Y-73828810D01*
X119338675Y-73817633D01*
X119625790Y-73625790D01*
X121366579Y-71885000D01*
X133000000Y-71885000D01*
X133338675Y-71817633D01*
X133625790Y-71625790D01*
X133817633Y-71338675D01*
X133885000Y-71000000D01*
X133885000Y-60000000D01*
X133817633Y-59661325D01*
X133625790Y-59374210D01*
X133338675Y-59182367D01*
X133000000Y-59115000D01*
X121402847Y-59115000D01*
X121386462Y-59075345D01*
X121345000Y-59033811D01*
X121345000Y-54579086D01*
X121439746Y-54515779D01*
X121730000Y-54081384D01*
X122020254Y-54515779D01*
X122469765Y-54816133D01*
X123000000Y-54921603D01*
X123530235Y-54816133D01*
X123979746Y-54515779D01*
X124154524Y-54254205D01*
X124207104Y-54332896D01*
X124818642Y-54741513D01*
X124931764Y-54764014D01*
X125009765Y-54816133D01*
X125540000Y-54921603D01*
X125724016Y-54885000D01*
X126552043Y-54885000D01*
X126682971Y-54972483D01*
X127500000Y-55135000D01*
X128988780Y-55135000D01*
X129805809Y-54972483D01*
X130498453Y-54509673D01*
X136669673Y-48338453D01*
X137132483Y-47645809D01*
X137295000Y-46828780D01*
X137295000Y-45592282D01*
X137392754Y-45494698D01*
X137794792Y-44526483D01*
X137795707Y-43478116D01*
X137395359Y-42509201D01*
X136654698Y-41767246D01*
X135686483Y-41365208D01*
X134638116Y-41364293D01*
X133669201Y-41764641D01*
X132927246Y-42505302D01*
X132525208Y-43473517D01*
X132524293Y-44521884D01*
X132924641Y-45490799D01*
X133025000Y-45591333D01*
X133025000Y-45944434D01*
X128104434Y-50865000D01*
X127500000Y-50865000D01*
X126682971Y-51027517D01*
X126552043Y-51115000D01*
X126425000Y-51115000D01*
X126425000Y-49540005D01*
X126425001Y-49540000D01*
X126357634Y-49201326D01*
X126293975Y-49106054D01*
X126165790Y-48914210D01*
X126165787Y-48914208D01*
X126125790Y-48874210D01*
X126016616Y-48801263D01*
X125838675Y-48682367D01*
X125761943Y-48667104D01*
X125500000Y-48614999D01*
X125499995Y-48615000D01*
X116500000Y-48615000D01*
X116161325Y-48682367D01*
X115874210Y-48874210D01*
X115682367Y-49161325D01*
X115615000Y-49500000D01*
X115615000Y-52973421D01*
X110206172Y-58382248D01*
X110166547Y-58365794D01*
X109516306Y-58365226D01*
X108915345Y-58613538D01*
X108455154Y-59072927D01*
X108205794Y-59673453D01*
X108205226Y-60323694D01*
X107885249Y-60323694D01*
X107885249Y-46000254D01*
X107885250Y-46000249D01*
X107817882Y-45661574D01*
X107626039Y-45374459D01*
X107626036Y-45374457D01*
X107383424Y-45131845D01*
X107634792Y-44526483D01*
X107634916Y-44384430D01*
X109884346Y-42135000D01*
X113298195Y-42135000D01*
X112927246Y-42505302D01*
X112525208Y-43473517D01*
X112524293Y-44521884D01*
X112924641Y-45490799D01*
X113665302Y-46232754D01*
X114633517Y-46634792D01*
X115681884Y-46635707D01*
X116650799Y-46235359D01*
X117392754Y-45494698D01*
X117794792Y-44526483D01*
X117795707Y-43478116D01*
X117395359Y-42509201D01*
X117021811Y-42135000D01*
X120115654Y-42135000D01*
X122364414Y-44383760D01*
X122364293Y-44521884D01*
X122764641Y-45490799D01*
X123505302Y-46232754D01*
X124473517Y-46634792D01*
X125521884Y-46635707D01*
X126490799Y-46235359D01*
X127232754Y-45494698D01*
X127634792Y-44526483D01*
X127635707Y-43478116D01*
X127235359Y-42509201D01*
X126494698Y-41767246D01*
X125526483Y-41365208D01*
X125384430Y-41365084D01*
X123204346Y-39185000D01*
X139315000Y-39185000D01*
X139315000Y-119315000D01*
X80685000Y-119315000D01*
X80685000Y-96224775D01*
X88914803Y-96224775D01*
X89087233Y-96642086D01*
X89406235Y-96961645D01*
X89823244Y-97134803D01*
X90274775Y-97135197D01*
X90275252Y-97135000D01*
X91949009Y-97135000D01*
X92174775Y-97135197D01*
X92477774Y-97010000D01*
X94149395Y-97010000D01*
X94285822Y-97214178D01*
X94613490Y-97433118D01*
X95000000Y-97510000D01*
X95386510Y-97433118D01*
X95714178Y-97214178D01*
X95933118Y-96886510D01*
X95933694Y-96883615D01*
X96088735Y-96728845D01*
X96202560Y-96454724D01*
X96202560Y-96650000D01*
X96246838Y-96885317D01*
X96385910Y-97101441D01*
X96598110Y-97246431D01*
X96850000Y-97297440D01*
X98150000Y-97297440D01*
X98385317Y-97253162D01*
X98547330Y-97148910D01*
X99852951Y-98454530D01*
X97133874Y-101173606D01*
X96725602Y-101173250D01*
X96216163Y-101383746D01*
X95826056Y-101773173D01*
X95614671Y-102282244D01*
X95614190Y-102833458D01*
X95824686Y-103342897D01*
X96214113Y-103733004D01*
X96723184Y-103944389D01*
X97274398Y-103944870D01*
X97783837Y-103734374D01*
X98173944Y-103344947D01*
X98385329Y-102835876D01*
X98385688Y-102424952D01*
X101605639Y-99205000D01*
X103513670Y-99205000D01*
X103600332Y-99334698D01*
X103982418Y-99590000D01*
X103600332Y-99845302D01*
X103289263Y-100310849D01*
X103180030Y-100860000D01*
X103216263Y-101042157D01*
X102674200Y-101584220D01*
X102482357Y-101871335D01*
X102482357Y-101871336D01*
X102414989Y-102210010D01*
X102414990Y-102210015D01*
X102414990Y-106555940D01*
X98074327Y-106555940D01*
X97785887Y-106266996D01*
X97276816Y-106055611D01*
X96725602Y-106055130D01*
X96216163Y-106265626D01*
X95826056Y-106655053D01*
X95614671Y-107164124D01*
X95614312Y-107575048D01*
X95374210Y-107815150D01*
X95182367Y-108102265D01*
X95182367Y-108102266D01*
X95114999Y-108440940D01*
X95115000Y-108440945D01*
X95115000Y-113746778D01*
X95114683Y-113746838D01*
X94898559Y-113885910D01*
X94753569Y-114098110D01*
X94702560Y-114350000D01*
X94702560Y-115650000D01*
X94746838Y-115885317D01*
X94885910Y-116101441D01*
X95098110Y-116246431D01*
X95350000Y-116297440D01*
X96650000Y-116297440D01*
X96885317Y-116253162D01*
X97101441Y-116114090D01*
X97246431Y-115901890D01*
X97297440Y-115650000D01*
X97297440Y-115454540D01*
X97409995Y-115726943D01*
X97771155Y-116088735D01*
X98243276Y-116284777D01*
X98754481Y-116285223D01*
X99226943Y-116090005D01*
X99588735Y-115728845D01*
X99784777Y-115256724D01*
X99785223Y-114745519D01*
X99590005Y-114273057D01*
X99228845Y-113911265D01*
X98756724Y-113715223D01*
X98466549Y-113714970D01*
X97885000Y-113133420D01*
X97885000Y-109866580D01*
X98366579Y-109385000D01*
X102115000Y-109385000D01*
X102115000Y-111279197D01*
X102114999Y-111279202D01*
X102155938Y-111485010D01*
X102182367Y-111617877D01*
X102374210Y-111904992D01*
X103465016Y-112995797D01*
X103465018Y-112995800D01*
X103712747Y-113161326D01*
X103752133Y-113187643D01*
X104090808Y-113255010D01*
X105909187Y-113255010D01*
X105909192Y-113255011D01*
X106191676Y-113198820D01*
X106247867Y-113187643D01*
X106534982Y-112995800D01*
X106534983Y-112995799D01*
X107325797Y-112204984D01*
X107325800Y-112204982D01*
X107517643Y-111917867D01*
X107517644Y-111917866D01*
X107585011Y-111579192D01*
X107585010Y-111579187D01*
X107585010Y-100860000D01*
X110800030Y-100860000D01*
X110909263Y-101409151D01*
X111220332Y-101874698D01*
X111602418Y-102130000D01*
X111220332Y-102385302D01*
X110909263Y-102850849D01*
X110800030Y-103400000D01*
X110909263Y-103949151D01*
X111220332Y-104414698D01*
X111602418Y-104670000D01*
X111220332Y-104925302D01*
X110909263Y-105390849D01*
X110800030Y-105940000D01*
X110909263Y-106489151D01*
X111220332Y-106954698D01*
X111602418Y-107210000D01*
X111220332Y-107465302D01*
X110909263Y-107930849D01*
X110800030Y-108480000D01*
X110909263Y-109029151D01*
X111220332Y-109494698D01*
X111602418Y-109750000D01*
X111220332Y-110005302D01*
X110909263Y-110470849D01*
X110800030Y-111020000D01*
X110909263Y-111569151D01*
X111220332Y-112034698D01*
X111685879Y-112345767D01*
X112235030Y-112455000D01*
X113004970Y-112455000D01*
X113554121Y-112345767D01*
X114019668Y-112034698D01*
X114330737Y-111569151D01*
X114439970Y-111020000D01*
X114330737Y-110470849D01*
X114019668Y-110005302D01*
X113637582Y-109750000D01*
X114019668Y-109494698D01*
X114330737Y-109029151D01*
X114439970Y-108480000D01*
X114330737Y-107930849D01*
X114019668Y-107465302D01*
X113637582Y-107210000D01*
X114019668Y-106954698D01*
X114330737Y-106489151D01*
X114439970Y-105940000D01*
X114330737Y-105390849D01*
X114019668Y-104925302D01*
X113637582Y-104670000D01*
X114019668Y-104414698D01*
X114330737Y-103949151D01*
X114439970Y-103400000D01*
X114330737Y-102850849D01*
X114019668Y-102385302D01*
X113637582Y-102130000D01*
X114019668Y-101874698D01*
X114106330Y-101745000D01*
X117139995Y-101745000D01*
X117140000Y-101745001D01*
X117422484Y-101688810D01*
X117478675Y-101677633D01*
X117593411Y-101600970D01*
X117673453Y-101634206D01*
X118323694Y-101634774D01*
X118924655Y-101386462D01*
X119384846Y-100927073D01*
X119634206Y-100326547D01*
X119634208Y-100323694D01*
X126525226Y-100323694D01*
X126773538Y-100924655D01*
X127232927Y-101384846D01*
X127833453Y-101634206D01*
X128483694Y-101634774D01*
X129084655Y-101386462D01*
X129544846Y-100927073D01*
X129562316Y-100885000D01*
X134032429Y-100885000D01*
X134072637Y-100925278D01*
X134673352Y-101174716D01*
X135323795Y-101175284D01*
X135924943Y-100926894D01*
X136385278Y-100467363D01*
X136634716Y-99866648D01*
X136635284Y-99216205D01*
X136386894Y-98615057D01*
X136320379Y-98548426D01*
X136451441Y-98464090D01*
X136596431Y-98251890D01*
X136647440Y-98000000D01*
X136647440Y-96000000D01*
X136603162Y-95764683D01*
X136464090Y-95548559D01*
X136251890Y-95403569D01*
X136000000Y-95352560D01*
X134000000Y-95352560D01*
X133764683Y-95396838D01*
X133548559Y-95535910D01*
X133403569Y-95748110D01*
X133352560Y-96000000D01*
X133352560Y-98000000D01*
X133396838Y-98235317D01*
X133535910Y-98451441D01*
X133678561Y-98548910D01*
X133614722Y-98612637D01*
X133406123Y-99115000D01*
X129562847Y-99115000D01*
X129546462Y-99075345D01*
X129087073Y-98615154D01*
X128486547Y-98365794D01*
X127836306Y-98365226D01*
X127235345Y-98613538D01*
X126775154Y-99072927D01*
X126525794Y-99673453D01*
X126525226Y-100323694D01*
X119634208Y-100323694D01*
X119634774Y-99676306D01*
X119386462Y-99075345D01*
X118927073Y-98615154D01*
X118326547Y-98365794D01*
X117676306Y-98365226D01*
X117075345Y-98613538D01*
X116615154Y-99072927D01*
X116365794Y-99673453D01*
X116365531Y-99975000D01*
X114106330Y-99975000D01*
X114019668Y-99845302D01*
X113641849Y-99592851D01*
X114074500Y-99244896D01*
X114344367Y-98751819D01*
X114361904Y-98669039D01*
X114239915Y-98447000D01*
X112747000Y-98447000D01*
X112747000Y-98467000D01*
X112493000Y-98467000D01*
X112493000Y-98447000D01*
X111000085Y-98447000D01*
X110878096Y-98669039D01*
X110895633Y-98751819D01*
X111165500Y-99244896D01*
X111598151Y-99592851D01*
X111220332Y-99845302D01*
X110909263Y-100310849D01*
X110800030Y-100860000D01*
X107585010Y-100860000D01*
X107585010Y-96427210D01*
X107684838Y-96186799D01*
X107685162Y-95814833D01*
X107543117Y-95471057D01*
X107280327Y-95207808D01*
X106936799Y-95065162D01*
X106599832Y-95064868D01*
X106399668Y-94765302D01*
X106021849Y-94512851D01*
X106454500Y-94164896D01*
X106724367Y-93671819D01*
X106741904Y-93589039D01*
X106619915Y-93367000D01*
X105127000Y-93367000D01*
X105127000Y-93387000D01*
X104873000Y-93387000D01*
X104873000Y-93367000D01*
X103380085Y-93367000D01*
X103258096Y-93589039D01*
X103275633Y-93671819D01*
X103545500Y-94164896D01*
X103978151Y-94512851D01*
X103600332Y-94765302D01*
X103289263Y-95230849D01*
X103180030Y-95780000D01*
X103289263Y-96329151D01*
X103600332Y-96794698D01*
X103982418Y-97050000D01*
X103600332Y-97305302D01*
X103513670Y-97435000D01*
X101336579Y-97435000D01*
X99275790Y-95374210D01*
X99143507Y-95285822D01*
X98988675Y-95182367D01*
X98932484Y-95171190D01*
X98757235Y-95136330D01*
X98753162Y-95114683D01*
X98614090Y-94898559D01*
X98401890Y-94753569D01*
X98150000Y-94702560D01*
X96850000Y-94702560D01*
X96614683Y-94746838D01*
X96398559Y-94885910D01*
X96253569Y-95098110D01*
X96202560Y-95350000D01*
X96202560Y-95545460D01*
X96090005Y-95273057D01*
X95728845Y-94911265D01*
X95256724Y-94715223D01*
X94745519Y-94714777D01*
X94273057Y-94909995D01*
X94192912Y-94990000D01*
X92477314Y-94990000D01*
X92176756Y-94865197D01*
X91725225Y-94864803D01*
X91724748Y-94865000D01*
X90050990Y-94865000D01*
X89825225Y-94864803D01*
X89407914Y-95037233D01*
X89088355Y-95356235D01*
X88915197Y-95773244D01*
X88914803Y-96224775D01*
X80685000Y-96224775D01*
X80685000Y-44575889D01*
X80764738Y-44575889D01*
X80764739Y-44575894D01*
X80764739Y-91555490D01*
X80764738Y-91555495D01*
X80799971Y-91732618D01*
X80832106Y-91894170D01*
X80920036Y-92025767D01*
X81023949Y-92181285D01*
X82818713Y-93976048D01*
X82818715Y-93976051D01*
X83101343Y-94164896D01*
X83105830Y-94167894D01*
X83444505Y-94235261D01*
X93781118Y-94235261D01*
X93781123Y-94235262D01*
X94063607Y-94179071D01*
X94119798Y-94167894D01*
X94406913Y-93976051D01*
X94406914Y-93976050D01*
X97948472Y-90434491D01*
X98950504Y-90434491D01*
X98950509Y-90434492D01*
X99232993Y-90378301D01*
X99289184Y-90367124D01*
X99576299Y-90175281D01*
X99866579Y-89885000D01*
X102583420Y-89885000D01*
X103216263Y-90517843D01*
X103180030Y-90700000D01*
X103289263Y-91249151D01*
X103600332Y-91714698D01*
X103978151Y-91967149D01*
X103545500Y-92315104D01*
X103275633Y-92808181D01*
X103258096Y-92890961D01*
X103380085Y-93113000D01*
X104873000Y-93113000D01*
X104873000Y-93093000D01*
X105127000Y-93093000D01*
X105127000Y-93113000D01*
X106619915Y-93113000D01*
X106741904Y-92890961D01*
X106724367Y-92808181D01*
X106454500Y-92315104D01*
X106021849Y-91967149D01*
X106399668Y-91714698D01*
X106710737Y-91249151D01*
X106819970Y-90700000D01*
X106710737Y-90150849D01*
X106399668Y-89685302D01*
X106017582Y-89430000D01*
X106399668Y-89174698D01*
X106710737Y-88709151D01*
X106819970Y-88160000D01*
X106710737Y-87610849D01*
X106399668Y-87145302D01*
X106017582Y-86890000D01*
X106399668Y-86634698D01*
X106710737Y-86169151D01*
X106819970Y-85620000D01*
X106710737Y-85070849D01*
X106399668Y-84605302D01*
X106017582Y-84350000D01*
X106399668Y-84094698D01*
X106710737Y-83629151D01*
X106819970Y-83080000D01*
X106710737Y-82530849D01*
X106399668Y-82065302D01*
X106017582Y-81810000D01*
X106399668Y-81554698D01*
X106710737Y-81089151D01*
X106819970Y-80540000D01*
X106710737Y-79990849D01*
X106399668Y-79525302D01*
X106017582Y-79270000D01*
X106399668Y-79014698D01*
X106710737Y-78549151D01*
X106819970Y-78000000D01*
X106710737Y-77450849D01*
X106399668Y-76985302D01*
X106045000Y-76748320D01*
X106045000Y-71402847D01*
X106084655Y-71386462D01*
X106544846Y-70927073D01*
X106794206Y-70326547D01*
X106794774Y-69676306D01*
X106546462Y-69075345D01*
X106087073Y-68615154D01*
X105486547Y-68365794D01*
X104836306Y-68365226D01*
X104235345Y-68613538D01*
X103775154Y-69072927D01*
X103525794Y-69673453D01*
X103525226Y-70323694D01*
X103773538Y-70924655D01*
X104232927Y-71384846D01*
X104275000Y-71402316D01*
X104275000Y-76632636D01*
X104065879Y-76674233D01*
X103600332Y-76985302D01*
X103289263Y-77450849D01*
X103180030Y-78000000D01*
X103289263Y-78549151D01*
X103600332Y-79014698D01*
X103982418Y-79270000D01*
X103600332Y-79525302D01*
X103289263Y-79990849D01*
X103180030Y-80540000D01*
X103289263Y-81089151D01*
X103600332Y-81554698D01*
X103982418Y-81810000D01*
X103600332Y-82065302D01*
X103289263Y-82530849D01*
X103180030Y-83080000D01*
X103289263Y-83629151D01*
X103600332Y-84094698D01*
X103982418Y-84350000D01*
X103600332Y-84605302D01*
X103289263Y-85070849D01*
X103180030Y-85620000D01*
X103289263Y-86169151D01*
X103600332Y-86634698D01*
X103982418Y-86890000D01*
X103645682Y-87115000D01*
X99402847Y-87115000D01*
X99386462Y-87075345D01*
X98927073Y-86615154D01*
X98326547Y-86365794D01*
X97676306Y-86365226D01*
X97075345Y-86613538D01*
X96615154Y-87072927D01*
X96365794Y-87673453D01*
X96365226Y-88323694D01*
X96382623Y-88365797D01*
X96374721Y-88373699D01*
X96374719Y-88373702D01*
X93083169Y-91665251D01*
X86926156Y-91665251D01*
X87245949Y-91474797D01*
X87639367Y-90503047D01*
X87630965Y-89454713D01*
X87245949Y-88525203D01*
X86875202Y-88304403D01*
X85179605Y-90000000D01*
X85193748Y-90014143D01*
X85014143Y-90193748D01*
X85000000Y-90179605D01*
X84985858Y-90193748D01*
X84806253Y-90014143D01*
X84820395Y-90000000D01*
X84806253Y-89985858D01*
X84985858Y-89806253D01*
X85000000Y-89820395D01*
X86695597Y-88124798D01*
X86474797Y-87754051D01*
X85503047Y-87360633D01*
X84454713Y-87369035D01*
X83525203Y-87754051D01*
X83334749Y-88073844D01*
X83334749Y-81901903D01*
X83505302Y-82072754D01*
X84473517Y-82474792D01*
X85521884Y-82475707D01*
X86490799Y-82075359D01*
X87232754Y-81334698D01*
X87634792Y-80366483D01*
X87635707Y-79318116D01*
X87235359Y-78349201D01*
X87050176Y-78163694D01*
X96365226Y-78163694D01*
X96613538Y-78764655D01*
X97072927Y-79224846D01*
X97673453Y-79474206D01*
X98323694Y-79474774D01*
X98924655Y-79226462D01*
X99384846Y-78767073D01*
X99634206Y-78166547D01*
X99634774Y-77516306D01*
X99386462Y-76915345D01*
X98927073Y-76455154D01*
X98326547Y-76205794D01*
X97676306Y-76205226D01*
X97075345Y-76453538D01*
X96615154Y-76912927D01*
X96365794Y-77513453D01*
X96365226Y-78163694D01*
X87050176Y-78163694D01*
X86494698Y-77607246D01*
X85526483Y-77205208D01*
X84478116Y-77204293D01*
X83509201Y-77604641D01*
X83334749Y-77778789D01*
X83334749Y-71926156D01*
X83525203Y-72245949D01*
X84496953Y-72639367D01*
X85545287Y-72630965D01*
X86474797Y-72245949D01*
X86695597Y-71875202D01*
X85000000Y-70179605D01*
X84985858Y-70193748D01*
X84806253Y-70014143D01*
X84820395Y-70000000D01*
X85179605Y-70000000D01*
X86875202Y-71695597D01*
X87245949Y-71474797D01*
X87376569Y-71152163D01*
X94027443Y-71152163D01*
X94126042Y-71418965D01*
X94735582Y-71645401D01*
X95385377Y-71621341D01*
X95873958Y-71418965D01*
X95972557Y-71152163D01*
X95000000Y-70179605D01*
X94027443Y-71152163D01*
X87376569Y-71152163D01*
X87639367Y-70503047D01*
X87633217Y-69735582D01*
X93354599Y-69735582D01*
X93378659Y-70385377D01*
X93581035Y-70873958D01*
X93847837Y-70972557D01*
X94820395Y-70000000D01*
X95179605Y-70000000D01*
X96152163Y-70972557D01*
X96418965Y-70873958D01*
X96645401Y-70264418D01*
X96621341Y-69614623D01*
X96418965Y-69126042D01*
X96152163Y-69027443D01*
X95179605Y-70000000D01*
X94820395Y-70000000D01*
X93847837Y-69027443D01*
X93581035Y-69126042D01*
X93354599Y-69735582D01*
X87633217Y-69735582D01*
X87630965Y-69454713D01*
X87379589Y-68847837D01*
X94027443Y-68847837D01*
X95000000Y-69820395D01*
X95972557Y-68847837D01*
X95873958Y-68581035D01*
X95264418Y-68354599D01*
X94614623Y-68378659D01*
X94126042Y-68581035D01*
X94027443Y-68847837D01*
X87379589Y-68847837D01*
X87245949Y-68525203D01*
X86875202Y-68304403D01*
X85179605Y-70000000D01*
X84820395Y-70000000D01*
X84806253Y-69985858D01*
X84985858Y-69806253D01*
X85000000Y-69820395D01*
X86695597Y-68124798D01*
X86474797Y-67754051D01*
X85503047Y-67360633D01*
X84454713Y-67369035D01*
X83525203Y-67754051D01*
X83334749Y-68073844D01*
X83334749Y-61901903D01*
X83505302Y-62072754D01*
X84473517Y-62474792D01*
X85521884Y-62475707D01*
X86490799Y-62075359D01*
X87232754Y-61334698D01*
X87634792Y-60366483D01*
X87635707Y-59318116D01*
X87235359Y-58349201D01*
X86494698Y-57607246D01*
X85526483Y-57205208D01*
X84478116Y-57204293D01*
X83509201Y-57604641D01*
X83334749Y-57778789D01*
X83334749Y-55391789D01*
X84625787Y-54100750D01*
X84625790Y-54100748D01*
X84817633Y-53813633D01*
X84844478Y-53678675D01*
X84885001Y-53474958D01*
X84885000Y-53474953D01*
X84885000Y-53214964D01*
X85349263Y-53023134D01*
X86020776Y-52352792D01*
X86384645Y-51476499D01*
X86385473Y-50527664D01*
X86023134Y-49650737D01*
X85352792Y-48979224D01*
X84476499Y-48615355D01*
X83527664Y-48614527D01*
X82650737Y-48976866D01*
X82534739Y-49092662D01*
X82534739Y-45875202D01*
X84304403Y-45875202D01*
X84525203Y-46245949D01*
X85496953Y-46639367D01*
X86545287Y-46630965D01*
X87474797Y-46245949D01*
X87695597Y-45875202D01*
X86000000Y-44179605D01*
X84304403Y-45875202D01*
X82534739Y-45875202D01*
X82534739Y-44942469D01*
X83365560Y-44111648D01*
X83369035Y-44545287D01*
X83754051Y-45474797D01*
X84124798Y-45695597D01*
X85820395Y-44000000D01*
X85806253Y-43985858D01*
X85985858Y-43806253D01*
X86000000Y-43820395D01*
X86014143Y-43806253D01*
X86193748Y-43985858D01*
X86179605Y-44000000D01*
X87875202Y-45695597D01*
X88245949Y-45474797D01*
X88639367Y-44503047D01*
X88634422Y-43886001D01*
X91405509Y-46657088D01*
X91405509Y-52500000D01*
X91472876Y-52838675D01*
X91615000Y-53051380D01*
X91615000Y-58499995D01*
X91614999Y-58500000D01*
X91645831Y-58654999D01*
X91682367Y-58838675D01*
X91838888Y-59072927D01*
X91874210Y-59125790D01*
X92382248Y-59633828D01*
X92365794Y-59673453D01*
X92365226Y-60323694D01*
X92613538Y-60924655D01*
X93072927Y-61384846D01*
X93673453Y-61634206D01*
X94323694Y-61634774D01*
X94924655Y-61386462D01*
X95384846Y-60927073D01*
X95634206Y-60326547D01*
X95634208Y-60323694D01*
X102525226Y-60323694D01*
X102773538Y-60924655D01*
X103232927Y-61384846D01*
X103833453Y-61634206D01*
X104483694Y-61634774D01*
X105084655Y-61386462D01*
X105544846Y-60927073D01*
X105794206Y-60326547D01*
X105794774Y-59676306D01*
X105546462Y-59075345D01*
X105087073Y-58615154D01*
X104486547Y-58365794D01*
X103836306Y-58365226D01*
X103235345Y-58613538D01*
X102775154Y-59072927D01*
X102525794Y-59673453D01*
X102525226Y-60323694D01*
X95634208Y-60323694D01*
X95634774Y-59676306D01*
X95386462Y-59075345D01*
X94927073Y-58615154D01*
X94326547Y-58365794D01*
X93676306Y-58365226D01*
X93634202Y-58382623D01*
X93385000Y-58133420D01*
X93385000Y-53385000D01*
X95643844Y-53385000D01*
X95679900Y-53566268D01*
X95980254Y-54015779D01*
X96429765Y-54316133D01*
X96960000Y-54421603D01*
X97490235Y-54316133D01*
X97939746Y-54015779D01*
X98114524Y-53754205D01*
X98167104Y-53832896D01*
X98778642Y-54241513D01*
X98891764Y-54264014D01*
X98969765Y-54316133D01*
X99500000Y-54421603D01*
X100030235Y-54316133D01*
X100108236Y-54264014D01*
X100221358Y-54241513D01*
X100832896Y-53832896D01*
X100885476Y-53754205D01*
X101060254Y-54015779D01*
X101509765Y-54316133D01*
X102040000Y-54421603D01*
X102570235Y-54316133D01*
X103019746Y-54015779D01*
X103320100Y-53566268D01*
X103425570Y-53036033D01*
X103425570Y-51963967D01*
X103320100Y-51433732D01*
X103019746Y-50984221D01*
X102570235Y-50683867D01*
X102040000Y-50578397D01*
X101509765Y-50683867D01*
X101497316Y-50692185D01*
X101635000Y-50000000D01*
X101472483Y-49182971D01*
X101009673Y-48490327D01*
X100501026Y-48150460D01*
X98295000Y-45944434D01*
X98295000Y-45592282D01*
X98392754Y-45494698D01*
X98794792Y-44526483D01*
X98795707Y-43478116D01*
X98395359Y-42509201D01*
X97654698Y-41767246D01*
X96686483Y-41365208D01*
X95638116Y-41364293D01*
X94669201Y-41764641D01*
X93927246Y-42505302D01*
X93525208Y-43473517D01*
X93524293Y-44521884D01*
X93924641Y-45490799D01*
X94025000Y-45591333D01*
X94025000Y-46828780D01*
X94187517Y-47645809D01*
X94650327Y-48338453D01*
X96901840Y-50589966D01*
X96429765Y-50683867D01*
X95980254Y-50984221D01*
X95679900Y-51433732D01*
X95643844Y-51615000D01*
X93175509Y-51615000D01*
X93175509Y-46290509D01*
X93108142Y-45951834D01*
X92916299Y-45664719D01*
X92916296Y-45664717D01*
X89401669Y-42150089D01*
X89290095Y-42075538D01*
X89114554Y-41958246D01*
X89058363Y-41947069D01*
X88951829Y-41925877D01*
X87849911Y-40823959D01*
X87839539Y-40817029D01*
X87562796Y-40632116D01*
X87506605Y-40620939D01*
X87224121Y-40564748D01*
X87224116Y-40564749D01*
X84775884Y-40564749D01*
X84775879Y-40564748D01*
X84437205Y-40632115D01*
X84437203Y-40632116D01*
X84437204Y-40632116D01*
X84150089Y-40823959D01*
X84150087Y-40823962D01*
X81023949Y-43950099D01*
X80832106Y-44237214D01*
X80832106Y-44237215D01*
X80764738Y-44575889D01*
X80685000Y-44575889D01*
X80685000Y-39185000D01*
X106795654Y-39185000D01*
X104616240Y-41364414D01*
M02*
