M48
;DRILL file {KiCad 4.0.2+dfsg1-stable} date fr. 25. okt. 2019 kl. 08.57 +0200
;FORMAT={3:3/ absolute / metric / suppress leading zeros}
FMAT,2
METRIC,TZ
T1C0.500
T2C0.800
T3C0.800
T4C1.001
T5C1.016
T6C1.999
T7C3.200
%
G90
G05
M71
T1
X175000Y-119500
X180000Y-80000
X180000Y-129500
X183500Y-56000
X185000Y-80000
X190500Y-50500
X192500Y-127000
X194500Y-109000
X200000Y-109000
X202500Y-75000
X205000Y-75000
X210000Y-67500
X211000Y-140000
X211000Y-144000
X212500Y-62500
X217500Y-75000
X217500Y-87500
X217500Y-144000
X219500Y-106500
X222277Y-49728
X222500Y-67500
X222500Y-77500
X223000Y-99000
X223933Y-78975
X224719Y-49656
X227500Y-95000
X232500Y-57500
X232500Y-95000
X237500Y-65000
X237500Y-70000
X240000Y-65000
X240000Y-86000
X247500Y-85000
X249200Y-57935
X249200Y-57935
X250000Y-55000
X252500Y-85000
X259500Y-88500
X262000Y-94500
T2
X170000Y-85000
X170000Y-95000
X173500Y-85000
X173800Y-95000
X182500Y-62500
X182500Y-67500
X182500Y-77500
X182500Y-82500
X190000Y-67500
X190000Y-70040
X190000Y-72580
X190000Y-75120
X190000Y-77660
X190000Y-80200
X190000Y-82740
X190000Y-85280
X197620Y-67500
X197620Y-70040
X197620Y-72580
X197620Y-75120
X197620Y-77660
X197620Y-80200
X197620Y-82740
X197620Y-85280
X217500Y-116880
X217500Y-124500
X220040Y-116880
X220040Y-124500
X222580Y-116880
X222580Y-124500
X225120Y-116880
X225120Y-124500
X227500Y-132000
X227660Y-116880
X227660Y-124500
X230200Y-116880
X230200Y-124500
X232740Y-116880
X232740Y-124500
X235280Y-116880
X235280Y-124500
X237820Y-116880
X237820Y-124500
X240360Y-116880
X240360Y-124500
X242900Y-116880
X242900Y-124500
X245440Y-116880
X245440Y-124500
X247500Y-132000
X247980Y-116880
X247980Y-124500
X250520Y-116880
X250520Y-124500
T3
X182500Y-70000
X182500Y-75000
X182500Y-85000
X185000Y-62500
X227500Y-129500
X235059Y-132000
X239941Y-132000
X247500Y-129500
T4
X167340Y-77500
X167500Y-70000
X169960Y-65000
X172500Y-65000
X172500Y-114500
X172500Y-124660
X175040Y-65000
X177500Y-77500
X177500Y-114500
X177500Y-124660
X177660Y-70000
X184960Y-117000
X184960Y-124500
X185000Y-132000
X187500Y-117000
X187500Y-124500
X190040Y-117000
X190040Y-124500
X195160Y-132000
X197340Y-122000
X197340Y-127000
X197500Y-117000
X202500Y-132000
X207500Y-122000
X207500Y-127000
X207660Y-117000
X212660Y-132000
X217460Y-132000
X220000Y-132000
X252500Y-129460
X252500Y-134540
T5
X167256Y-54320
X167500Y-57500
X169796Y-54320
X170040Y-57500
X172336Y-54320
X174876Y-54320
X174960Y-57500
X176400Y-102580
X177416Y-54320
X177500Y-57500
X178940Y-102580
X179956Y-54320
X180000Y-97500
X181480Y-102580
X182496Y-54320
X182540Y-97500
X184020Y-102580
X184520Y-147000
X184520Y-149540
X184520Y-152080
X184520Y-154620
X184520Y-157160
X185036Y-54320
X186560Y-102580
X187380Y-97500
X187500Y-57500
X187576Y-54320
X188820Y-35000
X188820Y-37540
X189100Y-102580
X189920Y-97500
X190040Y-57500
X190116Y-54320
X191360Y-35000
X191360Y-37540
X191640Y-102580
X192460Y-97500
X192580Y-57500
X193900Y-35000
X193900Y-37540
X194180Y-54320
X194180Y-102580
X195000Y-97500
X195120Y-57500
X196440Y-35000
X196440Y-37540
X196720Y-54320
X197660Y-57500
X198980Y-35000
X198980Y-37540
X199260Y-54320
X199260Y-102580
X200200Y-57500
X201520Y-35000
X201520Y-37540
X201800Y-54320
X201800Y-102580
X202220Y-92500
X202740Y-57500
X204060Y-35000
X204060Y-37540
X204340Y-54320
X204340Y-102580
X204760Y-92500
X205280Y-57500
X206600Y-35000
X206600Y-37540
X206880Y-54320
X206880Y-102580
X207300Y-92500
X209140Y-35000
X209140Y-37540
X209420Y-54320
X209420Y-102580
X209840Y-92500
X210000Y-57500
X211680Y-35000
X211680Y-37540
X211960Y-54320
X211960Y-102580
X212087Y-74640
X212087Y-77180
X212087Y-79720
X212380Y-92500
X212540Y-57500
X214220Y-35000
X214220Y-37540
X214500Y-102580
X214627Y-74640
X214627Y-77180
X214627Y-79720
X214920Y-92500
X215000Y-144460
X215000Y-147000
X215000Y-149540
X215000Y-152080
X216760Y-35000
X216760Y-37540
X217040Y-54320
X217040Y-102580
X217460Y-92500
X218340Y-83000
X219300Y-35000
X219300Y-37540
X219580Y-54320
X219720Y-75000
X220000Y-92500
X220880Y-83000
X221840Y-35000
X221840Y-37540
X222120Y-54320
X222120Y-102580
X222260Y-75000
X222340Y-62500
X223420Y-83000
X224380Y-35000
X224380Y-37540
X224660Y-54320
X224660Y-102580
X224800Y-75000
X224880Y-62500
X225960Y-83000
X226920Y-35000
X226920Y-37540
X227200Y-54320
X227200Y-102580
X227340Y-75000
X227420Y-62500
X228500Y-83000
X229460Y-35000
X229460Y-37540
X229740Y-54320
X229740Y-102580
X229880Y-75000
X229960Y-62500
X231040Y-83000
X232000Y-35000
X232000Y-37540
X232280Y-54320
X232280Y-102580
X232420Y-75000
X232500Y-62500
X233580Y-83000
X234540Y-35000
X234540Y-37540
X234820Y-54320
X234820Y-102580
X234960Y-75000
X236120Y-83000
X237080Y-35000
X237080Y-37540
X237360Y-102580
X237500Y-75000
X238660Y-83000
X239900Y-102580
X242440Y-54320
X242440Y-56860
X242440Y-59400
X242440Y-61940
X242440Y-64480
X242440Y-67020
X242440Y-69560
X242440Y-72100
X242440Y-74640
X242440Y-77180
X242440Y-79720
X242440Y-82260
X242440Y-84800
X242440Y-87340
X242440Y-89880
X242440Y-92420
X242440Y-94960
X242440Y-97500
X244980Y-54320
X244980Y-56860
X244980Y-59400
X244980Y-61940
X244980Y-64480
X244980Y-67020
X244980Y-69560
X244980Y-72100
X244980Y-74640
X244980Y-77180
X244980Y-79720
X244980Y-82260
X244980Y-84800
X244980Y-87340
X244980Y-89880
X244980Y-92420
X244980Y-94960
X244980Y-97500
X252500Y-89920
X252500Y-92460
X252500Y-95000
X265000Y-93300
X265000Y-95840
X265000Y-98380
X265000Y-100920
X265000Y-103460
X265000Y-106000
X265000Y-110000
X265000Y-112540
X265000Y-115080
X265000Y-117620
X265000Y-120160
X265000Y-122700
X265000Y-125240
X265000Y-127780
T6
X169840Y-139500
X180000Y-139500
X192500Y-139500
X202660Y-139500
X217500Y-139500
X227660Y-139500
X242340Y-139500
X252500Y-139500
T7
X162430Y-102580
X163700Y-54320
X214500Y-69560
X214500Y-97500
X238630Y-54320
X244980Y-102580
T0
M30
